<svg width="382" height="628" viewBox="0 0 382 628" fill="none" xmlns="http://www.w3.org/2000/svg">
<path d="M0 22.743C0 15.6168 5.77698 9.83977 12.9032 9.83977H145.13C150.591 9.83977 155.845 7.74929 159.814 3.99741V3.99741C162.53 1.43033 166.125 0 169.861 0H211.853C215.904 0 219.827 1.41379 222.946 3.99741V3.99741C227.504 7.77345 233.238 9.83977 239.157 9.83977H369.033C376.159 9.83977 381.936 15.6167 381.936 22.743V599.088C381.936 606.214 376.159 611.991 369.033 611.991H337.431C334.121 611.991 330.937 613.264 328.538 615.546L319.716 623.938C317.317 626.22 314.133 627.493 310.822 627.493H71.6298C68.1751 627.493 64.8646 626.107 62.4396 623.647L54.7433 615.837C52.3183 613.377 49.0079 611.991 45.5531 611.991H12.9032C5.77697 611.991 0 606.214 0 599.088V22.743Z" fill="#111112"/>
<path d="M0 22.743C0 15.6168 5.77698 9.83977 12.9032 9.83977H145.13C150.591 9.83977 155.845 7.74929 159.814 3.99741V3.99741C162.53 1.43033 166.125 0 169.861 0H211.853C215.904 0 219.827 1.41379 222.946 3.99741V3.99741C227.504 7.77345 233.238 9.83977 239.157 9.83977H369.033C376.159 9.83977 381.936 15.6167 381.936 22.743V599.088C381.936 606.214 376.159 611.991 369.033 611.991H337.431C334.121 611.991 330.937 613.264 328.538 615.546L319.716 623.938C317.317 626.22 314.133 627.493 310.822 627.493H71.6298C68.1751 627.493 64.8646 626.107 62.4396 623.647L54.7433 615.837C52.3183 613.377 49.0079 611.991 45.5531 611.991H12.9032C5.77697 611.991 0 606.214 0 599.088V22.743Z" fill="#292C20"/>
</svg>
