<?xml version="1.0" encoding="UTF-8" standalone="no"?>
<!DOCTYPE svg PUBLIC "-//W3C//DTD SVG 1.1//EN" "http://www.w3.org/Graphics/SVG/1.1/DTD/svg11.dtd">
<svg width="100%" height="100%" viewBox="0 0 2961 2822" version="1.1" xmlns="http://www.w3.org/2000/svg" xmlns:xlink="http://www.w3.org/1999/xlink" xml:space="preserve" xmlns:serif="http://www.serif.com/" style="fill-rule:evenodd;clip-rule:evenodd;stroke-linejoin:round;stroke-miterlimit:2;">
    <path d="M422.833,2294.026C420.839,2237.809 424.11,2168.359 435.777,2082.408C511.691,1523.194 683.652,1332.818 768.602,1218.515C895.658,1047.555 908.119,1039.394 1156.923,855.859C1356.727,708.47 1582.146,686.246 1703.159,712.898C1765.169,726.555 1815.431,756.007 1855.307,797.031C1896.996,676.564 1945.68,560.174 1997.593,482.345C2195.54,185.578 2420.724,173.991 2561.242,280.833C2701.093,387.168 2746.328,588.31 2757.038,767.271C2767.303,938.79 2684.039,1077.19 2556.6,1194.182C2433.991,1306.74 2270.214,1399.487 2114.827,1484.356C2032.104,1529.538 1976.206,1558.531 1925.592,1581.929C1892.698,1703.798 1853.536,1769.874 1796.043,1844.592C1815.026,2119.421 1819.872,2124.651 1793.993,2187.286C1790.491,2195.762 1782.993,2201.935 1774.002,2203.744C1765.011,2205.553 1755.71,2202.762 1749.202,2196.3C1744.162,2191.296 1738.544,2182.978 1733.6,2170.748C1725.791,2151.426 1718.062,2119.015 1711.802,2074.164C1707.428,2042.824 1703.663,2005.052 1700.834,1961.149C1673.657,1989.392 1625.986,2029.178 1558.709,2045.388C1492.385,2061.368 1406.461,2055.209 1302.1,1990.148C1264.235,1966.542 1225.805,1914.958 1191.849,1853.178C1190.496,1850.715 1189.148,1848.236 1187.806,1845.742C1180.129,1863.391 1173.321,1879.395 1167.666,1891.972C1053.913,2144.996 949.571,2292.848 923.796,2339.855C893.728,2394.692 838.111,2491.712 768.262,2550.542C729.41,2583.264 686.071,2604.312 640.522,2604.356C594.867,2604.399 545.805,2583.887 496.355,2528.596C481.966,2512.507 447.989,2476.62 431.535,2382.221C384.277,2454.375 330.882,2530.452 272.761,2604.332C263.377,2616.26 246.073,2618.326 234.144,2608.942C222.216,2599.557 220.15,2582.254 229.534,2570.325C302.484,2477.597 367.869,2381.347 422.833,2294.026ZM1126.086,1849.977C1097.086,1856.238 1063.866,1863.547 1024.414,1872.613C1009.621,1876.013 994.852,1866.763 991.453,1851.971C988.053,1837.179 997.303,1822.41 1012.095,1819.011C1071.06,1805.46 1115.919,1795.895 1153.572,1787.879C1154.435,1785.993 1155.306,1784.101 1156.183,1782.204C1100.787,1662.734 1062.014,1536.869 1061.432,1535.408C1035.481,1470.258 1016.006,1430.382 1000.094,1408.267C997.334,1404.43 993.803,1400.697 991.206,1398.132C990.345,1399.112 989.483,1400.148 988.821,1401.065C886.603,1542.441 813.799,1702.756 647.048,2013.562C628.098,2048.883 567.684,2165.648 478.544,2308.637C485.879,2432.6 522.093,2474.87 537.351,2491.931C573.189,2532.001 607.382,2549.387 640.469,2549.356C673.66,2549.324 704.521,2532.319 732.831,2508.475C797.301,2454.175 847.817,2364.026 875.57,2313.412C901.125,2266.805 1004.718,2120.288 1117.503,1869.42C1120.128,1863.581 1122.998,1857.047 1126.086,1849.977ZM1696.98,1880.437C1694.988,1819.446 1694.616,1749.853 1696.431,1672.179C1656.049,1686.917 1608.88,1704.138 1551.643,1725.455C1531.82,1732.838 1513.44,1739.618 1496.305,1745.865C1495.072,1748.56 1493.839,1751.23 1492.609,1753.87C1472.099,1797.863 1451.224,1834.356 1430.328,1852.611C1413.81,1867.041 1396.395,1872.491 1378.893,1869.736C1363.661,1867.338 1346.76,1858.037 1330.189,1836.615C1328.451,1834.369 1327.072,1831.866 1326.1,1829.198C1325.021,1826.233 1323.596,1816.313 1322.153,1804.302C1293.204,1812.633 1267.248,1819.109 1239.378,1825.463C1239.601,1825.871 1239.825,1826.279 1240.049,1826.686C1268.659,1878.74 1299.294,1923.586 1331.198,1943.475C1418.677,1998.012 1490.23,2005.314 1545.826,1991.918C1628.506,1971.997 1674.66,1907.989 1683.149,1897.497C1687.859,1891.675 1692.469,1885.995 1696.98,1880.437ZM1859.353,1610.737C1835.923,1620.317 1811.558,1629.704 1784.064,1639.976C1791.181,1677.792 1794.142,1716.796 1795.254,1749.892C1820.25,1710.145 1840.964,1667.22 1859.353,1610.737ZM1895.52,847.33C1905.991,863.205 1915.426,880.128 1923.872,897.956C1986.749,1030.678 1993.578,1215.15 1966.516,1382.441C1958.57,1431.562 1950.556,1474.659 1942.244,1512.962C1982.25,1493.256 2028.132,1469.039 2088.463,1436.087C2239.938,1353.355 2399.883,1263.39 2519.405,1153.666C2634.099,1048.374 2711.374,924.922 2702.137,770.557C2692.358,607.162 2655.639,421.7 2527.952,324.615C2405.91,231.82 2215.269,255.117 2043.348,512.864C1988.819,594.616 1937.999,720.312 1895.52,847.33ZM479.089,2201.95C541.359,2096.993 583.418,2015.826 598.583,1987.56C767.077,1673.505 840.964,1511.693 944.25,1368.84C958.064,1349.734 974.355,1340.169 990.902,1340.28C1002.351,1340.356 1015.689,1344.662 1029.849,1358.489C1049.612,1377.787 1076.221,1423.907 1112.527,1515.055C1113.036,1516.331 1143.061,1614.404 1187.931,1718.597C1197.219,1701.711 1206.803,1686.012 1216.45,1672.815C1230.802,1653.181 1245.823,1638.639 1259.983,1631.04C1274.363,1623.324 1288.637,1621.529 1302.333,1625.255C1314.541,1628.576 1327.081,1636.64 1338.284,1652.51C1349.378,1668.224 1360.179,1693.763 1369.103,1732.108C1394.166,1723.85 1422.462,1714.039 1455.811,1702.033C1486.467,1633.833 1519.399,1555.925 1558.839,1510.869C1581.389,1485.108 1606.511,1469.21 1633.333,1465.908C1652.49,1463.55 1672.927,1467.248 1694.603,1479.665C1697.943,1481.578 1701.184,1483.659 1704.33,1485.898C1708.004,1424.826 1712.895,1360.163 1719.186,1292.074C1720.515,1277.686 1765.974,1070.2 1835.04,857.516C1799.686,812.572 1752.624,780.11 1691.329,766.61C1580.051,742.102 1373.305,764.587 1189.573,900.12C948.363,1078.052 935.924,1085.58 812.746,1251.322C730.313,1362.238 563.942,1547.163 490.278,2089.806C484.645,2131.296 481.048,2168.528 479.089,2201.95ZM1316.217,1748.691C1316.056,1747.249 1315.939,1746.332 1315.877,1746.059C1310.269,1721.578 1304.216,1703.499 1297.438,1690.918C1295.218,1686.798 1293.011,1683.418 1290.657,1680.826C1289.961,1680.059 1288.845,1679.146 1288.209,1678.645C1286.763,1679.392 1282.175,1681.835 1279.481,1684.139C1273.259,1689.461 1267.081,1696.75 1260.851,1705.273C1247.178,1723.978 1233.722,1748.029 1221.156,1773.227C1253.117,1766.003 1282.312,1758.705 1316.217,1748.691ZM1421.83,1772.38C1404.735,1778.282 1389.096,1783.522 1374.522,1788.239C1375.364,1796.176 1376.216,1803.049 1376.995,1807.159C1380.608,1811.593 1383.73,1814.656 1387.404,1815.397C1390.581,1816.038 1392.599,1812.706 1395.579,1809.882C1404.473,1801.454 1412.889,1788.452 1421.569,1772.851C1421.656,1772.694 1421.743,1772.537 1421.83,1772.38ZM1698.189,1613.018C1698.795,1596.137 1699.501,1578.916 1700.312,1561.359C1691.61,1546.96 1680.826,1535.158 1667.264,1527.389C1641.062,1512.379 1619.692,1524.854 1600.224,1547.095C1572.858,1578.357 1549.36,1626.756 1527.441,1675.777C1529.099,1675.16 1530.768,1674.539 1532.448,1673.914C1600.081,1648.725 1653.477,1629.338 1698.189,1613.018ZM1872.636,918.316C1813.377,1108.812 1775.152,1284.151 1773.952,1297.134C1765.562,1387.959 1759.675,1472.587 1755.861,1550.614C1761.365,1561.88 1766.186,1573.89 1770.37,1586.41C1810.54,1571.33 1844.148,1558.002 1878.716,1542.717C1890.439,1495.815 1901.392,1440.608 1912.222,1373.658C1933.347,1243.072 1933.376,1101.246 1898.592,985.656C1891.464,961.969 1882.862,939.394 1872.636,918.316Z"/>
</svg>
