<?xml version="1.0" encoding="UTF-8" standalone="no"?><!DOCTYPE svg PUBLIC "-//W3C//DTD SVG 1.1//EN" "http://www.w3.org/Graphics/SVG/1.1/DTD/svg11.dtd"><svg width="100%" height="100%" viewBox="0 0 2961 2822" version="1.1" xmlns="http://www.w3.org/2000/svg" xmlns:xlink="http://www.w3.org/1999/xlink" xml:space="preserve" xmlns:serif="http://www.serif.com/" style="fill-rule:evenodd;clip-rule:evenodd;stroke-linejoin:round;stroke-miterlimit:2;"><path id="_1" serif:id="1" d="M240.738,2595.749c-0.139,0.239 -0.445,0.32 -0.684,0.181c-0.239,-0.139 -0.32,-0.445 -0.181,-0.684c0,0 73.409,-126.274 172.585,-296.556c52.707,-90.497 112.692,-193.423 172.802,-296.431c160.172,-274.477 321.238,-549.527 347.899,-591.527c19.014,-29.954 36.424,-44.266 52.468,-45.41c9.695,-0.691 18.922,3.392 27.737,11.781c13.085,12.451 25.287,34.433 36.827,64.25c43.336,111.969 69.209,186.302 105.29,277.517c0.102,0.257 -0.024,0.547 -0.281,0.649c-0.257,0.102 -0.547,-0.024 -0.649,-0.281c-36.083,-91.218 -61.956,-165.552 -105.293,-277.524c-11.473,-29.642 -23.576,-51.509 -36.584,-63.887c-8.579,-8.164 -17.541,-12.18 -26.976,-11.508c-15.839,1.129 -32.924,15.377 -51.695,44.948c-26.66,41.998 -187.716,317.033 -347.88,591.495c-60.11,103.007 -120.095,205.933 -172.801,296.43c-99.175,170.281 -172.584,296.556 -172.584,296.556Z"/><path id="_2" serif:id="2" d="M1182.298,1781.599c-17.656,42.702 -35.258,90.619 -55.992,134.09c-107.012,224.353 -166.976,315.865 -214.002,394.097c-64.462,107.238 -121.215,183.823 -174.181,227.93c-53.118,44.232 -102.456,55.843 -151.945,33.077c-63.598,-29.256 -97.9,-85.484 -115.386,-147.462c-17.463,-61.898 -18.149,-129.528 -14.542,-181.674c33.72,-487.418 38.747,-510.136 229.936,-849.621c132.069,-234.51 331.741,-420.509 516.323,-530.031c76.988,-45.681 279.391,-145.861 458.342,-147.185c119.437,-0.884 228.432,42.239 282.846,174.832c24.21,58.993 30.875,147.012 24.272,248.065c-9.897,151.483 -49.594,332.269 -104.564,488.404c-36.654,104.109 -80.101,197.258 -126.029,263.462c-30.663,44.2 -62.444,76.395 -94.041,91.862c-127.558,62.442 -227.738,41.95 -303.357,-8.451c-77.134,-51.411 -128.698,-133.98 -157.679,-191.396Zm-0.591,-1.173c-15.44,-30.733 -24.337,-54.06 -27.156,-61.188c-0.102,-0.257 0.024,-0.547 0.281,-0.649c0.257,-0.102 0.547,0.024 0.649,0.281c2.792,7.058 11.55,30.028 26.73,60.342c10.849,-26.136 21.736,-50.25 33.398,-70.105c20.744,-35.317 43.985,-57.157 73.715,-53.224c0.274,0.036 0.466,0.288 0.43,0.561c-0.036,0.274 -0.288,0.466 -0.561,0.43c-29.374,-3.886 -52.225,17.845 -72.721,52.739c-11.761,20.023 -22.732,44.379 -33.671,70.772c28.849,57.341 80.415,140.244 157.731,191.776c75.37,50.235 175.223,70.622 302.363,8.385c31.477,-15.409 63.113,-47.503 93.659,-91.534c45.886,-66.143 89.287,-159.21 125.907,-263.224c54.941,-156.049 94.618,-336.736 104.51,-488.137c6.591,-100.87 -0.033,-188.733 -24.199,-247.62c-54.231,-132.147 -162.878,-175.093 -281.913,-174.212c-178.758,1.323 -380.934,101.413 -457.839,147.045c-184.453,109.445 -383.985,295.315 -515.962,529.661c-191.093,339.315 -196.106,362.025 -229.81,849.2c-3.601,52.048 -2.924,119.551 14.507,181.333c17.408,61.702 51.528,117.701 114.842,146.825c49.151,22.61 98.133,10.992 150.888,-32.937c52.905,-44.055 109.577,-120.563 173.964,-227.676c47.016,-78.215 106.967,-169.707 213.956,-394.012c20.855,-43.723 38.544,-91.941 56.304,-134.832Z"/><path id="_3" serif:id="3" d="M1289.192,1656.874c-0.274,-0.036 -0.466,-0.288 -0.43,-0.561c0.036,-0.274 0.288,-0.466 0.561,-0.43c18.952,2.507 29.04,15 34.759,32.588c5.666,17.425 7.031,39.874 8.58,62.457c1.479,21.57 3.125,43.263 8.901,60.78c5.719,17.345 15.491,30.583 33.251,35.444c37.788,-8.597 65.817,-35.733 88.218,-71.402c33.733,-53.715 54.698,-126.771 76.825,-185.317c12.324,-32.606 25.015,-60.718 40.447,-78.528c15.55,-17.945 33.876,-25.487 57.38,-16.799c31.143,11.511 54.594,47.868 71.264,102.26c38.773,126.509 41.054,350.689 19.733,585.348c-0.025,0.275 -0.268,0.478 -0.543,0.453c-0.275,-0.025 -0.478,-0.268 -0.453,-0.543c21.307,-234.505 19.054,-458.539 -19.693,-584.965c-16.553,-54.009 -39.731,-90.184 -70.654,-101.615c-23.057,-8.523 -41.024,-1.088 -56.278,16.516c-15.371,17.739 -27.993,45.75 -40.267,78.227c-22.149,58.603 -43.147,131.727 -76.914,185.495c-22.576,35.948 -50.861,63.249 -88.965,71.873c-0.08,0.018 -0.162,0.016 -0.241,-0.005c-18.181,-4.928 -28.215,-18.407 -34.058,-36.129c-5.799,-17.588 -7.464,-39.367 -8.949,-61.025c-1.542,-22.495 -2.889,-44.858 -8.533,-62.216c-5.591,-17.195 -15.41,-29.454 -33.939,-31.906Z"/><path id="_4" serif:id="4" d="M1728.683,2182.66c0.004,0.276 -0.217,0.503 -0.493,0.507c-0.276,0.004 -0.503,-0.217 -0.507,-0.493c-1.919,-135.315 -9.564,-364.386 1.536,-722.468c5.201,-167.783 99.25,-641.036 185.026,-809.287c175.344,-343.941 586.742,-401.191 729.2,-130.204c68.27,129.865 109.282,235.815 93.387,343.225c-15.894,107.404 -88.688,216.298 -248.149,352.028c-0.21,0.179 -0.526,0.153 -0.705,-0.057c-0.179,-0.21 -0.153,-0.526 0.057,-0.705c159.202,-135.51 231.94,-244.184 247.808,-351.413c15.867,-107.223 -25.131,-212.973 -93.283,-342.613c-142.121,-270.346 -552.494,-212.935 -727.424,130.193c-85.73,168.162 -179.719,641.169 -184.917,808.863c-11.1,358.06 -3.454,587.116 -1.536,722.423Z"/><path id="_5" serif:id="5" d="M2488.034,1215.207c0.21,-0.179 0.526,-0.153 0.705,0.057c0.179,0.21 0.153,0.526 -0.057,0.705c-135.066,114.965 -275.291,230.239 -718.092,415.109c-270.648,112.996 -493.022,168.56 -727.136,212.799c-0.271,0.051 -0.533,-0.127 -0.584,-0.398c-0.051,-0.271 0.127,-0.533 0.398,-0.584c234.049,-44.227 456.362,-99.774 726.936,-212.739c442.637,-184.801 582.814,-300.025 717.829,-414.947Z"/></svg>