<?xml version="1.0" encoding="UTF-8" standalone="no"?>
<!DOCTYPE svg PUBLIC "-//W3C//DTD SVG 1.1//EN" "http://www.w3.org/Graphics/SVG/1.1/DTD/svg11.dtd">
<svg width="100%" height="100%" viewBox="0 0 2504 2250" version="1.1" xmlns="http://www.w3.org/2000/svg" xmlns:xlink="http://www.w3.org/1999/xlink" xml:space="preserve" xmlns:serif="http://www.serif.com/" style="fill-rule:evenodd;clip-rule:evenodd;stroke-linejoin:round;stroke-miterlimit:2;">
    <path id="_5" serif:id="5" d="M2248.827,865.74C2249.752,864.953 2251.142,865.064 2251.929,865.989C2252.716,866.914 2252.604,868.303 2251.679,869.09C2116.528,984.128 1976.222,1099.486 1533.14,1284.473C1262.366,1397.522 1039.889,1453.114 805.666,1497.374C804.472,1497.599 803.321,1496.814 803.095,1495.621C802.87,1494.427 803.655,1493.276 804.849,1493.05C1038.788,1448.844 1260.998,1393.325 1531.445,1280.413C1973.802,1095.728 2113.897,980.59 2248.827,865.74Z"/>
    <path id="_4" serif:id="4" d="M1492.277,1834.464C1492.295,1835.678 1491.323,1836.677 1490.109,1836.694C1488.895,1836.712 1487.895,1835.74 1487.878,1834.526C1485.959,1699.196 1478.313,1470.101 1489.414,1111.981C1494.62,944.048 1588.773,470.375 1674.625,301.975C1850.673,-43.348 2263.814,-100.323 2406.844,171.751C2475.316,302 2516.35,408.289 2500.408,516.016C2484.471,623.717 2411.58,732.985 2251.679,869.09C2250.755,869.877 2249.365,869.766 2248.578,868.841C2247.791,867.916 2247.903,866.527 2248.827,865.74C2407.589,730.604 2480.232,622.305 2496.056,515.372C2511.876,408.466 2470.9,303.055 2402.95,173.799C2261.401,-95.459 1852.77,-37.773 1678.545,303.973C1592.891,471.984 1499.006,944.572 1493.812,1112.117C1482.714,1470.139 1490.359,1699.171 1492.277,1834.464Z"/>
    <path id="_3" serif:id="3" d="M1050.864,1310.387C1049.661,1310.228 1048.813,1309.121 1048.972,1307.917C1049.131,1306.714 1050.238,1305.866 1051.441,1306.025C1071.113,1308.627 1081.658,1321.517 1087.594,1339.772C1093.297,1357.312 1094.694,1379.906 1096.253,1402.638C1097.721,1424.06 1099.336,1445.606 1105.072,1463.002C1110.558,1479.64 1119.835,1492.433 1136.749,1497.225C1173.893,1488.621 1201.425,1461.801 1223.486,1426.672C1257.163,1373.047 1278.071,1300.105 1300.161,1241.658C1312.568,1208.832 1325.377,1180.548 1340.914,1162.618C1356.966,1144.092 1375.904,1136.369 1400.168,1145.338C1431.684,1156.987 1455.598,1193.651 1472.468,1248.694C1511.284,1375.344 1513.614,1599.773 1492.269,1834.694C1492.159,1835.903 1491.088,1836.796 1489.879,1836.686C1488.669,1836.576 1487.777,1835.505 1487.887,1834.296C1509.17,1600.053 1506.965,1376.267 1468.261,1249.983C1451.908,1196.625 1429.194,1160.757 1398.643,1149.465C1376.346,1141.223 1358.99,1148.476 1344.239,1165.499C1328.972,1183.119 1316.469,1210.957 1304.277,1243.214C1282.09,1301.916 1261.036,1375.153 1227.213,1429.012C1204.38,1465.369 1175.721,1492.917 1137.183,1501.639C1136.833,1501.719 1136.468,1501.711 1136.122,1501.617C1117.351,1496.53 1106.926,1482.676 1100.893,1464.38C1095.055,1446.671 1093.358,1424.745 1091.863,1402.939C1090.331,1380.593 1089.016,1358.375 1083.41,1341.133C1078.036,1324.606 1068.673,1312.743 1050.864,1310.387Z"/>
    <path id="_2" serif:id="2" d="M944.354,1437.471C927.157,1479.323 909.935,1525.898 889.735,1568.248C782.684,1792.683 722.699,1884.228 675.656,1962.489C611.067,2069.939 554.177,2146.656 501.106,2190.849C447.37,2235.595 397.427,2247.195 347.362,2224.164C283.281,2194.686 248.669,2138.069 231.05,2075.619C213.531,2013.523 212.829,1945.679 216.448,1893.367C250.197,1405.534 255.248,1382.802 446.599,1043.028C578.825,808.24 778.734,622.022 963.536,512.37C1040.666,466.605 1243.452,366.274 1422.733,364.947C1542.854,364.058 1652.438,407.482 1707.164,540.834C1731.448,600.008 1738.182,688.292 1731.56,789.655C1721.653,941.279 1681.924,1122.233 1626.902,1278.512C1590.191,1382.783 1546.667,1476.072 1500.667,1542.379C1469.804,1586.866 1437.779,1619.231 1405.976,1634.799C1277.707,1697.589 1176.969,1676.918 1100.929,1626.236C1024.98,1575.615 973.725,1494.896 944.354,1437.471ZM941.746,1432.321C926.48,1401.863 917.671,1378.784 914.865,1371.691C914.419,1370.561 914.973,1369.282 916.102,1368.836C917.231,1368.389 918.51,1368.943 918.957,1370.072C921.639,1376.852 929.84,1398.368 943.97,1426.97C954.38,1402.071 964.853,1379.115 976.038,1360.073C997.205,1324.037 1021.106,1302.012 1051.441,1306.025C1052.645,1306.184 1053.493,1307.291 1053.334,1308.494C1053.175,1309.698 1052.068,1310.546 1050.864,1310.387C1022.095,1306.581 999.905,1328.127 979.832,1362.302C968.21,1382.087 957.362,1406.109 946.553,1432.145C975.368,1489.28 1026.639,1571.433 1103.369,1622.575C1178.318,1672.529 1277.614,1692.736 1404.042,1630.847C1435.313,1615.539 1466.705,1583.615 1497.052,1539.871C1542.866,1473.831 1586.189,1380.903 1622.752,1277.051C1677.642,1121.147 1717.286,940.628 1727.169,789.368C1733.739,688.808 1727.185,601.21 1703.093,542.504C1649.174,411.116 1541.117,368.471 1422.765,369.347C1244.337,370.667 1042.544,470.607 965.781,516.154C781.546,625.469 582.253,811.12 450.433,1045.188C259.502,1384.214 254.513,1406.91 220.838,1893.67C217.249,1945.551 217.91,2012.84 235.285,2074.425C252.559,2135.655 286.371,2191.265 349.201,2220.167C397.777,2242.512 446.153,2230.883 498.29,2187.468C551.091,2143.5 607.625,2067.124 671.885,1960.222C718.884,1882.035 778.814,1790.577 885.764,1566.354C906.489,1522.903 924.094,1475.017 941.746,1432.321Z"/>
    <path id="_1" serif:id="1" d="M2.2,2247.325C2.2,2247.325 75.609,2121.05 174.784,1950.769C227.491,1860.272 287.476,1757.346 347.586,1654.338C507.754,1379.869 668.815,1104.826 695.476,1062.827C742.708,988.421 779.657,1010.779 811.619,1093.361C854.956,1205.331 880.829,1279.665 916.911,1370.881" style="fill:none;stroke:black;stroke-width:4.4px;stroke-linecap:round;stroke-miterlimit:1.5;"/>
</svg>
