<?xml version="1.0" encoding="UTF-8" standalone="no"?>
<!DOCTYPE svg PUBLIC "-//W3C//DTD SVG 1.1//EN" "http://www.w3.org/Graphics/SVG/1.1/DTD/svg11.dtd">
<svg width="100%" height="100%" viewBox="0 0 2961 2822" version="1.1" xmlns="http://www.w3.org/2000/svg" xmlns:xlink="http://www.w3.org/1999/xlink" xml:space="preserve" xmlns:serif="http://www.serif.com/" style="fill-rule:evenodd;clip-rule:evenodd;stroke-linejoin:round;stroke-miterlimit:2;">
    <path d="M429.065,2274.602C426.126,2046.926 498.46,1819.814 509.479,1781.581L549.448,1642.734C549.606,1642.185 549.783,1641.641 549.979,1641.104C647.673,1372.545 713.447,1263.779 946.125,1025.536C1017.753,952.195 1174.566,822.176 1354.822,751.401C1477.837,703.102 1611.587,682.537 1737.253,723.377C1772.961,734.981 1804.162,749.666 1831.348,766.884C1887.141,597.917 2003.585,452.9 2137.011,375.358C2293.224,284.574 2472.156,284.401 2608.992,438.974C2815.029,671.719 2810.28,962.858 2597.776,1151.107C2340.233,1379.255 1976.188,1581.72 1902.815,1605.853C1901.994,1606.123 1901.174,1606.393 1900.355,1606.662C1865.261,1706.788 1828.403,1784.348 1791.55,1844.366C1802.722,1925.236 1806.253,2004.95 1801.927,2068.04C1798.166,2122.878 1787.778,2165.888 1772.9,2188.999C1762.887,2204.552 1750.391,2213.188 1737.113,2216.044C1722.261,2219.238 1712.121,2215.541 1705.014,2209.884C1697.05,2203.545 1690.26,2191.012 1691.423,2169.706C1693.223,2136.737 1712.969,2064.544 1709.142,1952.169C1608.898,2054.155 1519.092,2048.5 1478.4,2045.069C1333.531,2032.857 1245.521,1948.212 1183.954,1839.99C1114.735,1983.732 1017.208,2205.748 850.885,2448.237C772.122,2563.069 694.806,2599.472 631.143,2597.985C531.794,2595.664 459.179,2499.355 444.928,2430.596C440.19,2407.739 436.63,2384.408 434.089,2360.821C382.616,2442.152 329.18,2521.773 274.408,2596.61C266.259,2607.744 250.603,2610.168 239.469,2602.019C228.334,2593.869 225.911,2578.214 234.06,2567.079C301.494,2474.942 366.886,2375.525 429.065,2274.602ZM1124.676,1848.283C1104.282,1851.815 1082.116,1855.51 1057.751,1859.462C1044.131,1861.671 1031.28,1852.407 1029.071,1838.787C1026.862,1825.167 1036.126,1812.316 1049.746,1810.107C1088.717,1803.786 1122.01,1798.122 1151.407,1792.726C1152.76,1789.975 1154.102,1787.257 1155.435,1784.572C1148.104,1768.901 1141.173,1752.94 1134.564,1736.815C1098.96,1649.946 1072.683,1558.678 1041.297,1485.789C1025.023,1447.994 1007.676,1415.307 986.175,1391.936C978.281,1401.779 965.255,1418.774 954.051,1436.945C865.615,1580.375 691.546,1941.59 479.121,2288.466C480.473,2333.156 485.019,2377.662 493.887,2420.448C504.601,2472.138 557.625,2546.254 632.31,2547.998C684.678,2549.221 744.864,2514.413 809.652,2419.956C962.834,2196.625 1057.052,1990.729 1124.676,1848.283ZM1704.087,1882.621C1698.261,1824.825 1690.95,1763.108 1690.679,1677.128C1606.457,1706.093 1542.532,1728.95 1490.494,1747.547C1472.689,1782.515 1455.314,1812.85 1438.915,1831.528C1408.35,1866.341 1383.466,1871.617 1367.817,1867.641C1354.193,1864.18 1342.442,1853.724 1334.785,1836.434C1330.804,1827.443 1327.871,1816.021 1325.612,1803.649C1296.273,1812.39 1267.388,1819.892 1234.124,1827.216C1287.239,1916.095 1361.731,1985.057 1482.6,1995.246C1522.59,1998.617 1608.762,2000.426 1704.087,1882.621ZM1840.117,1626.595C1808.101,1637.25 1778.268,1647.281 1750.395,1656.734C1754.961,1671.046 1759.237,1685.777 1763.214,1700.821C1768.88,1722.259 1773.96,1744.332 1778.448,1766.702C1799.136,1727.109 1819.81,1680.781 1840.117,1626.595ZM1873.772,798.482C1949.075,864.262 1983.615,954.315 1995.145,1048.966C2011.45,1182.817 1980.552,1325.966 1957.118,1417.218C1945.429,1462.735 1933.386,1504.986 1921.071,1544.203C2036.412,1490.329 2341.299,1311.513 2564.621,1113.68C2756.054,944.097 2757.161,681.783 2571.554,472.116C2452.918,338.103 2297.569,339.879 2162.135,418.588C2034.055,493.023 1923.297,634.733 1873.772,798.482ZM480.951,2188.866C673.162,1865.77 829.334,1543.949 911.491,1410.703C934.417,1373.521 953.223,1349.982 965.367,1341.766C982.53,1330.153 996.518,1333.556 1006.597,1342.21C1038.816,1369.875 1064.535,1413.33 1087.221,1466.015C1118.71,1539.143 1145.108,1630.698 1180.829,1717.853C1182.216,1721.238 1183.617,1724.617 1185.034,1727.989C1198.55,1703.894 1211.1,1684.473 1223.059,1670.332C1246.71,1642.366 1270.666,1632.53 1293.283,1636.643C1313.401,1640.301 1335.982,1657.021 1358.358,1693.741C1361.622,1699.097 1364.817,1709.599 1366.586,1723.531C1367.135,1727.856 1367.619,1732.654 1368.091,1737.765C1393.887,1729.093 1421.914,1719.161 1454.859,1707.382C1461.892,1692.958 1469.015,1677.92 1476.224,1662.813C1504.544,1603.464 1533.941,1543.04 1562.533,1508.792C1582.723,1484.608 1604.298,1472.52 1623.922,1472.644C1639.231,1472.74 1655.047,1479.17 1669.867,1496.381C1679.078,1507.078 1687.862,1519.332 1696.199,1532.903C1707.706,1378.982 1739.483,1163.136 1812.378,835.605C1813.717,829.588 1815.135,823.593 1816.63,817.622C1790.117,798.775 1758.754,782.939 1721.799,770.929C1607.18,733.679 1485.297,753.889 1373.096,797.942C1200.53,865.697 1050.468,990.259 981.896,1060.472C756.149,1291.617 691.98,1397.152 597.259,1657.393L557.526,1795.419L557.524,1795.426C548.229,1827.676 492.895,1999.406 480.951,2188.866ZM1319.351,1753.402C1319.168,1751.414 1318.989,1749.453 1318.813,1747.523C1317.732,1735.647 1315.329,1720.832 1314.966,1718.625C1307.662,1706.769 1300.842,1697.774 1294.031,1691.702C1290.395,1688.46 1287.241,1686.038 1283.728,1685.756C1277.661,1685.268 1272.734,1690.376 1266.471,1696.82C1254.919,1708.708 1243.095,1726.719 1230.047,1749.779C1224.693,1759.242 1219.18,1769.497 1213.477,1780.496C1252.818,1772.097 1285.631,1763.608 1319.351,1753.402ZM1420.037,1772.571C1403.525,1778.352 1388.185,1783.624 1373.515,1788.497C1374.216,1792.896 1375.011,1797.179 1375.926,1801.263C1377.07,1806.37 1379.48,1812.535 1381.152,1816.493C1385.856,1813.112 1394.285,1806.577 1401.342,1798.539C1407.484,1791.544 1413.717,1782.736 1420.037,1772.571ZM1686.477,1625.744C1671.04,1586.82 1652.937,1553.347 1631.978,1529.006C1629.283,1525.876 1626.979,1523.462 1624.214,1522.728C1621.344,1521.965 1618.864,1524.122 1615.921,1526.203C1610.916,1529.741 1605.973,1534.777 1600.916,1540.835C1574.488,1572.492 1547.962,1628.57 1521.781,1683.442C1566.991,1667.314 1620.596,1648.364 1686.477,1625.744ZM1859.355,854.701C1776.562,1228.121 1748.238,1453.032 1742.184,1606.743C1778.407,1594.468 1817.932,1581.227 1861.238,1566.913C1877.439,1518.479 1893.319,1464.635 1908.689,1404.782C1930.951,1318.091 1961.001,1182.171 1945.512,1055.012C1936.498,981.019 1911.63,910.02 1859.355,854.701Z" style="fill:rgb(242,13,94);"/>
</svg>
