<svg xmlns:xlink="http://www.w3.org/1999/xlink" viewBox="0 0 83.29 98.21" style="shape-rendering:geometricPrecision; text-rendering:geometricPrecision; image-rendering:optimizeQuality; fill-rule:evenodd; clip-rule:evenodd" version="1.1" height="1.56634in" width="1.32835in" xml:space="preserve" xmlns="http://www.w3.org/2000/svg">
 <defs>
  <style type="text/css">
   
    .fil1 {fill:#2D2A2B;fill-rule:nonzero}
    .fil0 {fill:#2D2A2B;fill-rule:nonzero}
    .fil2 {fill:#F063A1;fill-rule:nonzero}
   
  </style>
 </defs>
 <g id="Layer_x0020_1">
  <metadata id="CorelCorpID_0Corel-Layer"></metadata>
  <path d="M82.7 21.04c-0.94,-1.78 -2.68,-3.38 -4.73,-3.72 -1.42,-0.25 -2.9,0.21 -4.33,0.7 -1.72,0.58 -3.44,1.17 -5.15,1.75 -1.56,0.62 -2.7,0.02 -3.33,-1.47 -0.66,-1.36 -1.32,-2.69 -1.93,-4.08 -0.74,-1.6 -1.01,-3.19 -1.53,-4.82 -1.39,-3.96 -4.13,-7.29 -7.87,-8.96 -2.89,-1.26 -6.08,0.46 -8.76,1.72 -1.17,0.55 -2.29,1.12 -3.43,1.11 -1.18,0.01 -2.23,-0.58 -3.4,-1.14 -2.12,-0.94 -4.32,-2.2 -6.68,-2.1 -4.27,0.32 -7.68,4.35 -9.45,8.1 -0.9,2.18 -1.09,4.55 -2.28,6.63 -3.88,7.94 -2.24,5.36 -11.69,2.73 -3.94,-1.27 -7.16,0.57 -8.04,4.65 -0.48,2.48 0.47,4.98 1.39,7.26 1.64,4.13 3.64,5.79 7.6,7.45 0.96,0.53 1.35,1.5 1.49,2.52 0.16,1.06 0.4,2.2 0.56,3.33 0.25,1.71 0.12,3.44 0.23,5.16 0.46,6.89 5.33,11.92 10.43,16.12 0.56,0.46 1.13,0.99 1.47,1.6 0.43,0.73 0.51,1.61 0.51,2.45 0.02,3.51 0.11,7.29 0.49,10.95 0.13,2.34 1.27,4.79 3.67,5.49 1.78,0.66 3.76,-0.41 5.44,0.56 4.45,2.05 0.67,8.06 4.3,11.38 1.79,1.52 4.56,2.36 6.75,1.33 4.19,-2.04 2.78,-6.89 3.45,-10.53 0.42,-1.46 1.96,-2.32 3.41,-2.53 1.31,-0.2 2.85,0.05 4.1,-0.44 1.47,-0.47 2.6,-1.69 3.09,-3.19 1.49,-4.6 0.97,-9.53 1.24,-14.28 0.16,-1.21 0.93,-2.12 1.85,-2.87 4.69,-4.02 9.57,-8.93 10.37,-15.18 0.14,-2.32 0.12,-4.56 0.37,-6.9 0.17,-4.98 0.94,-4.52 4.88,-6.55 3.82,-2.35 7.5,-10.14 5.51,-14.21l-0.02 -0.04z" class="fil0"></path>
  <path d="M51.65 60.14c0,0 0,0 0,0 0.12,0.03 0.23,0.06 0.35,0.1 -0.12,-0.03 -0.23,-0.06 -0.35,-0.1zm-0.19 5.9c-0.02,-0.02 -0.05,-0.05 -0.07,-0.07 -0.02,0.05 -0.05,0.09 -0.07,0.14 -0.02,0.28 -0.03,0.55 -0.05,0.83 -0.05,-0 -0.1,-0 -0.15,-0.01 0.06,-1.18 0.12,-2.36 0.19,-3.54 0.04,0.5 0.08,1 0.12,1.49 0.02,0.22 0.03,0.44 0.05,0.66 0,-0 0,-0 0,-0 -0,0.17 -0.01,0.33 -0.01,0.5zm-38.6 -41.18c0.04,0.01 0.09,0.02 0.14,0.03 -0.05,-0.01 -0.09,-0.02 -0.14,-0.03zm-1.42 -0.06c0.01,-0.07 0.01,-0.14 0.02,-0.21 0.39,0.07 0.77,0.14 1.16,0.21 0,0 0,0 0,0l-1.18 0zm66.04 -1.87c-0.05,-0.82 -0.08,-0.84 -0.89,-0.53 -0.18,0.07 -0.35,0.18 -0.53,0.24 -1.17,0.36 -2.35,0.68 -3.51,1.06 -0.95,0.31 -1.88,0.7 -2.82,1.05 -0.46,0.17 -0.92,0.32 -1.39,0.46 -1.18,0.34 -2.36,0.74 -3.56,0.99 -1.74,0.35 -3.5,0.59 -5.26,0.88 -1.23,0.2 -2.46,0.54 -3.7,0.58 -2,0.07 -4,-0.05 -6,-0.09 -1.78,-0.04 -3.56,-0.1 -5.34,-0.14 -0.34,-0.01 -0.74,-0.1 -0.92,0.37 -0.03,0.07 -0.3,0.05 -0.46,0.07 -0.22,-0.12 -0.44,-0.24 -0.66,-0.35 -0.14,-0.07 -0.25,-0.15 -0.28,-0.23 -0.03,0.08 -0.05,0.16 -0.08,0.24 -0.4,-0.11 -0.81,-0.25 -1.22,-0.3 -0.15,-0.02 -0.32,0.17 -0.48,0.27 -0.12,-0.04 -0.24,-0.11 -0.36,-0.1 -0.15,0.01 -0.29,0.08 -0.43,0.12 0.03,-0.02 0.06,-0.05 0.08,-0.08 0,-0 -0.02,-0.05 -0.03,-0.05 -0.34,0.01 -0.68,0.02 -1.02,0.04 0.05,-0.09 0.1,-0.19 0.14,-0.28 -0,-0 -0,-0 -0.01,-0 -0.05,-0.01 -0.1,-0.03 -0.15,-0.04 -0,0.01 -0,0.03 -0.01,0.04 -0.02,0.14 -0.05,0.28 -0.07,0.41 -1.33,-0.25 -4.35,-0.02 -4.61,0.37l2.64 0c0,0.06 0,0.11 0,0.17 -1.72,0.06 -3.42,0.48 -5.15,0.3 -0,-0.09 -0,-0.18 -0.01,-0.27l2.46 0c0.02,-0.07 0.03,-0.15 0.04,-0.22 -0.15,-0.07 -0.3,-0.19 -0.45,-0.19 -1.34,0.02 -2.69,0.14 -4.02,0.08 -1.64,-0.08 -3.27,-0.29 -4.9,-0.46 -0.53,-0.06 -1.06,-0.17 -1.59,-0.29 -0.84,-0.18 -1.66,-0.4 -2.5,-0.56 -1.74,-0.35 -3.49,-0.65 -5.23,-1.01 -0.43,-0.09 -0.88,-0.23 -1.23,-0.47 -0.28,-0.19 -0.44,-0.32 -0.77,-0.1 -0.05,0.04 -0.13,0.03 -0.22,0.02 -0.1,-0.22 -0.14,-0.43 -0.25,-0.48 -0.49,-0.23 -0.99,-0.43 -1.5,-0.6 -0.99,-0.32 -1.98,-0.6 -2.97,-0.92 -0.86,-0.28 -1.72,-0.59 -2.64,-0.91 0.11,0.38 0.2,0.67 0.3,1.01l-0.92 0c0.08,0.57 0.11,1.09 0.22,1.59 0.1,0.5 0.25,1 0.42,1.47 0.29,0.79 0.57,1.59 0.95,2.34 0.38,0.76 0.86,1.47 1.31,2.19 0.08,0.12 0.24,0.22 0.38,0.28 0.37,0.15 0.89,0.15 1.09,0.41 0.36,0.47 0.83,0.54 1.32,0.66 0.27,0.07 0.54,0.13 0.79,0.23 1.16,0.47 2.31,0.94 3.45,1.44 0.13,0.06 0.27,0.24 0.28,0.38 0.13,1.22 0.24,2.43 0.34,3.65 0.04,0.49 -0.09,1.06 0.11,1.46 0.57,1.15 0.43,2.4 0.65,3.59 0.2,1.07 0.23,2.16 0.34,3.25 0.06,0.56 0.15,1.12 0.23,1.68 -0.05,0.01 -0.11,0.01 -0.16,0.02 -0.05,-0.3 -0.09,-0.6 -0.14,-0.9 -0.05,-0.29 -0.1,-0.58 -0.16,-0.87 -0.16,1.76 0.24,3.42 0.74,5.07 0.5,1.64 1.85,2.67 2.68,4.09 0.03,-0.17 -0.01,-0.29 -0.07,-0.4 -0.32,-0.57 -0.69,-1.11 -0.96,-1.7 -0.45,-0.99 -0.86,-2.01 -1.25,-3.02 -0.09,-0.23 -0.05,-0.51 -0.07,-0.77 0.07,-0.01 0.14,-0.01 0.2,-0.02 0.1,0.32 0.18,0.65 0.31,0.95 0.79,1.71 1.6,3.4 2.39,5.1 0.2,0.42 0.29,0.93 0.59,1.25 0.78,0.81 1.65,1.55 2.5,2.29 0.51,0.45 1.03,0.87 1.57,1.28 0.4,0.3 0.83,0.54 1.18,0.76 0.01,-0 -0.11,0.05 -0.32,0.14 0.67,0.43 1.27,0.79 1.84,1.2 0.36,0.26 0.86,0.54 0.95,0.9 0.18,0.67 0.13,1.4 0.14,2.1 0.01,0.84 -0.07,1.69 -0.04,2.53 0.08,3.04 0.18,6.08 0.31,9.13 0.04,0.94 0.2,1.88 0.32,2.99 0.79,-0.72 1.27,-1.78 2.35,-0.92 0.12,-0.55 0.02,-1.14 0.28,-1.78 0.29,-0.71 0.42,-1.58 0.51,-2.37 0.2,-1.69 0.12,-3.41 0.1,-5.12 -0.02,-1.7 -0.08,-3.41 -0.18,-5.11 -0.04,-0.64 0.16,-1.4 -0.64,-1.91 0.1,1.74 0.2,3.42 0.3,5.1 -0.12,-0.1 -0.16,-0.21 -0.17,-0.32 -0.09,-1.29 -0.18,-2.58 -0.25,-3.87 -0.03,-0.63 -0.16,-1.3 -0.01,-1.88 0.2,-0.74 -0.03,-1.4 -0.46,-1.79 -0.43,-0.39 -0.94,-0.7 -1.46,-0.99 0.03,-0.02 0.05,-0.05 0.08,-0.08 -0.09,-0.08 -0.15,-0.16 -0.2,-0.16 -0.04,0 -0.1,0.05 -0.13,0.09 -0.22,-0.12 -0.44,-0.24 -0.65,-0.37 -0.44,-0.26 -0.91,-0.48 -1.36,-0.74 -0.65,-0.38 -0.96,-1.14 -1.68,-1.48 -0.37,-0.17 -0.7,-0.48 -0.98,-0.79 -0.53,-0.59 -1.05,-1.2 -1.52,-1.83 -0.48,-0.64 -0.99,-1.27 -1.33,-1.98 -0.53,-1.11 -1.02,-2.27 -1.36,-3.45 -0.37,-1.32 -0.66,-2.69 -0.79,-4.05 -0.26,-2.81 0.44,-5.5 1.46,-8.1 0.34,-0.88 0.92,-1.67 1.43,-2.47 0.1,-0.16 0.39,-0.28 0.6,-0.29 0.38,-0.03 0.78,0.03 1.16,0.06 1.02,0.09 2.05,0.2 3.07,0.26 1.19,0.07 2.38,0.12 3.58,0.15 1.19,0.02 2.38,0.05 3.56,-0.01 1.51,-0.07 3.01,-0.32 4.51,-0.33 2.48,-0.03 4.96,0.05 7.44,0.12 1.37,0.04 2.73,0.19 4.1,0.21 1.52,0.02 3.05,-0.04 4.57,-0.11 1.31,-0.06 2.62,-0.2 3.94,-0.27 0.3,-0.02 0.72,-0.04 0.89,0.13 0.96,0.97 1.85,1.99 2.08,3.41 0.08,0.49 0.2,0.93 0.49,1.39 0.34,0.54 0.32,1.3 0.47,1.96 0.06,0.29 0.31,0.66 0.21,0.83 -0.02,0.04 -0.04,0.07 -0.06,0.11 -0.04,-0.03 -0.07,-0.05 -0.11,-0.08 -0.03,0.04 -0.09,0.1 -0.08,0.13 0.02,0.05 0.07,0.09 0.11,0.14 -0.16,0.53 0.08,1.04 0.09,1.55 0.03,1.46 -0.25,2.86 -0.55,4.26 -0.19,0.88 -0.38,1.78 -0.76,2.58 -0.55,1.16 -1.27,2.23 -1.9,3.35 -0.81,1.44 -2.05,2.5 -3.24,3.58 -0.88,0.8 -1.94,1.39 -2.92,2.07 -0.05,-0.03 -0.1,-0.06 -0.15,-0.08 -0.05,0.12 -0.09,0.23 -0.14,0.35 -0.1,-0.12 -0.2,-0.24 -0.33,-0.38 -0.16,0.26 -0.29,0.47 -0.41,0.67 -0.66,0.07 -0.93,0.68 -1.42,0.99 -0,-0 -0,-0 -0,-0 0,0 -0,0.01 -0,0 0,0 0,0 0,0 -0.14,0.26 -0.27,0.51 -0.41,0.77 -0.02,0.06 -0.04,0.12 -0.07,0.18 -0.08,0.21 -0.19,0.42 -0.24,0.64 -0.19,0.9 0.11,1.81 -0.19,2.76 -0.27,0.86 -0.15,1.85 -0.17,2.79 -0.01,0.55 0.05,1.1 0.05,1.64 0.02,1.33 -0.04,2.66 0.06,3.98 0.08,1.02 -0.22,2.02 0.32,3.09 0.43,0.87 0.29,2.03 0.42,3.21 0.39,-0.82 1.2,-0.87 1.66,-0.26 0.17,0.22 0.34,0.45 0.52,0.67 0.06,-0.02 0.12,-0.04 0.18,-0.06 0.15,-0.88 0.31,-1.75 0.45,-2.63 0.1,-0.6 0.26,-1.21 0.28,-1.82 0.06,-1.7 0.07,-3.41 0.08,-5.12 0.01,-1.64 0.01,-3.28 0.01,-4.92 0,-0.54 -0,-1.08 0,-1.62 0,-0.64 0.39,-1 0.87,-1.37 0.78,-0.59 1.83,-0.83 2.32,-1.8 0.03,-0.06 0.13,-0.08 0.19,-0.13 0.69,-0.57 1.37,-1.14 2.06,-1.71 0.53,-0.43 1.08,-0.83 1.59,-1.29 0.27,-0.24 0.44,-0.59 0.69,-0.85 0.42,-0.44 0.56,-1 0.79,-1.54 0.34,-0.79 0.83,-1.52 1.27,-2.27 0.1,-0.17 0.24,-0.33 0.36,-0.49 0.05,0.29 0.02,0.54 -0.09,0.74 -0.4,0.69 -0.84,1.36 -1.26,2.03l0 0c-0.08,0.13 -0.15,0.26 -0.23,0.39 0.05,0.02 0.09,0.04 0.14,0.06 0.05,-0.13 0.1,-0.25 0.15,-0.38 0.1,-0.05 0.24,-0.08 0.29,-0.16 0.72,-1.06 1.42,-2.13 2.13,-3.2 0.64,-0.96 0.8,-2.09 1.08,-3.17 0.08,-0.3 0.04,-0.63 0.06,-0.95 -0.05,-0 -0.09,-0.01 -0.14,-0.01l-0.49 1.45c-0.06,-0.02 -0.13,-0.04 -0.19,-0.06 0.42,-2.43 1.2,-4.82 0.82,-7.43 0.1,0.14 0.13,0.19 0.17,0.24 0.01,0.01 0.04,-0.01 0.13,-0.02 0.02,-0.48 0.05,-0.98 0.07,-1.48 0.02,-0.68 -0.09,-1.39 0.08,-2.03 0.25,-0.96 0.28,-1.95 0.39,-2.91 0.09,-0.82 0.11,-1.42 1.08,-1.7 1.14,-0.33 2.23,-0.87 3.33,-1.34 0.64,-0.27 1.24,-0.62 1.88,-0.88 0.71,-0.29 1.35,-0.58 1.66,-1.38 0.15,-0.38 0.63,-0.63 0.79,-1.01 0.56,-1.32 1.03,-2.68 1.57,-4.02 0.4,-0.99 0.18,-1.64 -0.67,-1.86z" class="fil1"></path>
  <path d="M24.16 18.88c0.03,0.07 0.05,0.13 0.09,0.21 0.15,-0.14 0.29,-0.29 0.44,-0.43 0.05,0.04 0.11,0.07 0.16,0.11 -0.62,0.96 -1.24,1.92 -1.86,2.89 -0.08,-0.05 -0.16,-0.09 -0.24,-0.14 0.46,-0.86 0.92,-1.72 1.41,-2.65zm1.88 -3.88c-0.34,0.64 -0.61,1.17 -0.89,1.7 -0.08,-0.01 -0.16,-0.03 -0.24,-0.04l0 0c0.31,-0.54 0.29,-1.28 1.12,-1.65zm25.18 -9.47c0.23,0.04 0.46,0.08 0.69,0.11 0.2,0.02 0.4,0.03 0.6,0.04 0.03,0.16 0.05,0.31 0.08,0.5 -0.47,-0.18 -0.93,-0.35 -1.39,-0.52 0.01,-0.04 0.02,-0.09 0.03,-0.13zm6.65 9.91c0.24,0.62 0.48,1.25 0.72,1.87 -0.06,0.02 -0.11,0.05 -0.17,0.07 -0.27,-0.61 -0.53,-1.22 -0.8,-1.82 0.08,-0.04 0.16,-0.08 0.24,-0.12zm0.93 3.38c0,0 0,0 0,0 -0,-0 -0,-0 -0,-0 0,0 0,0 0,0zm-36.78 5.9c0.11,0.45 0.3,0.27 0.56,0.14 0.23,-0.12 0.5,-0.16 0.7,-0.22 0.08,0.34 0.12,0.51 0.16,0.68 0.16,-0.06 0.34,-0.08 0.48,-0.17 0.37,-0.25 0.7,-0.44 0.98,0.12 0.02,0.04 0.07,0.07 0.13,0.09 0.06,-0.05 0.12,-0.1 0.16,-0.16 0.14,-0.19 0.2,-0.41 0.36,-0.6 0.19,-0.21 0.48,-0.36 0.72,-0.49 0.14,-0.07 0.63,-0.16 0.7,-0.22 0.42,-0.35 -0.11,-0.29 -0.12,-0.73 -0.01,-0.39 0.6,-0.62 0.86,-0.84 0.26,-0.22 0.45,-0.35 0.7,-0.47 -0.01,-0 -0.02,-0 -0.03,-0 0.63,-1.56 1.27,-3.1 1.87,-4.65 0.59,-1.52 1.15,-3.05 1.7,-4.5 0.36,-0.02 0.68,0 0.99,-0.05 0.61,-0.1 1.21,-0.17 1.81,-0.17 -0.03,-0.06 -0.05,-0.14 -0.07,-0.26 -0.04,-0.25 0.04,-0.52 0.06,-0.76 1.02,-0.08 2.11,0.24 3.11,-0.07 0.7,-0.22 1,-0.52 1.78,-0.48 0.6,0.03 1.18,0.28 1.77,0.31 0.21,0.01 0.41,-0.09 0.63,-0.09 0.52,0.01 1.03,0.38 1.54,0.44 0.19,0.02 0.37,0.02 0.56,0.02 0.56,-0.17 1.11,-0.23 1.69,-0.02 1.07,0.39 2.1,0.89 3.27,0.93 0.59,0.02 1.18,0.12 1.77,0.2 0.98,0.13 0.91,0.15 1.16,1.19 0.22,0.91 0.73,1.76 0.89,2.68 0.2,1.15 0.85,2.09 1.19,3.17 0.19,0.6 0.5,1.17 0.8,1.82 0.3,0.22 0.47,0.42 0.83,0.59 0.3,0.14 0.54,0.32 0.76,0.58 0.36,0.43 0.16,0.56 0.24,1.01 0.12,0.73 0.38,0.77 0.85,1.34 -0.18,0.12 -0.42,0.03 -0.63,0.12 -0.03,0.02 -0.07,0.03 -0.1,0.05 0.43,-0.07 0.84,-0.07 1.22,0.29 0.59,-1.09 1.24,-0.48 1.87,-0.12 0.07,-0.78 0.07,-0.78 0.28,-0.85 0.39,0.17 0.65,0.39 0.88,0.36 0.23,-0.03 0.42,-0.31 0.74,-0.57 0.3,-1.22 -0.7,-2.19 -1.11,-3.34 -0.05,-0.16 -0.09,-0.31 -0.14,-0.47 -0.07,0.03 -0.15,0.05 -0.22,0.08 0.07,0.16 0.14,0.31 0.21,0.47 0.02,0.34 0.03,0.68 0.05,1 -0.68,-0.54 -0.44,-1.77 -1.46,-2.06 0.03,-0.16 0.06,-0.29 0.09,-0.43 -0.53,-0.03 -0.32,-0.49 -0.43,-0.75 0.06,0.1 0.13,0.2 0.19,0.29 0.06,-0.05 0.13,-0.09 0.2,-0.14 -0.23,-0.51 -0.47,-1.03 -0.7,-1.54 0.37,0.45 0.55,1 0.87,1.45 0.26,0.37 0.09,1.1 0.89,1.08 -0.13,-0.34 -0.22,-0.68 -0.37,-0.98 -0.32,-0.62 -0.71,-1.2 -1,-1.83 -0.5,-1.11 -0.95,-2.24 -1.39,-3.37 -0.17,-0.44 -0.26,-0.91 -0.35,-1.38 -0.11,-0.55 0.01,-1.32 -0.31,-1.59 -0.44,-0.37 -0.2,-0.75 -0.39,-1.05 -0.17,-0.11 -0.33,-0.24 -0.43,-0.41 -0.34,-0.57 -0.7,-1.14 -0.99,-1.75 -0.52,-1.1 -1.68,-1.36 -2.55,-2 -0.14,-0.16 -0.26,-0.36 -0.43,-0.48 -0.51,-0.37 -1.07,-0.11 -1.52,0.07 -1.2,0.49 -2.39,1.03 -3.49,1.69 -0.63,0.38 -1.21,0.81 -1.96,0.92 -0.29,0.04 -0.56,0.18 -0.85,0.26 -0.68,0.21 -1.35,0.47 -2.04,0.61 -0.47,0.09 -1,0.08 -1.46,-0.04 -0.9,-0.24 -1.79,-0.57 -2.66,-0.91 -0.49,-0.18 -0.96,-0.42 -1.42,-0.67 -0.32,-0.17 -0.58,-0.46 -0.91,-0.6 -0.56,-0.24 -1.17,-0.37 -1.74,-0.6 -0.46,-0.19 -0.88,-0.52 -1.35,-0.69 -0.62,-0.23 -1.26,-0.37 -1.8,0.28 -0.23,0.28 -0.61,0.45 -0.94,0.65 -0.2,0.12 -0.51,0.14 -0.64,0.31 -0.61,0.77 -1.18,1.58 -1.75,2.37 -0.24,0.34 -0.46,0.69 -0.57,0.87 -0.23,0.46 -0.4,0.76 -0.53,1.06 -0.05,0.11 -0.04,0.24 -0.04,0.36 0,0.14 0.06,0.29 0.03,0.42 -0.06,0.37 -0.15,0.74 -0.23,1.11 -0.08,0.39 -0.1,0.8 -0.26,1.15 -0.29,0.65 -0.68,1.25 -0.97,1.9 -0.14,0.31 -0.15,0.68 -0.22,1.03 -0.15,0.33 -0.29,0.66 -0.44,0.99 -0.11,0.09 -0.25,0.16 -0.31,0.28 -0.37,0.67 -0.77,1.33 -1.08,2.03 -0.35,0.79 -1.02,1.47 -0.92,2.43 0,0.04 -0.12,0.09 -0.13,0.15 -0.12,0.59 -0.65,1.14 -0.24,1.79 0.08,0.13 0.36,0.16 0.39,0.28z" class="fil1"></path>
  <path d="M43.81 70.41c-0.05,-0.66 -0.09,-1.32 -0.14,-1.99 -0.05,-0.7 -0.1,-1.39 -0.15,-2.09 -0.02,-0.3 0.08,-0.73 -0.07,-0.88 -0.37,-0.34 -0.36,-0.74 -0.38,-1.13 -0.04,-1.07 -0.01,-2.14 -0.05,-3.21 -0.01,-0.4 -0.21,-0.67 -0.7,-0.62 -0.45,0.04 -0.9,-0.02 -1.35,0.02 -0.19,0.02 -0.49,0.2 -0.51,0.34 -0.1,0.86 -0.32,1.77 -0.15,2.59 0.21,0.97 -0.25,1.71 -0.47,2.53 -0.24,0.9 -0.29,1.8 -0.19,2.71 0.09,-0.37 0.13,-0.74 0.16,-1.11 0.02,-0.23 0.04,-0.47 0.06,-0.7 0.07,0.72 0.04,1.44 -0,2.15 -0.05,0.8 -0.12,1.6 -0.18,2.4l-0.03 -0c0,0 -0.01,0.03 -0.01,0.03 -0.07,0.2 -0.2,0.4 -0.19,0.59 0.07,1.46 0.18,2.91 0.25,4.37 0.03,0.6 -0.07,1.2 -0.04,1.8 0.05,0.82 0.25,1.63 0.25,2.45 0.01,0.82 0.43,1.59 0.21,2.45 -0.1,0.38 -0.07,0.94 0.15,1.21 0.27,0.31 0.26,0.58 0.28,0.9 0.04,0.65 0.07,1.31 0.13,1.96 0.06,0.7 0.21,1.39 0.22,2.09 0.02,0.97 -0.06,1.94 -0.08,2.91 -0,0.14 0.11,0.28 0.21,0.51 0.23,-0.6 0.4,-1.07 0.58,-1.55 0.22,0.67 0.43,1.33 0.66,2.05 0.16,-0.23 0.32,-0.36 0.33,-0.49 0.01,-0.82 -0.03,-1.64 -0.02,-2.45 0.03,-1.31 0.06,-2.63 0.14,-3.94 0.03,-0.6 0.17,-1.19 0.23,-1.78 0.05,-0.49 0.02,-0.98 0.09,-1.46 0.07,-0.47 0.29,-0.93 0.32,-1.41 0.08,-1.13 0.09,-2.27 0.14,-3.4 0.02,-0.38 0.09,-0.75 0.1,-1.13 0.02,-0.66 0,-1.31 0,-1.97 0,-0.91 0.02,-1.81 -0,-2.72 -0,-0.13 -0.16,-0.25 -0.19,-0.3l0 -3.14c0.07,0 0.13,0 0.2,0l0 1.42c0.06,-0 0.12,-0 0.17,-0.01z" class="fil1"></path>
  <path d="M34.57 63.51l-0.01 -0 0 0c0,0 0,0 0.01,0zm2.8 -1.44c-0.18,0.16 -0.34,0.3 -0.45,0.39 -0.11,-0.22 -0.14,-0.44 -0.25,-0.49 -0.27,-0.12 -0.43,-0.25 -0.45,-0.57 -0.01,-0.15 -0.22,-0.28 -0.4,-0.48 -0.03,0.54 -0.05,0.99 -0.08,1.43 -0.06,0.01 -0.13,0.01 -0.19,0.02 -0.05,-0.31 -0.07,-0.63 -0.17,-0.93 -0.1,-0.31 -0.13,-0.77 -0.7,-0.5 -0.04,0.3 -0.09,0.61 -0.1,0.92 -0.02,0.55 -0.01,1.1 -0.01,1.66 -0.08,-0.04 -0.16,-0.08 -0.27,-0.13 -0.06,0.55 -0.11,1.1 -0.17,1.65 0.02,0.24 0.04,0.47 0.06,0.71 0,0 0,-0.02 0,-0.02 0.04,0.65 0.07,1.29 0.12,1.93 0.05,0.67 -0.09,1.46 0.22,1.99 0.46,0.79 -0.03,1.55 0.32,2.28 -0.19,-0.03 -0.28,-0.05 -0.29,-0.05 0.12,1.33 0.24,2.63 0.36,3.93 0.15,-0.21 0.18,-0.42 0.24,-0.63 0.05,-0.17 0.14,-0.34 0.22,-0.51 0.03,-0.02 0.06,-0.04 0.09,-0.06 0.01,0.12 0.02,0.25 0.02,0.38 -0.02,-0 -0.04,-0.01 -0.06,-0.01 -0.01,0.01 -0.02,0.04 -0.02,0.05 0.06,0.6 0.12,1.2 0.16,1.62 0.03,-0.17 0.1,-0.5 0.17,-0.84 0.03,0.44 0.06,0.89 0.09,1.33 0.05,-0 0.09,-0 0.14,-0 0.02,-0.41 0.04,-0.83 0.07,-1.24 0.05,-0 0.1,-0 0.15,-0 0.06,1.67 0.11,3.35 0.17,5.02 0.07,-0 0.14,-0 0.21,-0 0.06,-0.43 0.1,-0.87 0.17,-1.3 0.1,-0.68 0.21,-1.35 0.31,-2.03 0.03,-0.09 0.06,-0.18 0.1,-0.26 0.04,-0.17 0.1,-0.34 0.11,-0.51 0.05,-0.82 0.05,-1.65 0.14,-2.48 0.18,-1.81 0.47,-3.6 0.58,-5.41 0.1,-1.59 0.07,-3.19 0,-4.79 -0.03,-0.73 -0.09,-1.5 -0.6,-2.06z" class="fil1"></path>
  <path d="M45.68 57.07c-0.15,-0.53 -0.31,-0.96 -0.75,-1.4 -0.72,-0.72 -1.17,-1.71 -1.75,-2.58 -0.41,-0.62 -0.68,-1.36 -1.41,-1.71 -0.22,-0.1 -0.47,-0.27 -0.47,0.23 0,0.17 -0.26,0.33 -0.39,0.51 -0.47,0.63 -0.95,1.25 -1.38,1.91 -0.45,0.67 -0.84,1.37 -1.28,2.04 -0.09,0.13 -0.37,0.15 -0.43,0.28 -0.11,0.23 -0.12,0.5 -0.16,0.76 -0.11,0.62 0.86,0.61 0.74,1.25 -0,0.01 0.1,0.05 0.15,0.06 0.42,0.08 0.84,0.21 1.27,0.23 0.23,0.01 0.47,-0.14 0.7,-0.22 -0.08,-0.2 -0.16,-0.4 -0.19,-0.47 0.15,-0.33 0.28,-0.58 0.38,-0.84 0.07,-0.2 0.07,-0.57 0.17,-0.59 0.7,-0.18 0.59,-0.78 0.74,-1.25 0.45,0.33 -0.01,1.43 0.94,1.26 0.17,0.4 0.33,0.77 0.48,1.15 0.04,0.11 0.09,0.27 0.04,0.37 -0.21,0.4 -0.16,0.6 0.29,0.6 0.37,0 0.73,-0.2 1.1,-0.22 0.62,-0.04 0.79,-0.4 0.82,-0.95 0.23,0.02 0.46,0.04 0.85,0.08 -0.21,-0.23 -0.39,-0.34 -0.44,-0.48z" class="fil1"></path>
  <path d="M42.16 27.27c0.02,-0.06 0.04,-0.11 0.06,-0.17 -0.06,0.06 -0.08,0.12 -0.06,0.17z" class="fil1"></path>
  <path d="M43.07 27.38c0.32,0.66 0.42,0.1 0.58,-0.11 0.19,0.01 0.39,0.05 0.58,0.03 0.04,-0.01 0.09,-0.05 0.13,-0.1 0.21,0.05 0.43,0.09 0.68,0.15 0.01,0.01 0.01,0.03 0.02,0.04 1.45,-0.07 2.9,-0.14 4.34,-0.2 -0,-0.07 -0.01,-0.13 -0.01,-0.2 -0.1,-0.05 -0.21,-0.15 -0.31,-0.15 -1.23,-0.01 -2.47,-0.02 -3.7,0 -0.11,0 -0.21,0.12 -0.32,0.22 -0.16,-0.32 -0.44,-0.24 -0.67,-0.2 -0.02,0 -0.03,0.02 -0.05,0.04 -0.03,-0.02 -0.05,-0.04 -0.07,-0.04 -0.62,0.02 -1.24,0.06 -1.86,0.09 -0.01,0 -0.01,0 -0.02,0 -0,0 -0,0 -0,0 -0.05,0.03 -0.12,0.04 -0.14,0.08 -0.01,0.02 -0.02,0.04 -0.03,0.07 0.04,-0.04 0.09,-0.07 0.16,-0.11 0.23,0.13 0.46,0.26 0.7,0.39z" class="fil1"></path>
  <path d="M48.88 62.99c0,0.51 0,1.02 0,1.53 -0.04,-0.06 -0.08,-0.13 -0.14,-0.22 -0.06,0.14 -0.1,0.23 -0.14,0.31 -0,-0.98 0.01,-1.97 -0.02,-2.95 -0.01,-0.26 -0.13,-0.74 -0.22,-0.75 -0.49,-0.03 -0.21,0.4 -0.28,0.62 -0.06,0.2 -0.11,0.41 -0.17,0.61 -0.07,-0.01 -0.14,-0.03 -0.21,-0.05 -0.05,-0.35 -0.11,-0.71 -0.16,-1.03 -0.31,0.32 -0.61,0.64 -0.92,0.95 -0.04,-0.03 -0.08,-0.07 -0.13,-0.1 -0.01,0.18 -0.03,0.36 -0.06,0.72 -0.28,-0.27 -0.46,-0.45 -0.71,-0.69 -0.12,1.14 -0.34,2.21 -0.33,3.28 0.01,2.2 0.15,4.4 0.23,6.6 0.03,0.9 -0.19,1.81 0.22,2.68 0.11,0.22 0.16,0.51 0.12,0.76 -0.24,1.81 0.55,3.5 0.58,5.28 0,0.15 0.11,0.3 0.16,0.45 0.04,-0.01 0.08,-0.01 0.11,-0.02 0.14,-1.22 0.29,-2.44 0.45,-3.79 0.11,0.16 0.17,0.24 0.19,0.26 0.19,-0.83 0.39,-1.76 0.6,-2.68 0.03,-0 0.06,-0.01 0.09,-0.01 0.02,0.37 0.05,0.73 0.07,1.16 0.1,-0.12 0.19,-0.18 0.2,-0.24 0.08,-1.03 0.18,-2.06 0.21,-3.1 0.01,-0.43 -0.2,-0.87 -0.17,-1.3 0.08,-1.09 -0.05,-2.19 0.39,-3.27 0.24,-0.6 0.15,-1.33 0.2,-2l-0 -0.03c0.22,-1.01 0.19,-2 -0.17,-3z" class="fil1"></path>
  <path d="M28.74 57.81c-0.03,0.04 -0.09,0.1 -0.07,0.12 0.03,0.06 0.09,0.11 0.16,0.19 0.03,-0.09 0.07,-0.15 0.06,-0.18 -0.03,-0.05 -0.1,-0.09 -0.15,-0.13z" class="fil1"></path>
  <path d="M35.88 77.26c0.02,0.08 0.04,0.17 0.07,0.25 0.02,-0.01 0.05,-0.01 0.07,-0.02 -0.02,-0.08 -0.04,-0.17 -0.06,-0.25 -0.02,0.01 -0.05,0.01 -0.07,0.02z" class="fil1"></path>
  <path d="M46.05 58.05c0.02,-0.1 0.04,-0.2 0.06,-0.3 -0.04,-0.02 -0.08,-0.04 -0.11,-0.05 -0.02,0.11 -0.03,0.23 -0.05,0.34 0.03,0 0.07,0.01 0.1,0.02z" class="fil1"></path>
  <path d="M63.13 39.25c-0.06,-0.03 -0.1,-0.08 -0.14,-0.07 -0.04,0.01 -0.08,0.06 -0.12,0.09 0.06,0.04 0.12,0.08 0.18,0.13 0.03,-0.04 0.05,-0.08 0.09,-0.14z" class="fil1"></path>
  <path d="M45.41 57.56c0.06,0.08 0.11,0.17 0.17,0.25l0 0c0.02,-0.05 0.04,-0.1 0.06,-0.16 -0.02,0.05 -0.04,0.1 -0.07,0.15 -0.01,-0.09 -0.02,-0.18 -0.02,-0.27 -0.05,0.01 -0.1,0.02 -0.14,0.03z" class="fil1"></path>
  <path d="M25.91 60.63c-0.03,-0 -0.1,0.07 -0.09,0.09 0.02,0.05 0.06,0.11 0.11,0.13 0.02,0.01 0.08,-0.06 0.15,-0.11 -0.08,-0.05 -0.12,-0.1 -0.16,-0.1z" class="fil1"></path>
  <path d="M45.28 58.25c-0,0.01 0.02,0.02 0.04,0.04 0.01,-0.02 0.03,-0.05 0.04,-0.07 -0.02,-0.01 -0.03,-0.03 -0.04,-0.04 -0.01,0.02 -0.03,0.05 -0.04,0.08z" class="fil1"></path>
  <path d="M52.5 47.96l0 0c-0,0.01 -0.01,0.02 -0.01,0.02 0.01,-0 0.01,-0.01 0.02,-0.01 0,-0 0,-0 0,-0 0,0 -0.01,-0.01 -0.01,-0.01z" class="fil1"></path>
  <path d="M48.76 50.37c-0.07,-0 -0.14,-0.01 -0.21,-0.01 0,-0.01 0,-0.02 0,-0.04 0.07,0 0.14,0.01 0.21,0.01 -0,0.01 -0,0.03 -0,0.04zm9.12 0.09c-0.27,-0.21 -0.63,-0.31 -0.97,-0.39 -0.43,-0.1 -0.87,-0.12 -1.34,-0.18 0.34,-0.78 0.45,-1.53 0.27,-2.3 -0.02,-0.08 -0.06,-0.16 -0.05,-0.23 0.07,-1.68 0.17,-3.36 0.2,-5.05 0.03,-1.88 0,-3.76 0.01,-5.64 0,-0.38 -0.02,-0.68 -0.55,-0.65 -0.35,0.02 -0.76,-0.02 -1.05,-0.19 -0.79,-0.47 -1.53,-1.03 -2.26,-1.53 -0.8,0.96 -1.22,2.15 -2.45,2.82 0.22,-0.41 0.36,-0.68 0.5,-0.95 -0.05,-0.04 -0.11,-0.08 -0.16,-0.11 -0.35,0.27 -0.67,0.63 -1.07,0.78 -1.44,0.55 -2.36,1.82 -3.66,2.55 -0.56,0.31 -0.71,0.75 -0.23,1.18 -0.32,0.54 -0.61,1.04 -0.98,1.67 0.93,-0.26 1.73,-0.48 2.52,-0.69 0.01,-0.01 0.01,-0.01 0.02,-0.02 0.01,0 0.02,0 0.02,0.01 0.04,-0.02 0.09,-0.03 0.13,-0.05 -0,0.03 -0.01,0.06 -0.01,0.08 -0.04,-0.01 -0.08,-0.02 -0.12,-0.03 -0.01,0 -0.01,0 -0.02,0.01 -0.01,0 -0.02,0 -0.03,0.01 -0.14,0.14 -0.28,0.28 -0.43,0.42 -0.2,0.19 -0.41,0.37 -0.62,0.56 0.06,0.07 0.11,0.14 0.17,0.22 0.35,-0.19 0.72,-0.35 1.05,-0.57 0.58,-0.39 0.93,-1.04 1.67,-1.28 0.58,-0.18 1.07,-0.61 1.77,-1.02 -0.16,0.31 -0.23,0.46 -0.31,0.62 0.25,0.01 0.5,0.03 0.8,0.04 -0.05,0.9 -0.11,1.78 -0.16,2.65 -0.06,0.01 -0.13,0.01 -0.19,0.02 -0.03,-0.43 -0.07,-0.85 -0.1,-1.28 -0.14,1.14 -0.48,2.27 0.01,3.38 0.04,0.09 0.03,0.2 0.02,0.3 -0.03,0.72 -0.13,1.45 -0.09,2.17 0.07,1.21 0.11,1.2 -1.15,1.29 -0.2,0.01 -0.41,0.01 -0.61,0.05 -0.29,0.06 -0.57,0.16 -0.85,0.24 0.06,0.13 0.12,0.25 0.16,0.33 -0.19,0.15 -0.36,0.28 -0.56,0.44 0.44,0.06 0.75,0.1 1.11,0.14 -0.27,0.15 -0.5,0.28 -0.79,0.45 0.23,0.06 0.35,0.09 0.58,0.15 -0.64,0.51 -1.21,0.95 -1.85,1.45 0.32,0.02 0.55,0.04 0.78,0.06 0,0.05 0.01,0.1 0.01,0.16 -0.23,0.05 -0.47,0.1 -0.62,0.14 -0.08,0.34 -0.14,0.64 -0.24,1.05 1.15,-0.07 2.26,-0.15 3.38,-0.22 0,0.05 0.01,0.1 0.01,0.15 -0.22,0.04 -0.45,0.08 -0.72,0.13 0.33,0.65 0.82,0.89 1.47,0.84 0.94,-0.06 1.88,-0.14 2.82,-0.17 1.14,-0.04 2.23,-0.15 3.27,-0.78 1,-0.61 1.39,-1.53 1.78,-2.5 0.07,-0.19 -0.09,-0.58 -0.26,-0.72z" class="fil2"></path>
  <path d="M39.85 17.74c-0.07,0.03 -0.14,0.06 -0.22,0.09 0.04,-0.06 0.08,-0.11 0.11,-0.17 0.26,-0.35 0.52,-0.69 0.77,-1.04 0.22,-0.3 0.42,-0.61 0.65,-0.94 0.37,0.57 0.76,1.17 1.19,1.83 -0.83,0.08 -1.67,0.15 -2.51,0.23zm-1.92 -3.45c-0.01,-0.04 -0.03,-0.07 -0.04,-0.11 0.03,0.01 0.06,0.02 0.1,0.03 -0.02,0.03 -0.04,0.05 -0.05,0.08zm-9.84 8.36c-0.01,-0.09 -0.03,-0.18 -0.04,-0.26 0.25,-0.07 0.51,-0.24 0.75,-0.21 0.65,0.08 1.3,0.24 1.87,0.36 0.03,0.05 0.05,0.09 0.06,0.11l-2.64 0zm24.28 -0.08c0.78,-0.14 1.56,-0.3 2.35,-0.39 0.2,-0.02 0.42,0.17 0.63,0.26 -0.02,0.07 -0.05,0.14 -0.07,0.21l-2.91 0c0,-0.03 0,-0.05 0,-0.08zm-7.41 0.53c-0.13,-0.01 -0.26,0.14 -0.39,0.22 -0.11,0.06 -0.21,0.13 -0.32,0.2 -0.31,0.18 -0.63,0.36 -0.98,0.56 0.51,0.37 0.88,0.64 1.25,0.91 0.34,0.24 0.66,0.65 1.02,0.7 1.95,0.25 3.89,0.73 5.89,0.4 1.66,-0.28 3.34,-0.47 5,-0.73 0.15,-0.02 0.3,-0.05 0.45,-0.08 0.03,-0.02 0.07,-0.04 0.1,-0.05 0.2,-0.09 0.44,-0 0.63,-0.12 -0.47,-0.57 -0.73,-0.61 -0.85,-1.34 -0.08,-0.45 0.12,-0.58 -0.24,-1.01 -0.22,-0.26 -0.46,-0.43 -0.76,-0.58 -0.36,-0.17 -0.53,-0.37 -0.83,-0.59 0.05,0.1 0.1,0.21 0.15,0.32 -0.98,0.13 -1.86,0.28 -2.75,0.33 -0.21,0.01 -0.48,-0.27 -0.64,-0.48 -0.78,-1.03 -1.52,-2.08 -2.29,-3.12 -0.68,-0.91 -1.36,-1.81 -2.06,-2.69 -0.33,-0.42 -0.72,-0.8 -1.13,-1.25 0.86,-0.16 1.64,-0.3 2.46,-0.46 -0.39,-0.49 -0.7,-0.89 -1.03,-1.28 -0.12,-0.14 -0.26,-0.3 -0.43,-0.35 -1.04,-0.32 -2.08,-0.6 -3.12,-0.96 0.02,-0.01 0.04,-0.01 0.07,-0.02 -0.19,-0 -0.38,-0 -0.56,-0.03 -0.51,-0.06 -1.02,-0.43 -1.54,-0.44 -0.21,-0 -0.42,0.1 -0.63,0.09 -0.59,-0.03 -1.17,-0.28 -1.77,-0.31 -0.78,-0.04 -1.08,0.26 -1.78,0.48 -1,0.31 -2.09,-0 -3.11,0.07 -0.02,0.24 -0.1,0.52 -0.06,0.76 0.02,0.12 0.04,0.21 0.07,0.26 0.73,0.01 1.45,0.14 2.17,0.46 0.5,0.22 1.11,0.17 1.67,0.25 0.11,0.02 0.22,0.06 0.38,0.11 -0.11,0.14 -0.19,0.25 -0.29,0.39 -0.05,-0.13 -0.08,-0.21 -0.11,-0.28 -0.24,0.25 -0.47,0.5 -0.69,0.74 0,0 0,0 0,-0 -0.3,0.3 -0.62,0.58 -0.9,0.9 -0.4,0.44 -0.77,0.9 -1.15,1.36 -0.28,0.34 -0.55,0.68 -0.8,1.04 -0.53,0.75 -1.07,1.49 -1.55,2.28 -0.44,0.73 -0.76,1.52 -1.19,2.26 -0.11,0.19 -0.45,0.38 -0.65,0.35 -1.06,-0.12 -2.11,-0.3 -3.22,-0.48 -0.25,0.11 -0.44,0.25 -0.7,0.47 -0.26,0.22 -0.87,0.45 -0.86,0.84 0.01,0.45 0.53,0.38 0.12,0.73 -0.07,0.06 -0.56,0.15 -0.7,0.22 -0.25,0.13 -0.53,0.28 -0.72,0.49 -0.17,0.18 -0.22,0.41 -0.36,0.59 -0.05,0.06 -0.1,0.11 -0.16,0.16 0.13,0.05 0.32,0.08 0.38,0.03 0.44,-0.34 0.87,-0.17 1.32,-0.08 0.55,0.1 1.1,0.19 1.66,0.26 0.04,0.01 0.1,-0.12 0.15,-0.21 0.11,0.12 0.21,0.31 0.33,0.32 1.44,0.18 2.89,0.45 4.33,0.44 1.59,-0.01 3.18,-0.28 4.77,-0.46 0.21,-0.02 0.45,-0.12 0.6,-0.26 0.34,-0.32 0.64,-0.69 0.97,-1.04 -0.07,-0.05 -0.18,-0.12 -0.33,-0.22 0.25,-0.02 0.46,-0.04 0.67,-0.06 0.02,-0.06 0.04,-0.12 0.05,-0.19 -1.43,-0.49 -2.63,-1.58 -4.36,-1.29 0.59,-0.79 1.08,-1.44 1.51,-2.02 0.45,0.07 0.77,0.17 1.1,0.17 2.05,0.02 4.1,0.07 6.14,0.01 0.7,-0.02 1,0.39 1.36,0.8 0.17,0.19 0.26,0.44 0.42,0.64 0.26,0.31 0.55,0.59 0.83,0.88 -0.02,0.06 -0.03,0.12 -0.05,0.18 -0.64,-0.06 -1.29,-0.14 -1.93,-0.18z" class="fil2"></path>
  <path d="M32.41 45.61c-0.57,-0.04 -1.14,-0.01 -1.71,-0.1 0.02,-0.1 0.04,-0.21 0.05,-0.31 0.01,-0.3 0,-0.59 0,-0.89 0,-0.18 0,-0.37 0,-0.55 0.69,-0.03 1.37,-0.06 2.06,-0.09 0.04,0.4 0.08,0.8 0.11,1.2 0.02,0.22 -0.03,0.45 -0.03,0.67 -0.16,0.04 -0.32,0.07 -0.48,0.06zm-4.49 -4.7c0.02,-0.11 0.03,-0.21 0.05,-0.32 0.02,0.16 0.03,0.31 0.03,0.47 -0.03,-0 -0.07,-0.01 -0.1,-0.01 0.01,-0.05 0.02,-0.09 0.03,-0.14zm7.9 0.64l0 0.17c-0.07,-0.06 -0.11,-0.11 -0.15,-0.12l0 -0.05c0.05,0 0.1,0 0.15,0zm-0.15 0.47l0 -0.26c0.05,-0 0.1,-0.01 0.15,-0.01l0 0.3c-0.05,-0.01 -0.1,-0.02 -0.15,-0.03zm3.61 0.97c0.11,-0 0.22,-0.08 0.34,-0.12 -0,-0.03 -0.01,-0.06 -0.01,-0.08 -0.9,-0.11 -1.81,-0.22 -2.82,-0.34 0.12,-0.08 0.18,-0.13 0.2,-0.14 -0.33,-0.07 -0.69,-0.15 -1.05,-0.23 -0.03,-0.26 -0.06,-0.52 -0.09,-0.78 -0.04,-0.31 -0.07,-0.62 -0.11,-0.94 -0.02,-0.13 0.06,-0.33 -0.06,-0.39 -0.27,-0.15 -0.27,-0.33 -0.28,-0.51 -0.03,-0.48 -0.01,-0.96 -0.04,-1.44 -0.01,-0.18 -0.15,-0.3 -0.52,-0.28 -0.33,0.02 -0.67,-0.01 -1,0.01 -0.14,0.01 -0.37,0.09 -0.38,0.15 -0.08,0.39 -0.24,0.8 -0.11,1.16 0.16,0.44 -0.18,0.77 -0.35,1.14 -0.18,0.41 -0.22,0.81 -0.14,1.22 0.07,-0.17 0.09,-0.33 0.12,-0.5 0.02,-0.11 0.03,-0.21 0.05,-0.32 0.05,0.3 0.03,0.59 0,0.89 -0.21,0.04 -0.43,0.11 -0.64,0.09 -0.54,-0.04 -1.08,-0.01 -1.61,-0.08 -0.01,-0.07 -0.02,-0.13 -0.02,-0.2 -0.04,-0.31 -0.07,-0.62 -0.11,-0.94 -0.01,-0.13 0.06,-0.33 -0.06,-0.39 -0.27,-0.15 -0.27,-0.33 -0.28,-0.51 -0.03,-0.48 -0.01,-0.96 -0.03,-1.44 -0.01,-0.18 -0.15,-0.3 -0.52,-0.28 -0.33,0.02 -0.67,-0.01 -1,0.01 -0.14,0.01 -0.37,0.09 -0.38,0.15 -0.08,0.39 -0.24,0.8 -0.11,1.16 0.16,0.44 -0.19,0.77 -0.35,1.14 -0.13,0.28 -0.18,0.57 -0.18,0.85 -0.51,-0.03 -1.01,0.04 -1.52,0.22 0.38,0 0.76,0 1.13,0 -0.05,0.03 -0.1,0.06 -0.16,0.11 0.1,0.05 0.17,0.08 0.23,0.11 -0.73,0 -1.46,-0.01 -2.19,0.01 -0.2,0.01 -0.55,0.09 -0.55,0.16 -0.02,0.37 0.29,0.16 0.46,0.21 0.15,0.05 0.3,0.08 0.45,0.12 -0.01,0.05 -0.02,0.1 -0.03,0.15 -0.26,0.04 -0.53,0.08 -0.77,0.12 0.24,0.23 0.47,0.46 0.71,0.68 -0.03,0.03 -0.05,0.06 -0.08,0.09 0.13,0.01 0.27,0.02 0.53,0.04 -0.2,0.21 -0.33,0.34 -0.51,0.52 0.79,0.09 1.53,0.23 2.27,0.24 0.04,0.35 0.07,0.69 0.1,1.04 0,0.07 0,0.14 -0,0.21 -0.53,-0.04 -1.06,0.02 -1.59,0.21 0.38,0 0.76,0 1.13,-0 -0.05,0.03 -0.1,0.06 -0.16,0.11 0.1,0.05 0.17,0.08 0.23,0.1 -0.73,0 -1.46,-0.01 -2.19,0.01 -0.2,0.01 -0.55,0.09 -0.55,0.16 -0.02,0.37 0.29,0.16 0.46,0.21 0.15,0.05 0.3,0.08 0.45,0.12 -0.01,0.05 -0.02,0.1 -0.03,0.16 -0.26,0.04 -0.53,0.08 -0.77,0.12 0.24,0.23 0.47,0.46 0.71,0.68 -0.03,0.03 -0.05,0.06 -0.08,0.09 0.13,0.01 0.27,0.02 0.53,0.04 -0.2,0.21 -0.33,0.34 -0.51,0.52 0.85,0.09 1.64,0.25 2.43,0.25 0.08,-0 0.16,-0 0.24,-0 -0,0 -0,0 -0,0 -0.07,0.17 -0.06,0.42 0.11,0.54 0.2,0.14 0.19,0.26 0.21,0.41 0.03,0.29 0.05,0.59 0.1,0.88 0.05,0.31 0.15,0.63 0.16,0.94 0.01,0.44 -0.04,0.87 -0.06,1.31 -0,0.06 0.08,0.12 0.15,0.23 0.17,-0.27 0.3,-0.48 0.43,-0.69 0.16,0.3 0.32,0.6 0.49,0.92 0.12,-0.1 0.24,-0.16 0.24,-0.22 0.01,-0.37 -0.02,-0.73 -0.01,-1.1 0.02,-0.59 0.05,-1.18 0.1,-1.77 0.02,-0.27 0.13,-0.53 0.17,-0.8 0.04,-0.22 0.02,-0.44 0.07,-0.66 0,-0.02 0.01,-0.03 0.02,-0.05 0.82,-0.03 1.65,-0.08 2.47,-0.11 0.15,-0.01 0.3,-0 0.46,0.01 -0.01,0.06 -0.02,0.11 -0.04,0.17 -0.07,0.17 -0.06,0.42 0.11,0.54 0.2,0.14 0.19,0.26 0.21,0.41 0.03,0.29 0.05,0.59 0.1,0.88 0.05,0.31 0.15,0.63 0.16,0.94 0.01,0.44 -0.04,0.87 -0.06,1.31 -0,0.06 0.08,0.12 0.15,0.23 0.17,-0.27 0.3,-0.48 0.43,-0.69 0.16,0.3 0.32,0.6 0.49,0.92 0.12,-0.1 0.24,-0.16 0.24,-0.22 0.01,-0.37 -0.02,-0.73 -0.01,-1.1 0.02,-0.59 0.05,-1.18 0.1,-1.77 0.02,-0.27 0.13,-0.53 0.17,-0.8 0.04,-0.22 0.02,-0.44 0.07,-0.66 0.03,-0.13 0.11,-0.27 0.16,-0.4 1.27,0.1 2.47,-0.43 3.72,-0.45 0.11,-0 0.22,-0.08 0.34,-0.12 -0,-0.03 -0.01,-0.06 -0.01,-0.08 -0.9,-0.11 -1.81,-0.22 -2.82,-0.34 0.12,-0.08 0.18,-0.13 0.2,-0.14 -0.4,-0.09 -0.83,-0.19 -1.27,-0.28 0,-0.09 0.01,-0.18 0.02,-0.28 0.04,-0 0.07,-0 0.11,-0.01 -0.04,-0.04 -0.08,-0.07 -0.1,-0.1 0.02,-0.16 0.07,-0.32 0.07,-0.48 0.01,-0.3 0,-0.59 0,-0.89 0,-0.29 0,-0.58 0,-0.86 1.18,0.02 2.3,-0.44 3.47,-0.46z" class="fil2"></path>
 </g>
</svg>
