<?xml version="1.0" encoding="UTF-8" standalone="no"?>
<!DOCTYPE svg PUBLIC "-//W3C//DTD SVG 1.1//EN" "http://www.w3.org/Graphics/SVG/1.1/DTD/svg11.dtd">
<svg width="100%" height="100%" viewBox="0 0 91 131" version="1.1" xmlns="http://www.w3.org/2000/svg" xmlns:xlink="http://www.w3.org/1999/xlink" xml:space="preserve" xmlns:serif="http://www.serif.com/" style="fill-rule:evenodd;clip-rule:evenodd;stroke-linejoin:round;stroke-miterlimit:2;">
    <g transform="matrix(1,0,0,1,-41.97,-438.71)">
        <g>
            <path d="M55.28,568.89L69.46,498.65C72.08,485.65 72.02,482.73 71.94,482.15C71.78,481.13 70.29,480.39 69.08,479.97C67.33,479.36 62.59,478.63 49.9,478.63L41.97,478.63L45.96,458.89L47.91,458.61C70.05,455.49 87.9,448.98 100.94,439.26L101.68,438.71L132.9,438.71L106.62,568.9L55.27,568.9L55.28,568.89Z" style="fill:white;fill-rule:nonzero;"/>
            <path d="M104.34,566.1L58.68,566.1L72.19,499.2C74.14,489.54 74.97,483.71 74.7,481.77C74.4,479.83 72.84,478.33 70,477.33C67.15,476.33 60.45,475.83 49.9,475.83L45.38,475.83L48.3,461.36C71.04,458.16 89.15,451.51 102.61,441.48L129.49,441.48L104.33,566.09L104.34,566.1Z" style="fill:rgb(220,48,123);fill-rule:nonzero;"/>
            <g>
                <path d="M100.02,558.7C100.49,552.58 98.51,548.04 92.75,545.58C92.44,545.45 92.02,545.19 91.65,545.58C91.32,546.05 91.65,546.31 91.8,546.6C92.45,547.88 93.19,549.11 93.84,550.39C95.56,553.73 95.79,557.26 95.15,560.9C94.85,562.63 94.43,564.36 94.32,566.1L95.23,566.1C95.25,565.72 95.3,565.32 95.39,564.88C95.76,563.06 96.12,561.29 96.36,559.46C96.8,556.12 96.6,553.49 95,550.48C94.33,549.22 93.56,547.97 92.83,546.63C96.1,548.03 97.51,549.96 98.52,553.39C99.33,556.12 98.96,558.57 98.48,561.33C98.15,563.25 98.08,564.73 98.2,566.11L99.35,566.11C99.26,563.61 99.82,561.18 100.01,558.71L100.02,558.7Z" style="fill:rgb(173,31,97);fill-rule:nonzero;"/>
                <path d="M60.58,556.69L60.08,559.16C60.13,559.46 60.17,559.77 60.2,560.11C60.02,561.03 59.83,561.41 59.55,561.78L59.13,563.88C61.38,561.97 61.82,559.9 60.58,556.69Z" style="fill:rgb(173,31,97);fill-rule:nonzero;"/>
                <path d="M46.3,471.29L45.87,473.44C46.03,474.2 46.25,474.96 46.54,475.7C46.56,475.74 46.57,475.79 46.58,475.83L47.59,475.83C47.52,475.65 47.46,475.47 47.38,475.28C46.84,474.01 46.59,472.63 46.3,471.29Z" style="fill:rgb(173,31,97);fill-rule:nonzero;"/>
                <path d="M48.42,464.44C48.17,464.36 47.95,464.33 47.72,464.28L47.5,465.36C47.56,465.38 47.62,465.39 47.68,465.42C48.2,465.67 48.77,465.8 49.32,465.98C49.31,465.36 49.42,464.7 49.26,464.12C49.07,463.4 48.64,462.84 48.08,462.48L47.83,463.74C48.04,463.93 48.24,464.15 48.42,464.44Z" style="fill:rgb(173,31,97);fill-rule:nonzero;"/>
                <path d="M61.94,549.97L60.63,556.44C62,554.37 62.26,552.21 61.94,549.97Z" style="fill:rgb(173,31,97);fill-rule:nonzero;"/>
                <path d="M86.16,502.58C86.16,502.58 86.18,502.56 86.19,502.55L86.19,502.5C86.19,502.5 86.17,502.52 86.16,502.53C86.16,502.55 86.16,502.56 86.15,502.58L86.16,502.58Z" style="fill:rgb(173,31,97);fill-rule:nonzero;"/>
                <path d="M103.19,441.49L102.61,441.49C102.39,441.66 102.15,441.81 101.93,441.98C101.89,442.04 101.88,442.11 101.83,442.17C101.26,443 100.52,443.48 99.65,443.58C99.26,443.84 98.86,444.1 98.47,444.35C100.63,444.68 102.53,443.5 103.19,441.49Z" style="fill:rgb(173,31,97);fill-rule:nonzero;"/>
                <path d="M58.68,566.1L59.12,566.1C59.04,565.81 58.96,565.51 58.86,565.21L58.68,566.1Z" style="fill:rgb(173,31,97);fill-rule:nonzero;"/>
                <path d="M49.6,471.85C50.3,469.55 52.04,468.39 54.33,468.09C56.59,467.79 58.66,469.26 59.59,471.66C60.15,473.09 60.51,474.55 60.55,476.07C61.27,476.11 61.96,476.15 62.62,476.2C62.55,475.99 62.48,475.77 62.44,475.55C62.09,473.31 63.46,471.33 65.68,470.89C69.23,470.19 72.16,472.57 72.13,476.11C72.13,476.88 71.98,477.53 71.72,478.08C72.51,478.5 73.14,478.99 73.62,479.53C74.19,475.47 74.56,471.39 74.67,467.28C74.72,465.26 71.88,463.69 70.94,465.28C69.91,465.58 70.51,463.31 71.32,462.55C71.87,462.04 72.74,462.08 73.58,462.7C74.6,463.45 75.29,464.45 75.54,465.7C76.21,469.14 76.39,472.6 76.02,476.09C75.69,479.25 75.42,482.42 75.16,485.58C75.03,487.22 74.97,488.86 74.87,490.57C74.53,490.5 74.19,490.43 73.85,490.36C73.81,490.61 73.77,490.86 73.72,491.11C76.07,491.72 78.45,492.26 80.84,492.7C82.6,493.02 84.41,493.11 86.19,493.35C86.64,493.41 87.55,493.5 87.73,493.88C87.73,494 87.52,494.18 87.18,494.37C86.68,494.61 86.22,494.67 85.54,494.69C84.51,494.73 83.46,494.67 82.45,494.48C79.44,493.9 76.45,493.27 73.45,492.65C73.39,492.96 73.33,493.29 73.27,493.62C75.32,494.04 77.38,494.44 79.43,494.86C81.28,495.23 83.14,495.57 84.97,496.03C85.57,496.18 86.23,496.36 86.44,497.21C86.42,497.32 86.1,497.62 85.69,497.71C85.24,497.82 84.34,497.73 83.91,497.68C81.92,497.47 81.25,497.21 79.29,496.82C77.16,496.4 75.05,495.87 72.94,495.36C72.9,495.58 72.85,495.81 72.81,496.04C76.77,496.95 80.54,498.07 83.98,500.14C84.29,500.33 84.56,500.6 84.84,500.81C85.23,501.1 85.59,501.6 85.4,501.84C85.11,502.2 84.41,502.36 84.07,502.28C83.1,502.06 82.12,501.76 81.21,501.35C78.43,500.12 75.69,498.77 72.89,497.59C72.76,497.53 72.66,497.46 72.54,497.4C72.47,497.75 72.4,498.11 72.33,498.47C73.35,498.91 74.3,499.29 75.22,499.73C76.76,500.46 78.32,501.16 79.81,501.98C81.05,502.67 83.01,504.49 82.82,505.37C82.51,505.95 81.02,505.42 80.23,504.86C78.44,503.59 76.67,502.3 74.85,501.06C74.05,500.52 73.17,500.11 72.2,499.57C72.22,499.36 72.26,498.99 72.31,498.52C72.26,498.76 72.22,498.99 72.17,499.23L71.79,501.1C71.94,500.91 72.06,500.75 72.22,500.55C74.14,501.83 76.14,503.17 78.08,504.46C76.95,505.36 75.91,506.18 74.82,507.05C73.74,505.2 73.35,504.77 71.21,503.94L71.03,504.83C71.41,504.99 71.77,505.19 72.14,505.41C74.11,506.62 74.39,508.55 74.06,510.64C73.75,512.63 72.48,513.82 70.68,514.5C70.1,514.72 69.6,514.77 69.01,514.81L68.69,516.37C70.62,516.69 71.97,518.29 71.87,520.41C71.72,523.44 69.8,525.02 66.86,525.45L66.55,527.01C66.83,527.28 67.1,527.61 67.37,527.88C69.85,530.36 72.41,532.79 74.78,535.38C77.1,537.92 79.09,540.73 79.48,544.3C79.57,545.11 79.46,546.03 79.15,546.79C78.51,548.4 76.46,548.73 75.44,547.35C74.72,546.38 73.79,544.48 73.32,543.34C73.26,543.21 74.02,543.83 74.66,543.24C76.32,541.71 76,540.74 74.74,539.2C73.38,537.55 71.36,537.19 69.8,538.37C69.15,538.86 68.56,539.45 67.93,540.01C67.67,538.61 67.1,537.28 65.82,536.39C65.51,536.17 65.14,535.95 64.78,535.85L64.54,537.05C64.88,537.21 65.21,537.4 65.51,537.66C66.39,538.43 66.94,539.95 66.93,541.59C66.93,543.95 65.7,545.66 63.47,546.44C63.17,546.54 62.89,546.59 62.61,546.61L62.41,547.58C64.54,547.49 66.11,546.4 67.32,544.55C67.58,545.29 67.8,545.9 68.02,546.53C65.05,547.11 64.17,547.83 64.03,549.77C63.89,551.65 65.03,553.53 66.8,554.08C67.49,554.29 68.4,554.38 69.02,554.09C69.92,553.67 70.65,552.87 71.5,552.19C72.26,552.52 73.22,552.93 74.18,553.35C72.17,555.98 72.59,558.06 75.2,559.65C75.45,560.76 75.65,561.67 75.86,562.62C73.45,563.82 70.79,564.68 67.93,565.05C66.34,565.26 64.78,565.69 63.23,566.14L67.09,566.14C68.03,565.94 68.98,565.74 69.93,565.55C72.23,565.09 74.36,564.5 76.43,563.4C77.09,563.05 78.24,562.85 79,562.7L79,564.38C78.16,564.94 77.2,565.56 76.2,566.14L78.52,566.14C78.52,566.14 78.56,566.09 78.58,566.06C78.66,565.94 78.76,565.84 79,565.55C78.98,565.75 78.97,565.95 78.95,566.14L79.84,566.14C79.87,565.61 79.88,565.09 79.85,564.56C79.78,563.24 79.85,560.89 78.74,559.47C79.22,559.13 78.94,559.31 79.68,558.8C80.82,559.83 81.15,561.08 81.04,562.54C80.95,563.76 80.74,564.93 80.66,566.14L81.41,566.14C81.51,565.17 81.61,564.21 81.72,563.26C81.94,561.4 81.81,559.65 80.26,558.31C80.13,558.2 80.05,557.91 80.1,557.75C80.64,556.1 79.91,554.84 78.9,553.66C78.83,553.57 78.77,553.47 78.73,553.41C79.68,552.88 80.6,552.38 81.32,551.98C81.67,552.82 82.1,553.67 82.36,554.57C82.6,555.41 82.68,556.29 82.78,557.16C83.14,560.15 83.48,563.14 83.83,566.13L84.75,566.13C84.36,562.85 84.21,561.11 83.71,557.65C83.7,557.57 83.46,556 83.48,555.83C84,556.01 84.86,555.88 85.3,555.95C85.44,556.79 85.68,557.86 85.8,558.39C86.49,561.4 87.04,563.6 87.62,566.14L88.64,566.14C88.02,562.68 87.43,559.14 86.13,555.92C87.18,555.71 87.24,555.62 88.06,555.29C88.77,557.52 89.62,559.73 90.18,562.02C90.51,563.38 90.73,564.76 90.96,566.15L92,566.15C91.5,562.85 90.86,559.58 89.4,556.57C88.79,555.31 88.79,554.25 88.89,552.91C89.07,550.23 87.93,547.69 84.01,548.46C85.72,545.28 84.95,542.21 83.8,539.04C84.39,539.18 84.94,539.24 85.43,539.44C86.32,539.81 87.08,539.57 87.71,538.97C89.05,537.7 89.39,536.06 88.99,534.33C88.6,532.64 87.63,531.31 85.91,530.73C84.29,530.18 82.72,530.83 81.72,532.36C81.56,532.61 81.42,532.88 81.2,533.26C80.72,532.54 80.28,531.91 79.88,531.24C79.8,531.1 79.83,530.82 79.92,530.66C81.24,528.4 82.55,526.12 83.95,523.9C84.32,523.31 84.97,522.86 85.57,522.46C85.82,522.29 86.47,522.29 86.61,522.46C86.9,522.83 87.08,523.37 87.08,523.84C87.08,524.11 86.66,524.46 86.35,524.61C86.01,524.77 85.57,524.74 85.18,524.81C84.19,525 83.99,525.29 84.06,526.32C84.16,527.71 84.72,528.83 86.07,529.33C87.5,529.86 88.81,529.43 89.66,528.24C90.35,527.27 90.74,526.09 91.26,525C91.35,524.82 91.38,524.61 91.54,524.1C92.04,524.81 92.49,525.29 92.76,525.85C94.08,528.67 95.32,531.52 96.65,534.34C97.35,535.83 98.15,537.27 98.95,538.7C99.17,539.09 99.51,539.43 99.85,539.73C100.62,540.41 101.55,540.16 101.87,539.17C101.99,538.8 102.04,538.4 102.07,538C102.1,537.64 102.07,537.28 102.07,536.92C102.68,536.92 103.33,537.18 103.99,536.77C104.48,536.55 104.58,535.67 104.91,535.02C108.12,536.27 108.4,534.82 108.43,531.86C108.59,532.08 108.93,531.96 108.88,532.2C108.58,533.78 108.9,535.32 109.27,536.2C107.47,535.36 105.39,536.14 104.01,537.05C103.05,537.75 102.23,539.04 102.11,540.5C102.09,540.69 101.79,540.9 101.58,541.04C100.37,541.85 99.33,542.81 98.66,544.14C98.31,544.84 97.92,545.64 98.5,546.27C98.9,546.7 99.71,546.73 100.53,546.7C100.46,546.91 100.13,547.47 100.03,548.18C99.95,548.7 100.06,549.41 100.38,549.74C100.9,550.26 101.64,550.08 102.22,549.63C102.53,549.39 102.8,549.11 103.23,548.71C103.23,549.6 103.13,550.37 103.27,551.08C103.36,551.55 103.34,552.26 104.08,552.39C104.83,552.31 105.02,551.78 105.34,551.36C105.64,550.97 105.8,550.16 105.92,549.87C106.2,551.23 106.85,551.32 107.31,551.19L107.58,549.87C107.52,549.96 107.45,550.04 107.37,550.09C105.98,550.62 106.21,548.11 106.26,545.86C106.75,545.89 107.3,545.9 107.99,545.94C107.96,546.53 107.97,547.31 107.94,548.05L108.67,544.44C108.24,544.69 107.8,544.84 107.37,544.85C105.18,544.88 103.36,543.07 103.34,540.85C103.33,538.63 104.93,537.07 107.25,537.04C108.3,537.03 109.25,537.44 109.94,538.09L110.25,536.56C109.94,535.78 109.72,534.91 109.64,533.87C109.6,533.35 109.28,532 110,531.77C110.75,531.53 111.01,530.46 110.86,529.46C110.81,529.15 110.94,528.68 111.17,528.49C111.43,528.27 111.72,528.09 112.01,527.91L112.47,525.64C111.73,526.42 111,527.21 110.26,528C109.4,527.07 108.56,526.19 107.76,525.27C107.62,525.11 107.55,524.75 107.63,524.56C108.94,521.53 110.27,518.51 112.61,516.1C113.24,515.45 113.93,514.94 114.69,514.66L114.89,513.66C113.86,513.97 112.78,514.64 111.65,515.69C111.81,514.59 112.08,513.59 112.07,512.59C112.06,511.45 111.97,510.25 111.62,509.18C111.09,507.56 109.71,507.19 108.23,508.05C106.83,508.86 106.31,510.2 106.02,511.68C105.94,512.07 105.91,512.46 105.85,512.93C104.83,512.6 104.4,511.82 104.14,510.94C103.86,510.01 103.68,509.04 103.41,508.11C102.75,505.85 102.67,505.76 100.61,504.71C102.02,503.99 103.13,503.02 103.49,501.47C103.74,500.39 103.86,499.27 103.27,498.25C102.31,496.6 100.37,495.05 98.13,495.61C95.83,496.18 94.09,498.11 94.13,500.65C94.16,502.89 95.2,504.38 98.35,505.05C98.08,505.49 97.77,505.91 97.56,506.36C96.46,508.66 97.08,510.78 98.34,512.78C99.02,513.86 99.89,514.82 100.66,515.85C101.8,517.37 102.86,518.93 102.9,521.17C102.36,520.76 101.95,520.44 101.53,520.13C99.02,518.29 96.5,516.45 93.98,514.63C93.66,514.4 93.29,514.24 92.92,514.09C90.26,513.03 89.15,513.33 87.35,515.59C85.31,515.03 83.66,515.8 82.24,517.23C80.24,519.23 79.01,521.73 77.75,524.21C77.3,525.1 76.95,526.04 76.54,527C75.16,525.71 73.81,524.44 72.4,523.12C73.62,520.32 73.16,517.82 70.92,515.85C72.16,514.9 73.4,513.96 74.67,512.99C74.7,513.05 74.84,513.33 74.97,513.6C76.02,515.76 78.03,516.71 80.41,516.42C82.94,516.11 84.81,514.95 86.14,512.79C86.3,512.53 86.85,512.41 87.23,512.39C89.07,512.32 90.87,512.14 92.56,511.28C95.66,509.71 96.5,506.18 94.39,503.4C93.28,501.93 91.81,501.13 89.98,500.9C88.37,500.7 87.2,501.42 86.17,502.51L86.17,502.56C86.17,502.57 86.15,502.58 86.14,502.59C85.53,504.52 86.14,506 88.11,507.15C87.24,507.29 86.63,507.4 86.01,507.5C85.95,507.5 85.86,507.52 85.83,507.49C85.13,506.72 84.36,506 83.76,505.15C83.36,504.58 83.22,503.84 82.95,503.14C84.06,503.58 85.19,503.59 86.13,502.59C86.13,502.57 86.13,502.56 86.14,502.54C86.14,502.54 86.16,502.52 86.17,502.51C86.61,500.79 86.05,500.18 83.19,498.44C83.71,498.47 83.98,498.5 84.18,498.49C84.45,498.48 84.73,498.49 85.01,498.49C85.94,498.45 87.35,498.59 87.68,497.65C87.84,497.19 87.14,496.1 86.47,495.58C86.79,495.44 87.3,495.26 87.75,495C88.7,494.46 88.78,493.69 87.88,493.07C87.29,492.67 86.57,492.48 85.95,492.21C85.95,489.03 85.92,485.8 85.97,482.58C85.98,481.55 86.16,480.52 86.34,479.5C86.48,478.68 86.93,478.13 87.88,478.47C89.05,478.88 90.25,479.25 91.36,479.8C91.71,479.97 92,480.64 92.01,481.09C92.04,482.34 91.91,483.59 91.85,484.84C91.74,487.41 92.14,489.89 93.28,492.22C94.24,494.18 96.09,495.24 98.13,494.89C99.6,494.64 100.69,493.77 101.38,492.45C101.62,492 101.86,491.87 102.37,491.89C103.59,491.93 104.81,491.85 106.04,491.86C106.29,491.86 106.44,492 106.49,492.17C107.08,494.2 107.98,495.41 109.39,496.86C109.51,496.98 110.03,497.38 110.2,497.6C109.01,497.67 108.46,498.05 107.79,498.94C106.38,500.81 106.81,503.2 108.84,504.37C110.64,505.41 112.6,505.64 114.59,505.04C115.76,504.69 116.53,503.8 116.95,502.65C117.12,502.16 117.24,501.66 117.41,501.06C117.41,501.06 117.43,501.06 117.43,501.07L117.61,500.17C117.61,500.17 117.58,500.16 117.56,500.15C117.39,500.1 117.23,499.8 117.19,499.59C116.98,498.44 116.26,497.63 115.47,496.85C114.13,495.52 112.79,494.19 111.5,492.8C111.15,492.43 111.01,491.86 110.73,491.28C111.72,491.04 112.54,490.85 113.36,490.65C114.85,492.68 116.56,494.45 118.44,496.04L118.63,495.1C117.13,493.8 115.72,492.37 114.36,490.86C114.28,490.78 114.1,490.57 114.04,490.47C114.09,490.42 115.97,489.79 116,489.77C116.76,490.32 116.56,490.11 117.83,491.13C118.27,491.49 118.74,491.82 119.22,492.13L119.4,491.22C118.42,490.66 117.44,490.09 116.49,489.58C117.13,489.2 117.53,489.01 117.94,488.72C118.53,488.91 119.15,489.12 119.77,489.33L119.93,488.53C119.53,488.45 119.11,488.4 118.7,488.32C119.27,487.79 119.7,487.43 120.22,486.96C120.22,486.98 120.23,486.99 120.24,487.01L121.7,479.79C121.54,479.2 121.35,478.6 121.16,477.97C121.49,477.91 121.82,477.82 122.12,477.71L122.39,476.36C122.03,476.63 121.59,476.8 121.11,476.8C119.58,476.79 118.16,475.39 118.21,473.96C118.25,472.9 119.39,471.9 120.53,471.93C121.38,471.95 122.42,472.8 122.93,473.72L123.21,472.33C123.05,472.19 122.87,472.06 122.68,471.93C122.89,471.95 123.09,471.93 123.29,471.93L123.59,470.43C123.07,470.45 122.64,470.34 122.43,469.98C122.19,469.56 122.7,468.26 123.05,467.81C123.51,467.02 123.98,466.35 124.55,465.64L125,463.4C123.91,464.61 122.74,466.08 121.81,467.44C121.19,468.28 120.42,469.61 121.2,471.04C119.98,470.83 119,471.17 118.16,471.93C117.27,472.72 117.13,473.79 117.14,474.93C116.5,474.78 115.95,474.66 115.37,474.52C116.6,472.67 116.36,470.94 114.78,469.88C112.78,468.54 111.35,468.72 110.12,470.48C108.89,472.24 109.32,473.54 111.71,475.3C111.18,475.78 110.65,476.26 110.1,476.74C109.24,474.18 106.31,473.5 104.75,474.28C103.13,475.09 102.39,477.74 103.33,479.53C103.76,480.35 104.39,480.95 105.31,481.18C106.78,481.56 107.98,480.99 109.1,479.95C109.16,480.21 109.2,480.35 109.23,480.49C109.62,482.23 111.93,483.82 113.7,483.57C114.71,483.43 115.28,482.78 115.04,481.79C114.89,481.19 113.71,480.36 113.9,480.12C114.53,479.05 116.33,479.91 116.6,481.1C116.86,482.23 116.29,483.47 114.92,484.16C113.51,484.86 112.04,485.6 110.52,485.88C107.57,486.43 104.55,486.66 101.63,487.02C101,485.85 100.18,485.3 98.94,485.34C98.97,484.7 98.94,484.08 99.05,483.49C99.36,481.72 99.71,479.95 100.07,478.19C100.53,475.94 100.11,474.14 97.83,473.07C97.79,473.05 97.78,472.98 97.75,472.91C98.95,472.48 100.08,471.97 100.59,470.66C101.5,468.36 100.12,465.88 97.46,465.05C96.2,464.66 95.01,464.8 94,465.63C93.11,466.35 93.01,467.36 93.48,468.57C92.31,468.23 91.31,467.94 90.29,467.65C91.14,466.12 91.15,466.03 90.71,463.72C91.03,463.33 91.27,462.93 91.6,462.66C92.36,462.04 93.15,461.46 93.96,460.91C94.1,460.81 94.39,460.88 94.59,460.93C95.85,461.27 97.17,461.49 98.36,462.01C101.56,463.38 104.75,464.79 107.85,466.36C111.13,468.02 114.45,469.27 118.2,468.82C118.59,468.77 119.11,468.89 119.33,468.42C119.4,467.96 118.91,467.7 118.6,467.5C116.31,466.04 113.99,464.62 111.68,463.18C111.44,463.03 111.2,462.87 110.87,462.65C111.08,462.61 111.16,462.57 111.25,462.57C111.49,462.59 111.74,462.62 111.98,462.65C114.91,462.98 117.77,462.64 120.57,461.76C120.86,461.67 121.24,461.59 121.3,461.05C121.15,460.62 120.79,460.63 120.5,460.55C118.74,460.05 116.94,459.67 115.21,459.1C113.32,458.48 111.49,457.7 109.64,456.99C109.69,456.7 109.68,456.77 109.73,456.48C111.4,456.48 113.08,456.5 114.75,456.48C117.61,456.45 120.4,455.96 123.09,454.99C123.34,454.9 123.73,454.87 123.74,454.46C123.7,454.15 123.28,454.07 123.03,454.01C122.42,453.87 121.8,453.82 121.08,453.72C121.34,452.89 121.51,452.15 121.8,451.45C122.93,448.78 123.53,446.06 123.76,443.29C123.69,443.26 123.63,443.24 123.59,443.21C123.64,443.08 123.65,442.72 123.69,442.59C123.72,442.59 123.77,442.61 123.8,442.62C123.82,442.26 123.84,441.91 123.84,441.55L123.83,441.55C123.8,441.54 123.78,441.53 123.75,441.51L122.88,441.51C123.02,445.67 121.56,449.59 120.42,453.62C120.16,453.57 119.83,453.5 119.43,453.42C119.67,452.49 119.9,451.65 120.11,450.8C120.27,450.18 120.78,448.87 120.72,448.26C120.57,446.57 121.52,444.39 122.21,441.51L121.22,441.51C121.08,442.29 120.93,443.07 120.79,443.86C120.76,444 120.43,446.38 120.31,446.57C120.14,445.56 120.18,442.53 120.02,441.51L119.06,441.51C119.45,443.35 119.65,445.22 119.63,447.12C119.6,449.01 119.02,450.89 118.64,452.77C118.6,452.97 118.24,453.25 118.04,453.25C116.7,453.19 115.37,453.06 113.88,452.94C115.17,450.2 115.02,447.43 115.23,444.74C115.31,443.67 115.36,442.59 115.41,441.51L114.72,441.51L114.72,442.29C114.7,443.58 114.33,447.5 114.2,448.83C114.1,448.76 114.11,446.81 114.1,446.05C114.1,445.68 114.1,445.49 114.05,445.19C113.86,443.92 113.57,442.7 113.2,441.51L112.28,441.51C112.35,441.69 112.42,441.87 112.49,442.05C113.73,445.51 113.47,449.14 113.32,452.83C112.41,452.74 111.4,452.65 110.42,452.55C109.81,448.85 109.2,445.17 108.6,441.51L107.84,441.51C108.52,445.15 109.27,448.78 110.01,452.54C109.49,452.48 109.05,452.43 108.62,452.38C107.94,448.63 107.04,445.06 106.04,441.5L105.22,441.5C105.5,442.44 105.79,443.39 106.07,444.33C106.82,446.92 107.45,449.55 108.18,452.33C105.86,452.19 103.79,452.07 101.63,451.94C103.08,450.08 103.16,448.8 101.87,447.41C100.53,445.96 98.84,445.24 96.86,445.41C96.82,445.41 96.79,445.42 96.76,445.43C95.45,446.24 94.1,447.02 92.72,447.77C92.29,448.59 92.12,449.6 92.28,450.75C91.52,451.08 90.75,451.42 89.95,451.77C89.47,451.16 89,450.56 88.52,449.95C88.28,450.06 88.04,450.17 87.8,450.28C88.29,450.93 88.8,451.58 89.28,452.26C87.77,453.88 86.14,455.38 85.99,457.79C84.67,457.92 83.4,458.05 82.14,458.18C81.78,457.98 82.07,457.49 82.28,457.18C82.93,456.63 82.82,456.75 83.51,456.34C83.78,456.18 84.01,456.08 84.17,455.78C83.88,455.66 83.26,455.55 82.96,455.51C82.55,455.45 82.06,455.33 82.07,454.91C82.08,454.07 83.46,454.41 84.06,454.16C85.26,453.67 85.13,453.72 84.4,452.7C84.33,452.6 84.09,452.34 84.01,452.08C84.01,452.03 84.03,452 84.04,451.95C83.75,452.07 83.46,452.2 83.16,452.32C83.44,452.62 83.85,452.84 83.83,453.11C83.47,453.99 82.18,453.49 81.35,453.07C81.35,453.07 81.34,453.07 81.33,453.06C80.95,453.21 80.57,453.35 80.19,453.5C80.87,453.93 81.39,454.33 81.32,454.55C81.36,455.15 79.53,454.94 78.68,454.84C78.14,454.78 77.61,454.7 77.07,454.63C76.42,454.85 75.78,455.08 75.13,455.3C75.64,455.39 76.15,455.5 76.64,455.56C78.54,455.76 80.44,455.82 82.54,456.04C81.6,456.78 81.17,457.39 80.99,458.17C80.83,458.29 79.51,458.23 79.27,458.2C77.72,458.03 76.18,457.75 74.63,457.69C72.42,457.6 67.09,458.38 67.09,457.87C67.05,457.81 67.13,457.72 67.28,457.61C66.54,457.8 65.79,458 65.04,458.18C64.89,458.3 64.79,458.46 64.83,458.73C64.97,459.23 65.58,459.06 65.93,459.03C67.57,458.89 69.2,458.67 70.84,458.49C71.04,458.47 71.24,458.49 71.48,458.57C69.73,459.14 68.37,460.16 67.35,461.7C67.07,462.12 66.48,462.33 65.96,462.69C64.7,461.49 63.87,460.09 63.25,458.6C62.93,458.67 62.6,458.75 62.28,458.82C62.96,460.52 63.96,462.1 65.49,463.49C64.93,463.93 64.42,464.48 64,465.22C62.54,463.31 61.2,461.36 60.12,459.3C59.8,459.37 59.47,459.43 59.14,459.5C59.89,460.97 60.77,462.37 61.8,463.69C62.3,464.34 62.86,464.95 63.39,465.58C62.8,466.47 61.41,466.14 60.85,465.71C59.93,464.94 57.64,462.45 56.4,460.05C56.17,460.09 55.92,460.13 55.69,460.18C56.51,461.94 57.62,463.55 59.07,464.84C59.13,464.89 59.15,464.99 59.15,464.98C58.39,464.98 57.72,464.89 56.89,465.23C56.55,464.53 55.09,461.88 54.45,460.4C54.18,460.45 53.91,460.5 53.64,460.54C53.69,460.68 53.74,460.82 53.78,460.97C54.29,462.7 55.03,464.27 56.29,465.58C56.02,466.05 55.85,466.77 55.51,466.86C54.19,467.2 52.82,467.35 51.69,467.53C51.61,466.18 51.64,464.68 51.39,463.23C51.26,462.46 51.08,461.7 50.81,460.99C50.42,461.05 50.03,461.11 49.64,461.17C50.39,462.77 50.74,464.48 50.57,466.29C50.46,467.47 49.86,468.35 48.82,468.91C47.97,469.38 47.35,469.38 46.71,468.96L46.43,470.32C47.36,470.37 48.14,470.42 48.95,470.46C47.93,472.2 48.05,474.02 48.65,475.85L49.8,475.85C49.21,474.62 49.1,473.29 49.53,471.86L49.6,471.85ZM100.41,545.71C100.13,545.8 99.26,545.78 99.17,545.63C99.02,545.38 99.15,544.93 99.28,544.64C99.85,543.3 100.96,542.48 102.36,541.51C102.42,542.26 102.6,543.05 102.71,543.5C102.24,544.51 101.61,545.33 100.42,545.7L100.41,545.71ZM104.77,545.44C105.14,545.56 105.39,545.61 105.71,545.72C105.62,547.58 105.32,551.55 104.15,551.24C103.39,550.95 104.12,547.48 104.77,545.45L104.77,545.44ZM104.27,545.17C103.71,546.07 102.67,547.84 102.05,548.7C101.87,548.95 101.41,549.34 101.02,549.11C100.66,548.74 100.84,548.31 100.98,548.03C101.65,546.67 102.41,545.46 103.16,544.07C103.77,544.75 103.91,544.9 104.26,545.17L104.27,545.17ZM67.96,553.15C66.42,553.12 65.04,551.65 65.06,550.05C65.07,548.56 65.96,547.62 67.34,547.64C69.1,547.66 70.43,548.9 70.4,550.5C70.37,552.07 69.35,553.18 67.97,553.15L67.96,553.15ZM76.87,562.2C76.35,562.23 76.54,560.59 76.15,559.89C77.08,559.89 77.32,559.83 78.01,559.83C78.14,560.29 78.42,561.03 78.6,561.69C77.96,561.86 77.38,562.17 76.88,562.2L76.87,562.2ZM78.93,557.69C78.62,558.33 78.21,558.84 77.46,558.64C75.59,558.57 74.42,557.68 74.29,556.29C74.19,555.24 74.7,554.34 75.62,553.91C76.45,553.52 77.22,553.69 78.02,554.45C79.13,555.5 79.45,556.64 78.93,557.69ZM85.43,549.4C86.91,549.39 87.95,550.69 87.96,552.59C87.96,553.96 87.29,554.68 86,554.67C84.26,554.66 82.86,553.53 82.87,552.13C82.87,550.76 84.14,549.41 85.43,549.39L85.43,549.4ZM83.19,532.49C84.05,531.65 85.43,531.54 86.36,532.31C87.37,533.14 88,534.19 87.94,535.41C87.91,537.84 86.86,538.59 84.76,537.8C82.47,536.95 81.61,534.04 83.2,532.49L83.19,532.49ZM100.9,538.92C100.76,538.96 100.11,538.27 99.92,537.96C99.39,537.16 99.44,537.4 99.04,536.55C97.4,533.08 95.83,529.57 94.22,526.08C93.67,524.89 93.1,523.69 91.71,523.19L91.71,521.52C92.82,521.57 93.64,522.1 94.37,522.82C95.76,524.18 96.86,525.75 97.55,527.58C98.65,530.52 99.77,533.45 100.79,536.41C101.05,537.15 101.56,538.69 100.9,538.93L100.9,538.92ZM103.58,535.99C103.43,536.09 102.53,535.86 102.38,535.68C101.87,535.06 101.45,534.33 101.13,533.6C100.02,531.12 99.15,528.53 97.9,526.14C97.1,524.61 95.88,523.24 94.65,522C93.97,521.32 92.86,521.08 91.95,520.64C91.89,520.71 91.84,520.78 91.78,520.85C91.68,520.42 91.58,519.99 91.47,519.51C93.93,519.4 95.65,520.57 97.04,522.24C99.76,525.5 101.68,529.26 103.41,533.11C103.66,533.67 103.87,534.29 103.89,534.93C103.9,535.21 103.83,535.84 103.59,536L103.58,535.99ZM107.13,534.46C106.83,534.66 105.76,534.07 105.46,533.84C104.96,533.47 104.53,532.91 104.27,532.34C102.67,528.87 100.95,525.47 98.51,522.5C97.11,520.8 95.58,519.2 93.22,518.83C92.83,518.77 92.41,518.68 92.04,518.77C91.31,518.95 90.96,518.69 90.8,517.88C91.8,517.88 92.82,517.72 93.76,517.91C95.59,518.28 97.03,519.45 98.2,520.83C100.98,524.11 103.69,527.45 106.38,530.81C106.8,531.33 107.08,532.04 107.21,532.7C107.29,533.08 107.43,534.25 107.12,534.45L107.13,534.46ZM108.4,509C109.56,508.14 110.43,508.44 110.87,509.83C111.56,512.03 111.09,514.19 110.56,516.33C110.36,517.14 109.93,517.89 109.57,518.66C108.7,520.53 107.81,522.4 106.88,524.36C106.68,524.2 106.43,523.99 106.23,523.83C106.78,522.16 107.42,520.57 107.79,518.92C108.22,517.02 108.37,515.08 106.7,513.56C106.62,513.49 106.53,513.34 106.55,513.25C106.82,511.69 106.98,510.07 108.39,509.01L108.4,509ZM95.22,501.1C94.95,499.47 95.6,497.49 97.7,496.69C98.15,496.52 98.65,496.45 99.13,496.42C99.69,496.38 100.27,496.34 100.52,497.08C100.6,497.33 100.95,497.49 101.2,497.67C102.21,498.43 102.57,499.16 102.56,500.39C102.54,502.32 101.23,503.71 99.22,503.93C97.36,504.14 95.53,502.92 95.23,501.09L95.22,501.1ZM102.74,517.63C102.01,516.37 101.04,515.25 100.28,514C99.49,512.71 98.67,511.41 98.15,510C97.85,509.18 97.99,508.14 98.15,507.24C98.28,506.44 98.65,505.63 99.7,505.59C100.89,505.54 101.86,506.12 102.21,507.19C102.5,508.06 102.76,508.94 102.93,509.84C103.27,511.64 103.99,513.12 105.71,514.01C106.72,514.54 107.05,515.55 107.14,516.63C107.33,518.97 106.53,521.05 105.46,523.14C104.72,522.57 104.03,522.03 103.33,521.48C103.85,520.08 103.43,518.8 102.76,517.64L102.74,517.63ZM93.32,515.38C96.45,517.44 99.42,519.75 102.34,522.11C104.61,523.95 106.72,525.99 108.84,528.01C109.29,528.44 109.75,529.01 109.92,529.63C110.1,530.47 109.73,531.15 108.63,530.67C107.93,530.3 107.21,529.85 106.69,529.27C103.82,526.02 101.05,522.69 98.15,519.47C97.42,518.66 96.35,518.12 95.38,517.56C93.91,516.71 92.34,516.83 90.77,517.28C90.57,517.34 90.26,517.39 90.12,517.28C89.44,516.79 88.79,516.24 88.14,515.71C89.92,514 90.93,513.78 93.33,515.36L93.32,515.38ZM77.26,527.38C78.8,524.05 80.31,520.71 82.85,517.98C84.1,516.65 85.61,515.96 87.38,516.7C89.27,517.48 90.36,518.92 90.47,521.06C90.56,522.88 90.18,524.58 89.51,526.24C88.96,527.59 88.13,528.22 87.12,528.13C85.89,528.02 85.4,527.35 85.29,525.53C85.6,525.53 85.84,525.55 86.08,525.53C88.07,525.33 88.88,523.59 87.76,521.94C87.12,521 86.17,520.69 85.22,521.34C84.36,521.93 83.48,522.65 82.92,523.51C81.54,525.62 80.35,527.84 79.06,530.04C78.54,529.4 77.93,528.69 77.36,527.95C77.25,527.81 77.19,527.53 77.25,527.38L77.26,527.38ZM75.24,527.41C78.82,531.19 81.56,535.48 83.08,540.49C83.86,543.06 84.24,545.6 82.78,548.1C80.55,551.91 77.94,552.64 74.14,551.88C73.78,551.81 73.43,551.7 73.08,551.6C72.15,551.31 71.39,551.08 71.35,549.72C71.33,548.88 70.39,548.05 69.83,547.23C69.5,546.75 68.98,546.36 68.75,545.84C67.63,543.22 68.16,540.97 70.19,539.23C70.94,538.59 71.8,538.4 72.66,538.76C73.62,539.16 74.35,539.92 74.5,541C74.55,541.34 74.29,541.83 74.03,542.1C73.51,542.62 72.17,541.89 72.25,542.62C72.4,544.04 73.83,546.65 74.77,547.79C76.15,549.45 78.64,549.31 79.72,547.45C80.67,545.81 80.6,544.05 80.12,542.3C79.3,539.31 77.62,536.8 75.52,534.58C72.94,531.85 70.26,529.22 67.64,526.57C69.08,525.82 70.41,525.12 71.98,524.29C72.92,525.19 74.12,526.25 75.22,527.41L75.24,527.41ZM90.22,507.53C90.4,507.5 90.92,507.51 91.06,507.43C91.25,507.32 91.89,507.31 91.82,506.89C91.78,506.46 90.85,506.62 90.66,506.64C89.71,506.72 88.86,506.57 88.08,505.96C87.28,505.33 86.75,504.6 86.94,503.54C87.1,502.67 88,501.92 89.11,501.85C90.97,501.73 92.54,502.38 93.66,503.9C94.67,505.27 94.77,506.75 94.1,508.32C93.55,509.59 92.49,510.23 91.3,510.67C89.8,511.22 88.23,511.4 86.66,511.22C86.51,510.12 86.37,509.16 86.23,508.1C87.53,507.92 88.87,507.73 90.22,507.55L90.22,507.53ZM83.7,506.75C84.95,507.75 85.85,510.13 85.19,511.67C84.13,514.14 82.4,515.43 79.62,515.43C77.4,515.43 75.53,513.77 75.17,511.47C74.77,508.87 75.97,506.51 78.12,505.66C78.73,505.42 79.27,505.36 79.82,505.83C80.58,506.47 81.48,506.46 82.43,506.4C82.85,506.37 83.38,506.5 83.7,506.76L83.7,506.75ZM106.23,480.18C104.97,480.18 104.06,479.01 104.04,477.33C104.02,475.9 104.98,474.86 106.37,474.83C107.87,474.79 109.11,476.08 109.15,477.74C109.17,478.77 107.5,480.18 106.23,480.19L106.23,480.18ZM110.91,493.69C112.13,495.08 113.5,496.35 114.85,497.64C116.21,498.93 116.7,500.46 116,502.2C115.73,502.86 115.2,503.53 114.61,503.92C112.9,505.07 110.03,504.29 108.77,502.66C108.09,501.78 108.11,500.97 108.58,499.97C109.01,499.04 109.45,498.67 110.54,498.65C111.13,498.69 111.79,498.83 112.07,499.82C112.15,500.11 111.78,501.11 112.32,500.85C113.04,499.73 112.52,498.75 111.67,497.76C110.07,495.89 108.08,494.28 107.25,491.78C108.13,491.63 108.94,491.5 109.78,491.36C110.15,492.14 110.36,493.06 110.91,493.68L110.91,493.69ZM110.56,472.13C110.56,471.03 111.75,469.74 112.79,469.71C113.7,469.69 115.2,471.41 115.21,472.49C115.22,473.42 114.07,474.34 112.94,474.31C111.62,474.28 110.57,473.31 110.56,472.13ZM113.05,486.2C114.85,485.63 116.51,484.81 117.47,483.02C117.97,482.09 117.92,480.49 117.24,479.81C116.45,479.02 115.47,478.58 114.33,478.92C113.92,479.04 113.5,479.33 113.21,479.65C112.75,480.15 112.71,480.69 113.42,481.08C113.63,481.2 113.86,481.33 114,481.52C114.34,481.97 114.12,482.48 113.58,482.5C112.24,482.54 111.3,481.76 110.65,480.74C110.13,479.92 110.18,478.93 110.73,478.05C111.91,476.13 113.79,475.33 115.98,475.82C120.32,476.79 122.17,481.66 119.67,485.33C118.18,487.52 116.17,488.8 113.64,489.47C110.52,490.3 107.38,490.78 104.15,490.69C103.52,490.67 102.89,490.76 102.27,490.8C102.19,489.55 102.12,488.48 102.05,487.41C105.74,487.69 109.45,487.33 113.07,486.19L113.05,486.2ZM61.57,473.08C60.81,471.49 60.1,470 59.33,468.38C59.61,468.06 60.09,468.15 60.59,468.35C61.85,468.85 63.1,469.36 64.39,469.88C62.94,470.44 62.1,471.67 61.57,473.08ZM73.1,473.45C72.14,472.26 71.26,471.17 70.45,470.17C71.25,470.58 72.22,470.5 73.29,469.64C73.22,471.05 73.16,472.21 73.1,473.45ZM97.84,474.24C98.8,474.64 99.36,475.46 99.24,476.5C99.07,478.04 98.72,479.56 98.51,481.09C98.29,482.75 98.11,484.41 98,486.08C97.97,486.46 98.06,488.23 98.51,488.12C98.93,488.12 98.95,486.66 99.27,486.29C99.87,486.34 100.33,486.74 100.66,487.4C101.32,488.71 101.39,490.02 100.86,491.38C100.33,492.76 99.4,493.74 97.9,493.94C96.23,494.17 95.07,493.24 94.31,491.89C93.05,489.61 92.7,487.11 92.86,484.53C92.93,483.34 93.07,482.16 93.1,480.97C93.13,479.82 92.61,478.96 91.48,478.57C90.3,478.16 89.14,477.68 87.93,477.44C86.55,477.17 85.74,477.64 85.53,479.03C85.21,481.1 85.07,483.21 85.06,485.31C85.06,487.59 85.28,489.87 85.42,492.25C84.06,492.14 82.85,492.05 81.44,491.94C81.58,488.63 81.62,485.4 81.88,482.18C82.04,480.19 82.51,478.21 82.88,476.24C82.97,475.77 83.18,475.31 83.41,474.88C84.11,473.55 85.06,473.1 86.51,473.45C88.76,474 91,474.57 92.91,476.03C94.36,477.14 95.13,478.39 95.05,480.29C94.95,482.75 94.71,485.27 95.63,487.64C96.02,488.63 96.71,489.52 97.39,490.35C97.64,490.66 98.26,491.18 98.67,490.84C98.72,490.75 98.76,490.65 98.81,490.56C98.72,490.42 98.67,490.24 98.55,490.14C96.78,488.56 96.2,486.49 96.11,484.22C96.06,482.85 95.99,481.47 96.07,480.1C96.2,477.96 95.27,476.44 93.63,475.17C91.71,473.67 89.47,473.04 87.17,472.5C84.57,471.89 83.12,472.68 82.21,475.23C81.34,477.67 80.99,480.22 80.92,482.78C80.84,485.73 80.9,488.69 80.9,491.8C80.11,491.73 79.41,491.66 78.69,491.59C79.03,489.15 79.41,486.8 79.69,484.45C79.97,482.09 80.1,479.7 80.41,477.34C80.63,475.69 81.01,474.05 81.42,472.43C81.74,471.16 82.39,470.68 83.72,470.63C84.42,470.6 85.13,470.65 85.81,470.79C88.11,471.25 90.44,471.65 92.69,472.28C94.44,472.77 96.12,473.53 97.81,474.23L97.84,474.24ZM95.74,470.02C95.95,470.07 96.17,470.18 96.36,470.14C96.59,470.1 96.95,470.21 97.03,469.81C97.15,469.53 96.83,469.36 96.65,469.26C96.37,469.09 96.04,468.98 95.71,468.92C94.78,468.74 94.47,468.02 94.44,467.25C94.41,466.35 95.21,466.16 95.91,466.05C98.06,465.72 100.05,467.66 99.79,469.81C99.6,471.37 97.45,472.59 95.84,472.17C92.54,471.32 89.22,470.56 85.9,469.78C85.46,469.68 84.99,469.69 84.53,469.68C82.81,469.64 82.01,469.98 80.87,471.24C80.87,470.5 80.81,469.81 80.89,469.13C80.97,468.43 81.48,468.16 82.16,468.05C84.59,467.64 86.97,467.94 89.33,468.49C91.47,468.98 93.59,469.52 95.73,470.04L95.74,470.02ZM82.95,465.26C82.14,464.06 82.5,462.76 83.84,462.18C84.47,461.91 85.18,461.82 85.85,461.66C88.16,461.8 89.82,463.06 90.05,464.92C90.26,466.61 89.39,467.44 87.73,467.19C87.07,467.09 86.4,467 85.74,466.95C84.51,466.86 83.62,466.23 82.96,465.25L82.95,465.26ZM117.51,467.84C117.18,468.23 113.64,467.84 111.88,467.03C107.97,465.24 104.12,463.33 100.19,461.6C98.71,460.95 97.08,460.62 95.49,460.23C94.98,460.11 94.41,460.27 93.73,460.31C93.33,458.85 92.48,457.71 90.89,456.97C91.81,456.51 92.47,455.89 93.49,456.27C96.54,457.41 99.63,458.43 102.63,459.68C107.84,461.86 117.74,467.22 117.52,467.85L117.51,467.84ZM118.69,460.8C118.82,460.84 119.3,460.97 119.29,461.16C119.34,461.46 118.89,461.4 118.51,461.45C116.52,461.55 115.29,461.7 113.3,461.78C112.06,461.83 110.81,461.84 109.57,461.82C109.23,461.82 108.88,461.64 108.55,461.5C104.25,459.7 99.96,457.89 95.66,456.09C95.22,455.9 94.73,455.82 94.03,455.62C95.78,454.91 97.22,454.13 99.04,454.98C101.7,456.22 104.59,456.57 107.51,456.67C107.77,456.67 108.07,456.73 108.29,456.87C111.55,458.97 115,459.81 118.68,460.81L118.69,460.8ZM102.95,452.68C107.9,453.13 112.86,453.6 117.81,454.09C118.97,454.2 121.97,454.25 121.96,454.65C122.01,454.9 121.4,454.99 121.09,455.03C113.4,455.89 105.91,456.51 98.14,454.07C99,453.57 99.69,452.99 100.49,452.76C101.26,452.54 102.13,452.6 102.95,452.67L102.95,452.68ZM91.08,452.28C92.86,451.43 94.76,450.81 96.6,450.09C96.85,449.99 97.1,449.9 97.33,449.69C97.36,449 94.5,450.04 93.11,450.32C92.83,449.28 93.23,448.2 94.12,447.53C96.27,445.9 98.9,446.01 100.9,447.81C102.14,448.93 102.2,450.27 100.78,451.2C99.16,452.26 97.41,453.15 95.64,453.93C93.73,454.77 91.56,455.02 89.91,456.45C89.8,456.55 89.57,456.54 89.4,456.54L87.02,456.54C88.08,454.66 89.3,453.13 91.1,452.27L91.08,452.28ZM87,457.31C88.48,456.5 91.15,457.67 92.1,459.12C92.84,460.24 92.69,460.53 91.76,461.25C91.17,459.59 88.08,459.07 86.66,458.71C86.72,458.07 86.66,457.96 87,457.32L87,457.31ZM86,459.56C87.45,459.38 90.66,460.7 91.15,461.51C90.87,461.83 90.29,462.23 90.31,462.71C88.56,461.6 87.73,461.05 85.56,460.81C85.64,460.42 85.5,459.62 86,459.56ZM84.87,459.35C84.83,459.7 84.77,460.24 84.69,460.94C83.5,461.18 82.24,461.79 81.79,463.29C81.32,464.88 82.35,465.9 83.51,466.9C82.57,467.07 81.75,467.22 80.87,467.37C80.68,463.42 78.97,460.45 75.24,458.83C78.5,459 81.76,459.18 84.86,459.34L84.87,459.35ZM72.16,459.7C74.19,459.23 75.81,460.37 77.24,461.69C79.05,463.37 79.71,465.6 79.65,467.92C79.52,472.92 79.22,477.92 78.85,482.91C78.64,485.7 78.14,488.47 77.76,491.33C77.07,491.16 76.41,491 75.66,490.82C76.16,486.02 76.68,481.29 77.14,476.56C77.49,473.02 77.42,469.48 76.83,465.97C76.57,464.42 75.88,463.1 74.71,462.01C73.25,460.66 71.41,460.5 70.4,461.69C68.95,463.41 69.18,465.42 70.96,466.81C71.35,466.97 71.4,466.31 71.45,466.16C71.73,465.36 72.11,465.46 72.75,465.8C73.47,466.19 73.74,466.96 73.42,467.66C72.61,469.41 70.59,469.65 69.35,468.08C66.18,464.07 68.35,460.57 72.16,459.69L72.16,459.7ZM67.64,467.68C68.12,468.3 68.65,468.99 69.11,469.59C68.08,469.52 66.96,469.44 66.07,469.38C66.5,468.92 67.06,468.3 67.64,467.68ZM56.7,466.29C57.14,465.78 57.65,465.43 58.38,465.74C59.11,466.04 59.87,466.28 60.58,466.63C62.13,467.4 63.52,467.23 64.79,466.05C65.38,465.5 66,464.96 66.64,464.39C66.57,465.28 67.45,466.11 66.53,467.13C65.09,468.72 64.38,468.95 62.41,468.05C61.89,467.81 61.34,467.61 60.78,467.44C59.93,467.18 59.16,467.34 58.56,467.98C57.94,467.68 57.46,467.39 56.95,467.22C56.29,467.01 56.38,466.67 56.71,466.29L56.7,466.29Z" style="fill:rgb(173,31,97);fill-rule:nonzero;"/>
                <path d="M56.07,471.05C55.19,470.18 53.85,470.02 52.9,470.77C51.42,471.93 50.98,473.54 51.09,475.34C51.09,475.46 51.13,475.66 51.2,475.83L51.64,475.83C51.65,475.78 51.66,475.74 51.66,475.72C51.75,475.18 51.91,474.61 52.56,474.67C52.9,474.7 53.36,474.85 53.5,475.33C53.55,475.49 53.58,475.67 53.61,475.85C54.04,475.85 54.46,475.86 54.88,475.87C54.78,475.63 54.68,475.39 54.56,475.12C54.12,474.13 53.15,473.6 51.96,473.86C51.95,473.69 52.1,473.22 52.11,473.19C52.53,472.23 52.99,471.6 54.2,471.48C55.36,471.36 55.84,472.38 56.24,473.19C56.65,474.02 56.94,474.99 57.01,475.92C57.38,475.93 57.73,475.94 58.08,475.96L58.08,475.74C58.02,473.94 57.39,472.34 56.08,471.05L56.07,471.05Z" style="fill:rgb(173,31,97);fill-rule:nonzero;"/>
                <path d="M86.72,451.62C86.94,451.45 86.91,451.08 86.91,450.69C86.7,450.79 86.49,450.88 86.28,450.98C86.2,451.05 86.1,451.08 86.01,451.1C85.6,451.28 85.19,451.46 84.78,451.64C85.44,451.66 86.38,451.88 86.72,451.61L86.72,451.62Z" style="fill:rgb(173,31,97);fill-rule:nonzero;"/>
                <path d="M71.58,507.86C71.39,507.36 71.07,506.97 70.68,506.7L70.38,508.19C70.47,508.26 70.54,508.33 70.55,508.41C70.61,508.78 70.39,509.33 70.1,509.62L70.09,509.62L69.78,511.14C70.23,510.83 70.66,510.47 71.05,510.05C71.61,509.45 71.91,508.7 71.58,507.86Z" style="fill:rgb(173,31,97);fill-rule:nonzero;"/>
                <path d="M128.85,444.72L129.02,443.87C128.47,443.73 127.92,443.6 127.37,443.47C126.54,443.28 124.77,442.83 123.87,442.6C123.86,442.82 123.84,443.05 123.82,443.27C124.29,443.46 125.32,443.68 125.62,443.76C126.7,444.07 127.77,444.4 128.84,444.72L128.85,444.72Z" style="fill:rgb(173,31,97);fill-rule:nonzero;"/>
                <path d="M129.45,441.74C128.97,441.66 128.49,441.58 128.01,441.49L123.91,441.49L123.91,441.53C125.37,442.06 127.32,442.44 129.25,442.71L129.45,441.74Z" style="fill:rgb(173,31,97);fill-rule:nonzero;"/>
                <path d="M123.75,442.57C123.7,442.7 123.69,443.06 123.65,443.19C123.69,443.22 123.75,443.24 123.82,443.27C123.84,443.05 123.86,442.82 123.87,442.6C123.83,442.6 123.79,442.58 123.76,442.57L123.75,442.57Z" style="fill:rgb(173,31,97);fill-rule:nonzero;"/>
                <path d="M123.82,441.49C123.82,441.49 123.86,441.51 123.9,441.53L123.91,441.53L123.91,441.49L123.82,441.49Z" style="fill:rgb(173,31,97);fill-rule:nonzero;"/>
                <path d="M68.48,521.75C68.46,521.3 68.22,520.88 67.87,520.59L67.34,523.22C68,522.96 68.51,522.37 68.48,521.75Z" style="fill:rgb(173,31,97);fill-rule:nonzero;"/>
                <path d="M79.56,508.93C78.75,508.97 77.87,510.01 77.88,510.93C77.89,511.87 78.63,512.56 79.6,512.55C80.83,512.54 81.72,511.82 81.68,510.86C81.65,510.01 80.42,508.89 79.56,508.93ZM80.35,511.23C80.2,511.46 79.3,511.53 79.09,511.32C78.47,510.72 78.74,510.02 79.72,509.86C80.22,510.05 80.94,510.33 80.35,511.23Z" style="fill:rgb(173,31,97);fill-rule:nonzero;"/>
                <path d="M69.14,475.23C69.14,474.15 68.1,473.21 66.95,473.22C65.79,473.22 64.77,474.12 64.78,475.12C64.78,475.61 64.97,476.06 65.27,476.43C66.47,476.56 67.5,476.72 68.36,476.9C68.83,476.53 69.14,475.95 69.13,475.23L69.14,475.23ZM65.64,474.95C66.29,473.93 67.72,474.42 67.87,475.02C67.95,475.34 67.76,475.89 67.5,476.08C66.93,476.5 65.64,475.93 65.64,474.95Z" style="fill:rgb(173,31,97);fill-rule:nonzero;"/>
                <path d="M64.28,542.18C64.28,541.74 64.07,541.29 63.76,540.94L63.15,543.98C63.79,543.73 64.28,543.02 64.28,542.19L64.28,542.18Z" style="fill:rgb(173,31,97);fill-rule:nonzero;"/>
                <path d="M106.79,539.88C106.1,539.87 105.45,540.48 105.41,541.2C105.36,542.04 106.01,542.82 106.78,542.85C107.53,542.87 108.05,542.28 108.07,541.39C108.09,540.61 107.48,539.89 106.8,539.88L106.79,539.88ZM106.76,542.3C106.29,542.29 105.89,541.8 105.92,541.28C105.95,540.84 106.34,540.46 106.77,540.47C107.19,540.47 107.56,540.92 107.56,541.4C107.55,541.95 107.23,542.31 106.77,542.3L106.76,542.3Z" style="fill:rgb(173,31,97);fill-rule:nonzero;"/>
                <path d="M100.42,500.99C100.42,500.09 99.67,499.14 98.97,499.16C98.16,499.18 97.23,500.16 97.22,500.99C97.22,501.85 98.06,502.65 98.96,502.64C99.83,502.62 100.41,501.96 100.42,500.99ZM98.23,500.8C98.19,500.6 98.47,500.16 98.77,500.1C99.12,500.1 99.44,500.41 99.57,500.92C99.48,501.37 98.95,501.54 98.88,501.5C98.61,501.33 98.27,501.07 98.22,500.8L98.23,500.8Z" style="fill:rgb(173,31,97);fill-rule:nonzero;"/>
                <path d="M120.83,473.72C120.42,473.73 119.96,474.22 119.96,474.64C119.96,475.07 120.38,475.47 120.83,475.46C121.27,475.46 121.56,475.12 121.56,474.64C121.56,474.19 121.18,473.71 120.83,473.73L120.83,473.72ZM120.79,474.89C120.65,474.81 120.49,474.68 120.46,474.54C120.44,474.44 120.58,474.22 120.73,474.19C120.91,474.19 121.07,474.35 121.13,474.6C121.08,474.83 120.82,474.91 120.79,474.89Z" style="fill:rgb(173,31,97);fill-rule:nonzero;"/>
                <path d="M113.65,472.72C113.65,472.27 113.27,471.8 112.92,471.81C112.51,471.82 112.05,472.31 112.05,472.73C112.05,473.16 112.47,473.56 112.92,473.55C113.36,473.55 113.65,473.21 113.65,472.73L113.65,472.72ZM112.88,472.98C112.74,472.9 112.58,472.77 112.55,472.63C112.53,472.53 112.67,472.31 112.82,472.28C113,472.28 113.16,472.44 113.22,472.69C113.17,472.92 112.91,473 112.88,472.98Z" style="fill:rgb(173,31,97);fill-rule:nonzero;"/>
                <path d="M106.64,477.05C106.23,477.06 105.77,477.55 105.77,477.97C105.77,478.4 106.19,478.8 106.64,478.79C107.08,478.79 107.37,478.45 107.37,477.97C107.37,477.52 106.99,477.05 106.64,477.06L106.64,477.05ZM106.6,478.22C106.46,478.14 106.3,478.01 106.27,477.87C106.25,477.77 106.39,477.55 106.54,477.52C106.72,477.52 106.88,477.68 106.94,477.93C106.89,478.16 106.63,478.24 106.6,478.22Z" style="fill:rgb(173,31,97);fill-rule:nonzero;"/>
                <path d="M67.71,549.55C67.05,549.55 66.44,550.14 66.44,550.8C66.44,551.75 67.03,552.41 67.85,552.39C68.48,552.38 69.02,551.73 69.02,550.96C69.02,550.27 68.36,549.55 67.71,549.54L67.71,549.55ZM67.68,551.7C67.31,551.79 66.88,551.14 66.95,550.65C66.97,550.48 67.12,550.31 67.46,550.16C68.03,550.19 68.27,550.64 68.27,551.08C68.27,551.44 67.93,551.64 67.68,551.7Z" style="fill:rgb(173,31,97);fill-rule:nonzero;"/>
                <path d="M76.67,555.19C76.01,555.19 75.4,555.78 75.4,556.44C75.4,557.39 75.99,558.05 76.81,558.03C77.44,558.02 77.98,557.37 77.98,556.6C77.98,555.91 77.32,555.19 76.67,555.18L76.67,555.19ZM76.65,557.33C76.28,557.42 75.85,556.77 75.92,556.28C75.94,556.11 76.09,555.94 76.43,555.79C77,555.82 77.24,556.27 77.24,556.71C77.24,557.07 76.9,557.27 76.65,557.33Z" style="fill:rgb(173,31,97);fill-rule:nonzero;"/>
                <path d="M85.43,554C86.06,553.99 86.6,553.34 86.6,552.57C86.6,551.88 85.94,551.16 85.29,551.15C84.63,551.15 84.02,551.74 84.02,552.4C84.02,553.35 84.61,554.01 85.43,553.99L85.43,554ZM85.05,551.75C85.62,551.78 85.86,552.23 85.86,552.67C85.86,553.03 85.52,553.23 85.27,553.29C84.9,553.38 84.47,552.73 84.54,552.24C84.56,552.07 84.71,551.9 85.05,551.75Z" style="fill:rgb(173,31,97);fill-rule:nonzero;"/>
                <path d="M85.24,536.34C85.87,536.33 86.41,535.68 86.41,534.91C86.41,534.22 85.75,533.5 85.1,533.49C84.44,533.49 83.83,534.08 83.83,534.74C83.83,535.69 84.42,536.35 85.24,536.33L85.24,536.34ZM84.86,534.09C85.43,534.12 85.67,534.57 85.67,535.01C85.67,535.37 85.33,535.57 85.08,535.63C84.71,535.72 84.28,535.07 84.35,534.58C84.37,534.41 84.52,534.24 84.86,534.09Z" style="fill:rgb(173,31,97);fill-rule:nonzero;"/>
            </g>
        </g>
    </g>
</svg>
