<?xml version="1.0" encoding="UTF-8" standalone="no"?>
<!DOCTYPE svg PUBLIC "-//W3C//DTD SVG 1.1//EN" "http://www.w3.org/Graphics/SVG/1.1/DTD/svg11.dtd">
<svg width="100%" height="100%" viewBox="0 0 46 41" version="1.1" xmlns="http://www.w3.org/2000/svg" xmlns:xlink="http://www.w3.org/1999/xlink" xml:space="preserve" xmlns:serif="http://www.serif.com/" style="fill-rule:evenodd;clip-rule:evenodd;stroke-linejoin:round;stroke-miterlimit:2;">
    <g transform="matrix(1,0,0,1,-710.75,-208.38)">
        <g>
            <path d="M738.45,245.82C738.18,245.82 737.97,245.77 737.89,245.68L737.77,245.91L738.65,245.91C738.65,245.91 738.65,245.97 738.67,245.98C738.7,245.99 738.75,246 738.82,246C738.95,246 739.05,245.97 739.07,245.91L739.19,245.67C739.04,245.77 738.75,245.82 738.45,245.82Z" style="fill:white;fill-rule:nonzero;"/>
            <path d="M724.89,245.44L724.8,245.62C724.76,245.7 724.83,245.73 724.97,245.73C725.12,245.73 725.22,245.68 725.26,245.61L725.44,245.24L725.13,245.32C725,245.35 724.92,245.39 724.89,245.44Z" style="fill:white;fill-rule:nonzero;"/>
            <path d="M736.48,244.94C736.48,244.94 736.53,244.83 736.32,244.83C736.19,244.83 736.09,244.86 736.06,244.92C736.01,245.03 736.35,245.09 736.59,245.18C736.79,245.24 736.98,245.31 737.05,245.41L737.26,245L736.45,245L736.48,244.93L736.48,244.94Z" style="fill:white;fill-rule:nonzero;"/>
            <path d="M745.59,245.8L745.56,245.8L745.56,245.86L745.58,245.86C745.58,245.86 745.63,245.86 745.63,245.83C745.63,245.81 745.62,245.8 745.59,245.8Z" style="fill:white;fill-rule:nonzero;"/>
            <path d="M728.73,244.79C728.55,244.79 728.46,244.82 728.43,244.88L728.37,244.99L727.47,244.99L727.29,245.35C727.49,245.23 727.78,245.18 728.05,245.14C728.45,245.08 728.82,245.05 728.9,244.9C728.94,244.83 728.9,244.79 728.73,244.79Z" style="fill:white;fill-rule:nonzero;"/>
            <path d="M739.35,244.86C739.27,244.86 739.15,244.87 739.11,244.96L738.86,245.46C738.82,245.53 738.9,245.56 739,245.56C739.24,245.56 739.32,245.42 739.34,245.37L739.51,245.03C739.57,244.9 739.46,244.86 739.35,244.86Z" style="fill:white;fill-rule:nonzero;"/>
            <path d="M728.18,245.44L728.09,245.62C728.05,245.7 728.12,245.73 728.25,245.73C728.4,245.73 728.51,245.68 728.54,245.61L728.72,245.24L728.4,245.32C728.27,245.35 728.2,245.39 728.17,245.44L728.18,245.44Z" style="fill:white;fill-rule:nonzero;"/>
            <path d="M725.44,244.79C725.26,244.79 725.17,244.82 725.14,244.88L725.08,244.99L724.25,244.99L724.09,245.31C724.28,245.22 724.53,245.17 724.77,245.14C725.17,245.08 725.54,245.05 725.61,244.9C725.65,244.83 725.61,244.79 725.44,244.79Z" style="fill:white;fill-rule:nonzero;"/>
            <path d="M731.72,244.86C731.63,244.86 731.52,244.88 731.49,244.94L731.15,245.62C731.12,245.69 731.2,245.71 731.3,245.71C731.55,245.71 731.61,245.59 731.66,245.49L731.89,245.03C731.93,244.95 731.93,244.86 731.73,244.86L731.72,244.86Z" style="fill:white;fill-rule:nonzero;"/>
            <path d="M734.23,244.95C734.23,244.95 734.29,244.84 734.07,244.84C733.85,244.84 733.82,244.91 733.8,244.95L733.73,245.09L734.16,245.09L734.23,244.95Z" style="fill:white;fill-rule:nonzero;"/>
            <path d="M735.62,245.37C735.36,245.28 735.09,245.17 735.17,244.99L735,245.34L733.6,245.34L733.46,245.63C733.46,245.63 733.4,245.74 733.62,245.74C733.84,245.74 733.87,245.68 733.89,245.63L733.97,245.47L734.94,245.47L734.9,245.54L735.73,245.54L735.69,245.62C735.66,245.67 735.67,245.74 735.88,245.74C736.03,245.74 736.11,245.7 736.14,245.64C736.19,245.53 735.89,245.47 735.62,245.38L735.62,245.37Z" style="fill:white;fill-rule:nonzero;"/>
            <path d="M742.78,245.07L742.55,245.53L743.35,245.53L743.31,245.61C743.28,245.66 743.29,245.73 743.5,245.73C743.65,245.73 743.73,245.69 743.76,245.63C743.81,245.52 743.51,245.46 743.24,245.37C743.02,245.29 742.79,245.21 742.78,245.06L742.78,245.07Z" style="fill:white;fill-rule:nonzero;"/>
            <path d="M730.47,221.11C728.45,221.11 727.5,221.96 727.07,222.71L724.56,227.08C724.05,227.96 723.36,229.17 725.84,229.17C726.8,229.17 727.88,228.97 728.26,228.32L731.95,221.89C732.25,221.37 731.39,221.11 730.47,221.11Z" style="fill:white;fill-rule:nonzero;"/>
            <path d="M746.34,210.54C745.62,209.31 743.99,208.38 742.55,208.38L724.24,208.38C722.8,208.38 721.17,209.31 720.45,210.54L711.29,226.22C710.57,227.45 710.57,229.31 711.29,230.54L720.44,246.23C721.16,247.46 722.79,248.39 724.23,248.4L742.54,248.4C743.98,248.4 745.61,247.47 746.33,246.24L755.49,230.56C756.21,229.33 756.21,227.47 755.49,226.24L746.34,210.55L746.34,210.54ZM729.82,244.96L729.33,245.92L728.42,245.92L728.47,245.82C728.28,245.9 727.98,245.95 727.7,245.95C727.29,245.95 727.12,245.89 727.07,245.79L726.97,246C726.87,246.2 726.69,246.37 726,246.37L725.52,246.37L725.65,246.12L725.74,246.12C725.85,246.12 725.94,246.1 725.97,246.04L726.03,245.92L725.15,245.92L725.2,245.82L725.19,245.82C725,245.9 724.7,245.95 724.42,245.95C723.97,245.95 723.81,245.87 723.78,245.76C723.61,245.88 723.35,245.95 723.04,245.95C722.73,245.95 722.5,245.89 722.43,245.79L722.42,245.79L722.35,245.93L721.36,245.93L722.01,244.64L722.03,244.6C722.13,244.4 722.39,244.24 722.61,244.24L723.21,244.24L722.98,244.7L722.99,244.7C723.19,244.6 723.42,244.55 723.77,244.55C724.15,244.55 724.34,244.63 724.34,244.77C724.55,244.63 725.01,244.55 725.56,244.55C726.45,244.55 726.69,244.68 726.54,244.98L726.52,245.01L726.86,244.8L727.59,244.8C727.77,244.66 728.27,244.56 728.85,244.56C729.74,244.56 729.98,244.69 729.83,244.99L729.82,244.96ZM726.76,244.46L726.88,244.22L727.87,244.22L727.74,244.47L726.76,244.47L726.76,244.46ZM744.96,244.92L744.93,244.99L744.05,244.99L744.08,244.92C744.08,244.92 744.13,244.81 743.92,244.81C743.78,244.81 743.69,244.84 743.66,244.9C743.61,245.01 743.96,245.07 744.2,245.17C744.49,245.27 744.78,245.37 744.67,245.57C744.61,245.68 744.41,245.97 743.34,245.97C742.71,245.97 742.43,245.9 742.38,245.77L742.29,245.95L741.31,245.95L741.78,245.02C741.78,245.02 741.84,244.89 741.62,244.89C741.4,244.89 741.34,244.99 741.33,245.02L740.86,245.95L739.88,245.95C739.67,246.13 739.26,246.19 738.62,246.19C738.11,246.19 737.62,246.14 737.6,245.95L736.65,245.95L736.74,245.77C736.56,245.88 736.23,245.98 735.59,245.98C734.82,245.98 734.58,245.87 734.62,245.69C734.47,245.83 734.1,245.98 733.3,245.98C732.6,245.98 732.35,245.86 732.28,245.74L732.17,245.95L731.19,245.95L731.26,245.81L731.25,245.81C731.08,245.91 730.8,245.97 730.49,245.97C730.19,245.97 730.01,245.91 729.94,245.8C729.94,245.8 729.88,245.72 729.96,245.56C730.05,245.38 730.13,245.22 730.24,245.02C730.34,244.82 730.42,244.75 730.42,244.75C730.57,244.63 730.83,244.57 731.17,244.57C731.51,244.57 731.7,244.62 731.8,244.72L731.81,244.72L732.04,244.26L733.02,244.26L732.74,244.81C732.93,244.69 733.3,244.57 734,244.57C734.97,244.57 735.09,244.79 735.01,244.95C735.15,244.7 735.66,244.57 736.29,244.57C736.84,244.57 737.17,244.64 737.22,244.79L737.25,244.74L737.82,244.74L737.99,245.02L737.99,244.99C738.11,244.78 738.32,244.56 739,244.56C739.36,244.56 739.49,244.63 739.57,244.74L739.58,244.74L739.66,244.59L740.61,244.59L740.42,244.96L741.01,244.59L741.5,244.59L741.42,244.74L741.43,244.74C741.66,244.62 741.89,244.56 742.27,244.56C742.74,244.56 742.91,244.69 742.83,244.85C743.03,244.66 743.49,244.56 744.04,244.56C744.72,244.56 745.08,244.66 744.96,244.92ZM737.27,244.52L737.39,244.24L738.41,244.24L738.28,244.53L737.28,244.53L737.28,244.51L737.27,244.52ZM745.59,246.08C745.47,246.08 745.37,245.99 745.37,245.87C745.37,245.75 745.47,245.66 745.59,245.66C745.71,245.66 745.8,245.75 745.8,245.87C745.8,245.99 745.71,246.08 745.59,246.08ZM746.39,241.15C746.14,241.15 745.94,240.95 745.94,240.71C745.94,240.47 746.14,240.27 746.4,240.27C746.66,240.27 746.85,240.46 746.85,240.71C746.85,240.96 746.65,241.15 746.4,241.15L746.39,241.15ZM745.22,241L735.55,241L736.28,239.72L736.15,239.72C734.43,240.67 731.67,241.22 728.56,241.22C723.98,241.22 722.14,239.82 723.51,237.43L726.82,231.67C724.74,231.48 723.35,230.98 722.87,230.22L722.74,230.22L722.01,231.49L712.3,231.49L719.26,219.38L723.01,212.88L727.35,212.02C727.35,212.02 727.49,211.99 727.54,211.99L733.21,211.99L728.65,219.94L728.78,219.94C730.82,218.96 733.03,218.54 736.52,218.54C740.3,218.54 742.1,219.4 742.05,220.74C741.93,221.66 740.44,224.86 738.67,227.33C734.42,227.13 731.93,229.09 731.93,229.09C734.7,227.97 737.36,228.11 738.09,228.15L738.11,228.15C740.18,228.31 741.34,228.73 742.04,229.48L742.17,229.48L744.66,225.14L754.33,225.14L745.22,241Z" style="fill:white;fill-rule:nonzero;"/>
            <path d="M739.02,230.65C738.14,230.65 736.96,230.88 736.66,231.4L732.96,237.83C732.58,238.48 733.46,238.65 734.43,238.65C736.91,238.65 737.58,237.47 738.09,236.59L740.58,232.25C741.03,231.47 741.04,230.65 739.02,230.65Z" style="fill:white;fill-rule:nonzero;"/>
            <path d="M746.39,240.36C746.2,240.36 746.05,240.52 746.05,240.71C746.05,240.9 746.2,241.06 746.39,241.06C746.58,241.06 746.73,240.9 746.73,240.71C746.73,240.52 746.58,240.36 746.39,240.36ZM746.5,240.94C746.5,240.94 746.48,240.89 746.46,240.83C746.46,240.78 746.43,240.76 746.37,240.76L746.32,240.76L746.32,240.94L746.22,240.94L746.22,240.5C746.22,240.5 746.32,240.49 746.39,240.49C746.47,240.49 746.51,240.5 746.54,240.52C746.57,240.54 746.58,240.57 746.58,240.61C746.58,240.66 746.54,240.7 746.49,240.71C746.44,240.72 746.55,240.76 746.57,240.82C746.58,240.89 746.59,240.91 746.6,240.93L746.49,240.93L746.5,240.94Z" style="fill:white;fill-rule:nonzero;"/>
            <path d="M746.38,240.56L746.32,240.56L746.32,240.69L746.37,240.69C746.43,240.69 746.47,240.67 746.47,240.62C746.47,240.58 746.44,240.55 746.38,240.55L746.38,240.56Z" style="fill:white;fill-rule:nonzero;"/>
            <path d="M723.15,244.81C722.94,244.81 722.85,244.9 722.81,244.98L722.58,245.45C722.53,245.54 722.47,245.67 722.72,245.67C722.82,245.67 722.93,245.65 722.96,245.58L723.3,244.89C723.33,244.83 723.24,244.81 723.15,244.81Z" style="fill:white;fill-rule:nonzero;"/>
            <path d="M745.59,245.7C745.5,245.7 745.43,245.78 745.43,245.87C745.43,245.96 745.5,246.04 745.59,246.04C745.68,246.04 745.75,245.97 745.75,245.87C745.75,245.77 745.68,245.7 745.59,245.7ZM745.64,245.97C745.64,245.97 745.64,245.94 745.62,245.92C745.62,245.9 745.6,245.89 745.58,245.89L745.56,245.89L745.56,245.97L745.51,245.97L745.51,245.76L745.59,245.76C745.63,245.76 745.65,245.76 745.66,245.78C745.67,245.78 745.68,245.8 745.68,245.82C745.68,245.85 745.66,245.86 745.64,245.87C745.62,245.88 745.67,245.9 745.68,245.92C745.68,245.95 745.69,245.96 745.7,245.97L745.64,245.97Z" style="fill:white;fill-rule:nonzero;"/>
        </g>
    </g>
</svg>
