<?xml version="1.0" encoding="UTF-8" standalone="no"?>
<!DOCTYPE svg PUBLIC "-//W3C//DTD SVG 1.1//EN" "http://www.w3.org/Graphics/SVG/1.1/DTD/svg11.dtd">
<svg width="100%" height="100%" viewBox="0 0 68 34" version="1.1" xmlns="http://www.w3.org/2000/svg" xmlns:xlink="http://www.w3.org/1999/xlink" xml:space="preserve" xmlns:serif="http://www.serif.com/" style="fill-rule:evenodd;clip-rule:evenodd;stroke-linejoin:round;stroke-miterlimit:2;">
    <g transform="matrix(1,0,0,1,-688.461746,-273.174399)">
        <g>
            <path d="M747.35,294.55C748.5,294.4 748.55,296.15 747.47,296.12C746.51,296.1 746.43,294.68 747.35,294.55M747.35,294.7C746.65,294.83 746.76,296.07 747.54,295.98C748.31,295.9 748.27,294.54 747.35,294.7" style="fill:rgb(9,9,9);fill-rule:nonzero;"/>
            <g>
                <path d="M721.96,297.96L722.66,299.46L723.28,297.96L725.3,297.96L725.3,300.51L723.96,300.51L723.96,298.9L723.16,300.5C723.16,300.5 722.24,300.53 722.13,300.52C722.03,300.51 721.46,299.05 721.28,298.9L721.28,300.51L719.97,300.51L719.97,297.96L721.96,297.96Z" style="fill:rgb(9,9,9);fill-rule:nonzero;"/>
                <path d="M714.1,297.96L714.1,298.63L711.75,298.63L711.75,298.95L713.89,298.95L713.89,299.55L711.75,299.55L711.75,299.88L714.16,299.88L714.16,300.54L710.33,300.54L710.33,297.96L714.1,297.96Z" style="fill:rgb(9,9,9);fill-rule:nonzero;"/>
                <path d="M730.36,298.62L727.98,298.62C727.98,298.68 727.96,298.95 728.03,298.95L730.16,298.95L730.16,299.55L727.99,299.55C727.99,299.61 727.97,299.88 728.04,299.88L730.43,299.88L730.43,300.54L726.6,300.54L726.6,297.96L730.33,297.96L730.38,298.01L730.38,298.63L730.36,298.62Z" style="fill:rgb(9,9,9);fill-rule:nonzero;"/>
                <path d="M706.31,297.96L706.31,298.86L707.57,298.86C707.57,298.86 707.62,298.82 707.62,298.81L707.62,297.96L709.02,297.96L709.02,300.51L707.62,300.51L707.62,299.53L706.31,299.53L706.31,300.51L704.91,300.51L704.91,297.96L706.31,297.96Z" style="fill:rgb(9,9,9);fill-rule:nonzero;"/>
                <path d="M740.08,298.74L738.77,298.74C738.77,298.74 738.76,298.66 738.72,298.62C738.58,298.44 737.91,298.41 737.76,298.54C737.53,298.74 738.09,298.83 738.2,298.85C738.7,298.95 739.95,298.97 740.24,299.43C740.51,299.88 740.05,300.21 739.68,300.36C738.91,300.66 737.27,300.68 736.55,300.22C736.35,300.1 736.19,299.91 736.22,299.67L737.59,299.67C737.59,299.67 737.59,299.75 737.6,299.79C737.72,300.07 738.7,300.07 738.84,299.87C738.94,299.73 738.84,299.69 738.73,299.65C738.17,299.45 736.75,299.47 736.42,298.98C736.26,298.74 736.36,298.47 736.57,298.3C737.13,297.82 738.55,297.85 739.23,298C739.61,298.09 740.07,298.29 740.09,298.74" style="fill:rgb(9,9,9);fill-rule:nonzero;"/>
                <path d="M735.35,297.96L735.35,298.63L734.08,298.63L734.08,300.51L732.68,300.51L732.68,298.63L731.4,298.63L731.4,297.96L735.35,297.96Z" style="fill:rgb(9,9,9);fill-rule:nonzero;"/>
                <path d="M716.81,297.96L716.81,299.85L718.83,299.85L718.83,300.51L715.41,300.51L715.41,297.96L716.81,297.96Z" style="fill:rgb(9,9,9);fill-rule:nonzero;"/>
                <g>
                    <path d="M720.69,273.19C729.65,273 740.3,274.52 748.09,279.15C752.59,281.82 757.05,286.33 755.82,292.12C754.56,298.01 747.83,301.85 742.68,303.78C732.25,307.69 718.88,308.07 708.07,305.61C701.89,304.2 693.61,301.05 690.07,295.42C686.6,289.89 689.16,284.55 693.8,280.92C700.84,275.42 711.95,273.39 720.69,273.2M720.57,274.54C712.34,274.73 701.69,276.69 695.05,281.84C690.54,285.33 688.25,290.36 692.02,295.48C695.91,300.77 704.36,303.58 710.56,304.76C720.5,306.65 732.35,306.15 741.87,302.57C746.58,300.8 753.06,297.21 754.18,291.8C755.45,285.71 749.55,281.3 744.81,279.02C737.54,275.52 728.58,274.34 720.57,274.52" style="fill:rgb(9,9,9);fill-rule:nonzero;"/>
                    <path d="M720.58,274.54C728.59,274.36 737.55,275.54 744.82,279.04C749.56,281.32 755.45,285.73 754.19,291.82C753.07,297.23 746.59,300.81 741.88,302.59C732.36,306.16 720.51,306.67 710.57,304.78C704.38,303.61 695.92,300.79 692.03,295.5C688.26,290.37 690.55,285.36 695.06,281.86C701.69,276.71 712.35,274.75 720.58,274.56M699.42,282.72L699.42,296.05L709.24,296.05C710.17,295.97 711.15,295.86 711.8,295.12C712.46,294.38 712.59,292.48 712.29,291.57C711.93,290.5 710.93,289.85 710.01,289.32C710,289.25 710.02,289.28 710.05,289.27C710.17,289.19 710.32,289.15 710.45,289.07C711.48,288.48 711.97,287.91 712.1,286.68C712.22,285.46 711.91,284.29 710.97,283.47C710.19,282.79 709.2,282.81 708.23,282.73L699.44,282.73L699.42,282.72ZM723.7,282.78L713.44,282.78L713.44,296.1L723.7,296.1L723.7,292.8L718.56,292.8L718.56,290.64L723.7,290.64L723.7,288.24L718.6,288.24C718.6,288.24 718.55,288.2 718.55,288.19L718.55,286.29L723.69,286.29L723.69,282.78L723.7,282.78ZM730.28,282.78L725.15,282.78L725.15,296.06L725.2,296.11L734.89,296.11L734.94,296.06L734.94,292.85L730.28,292.77L730.28,282.78ZM741.18,282.78L736.07,282.78L736.07,296.1L745.82,296.1L745.82,292.8L741.18,292.77L741.18,282.78ZM747.35,294.55C746.43,294.67 746.5,296.1 747.47,296.12C748.55,296.15 748.5,294.4 747.35,294.55M740.08,298.74C740.06,298.28 739.61,298.09 739.22,298C738.54,297.84 737.12,297.82 736.55,298.29C736.35,298.47 736.24,298.74 736.41,298.98C736.74,299.47 738.16,299.45 738.71,299.65C738.83,299.69 738.93,299.73 738.83,299.87C738.69,300.07 737.71,300.06 737.59,299.79C737.57,299.75 737.59,299.66 737.58,299.66L736.21,299.66C736.18,299.9 736.35,300.09 736.54,300.22C737.26,300.67 738.89,300.65 739.67,300.36C740.04,300.22 740.5,299.88 740.22,299.43C739.94,298.97 738.68,298.94 738.19,298.85C738.08,298.83 737.51,298.74 737.75,298.54C737.91,298.41 738.58,298.44 738.72,298.62C738.75,298.66 738.76,298.74 738.77,298.74L740.08,298.74ZM706.31,297.96L704.91,297.96L704.91,300.51L706.31,300.51L706.31,299.53L707.62,299.53L707.62,300.51L709.02,300.51L709.02,297.96L707.62,297.96L707.62,298.81C707.62,298.81 707.58,298.86 707.57,298.86L706.31,298.86L706.31,297.96ZM714.11,297.96L710.33,297.96L710.33,300.54L714.17,300.54L714.17,299.88L711.76,299.88L711.76,299.55L713.91,299.55L713.91,298.95L711.76,298.95L711.76,298.62L714.11,298.62L714.11,297.96ZM716.8,297.96L715.41,297.96L715.41,300.51L718.82,300.51L718.82,299.85L716.8,299.85L716.8,297.96ZM721.97,297.96L719.98,297.96L719.98,300.51L721.29,300.51L721.29,298.9C721.47,299.05 722.04,300.51 722.14,300.52C722.25,300.53 723.13,300.52 723.17,300.5L723.98,298.9L723.98,300.51L725.31,300.51L725.31,297.96L723.29,297.96L722.67,299.46L721.97,297.96ZM730.36,298.63L730.36,298.01C730.36,298.01 730.32,297.96 730.31,297.96L726.58,297.96L726.58,300.54L730.41,300.54L730.41,299.88L728.02,299.88C727.95,299.88 727.97,299.61 727.97,299.55L730.14,299.55L730.14,298.95L728.02,298.95C727.95,298.95 727.97,298.68 727.97,298.62L730.34,298.62L730.36,298.63ZM735.36,297.96L731.4,297.96L731.4,298.62L732.68,298.62L732.68,300.5L734.08,300.5L734.08,298.62L735.36,298.62L735.36,297.96Z" style="fill:white;fill-rule:nonzero;"/>
                    <g>
                        <path d="M699.42,282.72L708.21,282.72C709.19,282.79 710.17,282.77 710.95,283.46C711.9,284.27 712.21,285.44 712.08,286.67C711.96,287.9 711.47,288.47 710.43,289.06C710.31,289.13 710.16,289.18 710.03,289.26C710,289.27 709.98,289.26 709.99,289.31C710.91,289.85 711.91,290.49 712.27,291.57C712.58,292.48 712.44,294.37 711.79,295.12C711.13,295.86 710.16,295.98 709.23,296.05L699.4,296.05L699.4,282.73L699.42,282.72ZM704.79,285.6L704.79,288.19L704.84,288.24L706.36,288.24C707.59,288.24 708.04,286.45 707.01,285.81C706.91,285.75 706.55,285.6 706.45,285.6L704.79,285.6ZM704.83,293.31L706.6,293.31C706.67,293.31 706.94,293.21 707.02,293.17C707.72,292.79 707.81,291.47 707.19,290.98C707.07,290.88 706.71,290.7 706.57,290.7L704.83,290.7L704.83,293.31Z" style="fill:rgb(226,39,41);fill-rule:nonzero;"/>
                        <path d="M723.7,282.78L723.7,286.29L718.56,286.29L718.56,288.2L718.6,288.24L723.7,288.24L723.7,290.64L718.56,290.64L718.56,292.8L723.7,292.8L723.7,296.1L713.44,296.1L713.44,282.78L723.7,282.78Z" style="fill:rgb(226,39,41);fill-rule:nonzero;"/>
                        <path d="M730.27,282.78L730.27,292.77L734.93,292.84L734.93,296.05L734.89,296.1L725.2,296.1C725.2,296.1 725.15,296.06 725.15,296.05L725.15,282.77L730.26,282.77L730.27,282.78Z" style="fill:rgb(226,39,41);fill-rule:nonzero;"/>
                        <path d="M741.18,282.78L741.18,292.77L745.81,292.8L745.81,296.1L736.07,296.1L736.07,282.78L741.18,282.78Z" style="fill:rgb(226,39,41);fill-rule:nonzero;"/>
                    </g>
                    <path d="M704.83,293.31L704.83,290.7L706.57,290.7C706.71,290.7 707.08,290.88 707.19,290.98C707.81,291.47 707.72,292.79 707.02,293.17C706.94,293.21 706.67,293.31 706.6,293.31L704.83,293.31Z" style="fill:white;fill-rule:nonzero;"/>
                    <path d="M704.79,285.6L706.45,285.6C706.55,285.6 706.91,285.75 707.01,285.82C708.04,286.46 707.58,288.24 706.36,288.24L704.84,288.24C704.84,288.24 704.79,288.2 704.79,288.19L704.79,285.6Z" style="fill:white;fill-rule:nonzero;"/>
                </g>
            </g>
            <path d="M747.35,294.7C748.27,294.54 748.32,295.9 747.55,295.98C746.76,296.07 746.65,294.82 747.35,294.7M747.18,294.9L747.18,295.74L747.3,295.74C747.31,295.73 747.3,295.44 747.3,295.38C747.58,295.32 747.52,295.81 747.81,295.74L747.6,295.39C748.13,295.08 747.57,294.81 747.18,294.9" style="fill:white;fill-rule:nonzero;"/>
            <path d="M747.18,294.9C747.56,294.81 748.12,295.08 747.6,295.4L747.81,295.74C747.52,295.81 747.58,295.32 747.3,295.38C747.3,295.44 747.31,295.73 747.3,295.74L747.18,295.74L747.18,294.9ZM747.3,295.26C747.81,295.35 747.77,294.96 747.3,295.02L747.3,295.26Z" style="fill:rgb(9,9,9);fill-rule:nonzero;"/>
            <path d="M747.3,295.26L747.3,295.02C747.77,294.96 747.81,295.35 747.3,295.26" style="fill:white;fill-rule:nonzero;"/>
        </g>
    </g>
</svg>
