<?xml version="1.0" encoding="UTF-8" standalone="no"?>
<!DOCTYPE svg PUBLIC "-//W3C//DTD SVG 1.1//EN" "http://www.w3.org/Graphics/SVG/1.1/DTD/svg11.dtd">
<svg width="100%" height="100%" viewBox="0 0 69 35" version="1.1" xmlns="http://www.w3.org/2000/svg" xmlns:xlink="http://www.w3.org/1999/xlink" xml:space="preserve" xmlns:serif="http://www.serif.com/" style="fill-rule:evenodd;clip-rule:evenodd;stroke-linejoin:round;stroke-miterlimit:2;">
    <g transform="matrix(1,0,0,1,-687.975033,-272.673612)">
        <g>
            <path d="M748.35,278.72C741.52,274.66 731.45,272.46 720.68,272.69C715.37,272.81 702.09,273.8 693.5,280.52C687.89,284.91 686.45,290.58 689.65,295.68C693.77,302.24 703.83,305.15 707.96,306.09C712.56,307.14 717.46,307.66 722.33,307.66C729.62,307.66 736.83,306.5 742.86,304.25C746.42,302.92 754.86,299.08 756.32,292.23C757.81,285.2 751.25,280.45 748.36,278.73L748.35,278.72ZM755.82,292.11C754.56,298 747.83,301.84 742.68,303.77C732.25,307.68 718.88,308.06 708.07,305.6C701.89,304.19 693.61,301.04 690.07,295.41C686.6,289.88 689.16,284.54 693.8,280.91C700.84,275.41 711.95,273.38 720.69,273.19C729.65,273 740.3,274.52 748.09,279.15C752.59,281.82 757.05,286.33 755.82,292.12L755.82,292.11Z" style="fill:white;fill-rule:nonzero;"/>
            <path d="M706.35,288.24C706.9,288.24 707.29,287.87 707.46,287.42C707.63,286.99 707.61,286.48 707.32,286.1C707.24,285.99 707.13,285.89 707,285.81C706.98,285.8 706.95,285.78 706.92,285.77C706.77,285.7 706.52,285.6 706.44,285.6L704.79,285.6L704.79,288.19L704.84,288.24L706.36,288.24L706.35,288.24Z" style="fill:white;fill-rule:nonzero;"/>
            <path d="M747.55,295.98C748.05,295.93 748.2,295.34 748,294.98C747.97,294.93 747.94,294.88 747.89,294.84C747.89,294.84 747.89,294.83 747.88,294.82C747.76,294.71 747.58,294.66 747.35,294.7C747.17,294.73 747.05,294.83 746.97,294.96C746.74,295.36 746.95,296.04 747.54,295.98L747.55,295.98ZM747.45,295.42C747.45,295.42 747.36,295.36 747.3,295.38C747.3,295.44 747.31,295.73 747.3,295.74L747.18,295.74L747.18,294.9C747.56,294.81 748.12,295.08 747.6,295.4L747.74,295.62L747.81,295.74C747.7,295.76 747.64,295.7 747.6,295.63C747.56,295.56 747.52,295.48 747.46,295.42L747.45,295.42Z" style="fill:white;fill-rule:nonzero;"/>
            <path d="M744.81,279.03C737.54,275.53 728.58,274.35 720.57,274.53C712.83,274.71 702.95,276.46 696.28,280.94C695.86,281.23 695.44,281.52 695.05,281.83C690.54,285.32 688.25,290.35 692.02,295.47C693.42,297.38 695.42,298.96 697.69,300.26C701.42,302.4 705.87,303.78 709.65,304.57C709.95,304.63 710.26,304.7 710.55,304.75C720.49,306.64 732.34,306.14 741.86,302.56C741.99,302.51 742.13,302.45 742.27,302.4C746.94,300.58 753.08,297.05 754.17,291.79C754.36,290.87 754.37,289.99 754.26,289.14C754.03,287.35 753.2,285.75 752.03,284.33C750.11,282.01 747.3,280.21 744.8,279.01L744.81,279.03ZM747.47,296.12C747.23,296.12 747.04,296.02 746.92,295.88C746.87,295.82 746.83,295.76 746.8,295.69C746.8,295.67 746.78,295.66 746.77,295.64C746.66,295.38 746.69,295.07 746.85,294.84C746.96,294.69 747.13,294.58 747.36,294.55C748.51,294.4 748.56,296.15 747.48,296.12L747.47,296.12ZM706.31,299.53L706.31,300.51L704.91,300.51L704.91,297.96L706.31,297.96L706.31,298.86L707.57,298.86C707.57,298.86 707.62,298.82 707.62,298.81L707.62,297.96L709.02,297.96L709.02,300.51L707.62,300.51L707.62,299.53L706.31,299.53ZM709.24,296.04L699.41,296.04L699.41,282.72L708.2,282.72C708.48,282.74 708.77,282.76 709.05,282.78C709.37,282.81 709.69,282.85 709.99,282.94C710.33,283.04 710.65,283.2 710.94,283.45C711.13,283.62 711.29,283.8 711.44,283.99C711.88,284.58 712.08,285.29 712.1,286.04C712.1,286.25 712.1,286.45 712.08,286.66C712.02,287.28 711.87,287.72 711.6,288.09C711.33,288.46 710.95,288.75 710.43,289.05C710.38,289.08 710.33,289.1 710.27,289.13C710.19,289.17 710.11,289.21 710.03,289.25C710,289.26 709.98,289.25 709.99,289.3C710.06,289.34 710.12,289.38 710.19,289.42C711.05,289.93 711.93,290.56 712.27,291.56C712.53,292.32 712.47,293.76 712.06,294.65C712.04,294.69 712.03,294.74 712.01,294.78C712.01,294.8 711.99,294.81 711.98,294.82C711.92,294.93 711.86,295.03 711.79,295.11C711.76,295.15 711.72,295.17 711.69,295.21C711.04,295.86 710.11,295.98 709.23,296.05L709.24,296.04ZM710.33,297.96L714.1,297.96L714.1,298.62L711.75,298.62L711.75,298.95L713.89,298.95L713.89,299.55L711.75,299.55L711.75,299.88L714.16,299.88L714.16,300.54L710.33,300.54L710.33,297.96ZM745.81,292.8L745.81,296.1L736.06,296.1L736.06,282.78L741.17,282.78L741.17,292.77L743.62,292.77L745.8,292.8L745.81,292.8ZM731.4,298.63L731.4,297.97L735.35,297.97L735.35,298.63L734.07,298.63L734.07,300.51L732.67,300.51L732.67,298.63L731.39,298.63L731.4,298.63ZM726.59,300.54L726.59,297.96L730.32,297.96C730.32,297.96 730.37,298 730.37,298.01L730.37,298.62L727.99,298.62C727.99,298.62 727.99,298.83 728,298.91L728.01,298.92C728.01,298.93 728.02,298.95 728.03,298.95C728.04,298.95 728.03,298.95 728.03,298.95L730.15,298.95L730.15,299.55L727.98,299.55C727.98,299.61 727.96,299.88 728.03,299.88L730.42,299.88L730.42,300.54L726.59,300.54ZM730.27,282.78L730.27,292.77L732.93,292.81L734.93,292.84L734.93,296.05C734.93,296.05 734.9,296.09 734.89,296.09L725.2,296.09C725.2,296.09 725.15,296.05 725.15,296.04L725.15,282.77L730.26,282.77L730.27,282.78ZM715.41,297.96L716.8,297.96L716.8,299.85L718.82,299.85L718.82,300.51L715.41,300.51L715.41,297.96ZM723.7,282.78L723.7,286.29L718.56,286.29L718.56,288.19L718.61,288.24L723.71,288.24L723.71,290.64L718.57,290.64L718.57,292.8L723.71,292.8L723.71,296.1L713.45,296.1L713.45,282.78L723.71,282.78L723.7,282.78ZM722.14,300.52C722.14,300.52 722.12,300.5 722.1,300.48C721.99,300.33 721.71,299.66 721.49,299.23C721.41,299.06 721.33,298.94 721.29,298.9C721.25,298.86 721.29,298.9 721.29,298.9L721.29,300.51L719.98,300.51L719.98,297.96L721.96,297.96L722.09,298.25L722.65,299.46L723.27,297.96L725.29,297.96L725.29,300.51L723.96,300.51L723.96,298.9L723.3,300.23L723.16,300.51L723.13,300.51C723.09,300.51 722.99,300.52 722.88,300.52L722.14,300.52ZM739.67,300.37C738.9,300.67 737.26,300.69 736.54,300.23C736.5,300.2 736.46,300.17 736.42,300.14C736.29,300.02 736.2,299.87 736.21,299.68L737.57,299.68C737.57,299.68 737.57,299.76 737.58,299.8C737.67,300.02 738.31,300.06 738.64,299.97C738.72,299.95 738.79,299.92 738.82,299.88C738.89,299.79 738.86,299.74 738.81,299.71C738.78,299.69 738.75,299.68 738.71,299.66C738.29,299.51 737.39,299.49 736.82,299.28C736.63,299.21 736.48,299.12 736.4,299C736.29,298.84 736.31,298.66 736.4,298.5C736.44,298.43 736.49,298.37 736.55,298.32C737.1,297.85 738.48,297.87 739.17,298.02L739.21,298.02C739.59,298.11 740.05,298.31 740.07,298.76L738.76,298.76C738.76,298.76 738.76,298.74 738.74,298.72C738.74,298.7 738.72,298.67 738.71,298.65C738.68,298.61 738.61,298.57 738.52,298.54C738.3,298.47 737.97,298.47 737.81,298.54C737.79,298.54 737.75,298.55 737.74,298.56C737.51,298.76 738.07,298.85 738.18,298.87L738.23,298.87C738.61,298.94 739.33,298.98 739.81,299.16C739.99,299.23 740.14,299.32 740.21,299.45C740.27,299.55 740.29,299.65 740.29,299.74C740.27,300.04 739.94,300.26 739.65,300.38L739.67,300.37Z" style="fill:white;fill-rule:nonzero;"/>
            <path d="M706.56,290.7L704.82,290.7L704.82,293.31L706.59,293.31C706.66,293.31 706.93,293.21 707.01,293.17C707.71,292.79 707.8,291.47 707.18,290.98C707.06,290.88 706.7,290.7 706.56,290.7Z" style="fill:white;fill-rule:nonzero;"/>
            <path d="M747.3,295.02L747.3,295.26C747.81,295.35 747.77,294.96 747.3,295.02Z" style="fill:white;fill-rule:nonzero;"/>
        </g>
    </g>
</svg>
