<?xml version="1.0" encoding="UTF-8" standalone="no"?>
<!DOCTYPE svg PUBLIC "-//W3C//DTD SVG 1.1//EN" "http://www.w3.org/Graphics/SVG/1.1/DTD/svg11.dtd">
<svg width="100%" height="100%" viewBox="0 0 40 42" version="1.1" xmlns="http://www.w3.org/2000/svg" xmlns:xlink="http://www.w3.org/1999/xlink" xml:space="preserve" xmlns:serif="http://www.serif.com/" style="fill-rule:evenodd;clip-rule:evenodd;stroke-linejoin:round;stroke-miterlimit:2;">
    <g transform="matrix(1,0,0,1,-540.15,-208.395556)">
        <g>
            <path d="M561.98,213.63C570.26,214.04 576.85,220.6 576.84,228.98C576.84,231.43 576.29,233.75 575.3,235.82C575.63,236.12 575.97,236.42 576.3,236.72C576.43,236.84 576.56,236.96 576.7,237.08C576.97,237.31 577.17,237.58 577.28,237.94C577.34,238.15 577.43,238.35 577.53,238.55C579.15,235.73 580.09,232.46 580.09,228.97C580.09,218.44 571.62,210.33 561.2,210.33C560.46,210.33 559.73,210.37 559.01,210.46C559.01,210.75 559.01,211.04 559,211.32C559,212.14 559,212.95 558.98,213.77C559.95,213.63 560.96,213.58 561.98,213.63Z" style="fill:white;fill-rule:nonzero;"/>
            <path d="M562.07,223.36C561.91,223.36 561.82,223.54 561.91,223.67C562.16,224.04 562.55,224.63 562.74,224.85C562.78,224.89 562.83,224.91 562.89,224.91L568.25,224.91C568.36,224.91 568.45,224.82 568.45,224.71L568.45,223.55C568.45,223.44 568.36,223.35 568.25,223.35L562.08,223.35L562.07,223.36Z" style="fill:white;fill-rule:nonzero;"/>
            <path d="M570.11,237.55L571.99,237.55C572.51,236.84 572.96,236.07 573.33,235.27C574.18,233.46 574.65,231.45 574.65,229.32C574.65,221.47 568.17,215.1 560.18,215.1C559.86,215.1 559.55,215.11 559.24,215.13C566.79,215.61 572.77,221.77 572.77,229.31C572.77,230.98 572.48,232.58 571.94,234.06C571.49,235.31 570.87,236.47 570.1,237.53L570.11,237.55Z" style="fill:white;fill-rule:nonzero;"/>
            <path d="M577.38,247.19C577.29,247.15 577.2,247.12 577.11,247.08C576.85,246.95 576.79,246.82 576.83,246.53C576.88,246.25 576.89,245.99 576.67,245.76C576.55,245.64 576.59,245.53 576.72,245.46C577.18,245.19 577.34,244.72 577.45,244.25C577.49,244.09 577.47,243.93 577.47,243.76L563.63,243.76C563.65,243.81 563.66,243.86 563.66,243.91C563.66,244.15 563.84,244.33 564.08,244.31C564.28,244.3 564.49,244.28 564.67,244.34C564.99,244.46 565.28,244.62 565.52,244.86C565.57,244.91 565.61,244.95 565.65,245C565.68,245.03 565.71,245.06 565.74,245.09C565.82,245.17 565.91,245.24 566,245.3C566.52,245.63 566.89,246.11 567.27,246.58C567.51,246.88 567.58,247.24 567.67,247.6C567.69,247.66 567.7,247.72 567.72,247.78C567.75,247.88 567.78,247.98 567.81,248.08C567.86,248.24 567.92,248.4 568.02,248.53C568.13,248.68 568.31,248.76 568.19,248.98C568.18,249 568.19,249.04 568.2,249.08C568.29,249.35 568.47,249.48 568.76,249.45C568.86,249.45 568.97,249.43 569.07,249.41C570.37,249.22 571.67,249.03 572.97,248.84C574.28,248.65 575.6,248.45 576.91,248.26C577.45,248.18 577.45,248.19 577.6,247.69C577.6,247.67 577.61,247.65 577.62,247.63C577.67,247.37 577.61,247.26 577.37,247.16L577.38,247.19Z" style="fill:white;fill-rule:nonzero;"/>
            <path d="M578.14,241.13C578.05,241.05 577.94,240.99 577.86,240.9C577.63,240.65 577.52,240.34 577.4,240.03C577.32,239.82 577.21,239.61 577.11,239.4C577.01,239.2 576.92,238.99 576.85,238.78C576.74,238.41 576.54,238.14 576.26,237.91C576.12,237.79 575.99,237.67 575.85,237.55C575.51,237.25 575.17,236.94 574.82,236.64C574.34,237.64 573.76,238.58 573.09,239.44L563.65,239.44L563.65,227.79C563.65,227.63 563.52,227.5 563.36,227.5L559.92,227.5C559.92,227.78 559.79,228.06 559.57,228.23C559.32,228.42 559,228.57 558.64,228.69L557.62,228.99L557.62,226.36L562.01,226.36C562.48,226.36 562.77,225.83 562.5,225.44C561.92,224.58 561.2,223.39 560.84,222.87C560.73,222.71 560.55,222.61 560.35,222.61L555.65,222.61C555.24,222.61 554.9,222.94 554.9,223.36L554.9,229.13C553.83,229.08 551.47,228.84 550.93,227.83L550.93,221.2C551.63,219.89 555.42,219.89 555.42,219.89C555.42,219.89 556.81,219.89 558.06,220.18C558.64,220.32 559.19,220.51 559.56,220.8C559.78,220.97 559.91,221.24 559.91,221.53L563.44,221.53C563.55,221.53 563.65,221.44 563.65,221.32L563.65,219.83C563.44,217.68 560.41,216.85 558.08,216.53C556.61,216.32 555.42,216.32 555.42,216.32C555.42,216.32 552.97,216.32 550.74,216.93C552.85,215.34 555.37,214.25 558.1,213.86C558.1,213.03 558.1,212.2 558.12,211.38C558.12,211.09 558.12,210.8 558.13,210.51C558.13,209.98 558.14,209.45 558.15,208.92C558.15,208.78 558.09,208.71 557.95,208.7C557.75,208.69 557.55,208.68 557.34,208.68C556.33,208.65 555.33,208.63 554.32,208.6C553.54,208.58 552.77,208.56 551.99,208.55C551.45,208.54 550.91,208.53 550.36,208.52C549.58,208.5 548.79,208.48 548.01,208.45C547.43,208.43 546.85,208.41 546.27,208.4C545.88,208.4 545.49,208.39 545.09,208.4C545.02,208.4 544.93,208.44 544.89,208.49C544.74,208.67 544.78,209.15 544.91,209.34C545.01,209.49 545.09,209.67 545.14,209.85C545.19,210.05 545.22,210.26 545.22,210.47C545.22,210.72 545.18,210.97 545.14,211.22C545.09,211.53 544.95,211.84 544.99,212.14C545.06,212.71 544.68,213.11 544.55,213.59C544.47,213.89 544.22,214.15 544.1,214.44C543.83,215.06 544.04,215.96 544.56,216.48C544.87,216.8 545.17,217.13 545.4,217.52C545.48,217.65 545.55,217.79 545.62,217.94C545.77,218.31 545.85,218.67 545.72,219.08C545.55,219.63 545.54,220.2 545.78,220.75C545.86,220.94 545.91,221.11 545.85,221.32C545.82,221.41 545.84,221.55 545.89,221.64C546.01,221.83 546.14,222.01 546.27,222.2C546.55,222.59 546.84,222.96 547.2,223.28L547.2,229.23C547.36,230.99 549.42,231.86 551.44,232.3C552.82,232.6 554.18,232.69 554.9,232.72L554.9,237.6C554.96,237.64 555.01,237.68 555.08,237.71C555.25,237.81 555.28,237.95 555.19,238.09C554.99,238.42 555.08,238.68 555.43,238.82C555.5,238.85 555.55,238.88 555.61,238.92L555.91,238.92C555.91,238.92 556.27,241.32 554.79,242.75C550.81,240.38 548,236.25 547.47,231.42C546.86,230.87 546.45,230.17 546.37,229.3L546.37,224.45C545.75,226.1 545.42,227.88 545.42,229.75C545.42,235.74 548.9,240.89 553.94,243.35C553.89,243.38 553.84,243.41 553.78,243.43C552.53,243.96 549.8,243.18 548.71,242.38C544.76,239.46 543.48,235.35 543.48,230.07C543.48,227.35 544.17,224.78 545.37,222.53C545.24,222.35 545.12,222.16 544.99,221.97C544.94,221.89 544.92,221.75 544.95,221.65C545.01,221.45 544.96,221.27 544.88,221.08C544.64,220.53 544.65,219.96 544.82,219.41C544.94,219 544.87,218.64 544.72,218.27C544.66,218.12 544.59,217.98 544.5,217.85C541.78,221.18 540.15,225.43 540.15,230.06C540.15,233.53 540.81,236.72 542.4,239.55C542.93,240.49 544.47,242.4 546.07,243.61C547.31,244.54 549.27,245.17 551.34,245.26C551.34,245.26 552.54,245.33 553.84,245.05C554.37,244.93 555.03,244.65 555.64,244.06C557.18,244.59 558.83,244.89 560.56,244.89C560.75,244.89 560.93,244.89 561.11,244.88C561.24,244.88 561.38,244.86 561.51,244.86C559.6,244.73 557.79,244.25 556.14,243.48C556.8,242.55 557.29,241.12 557.27,238.93L557.78,238.93L557.78,238.49L559.93,238.49L559.93,241.71C560.02,241.74 560.11,241.78 560.19,241.83C560.45,242 560.66,242.24 560.88,242.46C561.27,242.85 561.73,243.08 562.28,243.08L577.5,243.08C577.52,242.97 577.54,242.87 577.6,242.79C577.86,242.42 578.2,242.11 578.52,241.79C578.61,241.7 578.64,241.63 578.56,241.55C578.43,241.41 578.28,241.29 578.13,241.16L578.14,241.13ZM558.1,218.5L558.1,216.54L558.1,218.5ZM550.05,225.54C550.09,225.6 550.14,225.66 550.17,225.72C550.29,226.04 550.4,226.36 550.52,226.67C550.61,226.91 550.74,227.14 550.82,227.39C550.74,227.14 550.62,226.91 550.52,226.67C550.4,226.36 550.29,226.03 550.17,225.72C550.14,225.65 550.09,225.6 550.05,225.54C550.03,225.57 550,225.59 549.98,225.61C550,225.59 550.03,225.56 550.05,225.54ZM547.86,223.87C547.82,223.73 547.67,223.61 547.54,223.51C547.67,223.6 547.81,223.73 547.86,223.87C547.94,224.13 548.02,224.39 548.08,224.65C548.02,224.39 547.94,224.13 547.86,223.87ZM551.89,231.53C551.97,231.38 551.96,231.2 551.93,231.02C551.91,230.92 551.9,230.84 551.88,230.77C551.86,230.7 551.84,230.63 551.8,230.58C551.76,230.53 551.71,230.48 551.63,230.45C551.71,230.49 551.76,230.53 551.8,230.58C551.84,230.63 551.86,230.7 551.88,230.77C551.9,230.84 551.91,230.93 551.93,231.02C551.96,231.2 551.97,231.38 551.89,231.53ZM559.93,232.5L559.93,238.06L558.74,238.06L557.78,235.94L557.78,232.66C557.92,232.64 558.14,232.59 558.4,232.53C558.35,232.57 558.31,232.61 558.28,232.65C558.17,232.78 558.09,232.92 558.1,233.09C558.1,233.42 558.1,233.75 558.15,234.08C558.31,235.23 558.62,236.34 558.94,237.45C558.94,237.48 558.97,237.5 558.98,237.52C559.16,237.45 559.3,237.33 559.36,237.17C559.39,237.09 559.33,236.97 559.3,236.86C559.3,236.84 559.3,236.83 559.29,236.81C559.12,236.11 558.93,235.42 558.79,234.72C558.69,234.25 558.65,233.76 558.59,233.28C558.57,233.15 558.61,233.02 558.71,232.94C558.9,232.77 559.09,232.61 559.29,232.46C559.38,232.39 559.48,232.33 559.58,232.27L559.58,232.23C559.71,232.2 559.84,232.16 559.92,232.14L559.92,232.5L559.93,232.5Z" style="fill:white;fill-rule:nonzero;"/>
            <path d="M566.75,247.82C566.66,247.46 566.67,247.4 566.43,247.1C566.05,246.63 565.68,246.15 565.16,245.82C565.06,245.76 564.98,245.69 564.9,245.61C561.68,246.85 558.21,247.11 554.96,246.34C554.71,246.44 554.45,246.52 554.18,246.58C553.2,246.79 552.29,246.84 551.7,246.84L551.26,246.84C548.88,246.73 546.64,246.01 545.12,244.87C544.95,244.74 544.78,244.6 544.62,244.46C544.71,244.55 544.8,244.65 544.89,244.74C546.71,246.53 548.68,247.59 550.88,248.53C555.95,250.68 561.73,250.57 566.89,248.32C566.86,248.22 566.83,248.12 566.8,248.02C566.78,247.96 566.77,247.9 566.75,247.84L566.75,247.82Z" style="fill:white;fill-rule:nonzero;"/>
        </g>
    </g>
</svg>
