<?xml version="1.0" encoding="UTF-8" standalone="no"?>
<!DOCTYPE svg PUBLIC "-//W3C//DTD SVG 1.1//EN" "http://www.w3.org/Graphics/SVG/1.1/DTD/svg11.dtd">
<svg width="100%" height="100%" viewBox="0 0 45 42" version="1.1" xmlns="http://www.w3.org/2000/svg" xmlns:xlink="http://www.w3.org/1999/xlink" xml:space="preserve" xmlns:serif="http://www.serif.com/" style="fill-rule:evenodd;clip-rule:evenodd;stroke-linejoin:round;stroke-miterlimit:2;">
    <g transform="matrix(1,0,0,1,-468.66,-269.32)">
        <g>
            <path d="M475.91,307.81C475.61,307.75 475.36,307.52 475.29,307.2L472.99,295.49C471.31,295.82 469.57,296.18 468.66,296.38L472.53,311C472.6,310.99 478.56,309.7 482.05,309.3L482.01,309.13L475.9,307.82L475.91,307.81Z" style="fill:white;fill-rule:nonzero;"/>
            <path d="M478.03,307.49L481.82,308.31L481.5,307.01C480.34,307.15 479.18,307.31 478.03,307.49Z" style="fill:white;fill-rule:nonzero;"/>
            <path d="M500.69,307L500.37,308.3L504.16,307.48C503.01,307.29 501.85,307.13 500.69,307Z" style="fill:white;fill-rule:nonzero;"/>
            <path d="M509.21,295.5L506.91,307.21C506.85,307.53 506.6,307.76 506.29,307.81C505.98,307.86 500.18,309.12 500.18,309.12L500.14,309.29C503.63,309.7 509.6,310.98 509.66,310.99L513.53,296.37C512.62,296.17 510.88,295.82 509.2,295.48L509.21,295.5Z" style="fill:white;fill-rule:nonzero;"/>
            <path d="M491.1,290.3C485.08,290.31 479.07,290.97 473.13,292.29L476.04,307.06C481.03,306.14 486.06,305.67 491.1,305.66C496.14,305.67 501.17,306.14 506.16,307.06L509.07,292.29C503.13,290.98 497.11,290.31 491.1,290.3ZM500,298.55L499.98,298.52C498.42,296.35 497.59,295.29 495.85,293.27L495.59,298.01L495.34,298.01C495.24,297.99 495.16,297.98 495.03,297.98L494.95,297.98L495.25,291.71L495.33,291.71C495.59,291.73 495.72,291.73 495.98,291.75L496.01,291.75L496.03,291.78C497.69,293.64 498.48,294.58 499.95,296.5C500.04,295.69 500.1,295.07 500.17,294.44C500.24,293.78 500.31,293.11 500.41,292.23L500.41,292.15L500.5,292.15C500.59,292.16 500.67,292.17 500.74,292.18C500.82,292.18 500.9,292.2 501.01,292.21L501.09,292.21L500.36,298.59L500,298.55ZM493.68,297.92C493.24,297.91 493.03,297.9 492.61,297.89L492.53,297.89L492.63,291.62L492.71,291.62C493.19,291.62 493.41,291.64 493.86,291.65L493.94,291.65L493.76,297.92L493.68,297.92ZM488.5,298.03C487.17,295.56 486.47,294.37 484.95,291.98L484.88,291.87L485.02,291.87C485.51,291.82 485.75,291.8 486.23,291.77L486.28,291.77L486.31,291.81C487.44,293.65 487.97,294.58 488.95,296.4C489.77,294.51 490.22,293.55 491.16,291.66L491.18,291.61L491.91,291.61L491.85,291.73C490.59,294.23 490.01,295.46 488.92,298.02L488.9,298.07L488.52,298.07L488.5,298.04L488.5,298.03ZM483.32,298.2C483.2,296.98 483.12,296.08 483.03,295.17C482.94,294.26 482.86,293.36 482.74,292.14L482.74,292.06L482.81,292.06C483.27,292.01 483.5,291.99 483.96,291.95L484.04,291.95L484.56,298.19L484.27,298.21C484.02,298.23 483.74,298.25 483.41,298.28L483.33,298.28L483.33,298.21L483.32,298.2ZM476.79,302.93C476.63,302.12 476.47,301.32 476.26,300.25L476.24,300.17L476.32,300.15C477.68,299.9 478.47,299.76 479.87,299.53L479.95,299.53L480.02,300.02L479.94,300.02C479.65,300.08 479.41,300.12 479.18,300.15C478.59,300.24 478.11,300.32 477.4,300.46L477.71,302.16C478.39,302.03 478.75,301.96 479.48,301.83L479.56,301.83L479.64,302.32L479.56,302.32C478.85,302.46 478.49,302.52 477.8,302.66L478.3,305.35L478.22,305.37C478.13,305.39 478.03,305.4 477.93,305.42C477.76,305.45 477.57,305.48 477.37,305.52L477.29,305.54C477.29,305.54 476.92,303.69 476.78,302.93L476.79,302.93ZM481.51,304.76C481.38,303.73 481.28,302.95 481.18,302.17C481.08,301.35 480.98,300.54 480.84,299.46L480.84,299.38L480.91,299.37C481.12,299.34 481.28,299.32 481.44,299.3C481.56,299.29 481.68,299.27 481.83,299.25L481.91,299.25L481.91,299.32C482.02,300.29 482.11,301.03 482.19,301.77C482.27,302.51 482.36,303.24 482.47,304.2C483.41,304.11 483.8,304.08 484.82,304L484.9,304L484.94,304.5L484.73,304.52C483.44,304.63 482.9,304.68 481.58,304.82L481.5,304.82L481.49,304.75L481.51,304.76ZM491.77,304.26L491.75,304.21C490.77,302.05 490.26,301 489.13,298.86L489.03,298.68L490.19,298.66L490.22,298.72C491.05,300.35 491.48,301.22 492.19,302.81C492.89,301.24 493.27,300.43 494.08,298.81L494.12,298.72L494.17,298.72C494.32,298.72 494.4,298.73 494.53,298.74L494.74,298.74L494.66,298.91C493.58,301.04 493.08,302.08 492.14,304.22L492.12,304.27L491.76,304.27L491.77,304.26ZM505.99,299.38C504.27,299.04 503.42,298.91 501.72,298.65L501.53,298.62L501.53,298.54C501.7,297.39 501.83,296.53 501.95,295.68C502.08,294.74 502.21,293.81 502.39,292.54L502.39,292.46L502.48,292.47C504.36,292.77 505.37,292.96 507.19,293.33L507.27,293.35L507.16,293.9L507.08,293.88C505.7,293.59 505.01,293.45 503.61,293.22L503.3,295.21C503.97,295.32 504.4,295.41 504.96,295.51C505.14,295.54 505.62,295.64 505.62,295.64L505.52,296.19L505.44,296.17C504.74,296.04 504.15,295.93 503.22,295.76C503.14,296.27 502.91,297.77 502.83,298.26L502.97,298.28C504.15,298.48 504.8,298.59 506.09,298.83L506.17,298.85L506.12,299.12C506.11,299.18 506.1,299.24 506.08,299.32L506.06,299.4L505.98,299.38L505.99,299.38ZM476.1,299.33C475.87,298.12 475.7,297.24 475.53,296.36C475.36,295.49 475.2,294.62 474.97,293.43L474.95,293.35L475.03,293.33C475.93,293.14 476.37,293.06 477.28,292.89C477.78,292.8 478.25,292.75 478.68,292.75C478.84,292.75 478.99,292.75 479.13,292.76C479.65,292.8 480.11,292.93 480.49,293.14C480.92,293.38 481.25,293.69 481.5,294.05C481.74,294.41 481.89,294.83 481.94,295.29C481.99,295.73 481.93,296.07 481.8,296.46C481.68,296.86 481.47,297.24 481.18,297.57C480.9,297.9 480.53,298.18 480.09,298.42C479.58,298.69 479.08,298.86 478.55,298.96L477.91,299.07C477.34,299.17 476.89,299.25 476.19,299.38L476.11,299.38L476.09,299.31L476.1,299.33ZM476.36,293.7C476.53,294.68 476.66,295.4 476.79,296.12C476.92,296.85 477.05,297.58 477.22,298.56C477.63,298.48 477.85,298.44 478.27,298.37C478.69,298.28 478.99,298.2 479.28,298.06C479.6,297.9 479.81,297.74 479.99,297.52C480.19,297.27 480.34,296.98 480.43,296.65C480.52,296.32 480.54,295.94 480.49,295.52C480.44,295.16 480.33,294.84 480.17,294.56C480,294.28 479.78,294.04 479.52,293.86C479.26,293.68 478.95,293.55 478.6,293.49C478.42,293.45 478.23,293.44 478.04,293.44C477.86,293.44 477.68,293.46 477.5,293.49C477.03,293.57 476.79,293.62 476.37,293.7L476.36,293.7ZM504.82,305.52C504.58,305.47 504.42,305.45 504.23,305.42C504.11,305.4 503.98,305.38 503.82,305.35L503.78,305.35L503.76,305.3C503.25,304.2 502.98,303.66 502.42,302.57L502.29,302.55C502.16,302.53 502.06,302.52 501.92,302.5L501.54,304.98L501.46,304.98C501.12,304.92 500.95,304.9 500.61,304.85L500.53,304.85L500.54,304.76C500.69,303.71 500.8,302.93 500.91,302.14C501.02,301.34 501.14,300.54 501.29,299.47L501.29,299.39L501.58,299.43C502.2,299.52 502.58,299.57 503.26,299.68C503.59,299.73 503.88,299.82 504.12,299.93C504.36,300.04 504.56,300.18 504.7,300.34C504.85,300.5 504.95,300.68 505,300.87C505.05,301.06 505.06,301.27 505.02,301.48C504.99,301.65 504.92,301.81 504.83,301.95C504.73,302.09 504.62,302.21 504.48,302.31C504.34,302.41 504.18,302.49 504,302.55C503.86,302.6 503.71,302.63 503.55,302.65L503.64,302.82C504.13,303.78 504.43,304.36 504.91,305.42L504.98,305.56L504.82,305.53L504.82,305.52ZM502,302.07C502.07,302.08 502.13,302.09 502.19,302.1C502.26,302.11 502.33,302.12 502.42,302.14C502.51,302.15 502.6,302.16 502.69,302.16C502.78,302.16 502.87,302.16 502.96,302.14C503.13,302.11 503.28,302.07 503.41,302C503.54,301.93 503.65,301.83 503.73,301.72C503.81,301.61 503.87,301.47 503.9,301.31C503.93,301.17 503.92,301.03 503.9,300.9C503.87,300.77 503.82,300.65 503.74,300.55C503.66,300.45 503.56,300.36 503.44,300.29C503.32,300.22 503.18,300.17 503.03,300.15C502.74,300.1 502.58,300.08 502.31,300.04C502.25,300.45 502.2,300.76 502.15,301.08C502.1,301.38 502.06,301.68 502,302.07ZM497.3,304.56C497.21,304.56 497.13,304.55 497.04,304.54C496.77,304.51 496.52,304.44 496.28,304.34C496.04,304.24 495.82,304.12 495.62,303.98C495.42,303.84 495.24,303.66 495.08,303.47C494.92,303.28 494.78,303.07 494.68,302.85C494.57,302.63 494.49,302.39 494.45,302.14C494.4,301.89 494.39,301.63 494.41,301.37C494.43,301.11 494.49,300.86 494.58,300.63C494.67,300.4 494.79,300.18 494.94,299.98C495.09,299.79 495.26,299.61 495.46,299.46C495.66,299.31 495.89,299.18 496.12,299.08C496.36,298.98 496.62,298.91 496.89,298.88C497.07,298.86 497.26,298.85 497.45,298.86C497.54,298.86 497.64,298.87 497.74,298.88C498.03,298.92 498.3,298.99 498.56,299.09C498.81,299.19 499.05,299.32 499.26,299.47C499.47,299.62 499.65,299.8 499.81,300C499.97,300.2 500.1,300.41 500.2,300.64C500.3,300.86 500.36,301.1 500.4,301.36C500.43,301.6 500.43,301.86 500.39,302.12C500.35,302.38 500.27,302.63 500.17,302.86C500.06,303.09 499.93,303.3 499.78,303.5C499.62,303.69 499.44,303.86 499.24,304.01C499.04,304.16 498.82,304.28 498.59,304.37C498.36,304.46 498.12,304.53 497.86,304.56C497.69,304.58 497.51,304.59 497.33,304.58L497.3,304.56ZM497.48,299.27C497.25,299.27 497.03,299.29 496.85,299.36C496.61,299.45 496.4,299.59 496.23,299.78C496.06,299.97 495.92,300.21 495.81,300.5C495.7,300.78 495.63,301.11 495.6,301.46C495.57,301.82 495.57,302.15 495.62,302.47C495.67,302.77 495.75,303.05 495.88,303.28C496,303.51 496.17,303.7 496.37,303.84C496.57,303.98 496.81,304.07 497.1,304.11C497.15,304.11 497.2,304.12 497.25,304.12C497.47,304.12 497.66,304.1 497.85,304.02C498.08,303.93 498.28,303.79 498.46,303.6C498.64,303.41 498.79,303.16 498.91,302.88C499.03,302.59 499.12,302.26 499.17,301.91C499.22,301.56 499.23,301.23 499.19,300.93C499.15,300.63 499.07,300.36 498.94,300.13C498.82,299.9 498.65,299.71 498.43,299.57C498.22,299.43 497.96,299.33 497.67,299.3C497.61,299.3 497.55,299.29 497.49,299.28L497.48,299.27ZM485.29,304.37C486.1,302.13 486.54,301.04 487.5,298.82L487.52,298.77L487.85,298.75L487.87,298.8C488.99,300.92 489.5,301.97 490.5,304.15L490.55,304.26L490.42,304.26C490.18,304.26 490.02,304.26 489.84,304.27L489.5,304.27L489.48,304.22C489.17,303.55 489,303.21 488.67,302.52C487.8,302.55 487.36,302.57 486.54,302.63C486.26,303.34 486.12,303.7 485.87,304.39L485.85,304.44L485.79,304.44C485.7,304.44 485.57,304.44 485.37,304.46L485.24,304.46L485.28,304.35L485.29,304.37ZM487.51,300.26C487.21,300.98 487.03,301.39 486.74,302.13C487.41,302.09 487.79,302.07 488.42,302.05C488.07,301.34 487.86,300.95 487.51,300.26Z" style="fill:white;fill-rule:nonzero;"/>
            <path d="M509.75,305.23C509.56,305.04 509.34,304.95 509.07,304.95C508.8,304.95 508.58,305.04 508.4,305.23C508.21,305.42 508.12,305.64 508.12,305.9C508.12,306.16 508.21,306.39 508.4,306.58C508.59,306.77 508.81,306.86 509.08,306.86C509.35,306.86 509.57,306.77 509.76,306.58C509.95,306.39 510.04,306.17 510.04,305.9C510.04,305.63 509.95,305.41 509.76,305.23L509.75,305.23ZM509.63,306.47C509.48,306.63 509.29,306.7 509.07,306.7C508.85,306.7 508.66,306.62 508.51,306.47C508.36,306.31 508.28,306.13 508.28,305.9C508.28,305.67 508.36,305.49 508.51,305.34C508.67,305.18 508.85,305.11 509.07,305.11C509.29,305.11 509.48,305.19 509.63,305.34C509.78,305.5 509.86,305.68 509.86,305.9C509.86,306.12 509.78,306.31 509.63,306.47Z" style="fill:white;fill-rule:nonzero;"/>
            <path d="M509.29,305.45C509.29,305.45 509.36,305.49 509.38,305.52C509.4,305.54 509.42,305.57 509.43,305.6C509.44,305.63 509.45,305.66 509.45,305.7C509.45,305.75 509.44,305.79 509.42,305.84C509.4,305.89 509.36,305.92 509.31,305.93C509.35,305.95 509.39,305.97 509.4,306.01C509.41,306.05 509.43,306.09 509.43,306.16L509.43,306.31C509.43,306.33 509.45,306.35 509.47,306.37L509.47,306.39L509.25,306.39C509.25,306.39 509.24,306.35 509.24,306.34L509.24,306.17C509.24,306.11 509.23,306.07 509.21,306.05C509.19,306.03 509.15,306.02 509.09,306.02L508.89,306.02L508.89,306.4L508.69,306.4L508.69,305.43L509.15,305.43C509.22,305.43 509.27,305.43 509.3,305.45L509.29,305.45ZM508.87,305.59L508.87,305.85L509.09,305.85C509.09,305.85 509.17,305.85 509.19,305.83C509.23,305.81 509.25,305.78 509.25,305.72C509.25,305.66 509.23,305.62 509.19,305.6C509.17,305.59 509.14,305.58 509.1,305.58L508.88,305.58L508.87,305.59Z" style="fill:white;fill-rule:nonzero;"/>
            <path d="M487.4,279.94C486.57,279.89 485.89,279.58 485.49,279.07C485.27,278.78 485.05,278.33 485.09,277.68C484.5,277.44 484.09,276.91 483.98,276.37C482.14,275.76 480.3,276.11 479.07,276.28C476.04,276.72 475.21,275.85 475.21,275.85C475.21,275.85 475.85,278.61 477.61,280.56C478.26,281.29 479.18,282.12 480.38,282.72C481.28,281.94 482.51,281.17 484.19,281.14L484.29,281.14C484.69,281.14 485.1,281.19 485.51,281.3C484.59,280.66 483.72,280.05 482.92,279.58C480.72,278.28 478.6,277.81 477.49,277.66C480.47,278.05 482.09,278.58 484.3,279.78C484.92,280.12 485.81,280.68 486.83,281.26C487,281.15 487.18,281.05 487.35,280.96C487.51,280.87 487.65,280.78 487.79,280.69C487.65,280.45 487.51,280.2 487.4,279.95L487.4,279.94Z" style="fill:white;fill-rule:nonzero;"/>
            <path d="M484.32,284.49C484.32,284.49 484.34,284.4 484.35,284.36C484.08,284.38 483.82,284.41 483.57,284.44C481.69,284.69 480.25,285.39 479.53,285.81C481.44,284.67 482.62,284.23 484.46,283.92L484.47,283.92C484.7,283.22 485.04,282.62 485.52,282.09C485.11,281.96 484.66,281.87 484.19,281.88C482.02,281.92 480.71,283.46 479.87,284.34C478.31,285.98 477.43,285.86 477.43,285.86C477.43,285.86 479.07,287.17 480.99,287.5C481.89,287.66 483.12,287.72 484.38,287.27C484.18,286.16 484.15,285.22 484.32,284.49Z" style="fill:white;fill-rule:nonzero;"/>
            <path d="M497.04,284.66C497.04,284.66 497.02,284.57 497.01,284.53C497.28,284.55 497.53,284.58 497.77,284.61C499.61,284.86 501.03,285.55 501.73,285.95C499.86,284.83 498.7,284.4 496.89,284.1L496.88,284.1C496.66,283.41 496.32,282.83 495.85,282.31C496.25,282.18 496.69,282.1 497.16,282.11C499.29,282.15 500.58,283.66 501.39,284.52C502.92,286.13 503.79,286.01 503.79,286.01C503.79,286.01 502.18,287.29 500.3,287.62C499.41,287.77 498.21,287.83 496.97,287.39C497.17,286.3 497.19,285.38 497.03,284.67L497.04,284.66Z" style="fill:white;fill-rule:nonzero;"/>
            <path d="M505.4,279.61C503.9,278.94 501.47,277.69 498.74,278.75C498.53,278.83 498.34,278.93 498.15,279.03C498.09,279.31 497.97,279.58 497.78,279.8C497.53,280.09 497.2,280.28 496.83,280.36C496.75,280.62 496.6,280.85 496.38,281.03C496.21,281.18 496,281.28 495.78,281.33C495.74,281.39 495.7,281.45 495.67,281.51C496.08,281.4 496.49,281.35 496.9,281.35L497,281.35C497.6,281.36 498.14,281.47 498.63,281.63C498.82,281.58 499,281.54 499.16,281.5C501.62,280.95 503.32,280.89 506.29,281.33C505.18,281.18 503.01,281.04 500.54,281.69C500.21,281.78 499.85,281.88 499.49,282C500.55,282.56 501.31,283.37 501.85,283.95C501.9,284.01 501.95,284.06 502,284.11C502.67,284.82 503.16,285.12 503.44,285.24C504.38,284.99 504.9,284.58 505.63,284.12C507.86,282.72 509.23,280.25 509.23,280.25C509.23,280.25 508.19,280.86 505.4,279.61Z" style="fill:white;fill-rule:nonzero;"/>
            <g>
                <path d="M487.75,285.43C487.54,286.04 487.54,286.58 487.6,287.32C487.63,287.67 487.67,288.02 487.7,288.36C486.98,288.51 486.07,288.45 485.46,288.27C485.43,287.66 485.35,287.18 485.31,286.82C485.23,286.2 485.23,285.56 485.35,284.95C485.4,284.68 485.48,284.42 485.56,284.16C485.87,283.27 486.43,282.6 487.09,282.09C487.54,281.74 488.03,281.47 488.44,281.03C487.9,281.42 487.28,281.68 486.69,282.14C485.82,282.82 485.24,283.61 484.97,284.85C484.76,285.79 484.95,287 485.12,287.77C485.24,288.35 485.37,289.5 485.38,290.31C485.47,289.59 485.49,288.97 485.47,288.44C486.11,289.04 487.33,288.83 487.71,288.49C487.76,289.06 487.8,289.64 487.77,290.27C487.92,289.46 488.01,288.89 487.95,287.66C487.92,287.08 487.89,286.47 487.97,285.88C488.06,285.27 488.33,284.64 488.65,284.13C488.37,284.31 487.96,284.74 487.73,285.42L487.75,285.43Z" style="fill:white;fill-rule:nonzero;"/>
                <path d="M496.42,284.89C496.17,283.65 495.33,282.21 493.96,281.69C494.94,282.37 495.55,283.29 495.84,284.19C495.92,284.44 495.99,284.71 496.04,284.98C496.15,285.59 496.13,286.23 496.04,286.85C495.99,287.23 495.9,287.74 495.86,288.39C495.25,288.5 494.39,288.47 493.71,288.27C493.73,288.14 493.75,287.99 493.77,287.82C493.85,287.09 493.87,286.55 493.68,285.93C493.47,285.25 493.08,284.8 492.8,284.62C493.11,285.14 493.36,285.77 493.43,286.39C493.5,286.99 493.46,287.6 493.4,288.17C493.32,288.9 493.36,289.24 493.42,290.15C493.48,289.34 493.58,288.99 493.68,288.43C494.04,288.79 495.16,289.07 495.84,288.6C495.82,289.1 495.82,289.68 495.9,290.35C495.92,289.75 496.01,288.95 496.11,288.35C496.14,288.15 496.18,287.96 496.21,287.82C496.39,287.05 496.61,285.84 496.42,284.9L496.42,284.89Z" style="fill:white;fill-rule:nonzero;"/>
            </g>
            <path d="M489.43,282.22C489.61,282.53 489.84,282.79 490.11,282.98C490.38,283.17 490.69,283.29 491.01,283.33C491.33,283.37 491.66,283.33 491.97,283.22C492.27,283.1 492.54,282.88 492.76,282.59C492.67,282.94 492.41,283.25 492.08,283.43C491.75,283.62 491.35,283.68 490.98,283.63C490.6,283.58 490.24,283.41 489.97,283.16C489.69,282.91 489.5,282.57 489.45,282.21L489.43,282.22Z" style="fill:white;fill-rule:nonzero;"/>
            <g>
                <path d="M485.81,274.1C486.26,274.24 486.9,274 487.32,273.6C487.13,273.92 486.84,274.12 486.46,274.43C485.99,274.82 485.94,275.27 486.27,275.5C486.49,275.66 486.97,275.62 487.3,275.45C488.29,274.95 488.96,274.12 489.43,272.65C489.65,271.97 489.86,271.28 490.13,270.81C490.57,270.03 491.07,269.66 491.58,269.36C490.83,269.53 490.19,269.82 489.49,270.38C488.83,270.91 488.03,271.85 487.38,272.45C487.01,272.79 486.65,272.95 486.32,272.87C486.08,272.81 485.86,272.6 485.85,272.16C485.49,272.37 485.22,272.81 485.2,273.24C485.2,273.62 485.41,273.97 485.8,274.09L485.81,274.1Z" style="fill:white;fill-rule:nonzero;"/>
                <path d="M497.85,274.96C497.37,274.53 496.89,273.55 496.54,272.41C495.99,270.64 495.08,269.61 493.63,269.36C494.27,271.67 495.53,274.02 497.85,274.96Z" style="fill:white;fill-rule:nonzero;"/>
                <path d="M489.54,273.28C489.06,274.51 488.59,275.03 487.91,275.5C487.01,276.13 486.18,276.02 485.91,275.69C485.62,275.35 485.64,274.79 486.11,274.38C485.21,274.51 484.52,275.28 484.63,276.17C484.69,276.66 485.2,277.19 485.87,277.14C485.38,278.77 486.58,279.34 487.85,279.27C488.03,279.76 488.42,280.44 488.66,280.79C488.37,280.1 488.21,279.28 488.2,278.39C487.15,278.04 487.53,277.05 487.53,277.05C489.21,276.07 489.47,274.51 489.55,273.27L489.54,273.28Z" style="fill:white;fill-rule:nonzero;"/>
                <path d="M499.69,275.66C499.3,275.66 498.91,275.63 498.52,275.56C497.96,276.83 497.15,277.42 495.46,277.06C495.44,277.41 495.4,277.76 495.33,278.12C495.32,278.2 495.3,278.27 495.28,278.35C495.33,278.32 495.39,278.29 495.47,278.28C495.56,278.27 495.69,278.28 495.8,278.36C495.92,278.45 495.97,278.66 495.97,278.82C495.97,279.05 495.9,279.32 495.61,279.57C495.35,279.79 495.02,279.8 494.84,279.79C494.47,280.65 493.98,281.38 493.41,281.91C493.97,281.56 494.55,281.09 494.86,280.59C495.68,280.95 496.39,280.41 496.22,279.69C497.21,279.84 497.72,279.03 497.48,278.29C498.05,278.26 498.59,278.03 498.9,277.69C499.45,277.1 499.62,276.45 499.7,275.66L499.69,275.66Z" style="fill:white;fill-rule:nonzero;"/>
                <path d="M492.25,269.32C491.43,269.64 490.75,270.39 490.4,271.32C490.37,271.39 490.35,271.46 490.32,271.53C490.31,271.56 490.3,271.6 490.29,271.63C490.29,271.64 490.29,271.65 490.28,271.66C490.02,272.48 489.83,273.3 489.93,274.62C490.01,275.62 490.39,276.45 491.03,276.92C491.41,277.19 491.87,277.27 491.75,277.02C491.63,276.76 491.54,276.51 491.48,276.26C492.01,276.76 492.73,277.2 493.65,277.2C494.14,277.2 494.25,277.01 494.09,276.93C493.73,276.75 493.53,276.62 493.35,276.42C493.73,276.65 494.22,276.81 494.62,276.85C495.25,276.92 495.55,276.65 495.51,276.4C496.69,276.99 497.52,276.65 498.29,275.52C497.03,275.23 495.81,274.52 494.86,273.41C493.92,272.3 493.4,270.99 493.31,269.68C493.28,271.06 493.37,271.95 493.67,272.75C494.01,273.65 494.62,274.43 495.9,275.5C494.71,274.92 493.88,274.21 493.41,273.39C492.84,272.4 492.71,271.39 492.99,269.83C491.58,271.91 492.33,274.54 493.39,275.82C492.46,274.95 491.92,274.1 491.75,273.16C491.56,272.14 491.73,271.19 492.03,270.43C491.74,270.69 491.16,271.52 490.99,272.44L490.99,272.41C490.96,271.05 491.61,269.9 492.24,269.32L492.25,269.32Z" style="fill:white;fill-rule:nonzero;"/>
                <g>
                    <path d="M489.32,277.54L489.31,277.54C489.31,277.54 489.28,277.51 489.29,277.47C489.32,277.36 489.57,277.14 489.91,277.12L489.97,277.12C490.27,277.12 490.45,277.22 490.5,277.32C490.52,277.35 490.51,277.38 490.5,277.41C490.5,277.41 490.48,277.43 490.46,277.43C490.43,277.43 490.4,277.42 490.35,277.39C490.26,277.35 490.13,277.3 489.97,277.3L489.92,277.3C489.6,277.32 489.47,277.45 489.4,277.51C489.37,277.54 489.36,277.55 489.34,277.55L489.32,277.54Z" style="fill:white;fill-rule:nonzero;"/>
                    <path d="M491.44,281.15C491.38,281.15 491.31,281.15 491.25,281.14C490.78,281.08 490.55,280.7 490.48,280.58C490.48,280.57 490.47,280.57 490.46,280.57C490.44,280.57 490.42,280.59 490.4,280.6C490.37,280.62 490.35,280.63 490.32,280.63C490.3,280.63 490.29,280.63 490.28,280.61C490.26,280.6 490.26,280.58 490.26,280.56C490.26,280.53 490.28,280.5 490.31,280.47C490.33,280.45 490.35,280.42 490.37,280.4C490.38,280.38 490.39,280.36 490.4,280.34C490.43,280.29 490.45,280.24 490.49,280.24L490.52,280.24C490.56,280.26 490.55,280.31 490.55,280.35C490.55,280.4 490.54,280.44 490.58,280.48L490.6,280.48C490.71,280.58 490.92,280.75 491.29,280.8C491.39,280.81 491.49,280.82 491.58,280.82C491.73,280.82 491.88,280.8 492.04,280.77C492.06,280.77 492.07,280.74 492.08,280.69C492.08,280.65 492.09,280.6 492.14,280.59L492.16,280.59C492.22,280.59 492.22,280.64 492.23,280.69C492.23,280.72 492.24,280.75 492.25,280.78C492.26,280.81 492.28,280.84 492.3,280.86C492.33,280.9 492.36,280.94 492.3,280.98C492.29,280.98 492.28,280.99 492.26,280.99C492.23,280.99 492.21,280.97 492.19,280.96C492.17,280.94 492.14,280.93 492.13,280.93L492.1,280.93C492.1,280.93 492.08,280.96 492.05,280.97C491.86,281.08 491.67,281.13 491.45,281.13L491.44,281.15Z" style="fill:white;fill-rule:nonzero;"/>
                    <path d="M491.52,280.1L491.45,280.1C491.24,280.07 491.09,279.91 491.05,279.7C491.05,279.68 491.05,279.67 491.06,279.66C491.07,279.65 491.09,279.64 491.1,279.64C491.11,279.64 491.13,279.64 491.14,279.66C491.23,279.76 491.35,279.83 491.48,279.85L491.57,279.85C491.67,279.85 491.77,279.82 491.86,279.77L491.89,279.77C491.91,279.77 491.93,279.78 491.94,279.8L491.94,279.85C491.86,280.01 491.7,280.1 491.52,280.1Z" style="fill:white;fill-rule:nonzero;"/>
                    <path d="M490.72,278.42L490.68,278.42C490.51,278.35 490.33,278.29 490.15,278.25C489.99,278.21 489.8,278.19 489.59,278.19C489.54,278.19 489.5,278.16 489.47,278.11C489.45,278.06 489.46,278.01 489.49,277.98C489.59,277.87 489.77,277.73 490.04,277.73C490.09,277.73 490.15,277.73 490.21,277.75C490.58,277.82 490.75,278.08 490.83,278.29C490.84,278.32 490.83,278.36 490.82,278.39C490.8,278.42 490.76,278.44 490.73,278.44L490.72,278.42Z" style="fill:white;fill-rule:nonzero;"/>
                    <path d="M494.29,278.53C494.29,278.53 494.25,278.5 494.23,278.47C494.19,278.39 494.11,278.22 493.83,278.08C493.68,278.01 493.54,278 493.44,278L493.37,278C493.37,278 493.27,278 493.26,277.96C493.26,277.94 493.26,277.92 493.27,277.9C493.31,277.85 493.39,277.83 493.49,277.83C493.58,277.83 493.72,277.85 493.9,277.94C494.21,278.09 494.35,278.38 494.34,278.5C494.34,278.54 494.31,278.55 494.3,278.56L494.29,278.53Z" style="fill:white;fill-rule:nonzero;"/>
                    <path d="M493.86,279.03L493.81,279.03C493.62,278.95 493.44,278.9 493.27,278.87C493.1,278.84 492.92,278.82 492.74,278.82L492.71,278.82C492.71,278.82 492.62,278.79 492.61,278.75C492.59,278.71 492.61,278.66 492.63,278.63C492.75,278.5 492.95,278.35 493.23,278.35C493.29,278.35 493.35,278.35 493.4,278.37C493.76,278.45 493.91,278.68 493.97,278.86C493.98,278.9 493.97,278.94 493.95,278.97C493.93,279 493.89,279.02 493.85,279.02L493.86,279.03Z" style="fill:white;fill-rule:nonzero;"/>
                </g>
            </g>
        </g>
    </g>
</svg>
