<?xml version="1.0" encoding="UTF-8" standalone="no"?>
<!DOCTYPE svg PUBLIC "-//W3C//DTD SVG 1.1//EN" "http://www.w3.org/Graphics/SVG/1.1/DTD/svg11.dtd">
<svg width="100%" height="100%" viewBox="0 0 100 37" version="1.1" xmlns="http://www.w3.org/2000/svg" xmlns:xlink="http://www.w3.org/1999/xlink" xml:space="preserve" xmlns:serif="http://www.serif.com/" style="fill-rule:evenodd;clip-rule:evenodd;stroke-linejoin:round;stroke-miterlimit:2;">
    <g transform="matrix(1,0,0,1,-283.49,-211.15)">
        <g>
            <path d="M379.47,211.15L287.31,211.15C285.2,211.15 283.49,212.89 283.49,215.04L283.49,243.39C283.49,245.53 285.2,247.28 287.31,247.28L379.47,247.28C381.58,247.28 383.29,245.54 383.29,243.39L383.29,215.04C383.29,212.9 381.58,211.15 379.47,211.15ZM381.97,243.4C381.97,244.82 380.84,245.96 379.47,245.96L287.31,245.96C285.94,245.96 284.81,244.81 284.81,243.4L284.81,215.04C284.81,213.65 285.94,212.47 287.31,212.47L379.47,212.47C380.84,212.47 381.97,213.64 381.97,215.04L381.97,243.4Z" style="fill:white;fill-rule:nonzero;"/>
            <path d="M298.32,223.6L298.96,229.37L307.06,229.33L305.35,221.96L312.47,215.86L305.13,215.88L299.38,221.14L301.66,215.9L293.83,215.95L287.97,229.42L295.8,229.37L298.32,223.6Z" style="fill:white;fill-rule:nonzero;"/>
            <path d="M327.45,215.79L319.62,215.84L313.78,229.3L321.61,229.26L327.45,215.79Z" style="fill:white;fill-rule:nonzero;"/>
            <path d="M339.33,223.09L340.74,229.2L347.6,229.15L353.44,215.68L346.89,215.7L344.26,221.79L342.51,215.72L335.96,215.75L330.12,229.24L336.65,229.22L339.33,223.09Z" style="fill:white;fill-rule:nonzero;"/>
            <path d="M359.89,228.95C360.91,229.24 362.08,229.37 363.38,229.37C364.49,229.37 365.48,229.26 366.39,229.04C367.3,228.84 368.11,228.53 368.82,228.11L369.13,229.06L374.04,229.04L377.18,221.81L368.02,221.85L367.14,223.91L368.71,223.89L368.02,225.48C367.73,226.12 367.47,226.54 367.16,226.76C366.85,226.98 366.43,227.09 365.85,227.09C365.34,227.09 365.03,227 364.94,226.8C364.85,226.6 364.92,226.2 365.18,225.6L367.99,219.12C368.3,218.43 368.57,218.02 368.81,217.84C369.05,217.68 369.43,217.6 369.92,217.6C370.47,217.6 370.78,217.69 370.85,217.89C370.92,218.09 370.78,218.58 370.45,219.33L369.92,220.57L377.73,220.52L377.99,219.95C378.46,218.84 378.59,218 378.39,217.43C378.19,216.86 377.42,216.35 376.09,215.93C374.76,215.53 372.95,215.31 370.67,215.33C368.33,215.33 366.31,215.6 364.65,216.08C362.97,216.57 361.84,217.1 361.27,217.69C360.72,218.26 360.16,219.22 359.61,220.5L357.86,224.5C357.46,225.43 357.24,226.11 357.17,226.58C357.13,227.05 357.3,227.49 357.72,227.91C358.12,228.33 358.85,228.68 359.86,228.95L359.89,228.95Z" style="fill:white;fill-rule:nonzero;"/>
            <rect x="287.97" y="230.79" width="90.55" height="0.68" style="fill:white;fill-rule:nonzero;"/>
            <path d="M308.12,236.45C308.67,236.91 309.47,237.16 310.55,237.2C311.59,237.16 312.39,236.93 312.94,236.47C313.49,236.03 313.76,235.54 313.76,235.01C313.78,234.59 313.52,234.26 313.01,234.04C312.5,233.8 311.68,233.69 310.58,233.66L310.56,233.66C309.48,233.68 308.68,233.79 308.15,234.01C307.6,234.23 307.33,234.56 307.33,235.01C307.33,235.52 307.6,235.98 308.13,236.45L308.12,236.45ZM309.53,234.59C309.73,234.5 310.06,234.46 310.55,234.46C311.04,234.46 311.37,234.5 311.55,234.59C311.75,234.7 311.84,234.86 311.84,235.05C311.84,235.38 311.71,235.69 311.46,235.96C311.22,236.25 310.91,236.38 310.55,236.4C310.22,236.4 309.93,236.24 309.67,236C309.4,235.74 309.27,235.42 309.27,235.05C309.25,234.83 309.36,234.67 309.53,234.59Z" style="fill:white;fill-rule:nonzero;"/>
            <path d="M316.48,236.73L316.48,235.81L318.54,235.81L318.98,235.06L316.48,235.06L316.48,234.51L319.24,234.51L318.8,233.76L314.62,233.76L314.62,236.97C314.62,237.1 314.64,237.23 314.69,237.35C314.73,237.46 314.82,237.57 314.91,237.66L316.59,237.15C316.59,237.15 316.52,237.04 316.5,236.97C316.48,236.88 316.48,236.81 316.48,236.73Z" style="fill:white;fill-rule:nonzero;"/>
            <path d="M321.67,235.06L321.67,234.51L324.44,234.51L324,233.76L319.82,233.76L319.82,236.97C319.82,237.1 319.84,237.23 319.89,237.35C319.96,237.46 320.02,237.57 320.11,237.66L321.79,237.15C321.79,237.15 321.72,237.04 321.7,236.97C321.68,236.88 321.68,236.81 321.68,236.73L321.68,235.82L323.74,235.82L324.18,235.07L321.68,235.07L321.67,235.06Z" style="fill:white;fill-rule:nonzero;"/>
            <rect x="326.83" y="235.34" width="2.76" height="0.66" style="fill:white;"/>
            <path d="M338.29,234.61C338.27,234.32 338.05,234.1 337.65,233.95C337.25,233.82 336.77,233.75 336.21,233.75L332.72,233.75L332.3,234.5L335.46,234.5C335.66,234.5 335.84,234.52 335.97,234.55C336.13,234.57 336.19,234.64 336.19,234.7C336.19,234.81 336.08,234.94 335.84,235.05C335.57,235.18 335.15,235.34 334.56,235.54C335,236 335.44,236.4 335.89,236.73C336.33,237.06 336.8,237.37 337.28,237.64L338.83,237.13C338.28,236.82 337.83,236.53 337.52,236.31C337.21,236.09 336.97,235.87 336.77,235.67C337.24,235.54 337.61,235.38 337.88,235.21C338.14,235.03 338.28,234.83 338.3,234.61L338.29,234.61Z" style="fill:white;fill-rule:nonzero;"/>
            <rect x="332.65" y="234.61" width="1.83" height="2.53" style="fill:white;fill-rule:nonzero;"/>
            <path d="M339.64,236.45C340.17,236.91 340.97,237.16 342.05,237.2L342.07,237.2C343.11,237.16 343.91,236.93 344.44,236.47C344.99,236.03 345.26,235.54 345.28,235.01C345.28,234.59 345.04,234.26 344.53,234.04C344,233.8 343.2,233.69 342.08,233.66L342.06,233.66C340.98,233.68 340.18,233.79 339.65,234.01C339.12,234.23 338.83,234.56 338.83,235.01C338.83,235.52 339.12,235.98 339.65,236.45L339.64,236.45ZM341.05,234.59C341.23,234.5 341.58,234.46 342.04,234.46L342.06,234.46C342.52,234.46 342.86,234.5 343.05,234.59C343.23,234.7 343.32,234.86 343.32,235.05C343.32,235.38 343.19,235.69 342.94,235.96C342.7,236.25 342.39,236.38 342.03,236.4C341.7,236.4 341.41,236.24 341.15,236C340.91,235.74 340.77,235.42 340.75,235.05C340.75,234.83 340.84,234.67 341.04,234.59L341.05,234.59Z" style="fill:white;fill-rule:nonzero;"/>
            <path d="M348.75,234.68C349.19,234.55 349.77,234.5 350.5,234.5L351.83,234.5L351.41,233.75L350.33,233.75C349.67,233.75 349.07,233.77 348.52,233.86C347.99,233.93 347.48,234.08 347.04,234.28C346.55,234.52 346.22,234.79 346.02,235.08C345.82,235.37 345.73,235.66 345.75,235.92C345.75,236.21 345.84,236.5 346.02,236.78C346.2,237.04 346.48,237.33 346.84,237.6L348.35,237.14C348.17,237.01 348.02,236.83 347.86,236.65C347.73,236.45 347.66,236.27 347.64,236.05L349.68,236.05L349.68,237.13L351.54,237.13L351.54,234.61L349.68,234.61L349.68,235.3L347.82,235.3C348.04,234.99 348.35,234.79 348.77,234.68L348.75,234.68Z" style="fill:white;fill-rule:nonzero;"/>
            <path d="M352.73,234.61L352.73,237.13L354.28,237.13C355.47,237.11 356.49,236.93 357.33,236.58C358.17,236.2 358.61,235.72 358.66,235.08C358.62,234.59 358.35,234.26 357.82,234.06C357.29,233.84 356.65,233.75 355.92,233.75L352.83,233.75L352.41,234.5L355.44,234.5C355.93,234.5 356.28,234.57 356.48,234.68C356.68,234.79 356.79,234.95 356.77,235.14C356.75,235.49 356.53,235.78 356.11,236C355.67,236.22 355.18,236.36 354.61,236.36L354.61,234.61L352.73,234.61Z" style="fill:white;fill-rule:nonzero;"/>
            <path d="M300.82,240.85C301.29,240.7 301.64,240.54 301.9,240.36C302.17,240.18 302.3,240.01 302.3,239.78C302.3,239.47 302.08,239.25 301.7,239.1C301.3,238.97 300.82,238.9 300.26,238.9L296.85,238.9L296.43,239.65L299.53,239.65C299.73,239.65 299.91,239.67 300.04,239.69C300.17,239.73 300.24,239.78 300.26,239.87C300.26,239.98 300.15,240.09 299.88,240.2C299.64,240.33 299.24,240.49 298.64,240.69C299.06,241.15 299.5,241.55 299.94,241.88C300.36,242.21 300.83,242.52 301.31,242.79L302.81,242.28C302.28,241.97 301.84,241.7 301.55,241.46C301.24,241.24 301,241.02 300.8,240.84L300.82,240.85Z" style="fill:white;fill-rule:nonzero;"/>
            <rect x="296.77" y="239.77" width="1.81" height="2.52" style="fill:white;fill-rule:nonzero;"/>
            <path d="M305.79,239.83C306.21,239.72 306.76,239.65 307.47,239.65L308.77,239.65L308.35,238.9L307.31,238.9C306.67,238.9 306.07,238.92 305.54,239.01C305.01,239.1 304.52,239.23 304.08,239.45C303.59,239.69 303.26,239.96 303.08,240.25C302.88,240.54 302.79,240.8 302.82,241.07C302.82,241.36 302.91,241.64 303.08,241.93C303.26,242.22 303.52,242.48 303.88,242.75L305.36,242.29C305.18,242.16 305.03,242 304.87,241.8C304.74,241.62 304.67,241.42 304.65,241.2L306.66,241.2L306.66,242.28L308.45,242.28L308.45,239.76L306.66,239.76L306.66,240.45L304.82,240.45C305.02,240.16 305.33,239.94 305.77,239.83L305.79,239.83Z" style="fill:white;fill-rule:nonzero;"/>
            <path d="M311.86,241.18C311.39,240.96 311.15,240.65 311.15,240.32C311.15,240.08 311.26,239.92 311.48,239.81C311.7,239.72 312.01,239.66 312.41,239.66L313.89,239.66L313.47,238.91L311.99,238.91C311.19,238.91 310.55,239.02 310.07,239.24C309.56,239.44 309.3,239.77 309.3,240.24C309.32,240.83 309.72,241.35 310.47,241.72C311.22,242.1 312.13,242.27 313.17,242.3L313.57,242.3L313.99,241.55L313.81,241.55C312.99,241.53 312.35,241.42 311.86,241.2L311.86,241.18Z" style="fill:white;fill-rule:nonzero;"/>
            <rect x="314.62" y="238.9" width="1.79" height="3.38" style="fill:white;"/>
            <path d="M321.41,240.05L319.37,238.9L317.65,238.9L317.65,242.29L319.46,242.29L319.46,240.14L319.49,240.14L321.41,241.29L321.41,242.29L323.22,242.29L323.22,238.9L321.41,238.9L321.41,240.05Z" style="fill:white;fill-rule:nonzero;"/>
            <path d="M327.36,240.74L328.05,240.74L328.05,241.54C327.43,241.52 326.9,241.39 326.52,241.14C326.12,240.9 325.92,240.63 325.92,240.32C325.92,240.1 326.01,239.94 326.23,239.83C326.45,239.72 326.76,239.65 327.2,239.65L329.77,239.65L329.35,238.9L326.76,238.9C325.92,238.9 325.26,239.01 324.77,239.25C324.31,239.47 324.06,239.8 324.04,240.22C324.08,240.86 324.51,241.35 325.34,241.72C326.16,242.07 327.18,242.25 328.37,242.27L329.85,242.27L329.85,239.95L327.35,239.95L327.35,240.72L327.36,240.74Z" style="fill:white;fill-rule:nonzero;"/>
            <path d="M337,241.03C336.8,240.88 336.49,240.7 336.09,240.5C335.65,240.26 335.36,240.1 335.16,239.99C334.98,239.9 334.89,239.83 334.89,239.79C334.89,239.75 334.94,239.7 335.02,239.7C335.09,239.68 335.2,239.66 335.35,239.66L337.1,239.66L336.68,238.91L334.62,238.91C334.16,238.91 333.74,238.98 333.4,239.11C333.05,239.22 332.87,239.42 332.85,239.68C332.85,239.79 332.9,239.88 332.96,239.97C333.03,240.06 333.12,240.15 333.25,240.24C333.36,240.31 333.52,240.39 333.67,240.5C333.85,240.59 334.05,240.68 334.24,240.79C334.55,240.99 334.79,241.12 334.97,241.21C335.15,241.3 335.24,241.37 335.24,241.41C335.24,241.46 335.2,241.48 335.15,241.5C335.08,241.52 334.95,241.54 334.77,241.54L332.91,241.54L333.33,242.29L335.47,242.29C336.09,242.29 336.55,242.2 336.84,242.05C337.15,241.92 337.31,241.72 337.31,241.52C337.31,241.34 337.2,241.19 336.98,241.03L337,241.03Z" style="fill:white;fill-rule:nonzero;"/>
            <path d="M341.76,239.97L339.84,239.97L339.84,238.91L338.03,238.91L338.03,242.12C338.03,242.25 338.05,242.39 338.12,242.5C338.16,242.61 338.23,242.72 338.32,242.81L339.96,242.3C339.96,242.3 339.89,242.19 339.87,242.12C339.87,242.03 339.85,241.97 339.85,241.88L339.85,240.75L341.77,240.75L341.77,242.3L343.58,242.3L343.58,238.92L341.77,238.92L341.77,239.98L341.76,239.97Z" style="fill:white;fill-rule:nonzero;"/>
            <path d="M350.01,239.19C349.5,238.95 348.71,238.84 347.62,238.84L347.6,238.84C346.54,238.84 345.74,238.95 345.23,239.17C344.7,239.39 344.43,239.72 344.43,240.17C344.43,240.68 344.7,241.16 345.23,241.61C345.74,242.08 346.54,242.32 347.6,242.36C348.62,242.34 349.41,242.09 349.94,241.63C350.47,241.19 350.74,240.7 350.74,240.19C350.76,239.77 350.52,239.44 350.01,239.19ZM348.48,241.12C348.24,241.41 347.95,241.56 347.59,241.56C347.26,241.56 346.97,241.43 346.73,241.16C346.46,240.9 346.33,240.59 346.33,240.21C346.33,240.01 346.42,239.86 346.59,239.75C346.79,239.66 347.12,239.62 347.59,239.62C348.06,239.62 348.39,239.66 348.56,239.77C348.76,239.86 348.85,240.01 348.85,240.21C348.83,240.54 348.72,240.85 348.48,241.12Z" style="fill:white;fill-rule:nonzero;"/>
            <path d="M353.79,241.18C353.33,240.96 353.08,240.65 353.06,240.32C353.06,240.08 353.19,239.92 353.41,239.81C353.63,239.72 353.94,239.66 354.32,239.66L355.83,239.66L355.41,238.91L353.93,238.91C353.13,238.91 352.49,239.02 352.01,239.24C351.5,239.44 351.23,239.77 351.21,240.24C351.26,240.83 351.65,241.35 352.41,241.72C353.16,242.1 354.07,242.27 355.11,242.3L355.51,242.3L355.93,241.55L355.73,241.55C354.93,241.53 354.29,241.42 353.81,241.2L353.79,241.18Z" style="fill:white;fill-rule:nonzero;"/>
            <path d="M362.02,238.9L359.98,238.9L358.35,240.43L360.21,242.29L362.35,242.29L360.36,240.39L362.02,238.9Z" style="fill:white;fill-rule:nonzero;"/>
            <rect x="356.51" y="238.9" width="1.81" height="3.38" style="fill:white;"/>
            <path d="M366.4,241.03C366.18,240.88 365.87,240.7 365.47,240.5C365.05,240.26 364.74,240.1 364.56,239.99C364.38,239.9 364.29,239.83 364.29,239.79C364.29,239.75 364.34,239.7 364.4,239.7C364.49,239.68 364.6,239.66 364.73,239.66L366.48,239.66L366.06,238.91L364.03,238.91C363.54,238.91 363.14,238.98 362.79,239.11C362.46,239.22 362.26,239.42 362.26,239.68C362.26,239.79 362.28,239.88 362.35,239.97C362.42,240.06 362.53,240.15 362.64,240.24C362.77,240.31 362.91,240.39 363.08,240.5C363.26,240.59 363.43,240.68 363.63,240.79C363.96,240.99 364.21,241.12 364.38,241.21C364.53,241.3 364.62,241.37 364.62,241.41C364.62,241.46 364.6,241.48 364.53,241.5C364.46,241.52 364.35,241.54 364.18,241.54L362.32,241.54L362.72,242.29L364.89,242.29C365.51,242.29 365.95,242.2 366.26,242.05C366.57,241.92 366.7,241.72 366.7,241.52C366.7,241.34 366.59,241.19 366.39,241.03L366.4,241.03Z" style="fill:white;fill-rule:nonzero;"/>
            <path d="M368.32,240.9C367.9,240.9 367.57,241.22 367.57,241.62C367.57,242.02 367.9,242.35 368.31,242.35C368.72,242.35 369.05,242.03 369.05,241.62C369.05,241.21 368.72,240.9 368.31,240.9L368.32,240.9ZM368.32,242.21C368,242.21 367.76,241.95 367.76,241.63C367.76,241.31 368,241.05 368.31,241.05C368.62,241.05 368.87,241.31 368.87,241.63C368.87,241.95 368.63,242.21 368.32,242.2L368.32,242.21Z" style="fill:white;fill-rule:nonzero;"/>
            <path d="M368.48,241.65C368.56,241.61 368.63,241.56 368.63,241.47C368.63,241.4 368.6,241.35 368.56,241.32C368.51,241.28 368.45,241.26 368.31,241.26C368.19,241.26 368.1,241.27 368.03,241.28L368.03,242L368.2,242L368.2,241.71L368.28,241.71C368.37,241.71 368.42,241.74 368.43,241.82C368.45,241.91 368.47,241.97 368.49,242L368.67,242C368.67,242 368.64,241.93 368.62,241.82C368.6,241.72 368.56,241.67 368.49,241.64L368.48,241.65ZM368.29,241.6L368.21,241.6L368.21,241.39L368.3,241.39C368.41,241.39 368.45,241.43 368.45,241.5C368.45,241.58 368.37,241.61 368.28,241.61L368.29,241.6Z" style="fill:white;fill-rule:nonzero;"/>
        </g>
    </g>
</svg>
