<?xml version="1.0" encoding="UTF-8" standalone="no"?>
<!DOCTYPE svg PUBLIC "-//W3C//DTD SVG 1.1//EN" "http://www.w3.org/Graphics/SVG/1.1/DTD/svg11.dtd">
<svg width="100%" height="100%" viewBox="0 0 106 36" version="1.1" xmlns="http://www.w3.org/2000/svg" xmlns:xlink="http://www.w3.org/1999/xlink" xml:space="preserve" xmlns:serif="http://www.serif.com/" style="fill-rule:evenodd;clip-rule:evenodd;stroke-linejoin:round;stroke-miterlimit:2;">
    <g transform="matrix(1,0,0,1,-411.92,-211.4)">
        <g>
            <path d="M474.34,220.12C474.34,218.34 473.74,217.83 471.5,217.83L468.34,217.83C466.1,217.83 465.5,218.32 465.5,220.12L465.5,235.85L458.16,235.85L458.16,220.12C458.16,218.34 457.56,217.83 455.41,217.83L449.3,217.83L449.3,235.85L441.96,235.85L441.96,211.4L454.16,211.4C458.78,211.4 460.21,211.81 461.68,213.5C462.97,211.98 464.52,211.4 467.36,211.4L472.44,211.4C475.88,211.4 477.95,212.04 479.5,213.61C481.05,215.16 481.65,217.14 481.65,220.58L481.65,235.85L474.31,235.85L474.31,220.12L474.35,220.12L474.34,220.12Z" style="fill:white;fill-rule:nonzero;"/>
            <rect x="411.92" y="211.4" width="7.34" height="24.45" style="fill:white;"/>
            <path d="M510.83,219.58L510.83,211.4L494.41,211.4C491.02,211.4 488.96,212.04 487.38,213.61C485.83,215.13 485.23,217.14 485.23,220.58L485.23,226.69C485.23,230.13 485.83,232.14 487.38,233.66C488.93,235.21 491,235.87 494.41,235.87L510.83,235.87L510.83,227.75L504.4,227.75L504.4,229.44L495.31,229.44C493.16,229.44 492.56,228.93 492.56,227.15L492.56,220.12C492.56,218.34 493.16,217.83 495.31,217.83L504.4,217.83L504.4,219.58L510.83,219.58Z" style="fill:white;fill-rule:nonzero;"/>
            <path d="M411.92,241.51L413.38,241.51L414.43,245.41L414.44,245.41L415.54,241.51L417,241.51L418.1,245.41L418.12,245.41L419.14,241.51L420.6,241.51L418.91,246.88L417.41,246.88L416.28,243.07L416.26,243.07L415.13,246.88L413.63,246.88L411.92,241.51Z" style="fill:white;fill-rule:nonzero;"/>
            <path d="M433.12,241.51L434.59,241.51L434.59,243.52L437.6,243.52L437.6,241.51L439.07,241.51L439.07,246.88L437.6,246.88L437.6,244.55L434.59,244.55L434.59,246.88L433.12,246.88L433.12,241.51Z" style="fill:white;fill-rule:nonzero;"/>
            <path d="M452.13,241.51L457.15,241.51L457.15,242.54L453.58,242.54L453.58,243.65L456.97,243.65L456.97,244.62L453.58,244.62L453.58,245.85L457.18,245.85L457.18,246.88L452.13,246.88L452.13,241.51Z" style="fill:white;fill-rule:nonzero;"/>
            <path d="M470.01,241.51L475.03,241.51L475.03,242.54L471.48,242.54L471.48,243.65L474.85,243.65L474.85,244.62L471.48,244.62L471.48,245.85L475.06,245.85L475.06,246.88L470.01,246.88L470.01,241.51Z" style="fill:white;fill-rule:nonzero;"/>
            <path d="M487.9,241.51L489.36,241.51L489.36,245.82L492.63,245.82L492.63,246.88L487.9,246.88L487.9,241.51Z" style="fill:white;fill-rule:nonzero;"/>
            <path d="M508.99,243.07C508.9,242.36 508.23,242.29 507.65,242.29C507.07,242.29 506.66,242.55 506.66,242.93C506.66,243.21 506.91,243.37 507.28,243.44L509.12,243.74C510.09,243.9 510.85,244.27 510.85,245.24C510.85,246.21 510.18,247.04 508.06,247.04C506.75,247.04 505.06,246.88 505.04,245.2L506.68,245.2C506.7,245.94 507.44,246.06 508.06,246.06C508.75,246.06 509.21,245.87 509.21,245.39C509.21,244.98 508.87,244.86 508.29,244.77L506.97,244.58C506.03,244.44 505.13,244.16 505.13,243.06C505.13,241.86 506.1,241.38 507.8,241.38C508.91,241.38 510.55,241.57 510.64,243.09L509,243.09L509,243.05L508.99,243.07Z" style="fill:white;fill-rule:nonzero;"/>
            <path d="M429.01,223.63L438.2,211.4L429.94,211.4L420.75,223.63L429.94,235.85L438.2,235.85L429.01,223.63Z" style="fill:white;fill-rule:nonzero;"/>
            <path d="M429.01,223.63L438.2,211.4L429.94,211.4L420.75,223.63L429.01,223.63Z" style="fill:white;fill-rule:nonzero;"/>
            <path d="M513.93,211.7L513.1,211.7L513.1,211.41L515.1,211.41L515.1,211.7L514.27,211.7L514.27,213.89L513.93,213.89L513.93,211.7Z" style="fill:white;fill-rule:nonzero;"/>
            <path d="M515.38,211.41L515.82,211.41L516.6,213.5L517.39,211.41L517.83,211.41L517.83,213.89L517.53,213.89L517.53,211.84L517.52,211.84L516.74,213.89L516.46,213.89L515.7,211.84L515.68,211.84L515.68,213.89L515.38,213.89L515.38,211.41Z" style="fill:white;fill-rule:nonzero;"/>
        </g>
    </g>
</svg>
