<?xml version="1.0" encoding="UTF-8" standalone="no"?>
<!DOCTYPE svg PUBLIC "-//W3C//DTD SVG 1.1//EN" "http://www.w3.org/Graphics/SVG/1.1/DTD/svg11.dtd">
<svg width="100%" height="100%" viewBox="0 0 128 35" version="1.1" xmlns="http://www.w3.org/2000/svg" xmlns:xlink="http://www.w3.org/1999/xlink" xml:space="preserve" xmlns:serif="http://www.serif.com/" style="fill-rule:evenodd;clip-rule:evenodd;stroke-linejoin:round;stroke-miterlimit:2;">
    <g transform="matrix(1,0,0,1,-537.67,-272.75)">
        <g>
            <g>
                <path d="M574.74,293.55C574.78,295.19 574.2,296.83 573,298.08L572.99,298.08L573,298.1C571.79,299.35 570.17,299.98 568.53,300C567.57,300.01 566.61,299.81 565.72,299.4L562.92,302.14C564.52,303.02 566.3,303.43 568.08,303.4C570.72,303.35 573.33,302.32 575.3,300.29L575.28,300.27L575.29,300.25L575.31,300.27C577.26,298.24 578.21,295.59 578.16,292.95C578.13,291.36 577.74,289.78 576.99,288.34L574.19,291.08C574.53,291.86 574.72,292.7 574.74,293.54L574.74,293.55Z" style="fill:white;fill-rule:nonzero;"/>
                <path d="M568.63,272.75L560.42,287.89L572.9,285.69L565.37,288.9L554.03,307.57L561.88,299.88L564.68,297.14L573.16,288.83L575.97,286.09L581.19,280.98L572.88,282.35L580.38,272.75L568.63,272.75Z" style="fill:white;fill-rule:nonzero;"/>
            </g>
            <g>
                <rect x="630.4" y="283.42" width="3.36" height="13.43" style="fill:white;"/>
                <path d="M621.55,283.42L617.39,292.95L613.13,283.42L609.46,283.42L615.36,296.8L619.38,296.8L623.64,287.1L623.64,296.8L627,296.8L627,283.42L621.55,283.42Z" style="fill:white;fill-rule:nonzero;"/>
                <path d="M601.14,283.42L595.27,296.8L599,296.8L603.48,286.66L607.92,296.8L611.62,296.8L605.74,283.42L601.14,283.42Z" style="fill:white;fill-rule:nonzero;"/>
                <g>
                    <rect x="643.89" y="283.42" width="3.36" height="6.7" style="fill:white;"/>
                    <path d="M640.49,293.53L640.49,283.47L637.13,283.47L637.13,296.9L651.33,296.9L652.81,293.53L640.49,293.53Z" style="fill:white;fill-rule:nonzero;"/>
                    <path d="M658.09,283.43L653.56,283.43L650.63,290.14L654.3,290.14L655.82,286.67L660.3,296.85L664.02,296.85L658.09,283.43Z" style="fill:white;fill-rule:nonzero;"/>
                </g>
                <g>
                    <path d="M551.88,283.42L547.34,283.42L544.41,290.14L548.09,290.14L549.61,286.67L554.08,296.85L557.81,296.85L551.88,283.42Z" style="fill:white;fill-rule:nonzero;"/>
                    <path d="M541.04,293.53L541.04,283.47L537.67,283.47L537.67,296.89L550.4,296.89L548.92,293.53L541.04,293.53Z" style="fill:white;fill-rule:nonzero;"/>
                </g>
                <path d="M586.01,289.42L586.01,286.79L595.96,286.79L597.45,283.42L582.64,283.42L582.64,296.8L586.01,296.8L586.01,292.78L593.32,292.81L594.81,289.45L586.01,289.42Z" style="fill:white;fill-rule:nonzero;"/>
            </g>
            <g>
                <path d="M619.15,301.18C619.15,301.34 619.12,301.48 619.06,301.59C619,301.7 618.92,301.78 618.84,301.84C618.75,301.9 618.66,301.94 618.57,301.97C618.48,301.99 618.4,302.01 618.34,302.01L616.72,302.01L616.72,302.86L616.09,302.86L616.09,300.36L618.34,300.36C618.41,300.36 618.49,300.37 618.58,300.4C618.67,300.42 618.76,300.47 618.85,300.53C618.94,300.59 619.01,300.67 619.07,300.78C619.13,300.89 619.16,301.02 619.16,301.19L619.15,301.18ZM618.52,301.18C618.52,301.12 618.51,301.07 618.49,301.04C618.47,301 618.44,300.97 618.41,300.95C618.38,300.93 618.35,300.92 618.32,300.91C618.29,300.91 618.26,300.9 618.24,300.9L616.71,300.9L616.71,301.47L618.24,301.47C618.24,301.47 618.28,301.47 618.31,301.46C618.34,301.46 618.37,301.44 618.4,301.42C618.43,301.4 618.46,301.37 618.48,301.33C618.5,301.29 618.52,301.25 618.52,301.19L618.52,301.18Z" style="fill:white;fill-rule:nonzero;"/>
                <path d="M625.73,301.18C625.73,301.29 625.72,301.39 625.69,301.47C625.66,301.55 625.62,301.63 625.58,301.69C625.54,301.75 625.48,301.8 625.42,301.84C625.36,301.88 625.3,301.91 625.24,301.94L625.68,302.87L625.01,302.87L624.61,302.02L623.3,302.02L623.3,302.87L622.67,302.87L622.67,300.37L624.92,300.37C624.99,300.37 625.07,300.38 625.16,300.41C625.25,300.43 625.34,300.48 625.43,300.54C625.52,300.6 625.59,300.68 625.65,300.79C625.71,300.9 625.74,301.03 625.74,301.2L625.73,301.18ZM625.1,301.18C625.1,301.12 625.09,301.07 625.07,301.04C625.05,301 625.02,300.97 624.99,300.95C624.96,300.93 624.93,300.92 624.9,300.91C624.87,300.91 624.84,300.9 624.82,300.9L623.29,300.9L623.29,301.47L624.82,301.47C624.82,301.47 624.86,301.47 624.89,301.46C624.92,301.46 624.95,301.44 624.98,301.42C625.01,301.4 625.04,301.37 625.06,301.33C625.08,301.29 625.1,301.25 625.1,301.19L625.1,301.18Z" style="fill:white;fill-rule:nonzero;"/>
                <path d="M629.31,302.86L629.31,300.36L632.32,300.36L632.32,300.9L629.94,300.9L629.94,301.35L632.04,301.35L632.04,301.84L629.94,301.84L629.94,302.33L632.42,302.33L632.42,302.87L629.32,302.87L629.31,302.86Z" style="fill:white;fill-rule:nonzero;"/>
                <path d="M638.87,302.05C638.87,302.17 638.84,302.29 638.77,302.4C638.7,302.51 638.6,302.61 638.46,302.69C638.32,302.77 638.15,302.84 637.94,302.88C637.73,302.93 637.49,302.95 637.2,302.95C637.05,302.95 636.91,302.94 636.75,302.91C636.62,302.89 636.47,302.86 636.32,302.82C636.16,302.78 636.01,302.72 635.86,302.64L636.08,302.14C636.21,302.21 636.34,302.26 636.47,302.3C636.6,302.34 636.72,302.36 636.83,302.38C636.96,302.4 637.08,302.41 637.19,302.41C637.55,302.41 637.81,302.38 637.99,302.31C638.17,302.25 638.25,302.16 638.25,302.06C638.25,301.99 638.22,301.94 638.17,301.91C638.12,301.88 638.03,301.86 637.92,301.86L637.77,301.86C637.7,301.86 637.61,301.86 637.5,301.85C637.4,301.85 637.28,301.85 637.15,301.84C637.02,301.84 636.89,301.83 636.75,301.82C636.61,301.82 636.49,301.79 636.37,301.76C636.25,301.73 636.15,301.68 636.07,301.63C635.99,301.57 635.92,301.5 635.87,301.42C635.82,301.34 635.8,301.24 635.8,301.12C635.8,301 635.84,300.9 635.91,300.8C635.99,300.7 636.09,300.61 636.23,300.54C636.37,300.47 636.54,300.41 636.74,300.36C636.94,300.32 637.16,300.3 637.41,300.3C637.56,300.3 637.7,300.31 637.85,300.33C637.98,300.35 638.12,300.38 638.28,300.41C638.44,300.45 638.59,300.5 638.74,300.57L638.55,301.06C638.48,301.03 638.39,301 638.3,300.97C638.21,300.94 638.11,300.92 638.01,300.89C637.91,300.87 637.81,300.85 637.7,300.84C637.6,300.83 637.5,300.82 637.4,300.82C637.26,300.82 637.12,300.82 637,300.84C636.88,300.85 636.77,300.87 636.68,300.9C636.59,300.93 636.52,300.96 636.47,301C636.42,301.04 636.39,301.08 636.39,301.13C636.39,301.19 636.42,301.24 636.47,301.27C636.52,301.3 636.6,301.32 636.7,301.32C636.81,301.32 636.98,301.33 637.18,301.34C637.38,301.35 637.63,301.36 637.92,301.37C638.06,301.37 638.19,301.4 638.3,301.43C638.41,301.46 638.51,301.5 638.59,301.56C638.67,301.62 638.73,301.69 638.77,301.77C638.81,301.85 638.83,301.95 638.83,302.06L638.87,302.05Z" style="fill:white;fill-rule:nonzero;"/>
                <path d="M642.37,302.86L642.37,300.36L645.38,300.36L645.38,300.9L643,300.9L643,301.35L645.1,301.35L645.1,301.84L643,301.84L643,302.33L645.48,302.33L645.48,302.87L642.38,302.87L642.37,302.86Z" style="fill:white;fill-rule:nonzero;"/>
                <path d="M651.47,302.86L649.66,301.11L649.66,302.86L649.03,302.86L649.03,300.36L649.66,300.36L651.47,302.11L651.47,300.36L652.1,300.36L652.1,302.86L651.47,302.86Z" style="fill:white;fill-rule:nonzero;"/>
                <path d="M657.38,300.9L657.38,302.86L656.75,302.86L656.75,300.9L655.62,300.9L655.62,300.36L658.5,300.36L658.5,300.9L657.37,300.9L657.38,300.9Z" style="fill:white;fill-rule:nonzero;"/>
                <path d="M664.82,302.86L664.53,302.36L662.77,302.36L662.48,302.86L661.81,302.86L663.25,300.36L664.05,300.36L665.49,302.86L664.82,302.86ZM663.65,300.82L663.08,301.81L664.22,301.81L663.65,300.82Z" style="fill:white;fill-rule:nonzero;"/>
            </g>
        </g>
    </g>
</svg>
