<?xml version="1.0" encoding="UTF-8" standalone="no"?>
<!DOCTYPE svg PUBLIC "-//W3C//DTD SVG 1.1//EN" "http://www.w3.org/Graphics/SVG/1.1/DTD/svg11.dtd">
<svg width="100%" height="100%" viewBox="0 0 116 29" version="1.1" xmlns="http://www.w3.org/2000/svg" xmlns:xlink="http://www.w3.org/1999/xlink" xml:space="preserve" xmlns:serif="http://www.serif.com/" style="fill-rule:evenodd;clip-rule:evenodd;stroke-linejoin:round;stroke-miterlimit:2;">
    <g transform="matrix(1,0,0,1,-228.109524,-275.782289)">
        <g id="XdewwY.tif">
            <g>
                <path d="M281.64,289.03L278.52,296.75L273.77,296.75L270.62,288.91L270.61,301.24L266.05,301.24L266.05,279.11L271.45,279.11L276.15,290.83L280.84,279.1L286.24,279.1L286.24,301.24L281.67,301.24L281.64,289.03Z" style="fill:white;fill-rule:nonzero;"/>
                <path d="M301.35,296.69L294.69,296.69L293.15,301.24L287.96,301.24L295.42,279.11L300.6,279.11L308.07,301.23L302.88,301.23L301.36,296.68L301.35,296.69ZM299.8,292.11L298.01,286.82L296.22,292.12L299.8,292.12L299.8,292.11Z" style="fill:white;fill-rule:nonzero;"/>
                <path d="M336.91,296.68L330.24,296.68L328.71,301.24L323.52,301.24L330.98,279.11L336.16,279.11L343.63,301.23L338.44,301.23L336.91,296.68ZM335.36,292.12L333.57,286.81L331.78,292.12L335.36,292.12Z" style="fill:white;fill-rule:nonzero;"/>
                <path d="M311.62,295.39C312.8,296.62 314.61,297.03 316.23,296.35C317.73,295.72 318.8,294.24 318.8,292.49L318.8,283.66L309.56,283.66L309.56,279.1L323.37,279.1L323.37,292.47C323.37,296 321.26,299.14 318.14,300.49C314.75,301.96 310.91,301.2 308.33,298.56L311.62,295.37L311.62,295.39Z" style="fill:white;fill-rule:nonzero;"/>
                <path d="M343.61,280.8C343.61,281.75 342.84,282.51 341.89,282.51C340.94,282.51 340.17,281.74 340.17,280.8C340.17,279.86 340.94,279.09 341.89,279.09C342.84,279.09 343.61,279.86 343.61,280.8ZM343.18,280.74C343.15,279.96 342.54,279.43 341.85,279.45C341.16,279.47 340.61,280.04 340.6,280.77C340.59,281.5 341.19,282.12 341.92,282.11C342.65,282.1 343.21,281.51 343.17,280.73L343.18,280.74Z" style="fill:white;fill-rule:nonzero;"/>
                <path d="M242.51,304.29C242.54,304.42 242.31,304.57 242.21,304.55C242.11,304.53 241.94,304.4 241.91,304.3L241.52,302.96L240.5,298.83C240.02,296.92 238.9,294.27 237.68,292.71C236.29,290.93 234.27,289.95 232,289.84C230.75,289.78 229.59,289.93 228.34,290.17C228.25,290.19 228.1,289.99 228.11,289.91C228.12,289.81 228.25,289.63 228.36,289.59C229.29,289.29 230.16,289.07 231.11,288.83C232.95,288.37 234.74,287.89 236.51,287.22C237.68,286.77 238.75,286.25 239.75,285.52C241.59,284.19 242.68,282.2 242.85,279.92C242.95,278.64 242.82,277.43 242.56,276.17C242.54,276.06 242.59,275.87 242.67,275.82C243.05,275.59 243.3,276.46 243.47,277.13L244.45,281.16C244.96,283.26 246.14,286.16 247.53,287.81C249.81,290.52 253.11,290.89 256.48,290.21C256.66,290.17 256.85,290.23 256.9,290.37C256.97,290.55 256.85,290.76 256.65,290.82L254.56,291.37C253.2,291.73 251.86,291.99 250.53,292.42C249.48,292.76 248.51,293.18 247.49,293.6C244.51,294.85 242.46,297.15 242.21,300.45C242.11,301.75 242.26,302.97 242.51,304.29Z" style="fill:white;fill-rule:nonzero;"/>
                <path d="M342.34,281.67C342.18,281.67 342.23,281.17 342.02,281.03C341.95,280.98 341.7,281 341.64,281.04L341.64,281.66L341.24,281.66L341.24,279.97L342.34,279.97C342.48,279.97 342.64,280.25 342.64,280.38C342.64,280.56 342.49,280.73 342.34,280.8C342.56,281.04 342.67,281.38 342.66,281.66L342.33,281.66L342.34,281.67ZM342.2,280.48C342.18,280.18 341.8,280.15 341.67,280.26L341.67,280.69C341.87,280.77 342.21,280.68 342.2,280.48Z" style="fill:white;fill-rule:nonzero;"/>
            </g>
        </g>
    </g>
</svg>
