<?xml version="1.0" encoding="UTF-8" standalone="no"?>
<!DOCTYPE svg PUBLIC "-//W3C//DTD SVG 1.1//EN" "http://www.w3.org/Graphics/SVG/1.1/DTD/svg11.dtd">
<svg width="100%" height="100%" viewBox="0 0 190 72" version="1.1" xmlns="http://www.w3.org/2000/svg" xmlns:xlink="http://www.w3.org/1999/xlink" xml:space="preserve" xmlns:serif="http://www.serif.com/" style="fill-rule:evenodd;clip-rule:evenodd;stroke-linejoin:round;stroke-miterlimit:2;">
    <g transform="matrix(1,0,0,1,-302.41,-346.374417)">
        <g>
            <path d="M338.21,352.23C338.45,352.23 338.62,352.09 338.81,351.95C339.06,351.76 339.07,351.59 338.8,351.42C338.58,351.29 338.33,351.24 338.08,351.23C337.8,351.22 337.53,351.15 337.27,351.06C336.83,350.9 336.71,350.49 337.04,350.17C337.35,349.87 337.17,349.69 336.96,349.5C336.78,349.34 336.54,349.27 336.32,349.2C335.95,349.09 335.62,348.92 335.37,348.63C334.89,348.06 334.27,347.75 333.55,347.59C333.08,347.48 332.76,347.18 332.59,346.72C332.46,346.38 332.28,346.3 331.94,346.44C331.7,346.53 331.5,346.7 331.41,346.93C331.36,347.06 331.28,347.1 331.17,347.11C330.9,347.14 330.65,347.23 330.42,347.36C329.62,347.84 328.7,347.85 327.81,347.97C327.14,348.06 326.61,348.27 326.23,348.82C326.16,348.92 326.1,349.01 325.94,349.01C325.45,349.01 324.95,349.07 324.48,348.9C324.05,348.75 323.72,348.85 323.4,349.1C322.87,349.51 322.35,349.91 321.65,350.03C321.3,350.09 320.98,350.31 320.7,350.53C320.3,350.85 320.28,350.85 319.88,350.5C319.78,350.41 319.67,350.32 319.6,350.2C319.47,349.99 319.29,349.95 319.06,349.94C318.38,349.93 317.7,349.95 317.03,349.82C316.17,349.65 315.42,349.33 315.1,348.41C315.05,348.26 315.02,348.03 314.81,348.02C314.6,348.02 314.45,348.17 314.34,348.35C314.27,348.47 314.21,348.59 314.13,348.7C314.03,348.85 313.9,348.98 313.71,348.97C313.23,348.95 312.88,349.2 312.53,349.47C312.13,349.79 311.7,350.06 311.17,350.15C310.27,350.3 309.37,350.28 308.47,350.15C308.06,350.09 307.6,350.14 307.4,350.43C307.17,350.76 306.93,350.81 306.6,350.84C306.39,350.86 306.18,350.91 306.01,351.05C305.73,351.26 305.43,351.38 305.07,351.33C304.99,351.32 304.89,351.29 304.84,351.39L304.25,351.39C304.22,351.5 304.18,351.57 304.09,351.43C303.75,351.54 303.44,351.71 303.17,351.95C302.91,352.09 302.68,352.27 302.41,352.55C302.89,352.44 303.28,352.31 303.68,352.27C305,352.14 306.25,352.44 307.47,352.89C307.77,353 308.06,353.06 308.38,353.07C309.78,353.1 310.71,353.74 311.21,355.02C311.22,355.05 311.23,355.09 311.26,355.12C311.61,355.52 311.4,355.87 311.17,356.21C310.91,356.59 310.91,356.74 311.28,357.03C311.56,357.26 311.88,357.44 312.17,357.66C312.36,357.81 312.61,357.94 312.57,358.24C312.53,358.54 312.61,358.81 312.74,359.07C313.04,359.71 313.09,360.35 312.76,361C312.66,361.19 312.58,361.43 312.74,361.63C313.06,362.01 312.97,362.4 312.81,362.8C312.68,363.14 312.54,363.49 312.42,363.84C312.2,364.5 311.87,365.12 311.79,365.84C311.72,366.43 311.71,367.06 311.42,367.6C311.02,368.37 311.07,369.08 311.6,369.79C312.26,370.69 312.75,371.69 313.01,372.78C313.37,374.27 313.72,375.75 314.07,377.24C314.09,377.32 314.07,377.41 314.05,377.5C313.97,378 313.94,378.5 314.01,378.99C314.1,379.64 313.99,380.23 313.77,380.84C313.39,381.85 313.42,381.69 314.27,382.24C314.49,382.38 314.56,382.51 314.53,382.74C314.35,383.82 314.53,384.89 314.65,385.96C314.74,386.74 314.67,387.47 314.17,388.12C313.77,388.63 313.46,389.19 313.25,389.81C313.14,390.14 312.97,390.45 312.67,390.66C312.52,390.76 312.55,390.88 312.61,391.02C312.74,391.35 313,391.56 313.27,391.77C314.21,392.51 314.26,392.65 313.84,393.75C313.67,394.22 313.69,394.64 313.96,395.06C314.14,395.35 314.3,395.64 314.48,395.93C314.62,396.15 314.62,396.37 314.43,396.54C313.85,397.06 313.91,397.63 314.25,398.25C315.15,399.9 315.26,401.75 315.64,403.52C315.88,404.66 315.78,405.85 315.97,407.01C316.1,407.76 316.2,408.52 316.84,409.06C316.85,408.96 316.84,408.86 316.79,408.77C316.4,407.99 316.29,407.17 316.22,406.33C316.29,407.17 316.4,407.99 316.79,408.77C316.84,408.86 316.85,408.96 316.84,409.06C317.29,409.52 317.4,410.02 317.12,410.61C316.97,410.94 317.03,411.28 317.24,411.59C317.33,411.74 317.41,411.89 317.51,412.04C317.58,412.15 317.7,412.15 317.78,412.11C317.92,412.04 317.8,411.95 317.75,411.91C317.43,411.61 317.48,411.31 317.71,410.98C317.95,410.64 318.11,410.23 317.92,409.85C317.57,409.17 317.3,408.48 317.37,407.7C317.37,407.68 317.35,407.65 317.35,407.63C317.17,406.84 317.13,406.02 317.12,405.22C317.12,404.5 317.37,403.78 317.45,403.05C317.51,402.48 317.75,401.87 317.43,401.33C317.11,400.8 317.14,400.33 317.44,399.83C317.65,399.5 317.77,399.12 317.63,398.73C317.46,398.29 317.51,397.88 317.72,397.48C317.82,397.28 317.88,397.06 317.98,396.86C318.13,396.53 318.12,396.21 317.95,395.89C317.83,395.66 317.72,395.42 317.72,395.15C317.72,394.8 317.67,394.45 317.55,394.12C317.14,393.03 317.19,391.96 317.62,390.88C318.35,389.06 318.69,387.12 319.4,385.28C319.77,384.32 319.72,384.2 318.86,383.64C318.61,383.48 318.52,383.28 318.54,382.98C318.58,382.31 318.66,381.63 318.87,381C319.03,380.53 318.89,380.21 318.57,379.9C318.21,379.55 318.19,379.46 318.51,379.05C318.71,378.79 318.93,378.55 319,378.22C319.11,377.67 319.41,377.22 319.76,376.8C320.47,375.95 320.46,375.57 319.72,374.75C319.53,374.54 319.4,374.3 319.3,374.05C319.03,373.39 318.76,372.73 318.5,372.07C318.44,371.92 318.39,371.76 318.41,371.6C318.48,371.11 318.3,370.7 318,370.32C317.76,370.01 317.69,369.68 317.75,369.27C317.82,368.8 317.96,368.35 317.98,367.88C318,367.54 317.97,367.24 317.63,367.05C317.5,366.98 317.36,366.89 317.37,366.71C317.42,365.93 317.44,365.13 317.93,364.48C318.42,363.84 318.83,363.19 319.02,362.39C319.17,361.76 319.05,361.52 318.4,361.5C318.34,361.5 318.27,361.48 318.21,361.48C318.02,361.48 317.97,361.42 318.04,361.24C318.19,360.81 318.18,360.37 318.13,359.91C318.03,359.01 317.91,358.1 318.52,357.3C318.23,357.37 318,357.5 317.81,357.67C318.01,357.5 318.23,357.36 318.53,357.3C318.72,357.09 318.9,356.87 319.09,356.65L319.09,356.55L319.09,356.65C319.3,356.61 319.5,356.52 319.71,356.53C320.09,356.55 320.29,356.25 320.56,356.11C320.92,355.92 320.54,355.56 320.57,355.27C320.57,355.24 320.57,355.19 320.55,355.16C320.26,354.62 320.46,354.21 320.9,353.87C321.05,353.75 321.09,353.62 321.02,353.45C320.94,353.28 320.94,353.08 320.82,352.94C320.8,352.93 320.79,352.91 320.78,352.89C320.79,352.91 320.8,352.93 320.82,352.94C320.82,352.88 320.82,352.82 320.75,352.78C320.68,352.74 320.75,352.78 320.75,352.78C320.55,352.39 320.66,352.08 320.99,351.83C321.12,351.82 321.25,351.83 321.39,351.79C321.94,351.61 322.49,351.5 323.07,351.63C323.6,351.75 324.07,352.03 324.6,352.16C324.73,352.19 324.85,352.26 324.89,352.07C324.94,351.82 325.11,351.85 325.29,351.88C325.82,351.99 326.18,352.31 326.48,352.73C326.81,353.19 327.06,353.7 327.53,354.04C327.62,354.11 327.72,354.15 327.67,354.3C327.63,354.43 327.58,354.52 327.42,354.53C327.33,354.53 327.2,354.51 327.19,354.65C327.19,354.74 327.27,354.81 327.35,354.83C327.69,354.92 327.7,355.15 327.63,355.43C327.58,355.63 327.56,355.85 327.55,356.06C327.53,356.57 327.42,357.07 327.59,357.58C327.69,357.87 327.54,358.02 327.21,358.02C327.09,358.02 326.96,357.98 326.95,358.18C326.94,358.72 327.05,359.39 327.67,359.66C327.84,359.74 328,359.84 328.16,359.95C328.48,360.18 328.65,360.47 328.58,360.88C328.52,361.25 328.4,361.6 328.25,361.94C327.84,362.9 327.9,363.85 328.26,364.81C328.35,365.04 328.57,365.27 328.25,365.5C328.19,365.54 328.25,365.61 328.29,365.66C328.4,365.81 328.39,365.99 328.4,366.16C328.42,366.67 328.29,367.15 328.17,367.63C327.98,368.4 327.91,369.12 328.76,369.61C329.07,369.79 329.16,370.12 329.15,370.48C329.12,371.26 328.81,371.98 328.75,372.75C328.72,373.23 328.43,373.69 328.51,374.17C328.6,374.74 328.56,375.28 328.38,375.81C328.33,375.98 328.31,376.18 328.45,376.26C328.95,376.56 329.07,377.02 329.05,377.55C329.05,377.56 329.05,377.57 329.06,377.58C329.25,378.26 329.42,378.95 329.65,379.62C329.86,380.24 329.84,380.86 329.44,381.32C328.67,382.23 328.92,383.42 328.5,384.42C328.4,384.66 328.42,384.96 328.4,385.23C328.36,385.73 328.3,386.21 327.77,386.49C327.57,386.6 327.54,386.83 327.54,387.05C327.54,387.25 327.59,387.46 327.48,387.64C327.11,388.26 326.98,388.99 326.53,389.57C326.44,389.69 326.45,389.83 326.46,389.96C326.51,390.48 326.72,390.94 327.09,391.28C327.48,391.63 327.47,392.18 327.84,392.51C327.9,392.57 327.83,392.63 327.81,392.68C327.53,393.5 327.41,394.36 327.45,395.21C327.49,396.02 327.28,396.9 327.92,397.61C327.94,397.64 327.94,397.68 327.95,397.72C328.25,398.33 328.1,398.93 327.89,399.53C327.8,399.79 327.74,400.05 327.91,400.28C328.19,400.65 328.12,400.97 327.86,401.29C327.68,401.51 327.59,401.76 327.71,402.02C327.9,402.42 327.84,402.82 327.86,403.23C327.88,403.76 328.13,404.26 328.14,404.8C328.14,404.85 328.2,404.92 328.25,404.94C328.42,405.03 328.38,405.14 328.34,405.28C328.21,405.71 327.9,406.02 327.64,406.37C327.55,406.49 327.4,406.6 327.43,406.79C327.53,407.34 327.61,407.89 328.16,408.24C328.56,408.5 328.67,408.97 328.74,409.38C328.83,409.85 328.88,410.34 328.99,410.81C329.01,410.92 329.05,411.09 329.12,411.1C329.51,411.2 329.39,411.49 329.39,411.73C329.39,412.2 329.38,412.68 329.37,413.15C329.37,413.27 329.4,413.42 329.24,413.47C329.05,413.54 329.05,413.68 329.06,413.83C329.1,414.33 328.98,414.78 328.77,415.23C328.61,415.57 328.46,415.94 328.48,416.34C328.34,416.69 328.49,417.05 328.48,417.4C328.48,417.51 328.57,417.57 328.69,417.55C328.77,417.57 328.85,417.55 328.85,417.46C328.89,416.79 329.29,416.32 329.75,415.89C330,415.66 330.15,415.39 330.18,415.05C330.2,414.88 330.2,414.65 330.36,414.58C330.68,414.43 330.63,414.18 330.65,413.93C330.72,413.04 330.78,412.14 330.85,411.25C330.86,411.1 330.88,410.92 331.04,410.88C331.27,410.81 331.27,410.65 331.26,410.47C331.25,410.25 331.24,410.02 331.21,409.8C331.17,409.49 331.17,409.2 331.36,408.91C331.62,408.53 331.7,408.11 331.64,407.63C331.56,406.99 331.56,406.36 332.06,405.82C332.41,405.43 332.38,404.96 332.1,404.5C331.87,404.12 331.6,403.78 331.33,403.44C331.17,403.23 331.09,403.02 331.07,402.76C331.05,402.49 331.12,402.15 330.74,402.01C330.6,401.96 330.64,401.81 330.68,401.71C331.1,400.8 331.06,399.82 331.14,398.86C331.19,398.25 331.28,397.64 331.1,397.04C330.98,396.64 331.05,396.34 331.4,396.1C331.73,395.88 331.83,395.58 331.7,395.19C331.52,394.64 331.47,394.07 331.63,393.5C331.66,393.38 331.68,393.25 331.61,393.14C331.45,392.88 331.53,392.65 331.66,392.41C331.89,391.99 331.94,391.56 331.57,391.17C331.44,391.03 331.49,390.89 331.5,390.73C331.54,390.33 331.79,390.02 331.88,389.64C331.93,389.41 331.93,389.24 331.7,389.03C331.5,388.85 331.33,388.51 331.47,388.19C331.58,387.93 331.61,387.67 331.6,387.39C331.6,387.1 331.65,386.83 331.83,386.58C332.18,386.07 332.6,385.58 332.58,384.89C332.58,384.81 332.67,384.71 332.74,384.64C333.18,384.21 333.33,383.68 333.29,383.08C333.28,382.91 333.25,382.72 333.37,382.58C333.58,382.34 333.7,382.05 333.83,381.77C333.99,381.43 334.21,381.09 334.51,380.9C335.46,380.32 335.4,379.38 335.32,378.52C335.21,377.42 334.77,376.38 334.36,375.35C334.31,375.22 334.23,375.1 334.25,374.96C334.32,374.49 334.16,374.08 333.98,373.66C333.85,373.36 333.84,373.08 334,372.77C334.23,372.33 334.36,371.84 334.46,371.36C334.55,370.91 334.71,370.43 334.46,370.01C334.32,369.76 334.36,369.6 334.46,369.41C334.56,369.23 334.69,369.1 334.86,368.98C335.37,368.62 335.8,368.19 335.65,367.5C335.45,366.58 335.45,365.62 335.01,364.75C334.73,364.21 334.74,363.65 335.02,363.1C335.09,362.96 335.14,362.8 335.21,362.66C335.47,362.09 335.48,361.59 334.95,361.11C334.43,360.64 334.2,360.06 334.67,359.39C334.89,359.07 334.9,358.7 334.71,358.33C334.55,358.01 334.5,357.64 334.42,357.29C334.35,357.03 334.44,356.86 334.65,356.73C334.82,356.62 335,356.51 335,356.28C334.98,355.66 335.38,355.31 335.84,355.01C336.23,354.75 336.47,354.43 336.4,353.93C336.37,353.64 336.31,353.28 336.77,353.22C336.81,353.22 336.84,353.13 336.87,353.08C337.21,352.57 337.64,352.21 338.29,352.19L338.21,352.23ZM329.48,411.48C329.46,411.41 329.45,411.34 329.43,411.27C329.45,411.34 329.46,411.41 329.48,411.48C329.5,411.54 329.5,411.61 329.52,411.68C329.5,411.61 329.5,411.55 329.48,411.48ZM329.62,369.31C329.46,368.75 329.33,368.18 329.25,367.59C329.33,368.17 329.46,368.74 329.62,369.31C329.77,369.83 329.78,370.32 329.73,370.81C329.78,370.32 329.77,369.83 329.62,369.31ZM328.98,360.22C329.06,360.57 329.05,360.93 328.96,361.28C328.82,361.83 328.77,362.37 328.76,362.91C328.76,362.37 328.82,361.83 328.96,361.28C329.05,360.93 329.06,360.57 328.98,360.22ZM314.76,381.63C314.76,381.63 314.73,381.55 314.71,381.52C314.73,381.56 314.74,381.6 314.77,381.64L314.76,381.63ZM314.76,381.65C315,381.98 315.09,382.37 315.11,382.76C315.09,382.37 315,381.99 314.76,381.65ZM314.62,392.77C314.62,392.96 314.59,393.15 314.55,393.32C314.51,393.47 314.49,393.63 314.48,393.78C314.48,393.63 314.51,393.48 314.54,393.32C314.58,393.15 314.61,392.96 314.62,392.77ZM315.37,400.15C315.31,399.75 315.23,399.35 315.14,398.95C315.23,399.35 315.31,399.75 315.37,400.15ZM316.69,360.3C316.69,360.36 316.68,360.42 316.68,360.48C316.68,360.42 316.69,360.36 316.69,360.3ZM316.29,392.08C316.17,392.6 316.07,393.12 316.06,393.66C316.06,393.85 316.06,394.04 316.08,394.23C316.06,394.04 316.05,393.85 316.06,393.66C316.06,393.12 316.17,392.6 316.29,392.08ZM316.17,367.27C316.17,367.5 316.2,367.74 316.25,367.98C316.39,368.65 316.46,369.33 316.45,370.01C316.45,370.16 316.46,370.32 316.48,370.47C316.46,370.32 316.44,370.16 316.45,370.01C316.46,369.33 316.39,368.65 316.25,367.98C316.2,367.74 316.18,367.5 316.18,367.27L316.17,367.27ZM317.04,362.21C316.97,362.01 316.92,361.81 316.87,361.62C316.92,361.82 316.97,362.02 317.04,362.22C317.06,362.29 317.08,362.36 317.1,362.42C317.08,362.35 317.06,362.28 317.04,362.21ZM309.3,352.47C308.59,352.33 307.87,352.24 307.16,352.14C305.95,351.96 304.73,351.75 303.51,352.01C303.42,352.03 303.34,352.01 303.26,351.99C303.34,352.02 303.42,352.03 303.51,352.01C304.74,351.75 305.95,351.96 307.16,352.14C307.88,352.25 308.6,352.33 309.3,352.47C309.96,352.6 310.62,352.76 311.13,353.21C310.62,352.76 309.96,352.61 309.3,352.47ZM312.74,356.55C312.91,356.91 313.08,357.28 313.2,357.66C313.42,358.36 313.59,359.07 313.59,359.79C313.59,359.07 313.41,358.36 313.19,357.66C313.07,357.28 312.9,356.91 312.73,356.55L312.74,356.55ZM312.09,367.15C312.14,366.83 312.2,366.51 312.26,366.19C312.2,366.51 312.15,366.83 312.1,367.15C311.99,367.83 312.12,368.4 312.38,368.95C312.11,368.4 311.98,367.83 312.09,367.15ZM313.09,370.25C313.79,371.59 314.21,373.03 314.55,374.51C314.8,375.57 314.88,376.64 314.86,377.71C314.88,376.64 314.79,375.57 314.55,374.51C314.21,373.03 313.78,371.6 313.09,370.25ZM314.57,380.93C314.62,380.47 314.68,380 314.73,379.54C314.68,380 314.62,380.47 314.57,380.93C314.56,381.03 314.57,381.12 314.59,381.21C314.58,381.12 314.56,381.02 314.57,380.93ZM313.44,390.46C313.69,390.1 313.83,389.69 314.05,389.31C314.17,389.09 314.3,388.88 314.42,388.66C314.3,388.88 314.18,389.09 314.06,389.31C313.84,389.69 313.71,390.1 313.45,390.46C313.42,390.5 313.4,390.55 313.4,390.59C313.4,390.55 313.42,390.5 313.45,390.46L313.44,390.46ZM313.61,390.94C313.61,390.94 313.53,390.86 313.49,390.82C313.53,390.86 313.57,390.9 313.61,390.94C313.89,391.18 314.12,391.45 314.29,391.75C314.11,391.45 313.89,391.18 313.6,390.94L313.61,390.94ZM316.5,406.76C316.38,405.59 316.32,404.42 316.24,403.25C316.32,404.42 316.38,405.59 316.5,406.76C316.55,407.26 316.62,407.77 316.81,408.23C316.61,407.77 316.55,407.26 316.49,406.76L316.5,406.76ZM317.08,408.71C317.6,409.43 317.63,410.14 317.42,410.87C317.62,410.15 317.6,409.43 317.08,408.71C317.02,408.63 316.99,408.55 316.94,408.47C316.99,408.55 317.02,408.64 317.08,408.71ZM317.71,386.91C317.49,387.54 317.31,388.18 317.13,388.82C316.99,389.31 316.85,389.81 316.72,390.31C316.85,389.81 316.99,389.32 317.13,388.82C317.31,388.18 317.49,387.54 317.71,386.91C318.02,386.02 317.87,385.18 317.52,384.34C317.47,384.2 317.42,384.07 317.39,383.93C317.42,384.07 317.47,384.2 317.52,384.34C317.86,385.18 318.02,386.02 317.71,386.91ZM317.32,382.66C317.32,382.78 317.31,382.91 317.31,383.03C317.31,382.91 317.31,382.79 317.32,382.66C317.36,382.12 317.35,381.58 317.28,381.04C317.25,380.86 317.25,380.68 317.26,380.5C317.26,380.68 317.26,380.85 317.28,381.04C317.35,381.57 317.36,382.12 317.32,382.66ZM318.37,377.35C318.28,377.55 318.19,377.74 318.09,377.93C318.18,377.74 318.28,377.54 318.36,377.35C318.59,376.83 318.51,376.31 318.31,375.83C318.51,376.31 318.58,376.83 318.36,377.35L318.37,377.35ZM317.86,374.79C317.42,373.81 317.08,372.8 316.8,371.77C317.08,372.8 317.42,373.81 317.86,374.79ZM319.74,353.18C319.67,353.31 319.64,353.46 319.59,353.6C319.38,354.26 319.33,354.95 319.2,355.62C319.33,354.95 319.38,354.26 319.59,353.6C319.64,353.46 319.67,353.31 319.74,353.18C319.93,352.87 319.97,352.69 320.13,352.67C319.96,352.69 319.93,352.87 319.74,353.18ZM320.63,352.86L320.63,352.81C320.63,352.79 320.63,352.84 320.63,352.86ZM325.46,351.38C325.85,351.35 326.25,351.55 326.57,351.82C326.25,351.55 325.85,351.36 325.46,351.38ZM326.78,352.02C327.45,352.64 328.02,353.35 328.17,354.29C328.19,354.42 328.2,354.56 328.22,354.69C328.2,354.56 328.19,354.42 328.17,354.29C328.03,353.35 327.45,352.65 326.78,352.02ZM328.25,357.46C328.31,357.02 328.33,356.59 328.33,356.15C328.33,356.59 328.32,357.02 328.25,357.46C328.19,357.89 328.18,358.32 328.29,358.74C328.18,358.33 328.19,357.89 328.25,357.46ZM329.03,365.09C328.99,364.92 328.96,364.74 328.92,364.57C328.95,364.74 328.98,364.92 329.03,365.09C329.1,365.36 329.14,365.65 329.16,365.94C329.14,365.65 329.1,365.37 329.03,365.09ZM329.29,375.84C329.21,375.66 329.18,375.46 329.18,375.26L329.18,374.75C329.18,374.92 329.17,375.09 329.18,375.26C329.18,375.46 329.22,375.66 329.29,375.84C329.57,376.47 329.72,377.14 329.87,377.8C329.72,377.14 329.57,376.47 329.29,375.84ZM329.96,381.51C330.24,380.98 330.34,380.43 330.31,379.87C330.34,380.43 330.24,380.98 329.96,381.51C329.78,381.85 329.67,382.21 329.58,382.58C329.67,382.21 329.78,381.85 329.96,381.51ZM329.4,383.47C329.37,383.64 329.35,383.8 329.32,383.97C329.29,384.17 329.24,384.36 329.2,384.55C329.24,384.36 329.29,384.17 329.32,383.97C329.35,383.8 329.37,383.64 329.4,383.47ZM328.62,398.93C328.57,399.2 328.55,399.48 328.54,399.75C328.55,399.48 328.57,399.2 328.62,398.93C328.83,397.85 328.53,396.74 328.46,395.65C328.44,395.37 328.42,395.1 328.39,394.82C328.42,395.1 328.44,395.37 328.46,395.65C328.54,396.74 328.83,397.85 328.62,398.93ZM328.52,403.84C328.53,403.94 328.56,404.04 328.58,404.14C328.56,404.04 328.53,403.94 328.52,403.84C328.48,403.56 328.43,403.28 328.39,403.01C328.43,403.29 328.48,403.56 328.52,403.84ZM328.78,405.28L328.78,405.24L328.78,405.28ZM327.62,389.61C327.62,389.69 327.59,389.77 327.59,389.86C327.59,389.98 327.61,390.1 327.63,390.23C327.61,390.11 327.59,389.99 327.59,389.87C327.59,389.79 327.61,389.71 327.62,389.62L327.62,389.61ZM328.1,391.59C328.21,391.88 328.3,392.17 328.37,392.47C328.4,392.63 328.37,392.77 328.34,392.9C328.37,392.76 328.4,392.62 328.37,392.46C328.3,392.16 328.21,391.87 328.1,391.58L328.1,391.59ZM328.97,408.92C328.82,408.49 328.71,408 328.54,407.57C328.49,407.44 328.46,407.32 328.42,407.2C328.45,407.32 328.49,407.45 328.54,407.57C328.72,408.01 328.82,408.49 328.97,408.92C329,409 329.01,409.08 329.03,409.16C329.01,409.08 329,409 328.97,408.92ZM328.39,416.45C328.39,416.5 328.39,416.56 328.4,416.62C328.4,416.56 328.4,416.5 328.39,416.45ZM328.46,416.74C328.46,416.63 328.47,416.54 328.48,416.44C328.48,416.54 328.46,416.64 328.46,416.74ZM328.59,415.99C328.54,416.1 328.51,416.21 328.49,416.33C328.51,416.21 328.53,416.1 328.59,415.99C328.7,415.76 328.78,415.53 328.87,415.29C328.78,415.52 328.7,415.76 328.59,415.99Z" style="fill:white;fill-rule:nonzero;"/>
            <path d="M352.28,356.13C352.28,356.13 352.26,356.11 352.25,356.11C351.86,355.92 351.92,355.66 352.17,355.41C352.54,355.04 352.55,354.63 352.38,354.17C352.33,354.04 352.28,353.91 352.25,353.78C352.21,353.56 352.1,353.46 351.87,353.4C351.02,353.16 350.99,353.03 351.42,352.26C351.44,352.23 351.47,352.2 351.48,352.17C351.52,351.91 351.62,351.57 351.3,351.5C350.72,351.37 350.45,350.95 350.19,350.51C349.93,350.08 349.58,349.87 349.08,349.85C348.77,349.83 348.45,349.8 348.14,349.76C347.75,349.72 347.47,349.52 347.27,349.18C347.18,349.03 347.25,348.73 347.04,348.73C346.87,348.73 346.71,348.93 346.55,349.05C346.5,349.08 346.46,349.13 346.41,349.17C345.88,349.62 345.3,349.97 344.57,349.98C344.44,349.98 344.35,350.02 344.29,350.17C344.15,350.55 343.97,350.92 343.81,351.3C343.61,351.66 343.32,351.92 342.9,352.01C342.9,352.04 342.88,352.07 342.87,352.1C342.87,352.07 342.89,352.04 342.9,352.01C342.8,352.04 342.67,352.13 342.59,352.1C342.09,351.89 341.71,352.14 341.37,352.42C340.92,352.77 340.45,352.93 339.88,352.85C339.55,352.81 339.21,352.79 338.9,352.98C338.83,353.37 338.81,353.48 339.05,353.51C338.81,353.48 338.83,353.38 338.9,352.98C338.42,353.23 338.08,353.62 337.82,354.08C337.57,354.25 337.32,354.41 337.02,354.61C337.57,354.84 338.07,354.77 338.56,354.74C339.16,354.7 339.72,354.74 340.1,355.3C340.14,355.36 340.21,355.4 340.28,355.44C341.03,355.82 341.79,355.93 342.57,355.52C342.72,355.44 342.81,355.47 342.94,355.54C343.48,355.84 344.05,356.07 344.65,356.21C344.79,356.24 345.15,356.64 345.15,356.79C345.15,357.07 345.28,357.28 345.55,357.36C345.94,357.47 345.88,357.67 345.66,357.88C345.41,358.13 345.32,358.42 345.42,358.76C345.54,359.16 345.46,359.54 345.36,359.93C345.26,360.3 345.15,360.69 345.33,361.06C345.57,361.57 345.48,362.04 345.24,362.52C345.19,362.63 345.15,362.75 345.1,362.86C344.84,363.44 344.93,363.74 345.51,364.04C345.71,364.15 345.73,364.23 345.61,364.4C345.12,365.1 344.59,365.75 343.9,366.27C343.64,366.46 343.63,366.64 343.8,366.85C343.99,367.09 344.21,367.32 344.42,367.55C344.77,367.92 344.92,368.36 344.67,368.81C344.4,369.31 344.43,369.81 344.49,370.33C344.51,370.47 344.52,370.61 344.39,370.7C343.94,371.01 344.05,371.4 344.25,371.79C344.42,372.12 344.52,372.46 344.47,372.83C344.44,373.05 344.52,373.21 344.69,373.35C345.09,373.69 345.32,374.12 345.44,374.62C345.52,374.94 345.67,375.23 345.96,375.42C346.09,375.51 346.09,375.61 346.07,375.74C345.91,376.81 345.49,377.83 345.39,378.91C345.38,379.02 345.35,379.13 345.34,379.24C345.26,379.92 345.59,380.49 345.88,381.08C346.05,381.41 346.26,381.73 346.27,382.12C346.28,382.62 346.3,383.11 346.31,383.61C346.31,383.81 346.34,383.97 346.5,384.11C346.69,384.28 346.69,384.52 346.53,384.68C346.27,384.96 346.28,385.28 346.27,385.62C346.27,385.82 346.25,386.01 346.21,386.21C346.05,387.02 345.97,387.83 346.21,388.65C346.23,388.71 346.24,388.77 346.23,388.82C346.12,389.39 345.89,389.97 345.91,390.53C345.96,391.61 345.71,392.56 345.01,393.38C344.8,393.62 344.85,393.92 344.96,394.19C345.07,394.46 345.2,394.71 345.31,394.97C345.44,395.27 345.6,395.61 345.44,395.9C345.21,396.3 345.26,396.71 345.22,397.12C345.18,397.7 345.02,398.27 344.43,398.5C344.03,398.66 344.05,398.9 344.07,399.22C344.13,400.01 344.48,400.7 344.79,401.41C344.94,401.76 345.08,402.13 344.95,402.5C344.69,403.24 344.72,404.04 344.52,404.79C344.37,405.36 344.22,405.99 344.68,406.54C344.73,406.6 344.75,406.67 344.73,406.75C344.64,407.49 344.96,408.2 344.93,408.93C344.93,408.96 344.98,408.96 345,408.92C345.14,408.92 345.19,408.82 345.24,408.71C345.24,408.59 345.23,408.48 345.22,408.36C345.22,408.48 345.23,408.59 345.24,408.71C345.61,408.4 345.79,408.06 345.6,407.55C345.46,407.18 345.48,406.78 345.49,406.38C345.49,406.33 345.49,406.29 345.5,406.24C345.64,405.86 345.84,405.52 346.07,405.19C346.42,404.68 346.71,404.12 346.92,403.54C347.15,402.9 347.45,402.31 347.91,401.8C348.36,401.32 348.48,400.77 348.23,400.15C348.06,399.72 348.03,399.29 348.12,398.83C348.22,398.28 348.01,397.74 348.03,397.18C348.04,396.92 347.99,396.65 348.16,396.46C348.73,395.84 348.69,395.1 348.62,394.35C348.59,394.1 348.62,393.85 348.48,393.63C348.34,393.4 348.14,393.25 348.09,392.91C348.01,392.39 348,391.96 348.31,391.54C348.6,391.15 348.89,390.76 349.09,390.32C349.49,389.44 349.54,388.59 348.77,387.85C348.56,387.64 348.49,387.42 348.62,387.15C348.73,386.91 348.7,386.7 348.46,386.54C348.26,386.4 348.28,386.24 348.36,386.02C348.63,385.3 348.96,384.6 349.31,383.92C349.62,383.31 349.93,382.71 350.2,382.07C350.34,381.75 350.37,381.46 350.14,381.16C350.04,381.02 349.97,380.83 350.12,380.68C350.57,380.22 350.49,379.68 350.32,379.15C350.07,378.4 349.58,377.79 349.13,377.17C348.82,376.74 348.56,376.3 348.48,375.76C348.38,375 348.55,374.3 348.8,373.61C348.95,373.2 349.19,372.81 349.19,372.35C349.19,372.15 349.3,371.94 349.39,371.75C349.59,371.33 349.57,371.17 349.2,370.87C349.04,370.73 348.85,370.62 348.67,370.52C348.22,370.27 348.18,370.21 348.49,369.8C348.73,369.48 348.8,369.18 348.72,368.79C348.65,368.49 348.55,368.11 348.67,367.88C348.81,367.62 348.76,367.43 348.73,367.2C348.7,367.02 348.67,366.83 348.61,366.66C348.44,366.14 348.57,365.71 348.92,365.31C349.2,364.99 349.47,364.66 349.66,364.28C349.8,364.01 349.9,363.73 349.75,363.43C349.68,363.28 349.72,363.15 349.79,363.01C350.07,362.44 350.43,361.91 350.5,361.25C350.56,360.69 351.02,360.43 351.43,360.16C351.58,360.06 351.68,359.97 351.63,359.78C351.48,359.13 351.65,358.56 352.05,358.04C352.19,357.85 352.32,357.65 352.45,357.46C352.95,356.75 352.95,356.74 352.26,356.16L352.28,356.13ZM345.4,367.79C345.39,367.7 345.36,367.62 345.34,367.54C345.36,367.62 345.38,367.7 345.4,367.79ZM345.32,367.41C345.32,367.41 345.28,367.33 345.27,367.3C345.29,367.34 345.31,367.37 345.32,367.41ZM347.06,384.91C347.17,384.24 347.17,383.56 347.15,382.88C347.17,383.56 347.17,384.24 347.06,384.91C346.98,385.41 346.9,385.91 346.83,386.41C346.9,385.91 346.98,385.41 347.06,384.91ZM342.34,354.88L342.53,354.88L342.34,354.88ZM345.38,355.98C345.63,356.25 345.84,356.55 346.05,356.87C346.12,356.97 346.17,357.07 346.2,357.18C346.17,357.07 346.11,356.97 346.05,356.87C345.84,356.55 345.63,356.25 345.38,355.98ZM345.3,369.4C345.32,369.15 345.36,368.89 345.39,368.64C345.36,368.89 345.32,369.14 345.3,369.4C345.27,369.76 345.27,370.12 345.32,370.47C345.28,370.12 345.27,369.76 345.3,369.4ZM346.06,372.86C346.08,372.94 346.11,373.01 346.13,373.09C346.11,373.01 346.08,372.94 346.06,372.86ZM346.14,373.17C346.27,373.68 346.36,374.19 346.42,374.72C346.36,374.19 346.27,373.68 346.14,373.17ZM346.73,388.85C346.75,388.5 346.72,388.15 346.72,387.81C346.72,388.16 346.75,388.51 346.74,388.85C346.7,389.65 346.61,390.44 346.45,391.22C346.62,390.44 346.71,389.65 346.74,388.85L346.73,388.85ZM345.72,397.4C345.95,396.55 346.08,395.69 345.99,394.81C346.08,395.69 345.95,396.55 345.72,397.4ZM345.02,404.66C344.95,405.13 344.92,405.6 344.94,406.08C344.92,405.6 344.94,405.13 345.02,404.66ZM345.01,408.07C344.95,407.56 344.98,407.06 344.95,406.55C344.98,407.05 344.95,407.56 345.01,408.07ZM345.38,406.54C345.38,406.54 345.39,406.52 345.39,406.51C345.39,406.52 345.38,406.53 345.38,406.54Z" style="fill:white;fill-rule:nonzero;"/>
            <path d="M401.32,372.55C402.26,371 402.09,367.86 402.45,365.96C402.69,364.68 403.54,364.56 402.17,363.35C401.9,363.11 400.39,362.12 400.12,362.04C399.34,361.82 398.69,362.38 397.95,362.4C397.28,362.42 396.32,361.98 395.52,362.19C395.28,360.96 396.24,357.82 394.57,357.6C393.9,357.51 392.76,358.05 391.94,357.81C392,359.33 392.75,360.57 392.45,362.19C391.52,362.1 390.43,362.32 389.53,362.17C388.89,362.07 388.24,361.42 387.77,361.47C387.02,361.54 384.72,363.61 383.52,363.48C385.19,364.85 384.74,366.58 385.22,368.59C386.09,372.25 388.33,374.42 391.2,376.48C391.57,376.74 392.03,376.74 392.43,376.92L392.46,378.18L391.44,378.3C391.77,380.25 392.63,381.64 394.74,380.61C396.4,379.8 394.97,377.98 395.03,377C395.13,375.31 400.23,374.34 401.31,372.55L401.32,372.55ZM391.83,371.99C390.58,370.69 388.69,367.21 388.88,365.42C388.99,364.43 389.68,365.11 390.28,365.04C390.9,364.96 391.43,364.05 392.22,364.26L391.84,371.99L391.83,371.99ZM395.02,373.28L395.28,364.52C395.42,364.37 397.58,364.64 397.91,364.82C398.96,365.4 398.49,370.22 398.02,371.28C397.63,372.15 395.95,373.08 395.03,373.28L395.02,373.28Z" style="fill:white;fill-rule:nonzero;"/>
            <path d="M377.73,361.09L371.14,369.15L365.21,361.41C364.04,360.68 362.31,362.58 361.05,362.72C361.07,363.47 361.9,363.72 362.2,364.52C362.83,366.14 362.57,370.06 362.3,371.85C362.16,372.75 361.44,373.58 361.59,374.39C361.66,374.73 363.31,376.8 363.51,376.87C364.03,377.05 364.98,376.77 365.13,376.26L365.13,367.88C366.6,368.71 369.33,374.47 370.86,374.33C371.55,374.27 373.12,372.98 374.07,373.03C374.21,372.28 373.17,372.23 372.91,371.74C372.39,370.78 375.35,367.71 375.87,366.72L377.39,365.3C377.42,366.89 376.89,368.22 377.4,369.8C377.74,372.61 376.9,376.7 377.4,379.34C377.53,380.03 378.06,380.41 378.74,380.21C378.9,380.17 381.27,378.33 381.37,378.2C382.27,377.06 381.33,376.13 381.22,374.96C381.12,373.79 381.11,365.26 381.36,364.77C381.47,364.55 382.19,364.51 382.15,363.87C382.1,363.03 378.68,360.69 377.73,361.09Z" style="fill:white;fill-rule:nonzero;"/>
            <path d="M492.01,376.18C491.76,375.92 490.97,375.79 490.56,375.45C488.19,373.52 486.39,370.65 484.93,367.99L487.1,367.09C487.01,365.91 488.33,364.65 488.46,363.8C488.61,362.78 486.75,361.37 485.84,361.4C484.18,361.46 481.51,362 479.93,361.91C479.42,361.88 479.27,361.33 478.88,361.2C477.5,360.76 475.75,362.73 474.32,362.94C473.59,364.58 475.23,364.53 475.24,365.93C475.26,367.37 475.14,370.45 474.98,371.86C474.88,372.73 474.31,373.15 474.51,374.11C474.59,374.46 476.71,376.6 477.02,376.75C477.56,377 478.38,376.98 478.68,376.37C479.29,375.12 478.4,371.13 478.86,369.59C479.07,368.88 480.48,368.47 481.1,368.76C482.18,369.26 485.14,375.38 486.16,376.82C486.78,377.7 488.06,379.46 489.29,379.11C489.44,379.07 491.86,377.78 491.98,377.68C492.45,377.28 492.44,376.61 492.03,376.18L492.01,376.18ZM478.54,366.83C478.19,366.46 479.57,364.32 480.08,364.11C480.51,363.94 480.97,364.32 481.45,364.24C482.32,364.11 483.15,363.48 484.16,363.73C484.24,366.3 480.3,365.97 478.54,366.82L478.54,366.83Z" style="fill:white;fill-rule:nonzero;"/>
            <path d="M437.12,372.59C437.69,371.49 439.5,368.23 438.58,367.34C438.43,367.19 436.15,365.57 436,365.55C435.11,365.4 434.54,365.98 433.72,366.08C433.21,366.14 429.75,366.14 429.55,366.01C429.47,365.96 428.86,364.9 428.99,364.78C430.44,364.67 431.73,365.16 433.2,365.03C433.92,364.97 434.66,364.56 435.27,364.54C436.23,364.51 436.93,365.31 437.8,364.25C438.87,362.94 437,362.76 436.34,362.39C435.4,361.87 434.26,360.84 433.21,360.89C432.45,360.92 432.01,361.44 431.35,361.61C430.24,361.89 428.88,362.21 427.77,362.4C427.15,362.5 426.62,362.19 426.18,362.31C425.96,362.37 424.1,363.57 424.01,363.75C423.77,364.25 423.92,364.51 424.09,364.97C424.26,365.43 426.4,368.76 426.71,369.02C428.03,370.12 428.52,368.81 429.12,368.65C430.07,368.39 431.99,368.84 433.08,368.65C432.97,370.28 431.4,375.27 430.11,376.1C428,377.46 426.01,372.34 423.92,375.02C423.47,376.56 425.96,377.61 426.87,378.52C427.69,379.34 426.79,379.77 429.11,379.75C432.91,379.71 435.51,375.68 437.11,372.6L437.12,372.59Z" style="fill:white;fill-rule:nonzero;"/>
            <path d="M419.17,376.65C420.99,375.59 420.31,374.09 420.29,372.65C420.25,369.37 419.94,364.64 420.29,361.53C420.38,360.72 420.92,360.13 420.83,359.5C420.72,358.63 417.3,356.18 416.97,358.2C416.83,359.05 417.44,359.27 417.5,359.48L417.5,368.38L407.92,360.95C406.94,361.92 405.56,362.45 404.22,362.71C403.73,363.22 405.52,363.59 405.71,364.17C405.8,364.44 405.97,366.46 406,366.97C406.07,368.11 406.09,369.71 406,370.83C405.92,371.73 405.17,374.03 405.34,374.58C405.4,374.78 406.9,376.71 407.03,376.77C407.58,377.05 408.56,376.64 408.56,376.25L408.56,366.32L417.14,373.01C418.05,374.08 416.62,378.15 419.18,376.65L419.17,376.65Z" style="fill:white;fill-rule:nonzero;"/>
            <path d="M471.55,371.97C471.01,372.37 471.59,373.63 469.41,373.99C468.62,374.12 464.16,374.21 463.85,373.8C463.44,373.25 463.24,369.86 463.78,369.47C464.54,369.37 465.62,368.96 466.35,369.15C466.59,369.21 466.79,369.95 467.16,370.21C468.59,371.23 469.67,367.27 468.85,366.69C468.04,366.12 467.23,366.99 466.65,367.08C465.67,367.24 464.48,367 463.47,367.1L463.97,364.38C465.22,364.29 468.08,363.94 469.07,364.67C469.6,365.06 469.88,366.35 470.55,366.55C470.94,366.66 471.84,366.55 472.1,366.27C472.7,365.59 471.81,362.04 470.44,362C468.76,361.84 466.19,362.26 464.62,361.94C464.07,361.83 463.92,361.34 463.54,361.22C462.29,360.82 461.76,361.79 460.83,362.25C460.16,362.58 458.7,362.55 458.62,363.61C458.55,364.51 459.51,364.5 459.63,365.16C459.78,365.96 459.75,371.89 459.56,372.58C459.38,373.27 458.43,373.71 458.98,374.83C459.33,375.55 461.89,376.12 462.57,376.91C464.77,376.21 467.8,376.2 470.19,376.2C470.84,376.2 471.03,376.87 471.97,376.35C474.13,375.16 473.7,370.36 471.54,371.97L471.55,371.97Z" style="fill:white;fill-rule:nonzero;"/>
            <path d="M452.62,361.95C449.7,362.15 446.12,362 443.15,361.95C442.46,361.94 441.85,361.6 441.14,361.68C439.56,361.87 438.91,363.99 438.73,365.36C440.49,367.54 441.24,364.7 442.38,364.23C443.32,363.84 444.55,363.99 445.56,364.03C446.25,365.28 445.61,366.52 445.59,367.72C445.56,369.02 445.76,370.63 445.61,371.86C445.49,372.84 444.79,373.49 445.14,374.64C446.34,375.56 449.36,378.47 449.69,375.47C449.87,373.81 449.35,364.55 449.97,364.02C451.2,364.05 453.16,363.69 454.16,364.5C454.8,365.02 454.74,366.17 456.14,365.75C457.27,365.41 456.79,362.58 456.26,361.99C455.27,360.89 453.78,361.86 452.63,361.94L452.62,361.95Z" style="fill:white;fill-rule:nonzero;"/>
            <path d="M456.06,388.49L452.1,388.49C451.83,388.49 451.61,389.23 451.72,389.52L454.53,389.52L454.53,391.07L449.17,391.07L449.17,386.95L454.53,386.95C454.62,386.95 454.53,387.91 456.06,387.46C456.07,387.09 456,386.49 455.74,386.24C455.21,385.72 448.45,385.72 447.88,386.3C447.43,386.76 447.33,391.84 448.27,392.11C449.31,392.41 453.7,392.11 455.16,392.11C456.37,392.11 456.03,389.27 456.05,388.5L456.06,388.49Z" style="fill:white;fill-rule:nonzero;"/>
            <path d="M384.03,389.26C385,389.22 386,389.32 386.98,389.26C387.56,389.23 387.35,389.12 387.36,388.61L384.04,388.48L384.04,386.93L389.66,386.93L389.66,385.9L382.51,385.9L382.51,392.09L389.92,392.09L389.92,391.06L384.04,391.06L384.04,389.25L384.03,389.26Z" style="fill:white;fill-rule:nonzero;"/>
            <path d="M415.45,386.3L415.45,392.1L422.86,392.1L422.86,391.07L416.98,391.07L416.98,389.26C417.95,389.22 418.95,389.32 419.93,389.26C420.51,389.23 420.3,389.12 420.31,388.61L417.23,388.37L416.99,386.94L422.87,386.94L422.87,385.91L415.85,385.91L415.47,386.3L415.45,386.3Z" style="fill:white;fill-rule:nonzero;"/>
            <path d="M405.23,390.3C403.42,389.42 401.2,386.91 399.5,386.16C399,385.94 398.63,385.84 398.08,385.92L398.33,392.11L399.61,392.11L399.61,388.37C399.61,388.27 399.1,388.13 399.74,387.73L405.24,391.97L406.51,392.11L406.51,385.92L405.23,385.92L405.23,390.3Z" style="fill:white;fill-rule:nonzero;"/>
            <path d="M438.2,389.67C439.41,389.27 439.32,386.18 438.06,385.92C436.24,385.54 433.25,386.2 431.29,385.92L431.29,392.11L432.82,392.11L432.82,389.79C435.71,389.12 436.4,392.89 439.46,392.11L436.4,390.05C436.63,389.56 437.61,389.87 438.2,389.68L438.2,389.67ZM432.82,388.75L432.82,386.95L437.42,386.95L437.42,388.75L432.82,388.75Z" style="fill:white;fill-rule:nonzero;"/>
            <path d="M467.9,388.22C466.24,387.4 465.37,385.18 463.21,386.05L466.73,389.07L466.78,392.11L468.17,392.11C468.48,392.07 468.19,389.9 468.45,389.28C468.77,388.52 471.49,387.05 471.89,385.92C469.93,385.53 469.18,387.16 467.9,388.22Z" style="fill:white;fill-rule:nonzero;"/>
        </g>
    </g>
</svg>
