<?xml version="1.0" encoding="UTF-8" standalone="no"?>
<!DOCTYPE svg PUBLIC "-//W3C//DTD SVG 1.1//EN" "http://www.w3.org/Graphics/SVG/1.1/DTD/svg11.dtd">
<svg width="100%" height="100%" viewBox="0 0 197 81" version="1.1" xmlns="http://www.w3.org/2000/svg" xmlns:xlink="http://www.w3.org/1999/xlink" xml:space="preserve" xmlns:serif="http://www.serif.com/" style="fill-rule:evenodd;clip-rule:evenodd;stroke-linejoin:round;stroke-miterlimit:2;">
    <g transform="matrix(1,0,0,1,-297.700472,-341.608925)">
        <g>
            <path d="M356.21,351.32C356.04,349.78 355.17,348.35 353.84,347.5C353.27,346.74 352.23,345.66 350.52,345.31L350.14,345.23C349.9,345.18 349.56,345.12 349.49,345.09C348.94,344.78 348.44,344.63 348.11,344.53C348.06,344.51 348,344.5 347.97,344.49C347.54,344.31 347.1,344.21 346.65,344.18C345.93,344.13 344.86,344.25 343.79,345.08C343.79,345.08 343.59,345.24 343.57,345.25C342.88,345.35 342.23,345.64 341.7,346.1C341.65,346.14 341.6,346.18 341.54,346.22C341.36,346.35 341.13,346.53 340.88,346.77C340.37,346.11 339.63,345.48 338.54,344.98C338.48,344.95 338.42,344.92 338.36,344.9C337.69,344.29 336.93,343.81 336.1,343.45C335.68,343.03 335.27,342.78 335.05,342.65C334.91,342.57 334.78,342.48 334.65,342.39L334.39,342.21C333.88,341.88 333.29,341.68 332.69,341.63L332.53,341.63L331.85,341.61C331.45,341.6 331.06,341.66 330.68,341.78C329.79,342.07 329.05,342.46 328.43,342.99C328.32,343.02 328.17,343.06 328.05,343.09L327.95,343.11C327.77,343.15 327.49,343.19 327.2,343.23C326.95,343.26 326.71,343.3 326.47,343.34C325.63,343.47 324.95,343.74 324.41,344.06C322.92,343.97 321.52,344.43 320.38,345.35C320.05,345.26 319.68,345.19 319.29,345.16C319.11,345.15 318.92,345.14 318.73,345.15L318.7,345.15C318.14,344.51 317.41,344.04 316.56,343.8C316.01,343.52 315.43,343.35 314.83,343.31C313.72,343.23 312.64,343.58 311.63,344.33C311.43,344.48 311.26,344.64 311.12,344.78C310.63,345 310.24,345.26 309.92,345.47C309.83,345.47 309.74,345.45 309.65,345.44C309.45,345.42 309.26,345.4 309.06,345.38C308.9,345.37 308.75,345.36 308.59,345.36C307.13,345.33 305.88,345.67 304.84,346.36C304.69,346.41 304.5,346.47 304.31,346.55C302.7,346.64 301.5,347.35 300.63,347.85C299.46,348.53 298.59,349.53 298.04,350.81C297.31,352.5 297.78,354.32 299.23,355.43C299.51,355.65 299.84,355.9 300.12,356.15C301.03,356.95 301.98,357.18 302.62,357.22C303.15,357.26 303.68,357.19 304.21,357.02C304.26,357 304.33,356.99 304.45,357C304.58,357 304.73,357.04 304.9,357.09C305.04,357.13 305.18,357.18 305.32,357.23C305.6,357.32 305.94,357.44 306.31,357.53C306.51,358.59 307.05,359.56 307.92,360.38C307.81,360.99 307.82,361.54 307.9,362.02C307.85,362.16 307.8,362.31 307.75,362.46C307.71,362.58 307.66,362.7 307.62,362.82C307.4,363.42 307.12,364.18 307.02,365.11C306.96,365.65 306.88,366.02 306.76,366.31C306.01,368.11 306.21,370.08 307.31,371.85L307.51,372.17C307.71,372.49 307.96,372.88 308.02,373.07C308.53,374.65 308.85,375.86 309.08,376.98C309.11,377.12 309.15,377.27 309.18,377.41C309.12,377.98 309.15,378.48 309.18,378.91C309.19,379.03 309.2,379.11 309.2,379.16C308.6,380.69 308.68,382.28 309.41,383.71C309.47,383.87 309.54,384.02 309.61,384.16C309.62,384.71 309.68,385.28 309.79,385.9C309.13,386.9 308.7,387.92 308.32,388.83L308.14,389.24C307.82,389.98 307.56,391.17 308.11,392.6C308.32,393.15 308.59,393.61 308.9,394.01C308.87,394.85 309.04,395.59 309.25,396.19C309.03,397.28 309.16,398.42 309.64,399.53C309.71,399.69 309.78,399.84 309.85,399.99C309.93,400.17 310.04,400.41 310.07,400.5C310.6,402.37 310.84,404.41 311.06,406.51C311.17,407.58 311.34,409.2 312.23,410.77C312.19,413.12 313.46,415.16 315.76,416.31C315.96,416.41 316.58,416.72 317.4,416.78C318.78,416.88 320.07,416.26 320.84,415.12C321.63,413.96 322.42,412.68 322.66,410.94C322.73,410.42 322.78,409.79 322.63,409.04C322.51,408.45 322.31,407.97 322.17,407.62C322.16,407.6 322.15,407.58 322.14,407.56C322.15,407.09 322.07,406.73 322.03,406.51C322.01,406.4 321.99,406.29 321.98,406.18C321.94,405.91 321.87,405.54 321.88,405.41C321.9,405.19 321.96,404.9 322.01,404.59C322.09,404.2 322.17,403.74 322.22,403.25L322.24,403.04C322.31,402.46 322.4,401.61 322.21,400.64C322.43,399.92 322.5,399.21 322.41,398.51C322.53,398.21 322.63,397.9 322.69,397.59C322.74,397.94 322.83,398.35 323,398.77C322.91,399.22 322.86,399.76 322.94,400.37C322.69,401.19 322.69,402.08 322.94,402.95C322.94,402.98 322.96,403 322.96,403.03C322.96,403.55 323.03,404.03 323.11,404.48C322.19,406.55 322.54,409.16 324.05,410.92L324.15,411.41C324.21,411.73 324.31,412.01 324.4,412.24C324.26,412.64 324.18,413.07 324.17,413.53C323.84,414.32 323.64,415.16 323.58,416.01C323.42,418.24 324.13,419.92 325.68,421.01L325.7,421.03C326.42,421.77 327.35,422.22 328.34,422.29C329.41,422.37 330.47,422 331.3,421.26C331.51,421.07 332.26,420.4 332.26,420.4C332.81,419.93 333.14,419.42 333.33,418.94C333.73,418.5 334.31,417.79 334.6,416.76C334.63,416.67 334.65,416.57 334.68,416.48C335.27,415.62 335.32,414.74 335.34,414.43C335.35,414.26 335.36,414.08 335.36,413.9L335.36,413.76C335.4,413.42 335.42,413.11 335.43,412.86L335.43,412.67C335.83,411.85 336,410.97 335.95,410.08C336.26,409.36 336.39,408.56 336.35,407.74C337.32,405.89 337.2,403.76 335.99,401.92C335.94,401.84 335.89,401.76 335.84,401.68C335.78,401.58 335.71,401.47 335.63,401.35C335.63,401.33 335.63,401.32 335.62,401.31C335.81,400.28 335.89,399.18 335.87,397.97C336.42,396.93 336.6,395.77 336.37,394.61C336.26,394.06 336.27,393.54 336.41,392.99C336.59,392.24 336.61,391.48 336.46,390.75C336.73,389.72 336.67,388.83 336.47,388.1C336.66,387.76 336.87,387.32 337.02,386.79C337.52,386.01 337.83,385.14 337.94,384.23C340.01,382.39 340.04,379.92 340.05,378.72C340.06,377.82 339.84,377.08 339.7,376.6C339.67,376.51 339.64,376.41 339.62,376.32C339.48,375.73 339.29,375.23 339.13,374.82C339.05,374.63 338.95,374.37 338.92,374.25C338.92,373.91 338.87,373.59 338.8,373.28C339.02,372.63 339.16,371.98 339.22,371.33C339.22,371.33 339.22,371.32 339.23,371.31C339.25,371.9 339.36,372.54 339.62,373.23C339.71,374.39 340.16,375.46 340.9,376.31C340.73,376.96 340.53,377.75 340.5,378.7C340.47,379.68 340.52,380.99 341.13,382.33C341.2,382.49 341.36,382.84 341.41,383C341.37,383.51 341.43,383.95 341.5,384.28C341.43,384.74 341.4,385.15 341.37,385.51C341.35,385.82 341.33,386.11 341.29,386.29C341.11,387.16 341.18,387.92 341.22,388.42C341.22,388.5 341.24,388.57 341.24,388.64C341.24,388.66 341.23,388.68 341.22,388.7C341.12,389.08 340.96,389.71 341,390.5C340.93,390.6 340.86,390.7 340.79,390.82C340.11,391.96 339.86,393.18 340.04,394.43C340.11,394.91 340.24,395.34 340.37,395.7C340.18,395.97 340.05,396.21 339.97,396.38L339.95,396.41C339.34,397.23 339.07,398.22 339.21,399.24C339.22,399.34 339.23,399.44 339.24,399.54C339.28,399.98 339.33,400.59 339.55,401.29C339.67,401.66 339.8,402 339.92,402.31C339.86,402.67 339.84,402.99 339.82,403.26C339.82,403.37 339.81,403.48 339.79,403.59C339.77,403.73 339.74,403.87 339.72,404.01C339.61,404.58 339.45,405.37 339.54,406.31C339.59,406.88 339.74,407.33 339.85,407.63C339.93,409.88 340.78,411.57 342.39,412.68C343.01,413.22 343.8,413.54 344.61,413.6C345.18,413.64 345.76,413.55 346.31,413.33C346.36,413.31 346.41,413.29 346.45,413.27C346.93,413.09 347.83,412.75 348.6,411.94C350.26,410.19 350.49,408.42 350.34,407.15C350.63,406.64 350.89,406.13 351.1,405.6C351.32,405.05 351.49,404.73 351.67,404.51C352.91,403.01 353.35,401.22 352.89,399.49C352.84,399.3 352.83,398.98 352.82,398.63C352.91,398.23 352.95,397.84 352.92,397.46C352.96,397.34 353.01,397.22 353.05,397.08C353.45,395.63 353.46,394.15 353.08,392.72C353.4,392.15 353.67,391.51 353.84,390.78C354.21,389.18 354.05,387.63 353.4,386.28C353.49,386.08 353.59,385.87 353.68,385.67C353.95,385.08 354.22,384.49 354.49,383.89C354.93,382.95 355.1,382.01 355.01,381.1C355.26,379.92 355.15,378.68 354.68,377.41C354.33,376.46 353.83,375.65 353.37,374.96C353.57,374.36 353.8,373.65 353.92,372.85L353.94,372.79C354.1,372.25 354.54,370.8 353.77,369.2C353.67,368.99 353.56,368.79 353.44,368.6C353.43,368.46 353.41,368.33 353.39,368.2C353.46,367.82 353.48,367.44 353.45,367.06C354.01,366.25 354.37,365.3 354.5,364.28C354.5,364.22 354.51,364.16 354.52,364.11C354.65,363.88 354.79,363.59 354.91,363.25C355.32,362.76 355.55,362.29 355.7,361.99C355.72,361.94 355.74,361.9 355.75,361.88C356.09,361.34 356.28,360.75 356.33,360.16C356.46,359.95 356.59,359.76 356.69,359.58C357.62,358.08 357.76,356.46 357.15,354.97C357.21,353.7 356.86,352.38 356.17,351.3M323.13,370.86L323.13,370.85C323.08,370.17 322.91,369.5 322.62,368.86L322.64,368.76C322.8,367.77 322.73,366.91 322.53,366.19C322.8,365.74 323.03,365.29 323.22,364.82C323.27,365.13 323.35,365.43 323.44,365.74C323.44,365.79 323.45,366.07 323.46,366.17C323.42,366.36 323.38,366.56 323.34,366.75C322.97,368.65 323.19,370.25 323.97,371.53C323.95,371.64 323.93,371.74 323.91,371.85C323.89,371.97 323.86,372.08 323.84,372.2C323.84,372.23 323.83,372.26 323.82,372.29C323.59,371.97 323.39,371.47 323.14,370.86M323.89,382.31C323.8,382.1 323.69,381.91 323.58,381.73C323.71,381 323.71,380.28 323.58,379.58C323.79,379.26 323.99,378.93 324.18,378.59C324.22,378.66 324.26,378.73 324.31,378.8C324.4,379.2 324.51,379.58 324.62,379.91C324.24,380.67 324,381.47 323.89,382.31" style="fill-rule:nonzero;"/>
            <path d="M322.5,394.02C322.44,393.59 322.35,393.22 322.27,392.92C322.36,393.08 322.45,393.24 322.55,393.4C322.53,393.61 322.51,393.81 322.5,394.01" style="fill:rgb(51,49,51);fill-rule:nonzero;"/>
            <path d="M332.46,345.11C332.72,345.28 332.97,345.46 333.24,345.62C333.47,345.76 333.69,345.88 333.75,346.18C333.78,346.3 333.87,346.36 333.99,346.39C334.89,346.64 335.66,347.09 336.31,347.77C336.49,347.96 336.82,348.02 337.08,348.14C337.83,348.48 338.4,348.96 338.4,349.86C338.4,350 338.5,349.99 338.57,350C339.43,350.17 340.01,350.66 340.26,351.53C340.75,351.2 341.21,350.85 341.8,350.77C341.86,350.77 341.93,350.72 341.99,350.74C342.52,350.86 342.72,350.51 342.81,350.11C342.96,349.43 343.55,349.14 344.01,348.75C344.04,348.73 344.08,348.71 344.11,348.71C344.9,348.75 345.44,348.25 345.99,347.82C346.2,347.65 346.38,347.62 346.63,347.72C347,347.87 347.42,347.94 347.76,348.13C348.4,348.49 349.11,348.58 349.81,348.73C350.51,348.87 350.9,349.4 351.26,349.95C351.37,350.11 351.49,350.23 351.67,350.3C352.42,350.6 352.86,351.49 352.65,352.26C352.6,352.45 352.65,352.55 352.79,352.67C353.5,353.27 353.85,354.53 353.55,355.4C353.5,355.56 353.5,355.66 353.61,355.8C354.14,356.47 354.16,357.05 353.71,357.79C353.52,358.1 353.33,358.4 353.12,358.7C352.89,359.03 352.69,359.37 352.83,359.8C352.86,359.9 352.83,360 352.77,360.08C352.49,360.53 352.36,361.09 351.83,361.37C351.78,361.4 351.72,361.46 351.72,361.51C351.74,362.21 351.23,362.71 351.02,363.32C350.95,363.51 351.05,363.68 351.02,363.87C350.94,364.44 350.72,364.96 350.35,365.38C349.89,365.91 349.67,366.44 349.9,367.14C349.97,367.35 349.97,367.58 349.86,367.84C349.75,368.08 349.86,368.42 349.91,368.72C349.95,368.99 349.98,369.26 349.89,369.53C349.84,369.69 349.87,369.82 350.02,369.95C350.27,370.16 350.46,370.43 350.6,370.72C350.87,371.27 350.53,371.75 350.46,372.27C350.34,373.15 350,373.96 349.73,374.79C349.57,375.27 349.68,375.8 350,376.25C350.53,377 351.07,377.76 351.4,378.63C351.66,379.33 351.74,380.02 351.49,380.74C351.45,380.85 351.4,380.95 351.45,381.09C351.62,381.56 351.52,382.01 351.31,382.46C350.79,383.58 350.29,384.71 349.77,385.84C349.69,386.02 349.66,386.17 349.71,386.37C349.83,386.84 349.97,387.28 350.2,387.71C350.59,388.43 350.62,389.22 350.43,390.03C350.26,390.78 349.85,391.4 349.41,391.99C349.2,392.28 349.26,392.51 349.41,392.8C349.91,393.88 350.02,395.01 349.69,396.17C349.62,396.41 349.44,396.62 349.4,396.88C349.37,397.11 349.28,397.33 349.4,397.56C349.53,397.8 349.33,398.01 349.33,398.24C349.33,398.96 349.33,399.67 349.51,400.38C349.7,401.1 349.43,401.76 348.96,402.32C348.46,402.92 348.13,403.61 347.85,404.32C347.62,404.91 347.31,405.47 346.95,405.98C346.69,406.35 346.65,406.73 346.78,407.14C347.09,408.11 346.68,408.89 346.05,409.57C345.77,409.86 345.34,409.97 344.96,410.13C344.88,410.16 344.79,410.14 344.71,410.08C344.65,410.03 344.6,409.97 344.54,409.93C343.51,409.32 343.38,408.33 343.38,407.29C343.38,406.83 343.1,406.47 343.06,406.04C343,405.34 343.23,404.69 343.31,404.02C343.38,403.41 343.35,402.78 343.6,402.19C343.65,402.08 343.57,401.97 343.53,401.87C343.32,401.34 343.09,400.81 342.92,400.27C342.77,399.79 342.78,399.29 342.71,398.8C342.69,398.67 342.75,398.58 342.82,398.49C343.14,398.1 343.23,397.53 343.76,397.28C343.87,397.22 343.87,396.99 343.87,396.82C343.87,396.42 343.87,396.02 344.04,395.65C344.12,395.49 344.04,395.34 343.97,395.19C343.79,394.79 343.6,394.41 343.54,393.97C343.47,393.47 343.59,393.04 343.84,392.62C343.85,392.6 343.87,392.58 343.88,392.56C344.41,391.95 344.61,391.24 344.53,390.43C344.48,389.93 344.73,389.47 344.76,388.97C344.8,388.32 344.6,387.68 344.74,387.04C344.92,386.18 344.85,385.29 345.07,384.43C345.15,384.09 344.89,383.7 344.93,383.31C345.02,382.45 344.69,381.7 344.34,380.93C344.04,380.29 344,379.6 344.02,378.87C344.05,377.96 344.38,377.16 344.55,376.3C344.59,376.07 344.59,375.88 344.45,375.67C344.3,375.43 344.2,375.16 344.1,374.89C344.01,374.62 343.87,374.4 343.67,374.2C343.28,373.82 343.12,373.35 343.12,372.82C343.12,372.64 343.1,372.48 343.02,372.32C342.69,371.6 342.61,370.89 343.05,370.19C343.17,370.01 343.1,369.8 343.1,369.61C343.1,369.3 343.12,369 343.25,368.74C343.4,368.47 343.33,368.29 343.12,368.1C342.98,367.97 342.87,367.82 342.76,367.67C342.44,367.25 342.33,366.82 342.46,366.26C342.63,365.53 343.13,365.13 343.63,364.69C343.85,364.5 343.93,364.34 343.78,364.06C343.49,363.52 343.6,362.97 343.81,362.45C343.98,362.02 344.16,361.63 343.97,361.14C343.81,360.72 343.9,360.28 344,359.85C344.07,359.52 344.14,359.2 344.08,358.86C344.03,358.61 344.03,358.35 344.08,358.09C344.15,357.69 343.88,357.39 343.53,357.21C342.92,356.9 342.32,356.94 341.67,357.03C340.72,357.17 339.87,356.82 339.15,356.19C338.97,356.03 338.8,356.02 338.6,356.03C338.02,356.07 337.45,356.09 336.88,355.95C336.69,355.9 336.23,356.26 336.19,356.5C336.12,356.85 336.02,357.17 335.78,357.44C335.67,357.56 335.72,357.66 335.77,357.78C336.07,358.53 336.15,359.27 335.75,360.01C335.67,360.15 335.75,360.29 335.84,360.38C336.83,361.28 336.7,362.32 336.23,363.39C336.06,363.79 336.04,364.16 336.21,364.56C336.63,365.55 336.69,366.61 336.85,367.65C336.97,368.44 336.63,369.11 336.04,369.64C335.79,369.87 335.71,370.08 335.73,370.43C335.77,371.16 335.61,371.89 335.33,372.57C335.14,373.03 335.07,373.46 335.33,373.92C335.4,374.05 335.41,374.21 335.42,374.36C335.42,375.36 335.99,376.2 336.21,377.14C336.33,377.66 336.55,378.16 336.55,378.7C336.54,379.82 336.49,380.95 335.51,381.75C335.11,382.07 334.84,382.47 334.62,382.92C334.53,383.1 334.47,383.28 334.48,383.48C334.48,384.13 334.28,384.7 333.88,385.2C333.81,385.29 333.71,385.38 333.71,385.48C333.69,386.14 333.27,386.62 333,387.17C332.77,387.64 332.63,388.13 332.95,388.68C333.27,389.22 333.15,389.82 332.92,390.37C332.81,390.62 332.78,390.83 332.92,391.09C333.1,391.43 333.12,391.82 333.03,392.19C332.78,393.22 332.75,394.25 332.96,395.3C333.07,395.85 332.88,396.36 332.51,396.78C332.41,396.9 332.34,397 332.35,397.17C332.44,398.57 332.41,399.97 332.06,401.35C332.02,401.52 331.99,401.69 332.11,401.85C332.22,402.01 332.27,402.18 332.26,402.38C332.26,402.56 332.32,402.72 332.43,402.86C332.68,403.17 332.86,403.53 333.08,403.86C333.63,404.7 333.67,405.56 333.13,406.38C332.82,406.85 332.8,407.33 332.86,407.83C332.9,408.19 332.86,408.54 332.7,408.85C332.49,409.26 332.38,409.66 332.45,410.12C332.51,410.53 332.44,410.93 332.23,411.31C331.87,411.96 331.98,412.69 331.89,413.38C331.85,413.65 331.87,413.93 331.85,414.2C331.84,414.33 331.85,414.51 331.76,414.59C331.43,414.95 331.36,415.41 331.23,415.84C331.11,416.27 330.8,416.56 330.52,416.87C330.31,417.09 330.09,417.3 330.09,417.63C330.09,417.73 330.01,417.78 329.94,417.84C329.61,418.13 329.29,418.42 328.96,418.71C328.71,418.92 328.48,418.94 328.24,418.69C328.11,418.55 327.98,418.41 327.82,418.31C327.06,417.83 327.04,417.1 327.09,416.34C327.13,415.82 327.26,415.31 327.48,414.83C327.64,414.49 327.72,414.13 327.7,413.75C327.7,413.65 327.69,413.53 327.74,413.46C328.15,412.95 327.99,412.36 327.97,411.81C327.96,411.48 327.68,411.18 327.61,410.82C327.54,410.48 327.47,410.14 327.41,409.8C327.34,409.48 327.22,409.18 326.95,408.94C326.01,408.13 325.84,406.45 326.62,405.52C326.89,405.2 326.8,404.89 326.73,404.59C326.59,404.01 326.47,403.43 326.5,402.83C326.51,402.59 326.41,402.34 326.35,402.11C326.27,401.83 326.28,401.54 326.39,401.31C326.58,400.92 326.57,400.55 326.47,400.14C326.37,399.7 326.54,399.28 326.67,398.87C326.77,398.55 326.79,398.2 326.57,397.99C326.13,397.56 326.19,397.03 326.17,396.53C326.12,395.31 326.04,394.1 326.35,392.89C326.43,392.59 326.18,392.31 325.97,392.07C325.52,391.53 325.22,390.93 325.11,390.23C325.03,389.74 325.14,389.3 325.36,388.87C325.52,388.55 325.7,388.24 325.87,387.92C326.06,387.55 326.19,387.18 326.2,386.76C326.2,386.35 326.4,385.98 326.71,385.72C326.95,385.52 327,385.28 327.04,385.01C327.09,384.59 327.04,384.14 327.34,383.77C327.39,383.71 327.38,383.6 327.37,383.51C327.33,382.6 327.59,381.77 328.1,381.02C328.36,380.64 328.38,380.26 328.25,379.82C328.02,379.06 327.74,378.31 327.64,377.52C327.64,377.44 327.58,377.39 327.53,377.34C326.98,376.77 326.89,376.09 327.1,375.37C327.19,375.06 327.18,374.76 327.14,374.45C327.06,373.79 327.28,373.17 327.39,372.54C327.49,371.97 327.62,371.4 327.75,370.83C327.78,370.7 327.79,370.59 327.66,370.5C326.54,369.74 326.59,368.65 326.81,367.52C326.87,367.19 326.95,366.86 327.02,366.54C327.02,366.52 327.03,366.49 327.03,366.47C326.95,365.98 327.01,365.45 326.87,365C326.49,363.77 326.52,362.6 327.03,361.45C327.17,361.13 327.13,360.94 326.8,360.78C325.82,360.29 325.52,359.04 325.61,358.1C325.63,357.89 325.84,357.82 325.96,357.69C326.09,357.56 326.15,357.43 326.14,357.24C326.12,356.9 326.14,356.54 326.18,356.2C326.21,355.91 326.22,355.64 325.98,355.42C325.82,355.26 325.95,355.1 326.04,354.96C326.14,354.8 326.16,354.69 326.02,354.54C325.72,354.21 325.52,353.8 325.2,353.47C325.05,353.32 324.94,353.26 324.76,353.39C324.49,353.58 324.22,353.55 323.91,353.42C323.56,353.27 323.18,353.18 322.81,353.05C322.66,352.99 322.52,353.01 322.37,353.03C322.17,353.06 322.14,353.1 322.19,353.31C322.29,353.79 322.07,354.25 321.88,354.66C321.73,354.99 321.77,355.27 321.84,355.57C321.9,355.79 321.88,355.97 321.75,356.16C321.51,356.52 321.3,356.9 321.07,357.27C320.86,357.61 320.5,357.73 320.14,357.85C319.55,358.04 319.33,358.3 319.31,358.92C319.3,359.42 319.34,359.91 319.36,360.41C319.36,360.59 319.51,360.67 319.63,360.75C320.34,361.21 320.35,361.88 320.24,362.6C320.09,363.58 319.65,364.43 319.03,365.2C318.77,365.52 318.77,365.91 318.67,366.28C318.64,366.37 318.7,366.45 318.76,366.51C319.21,367.04 319.28,367.65 319.18,368.3C319.12,368.66 319.06,369.02 318.98,369.38C318.95,369.55 319,369.69 319.09,369.83C319.44,370.32 319.65,370.85 319.62,371.47C319.61,371.76 319.76,372.02 319.87,372.28C320.21,373.11 320.54,373.93 321.11,374.64C321.63,375.28 321.63,376.05 321.23,376.78C320.97,377.26 320.68,377.72 320.37,378.17C320.1,378.55 320.09,379.06 319.81,379.46C319.76,379.53 319.83,379.6 319.87,379.66C320.21,380.25 320.23,380.86 320.06,381.5C320.01,381.68 319.97,381.86 319.92,382.04C319.77,382.52 319.79,382.89 320.26,383.26C320.85,383.74 320.88,384.46 320.72,385.16C320.44,386.37 319.91,387.5 319.62,388.7C319.33,389.9 318.83,391.05 318.57,392.26C318.48,392.66 318.55,393.03 318.64,393.4C318.76,393.92 318.95,394.42 318.95,394.96C318.95,395.09 319,395.23 319.06,395.35C319.41,396.07 319.41,396.79 319.06,397.5C318.86,397.92 318.75,398.32 318.89,398.81C319.03,399.31 318.85,399.82 318.6,400.28C318.49,400.49 318.48,400.68 318.6,400.91C318.94,401.57 318.8,402.28 318.73,402.96C318.65,403.7 318.45,404.43 318.38,405.17C318.32,405.85 318.47,406.53 318.58,407.21C318.6,407.35 318.66,407.49 318.64,407.62C318.51,408.43 319.05,409.08 319.2,409.83C319.25,410.08 319.23,410.32 319.2,410.57C319.06,411.6 318.52,412.44 317.95,413.26C317.79,413.5 317.55,413.41 317.35,413.31C316.02,412.65 315.53,411.59 315.88,410.19C315.91,410.07 315.92,409.98 315.83,409.89C314.88,408.87 314.72,407.58 314.58,406.3C314.35,404.07 314.09,401.86 313.47,399.7C313.33,399.22 313.09,398.76 312.88,398.29C312.59,397.63 312.6,396.98 312.98,396.37C313.08,396.21 313.07,396.1 312.98,395.94C312.6,395.34 312.32,394.7 312.47,393.97C312.51,393.75 312.56,393.53 312.65,393.33C312.76,393.1 312.69,392.97 312.51,392.83C312.06,392.46 311.64,392.08 311.42,391.52C311.32,391.26 311.29,391.03 311.41,390.77C311.87,389.7 312.29,388.62 312.98,387.67C313.46,387.01 313.44,386.31 313.31,385.58C313.18,384.88 313.12,384.18 313.21,383.47C313.24,383.25 313.21,383.06 312.97,382.95C312.75,382.85 312.76,382.6 312.66,382.42C312.29,381.8 312.29,381.15 312.57,380.5C312.81,379.96 312.79,379.38 312.74,378.81C312.71,378.42 312.7,378.04 312.77,377.66C312.85,377.24 312.65,376.85 312.57,376.46C312.28,375.01 311.86,373.59 311.41,372.18C311.18,371.45 310.73,370.82 310.33,370.18C309.85,369.41 309.71,368.63 310.05,367.8C310.34,367.11 310.47,366.4 310.55,365.67C310.63,364.99 310.9,364.38 311.11,363.75C311.22,363.43 311.34,363.12 311.46,362.81C311.57,362.53 311.64,362.28 311.5,361.97C311.31,361.54 311.39,361.09 311.57,360.67C311.7,360.35 311.71,360.06 311.57,359.74C311.45,359.46 311.33,359.16 311.32,358.85C311.32,358.71 311.21,358.66 311.12,358.6C310.95,358.47 310.77,358.35 310.6,358.23C309.92,357.71 309.58,357.09 309.88,356.22C309.96,356 310.07,355.76 310.01,355.51C309.93,355.14 309.69,354.88 309.36,354.74C308.99,354.59 308.62,354.44 308.2,354.46C307.39,354.49 306.66,354.15 305.91,353.93C304.98,353.65 304.07,353.59 303.14,353.88C302.87,353.96 302.67,353.91 302.46,353.73C302.11,353.42 301.75,353.13 301.38,352.85C301.19,352.71 301.19,352.58 301.28,352.37C301.53,351.8 301.9,351.34 302.45,351.02C303.21,350.58 303.96,350.12 304.89,350.2C305.12,350.22 305.34,350.16 305.53,350.02C305.86,349.78 306.3,349.84 306.63,349.57C307.18,349.1 307.86,348.99 308.56,349.01C309.27,349.02 309.98,349.2 310.7,349.09C310.96,349.05 311.21,348.99 311.44,348.85C311.99,348.51 312.49,348.08 313.14,347.93C313.25,347.91 313.28,347.8 313.35,347.73C313.49,347.57 313.63,347.4 313.79,347.28C314.16,347 314.55,346.81 315.03,347.09C315.2,347.19 315.4,347.26 315.59,347.31C315.93,347.39 316.14,347.6 316.24,347.91C316.44,348.53 316.94,348.67 317.5,348.72C317.96,348.77 318.43,348.81 318.89,348.8C319.39,348.78 319.82,348.97 320.24,349.2C320.37,349.27 320.48,349.3 320.64,349.22C321.06,349.01 321.5,348.82 321.98,348.76C322.09,348.74 322.16,348.7 322.23,348.62C322.92,347.8 323.8,347.52 324.84,347.79C325.23,347.89 325.54,347.9 325.84,347.55C326.15,347.19 326.61,347.01 327.09,346.93C327.67,346.84 328.26,346.79 328.83,346.66C329.5,346.5 330.19,346.35 330.71,345.85C331.02,345.55 331.4,345.38 331.81,345.25C332.04,345.25 332.26,345.26 332.49,345.27M320.62,352.81C320.41,352.42 320.53,352.11 320.86,351.86C320.99,351.85 321.12,351.86 321.26,351.82C321.81,351.65 322.36,351.53 322.94,351.66C323.47,351.78 323.94,352.06 324.47,352.19C324.6,352.22 324.72,352.29 324.76,352.11C324.81,351.86 324.98,351.88 325.16,351.92C325.69,352.03 326.05,352.35 326.35,352.77C326.68,353.22 326.93,353.74 327.4,354.08C327.49,354.15 327.59,354.19 327.54,354.34C327.5,354.47 327.45,354.56 327.29,354.56C327.2,354.56 327.07,354.54 327.06,354.68C327.06,354.77 327.14,354.84 327.22,354.86C327.56,354.95 327.57,355.18 327.5,355.46C327.45,355.66 327.43,355.88 327.42,356.09C327.4,356.6 327.29,357.1 327.46,357.61C327.55,357.9 327.41,358.05 327.08,358.05C326.96,358.05 326.83,358.01 326.82,358.21C326.82,358.75 326.92,359.42 327.54,359.69C327.71,359.77 327.87,359.87 328.03,359.98C328.35,360.21 328.52,360.5 328.45,360.91C328.39,361.28 328.27,361.63 328.13,361.97C327.72,362.93 327.78,363.88 328.14,364.84C328.23,365.07 328.45,365.31 328.13,365.53C328.07,365.57 328.13,365.64 328.17,365.69C328.28,365.84 328.27,366.01 328.28,366.19C328.31,366.7 328.17,367.17 328.05,367.66C327.87,368.44 327.79,369.15 328.65,369.64C328.96,369.82 329.05,370.15 329.03,370.52C329,371.3 328.69,372.02 328.63,372.79C328.59,373.27 328.31,373.73 328.39,374.21C328.48,374.78 328.44,375.32 328.26,375.86C328.21,376.03 328.19,376.23 328.33,376.31C328.83,376.61 328.95,377.07 328.93,377.59C328.93,377.6 328.93,377.61 328.94,377.63C329.13,378.31 329.29,379 329.53,379.67C329.74,380.29 329.72,380.9 329.32,381.37C328.55,382.28 328.8,383.47 328.38,384.47C328.28,384.71 328.3,385.01 328.28,385.28C328.24,385.78 328.17,386.26 327.65,386.54C327.45,386.65 327.43,386.88 327.42,387.1C327.42,387.29 327.47,387.51 327.37,387.69C326.99,388.3 326.86,389.04 326.42,389.62C326.33,389.74 326.34,389.88 326.35,390.01C326.4,390.53 326.61,390.99 326.99,391.33C327.38,391.68 327.36,392.23 327.74,392.56C327.8,392.62 327.73,392.68 327.71,392.73C327.43,393.55 327.31,394.41 327.35,395.26C327.39,396.07 327.18,396.95 327.82,397.66C327.84,397.68 327.84,397.73 327.85,397.77C328.15,398.39 328,398.98 327.79,399.58C327.7,399.84 327.64,400.1 327.81,400.33C328.09,400.7 328.02,401.02 327.75,401.34C327.57,401.55 327.48,401.81 327.6,402.06C327.79,402.46 327.73,402.86 327.75,403.27C327.77,403.8 328.02,404.3 328.03,404.84C328.03,404.89 328.09,404.96 328.14,404.98C328.31,405.07 328.27,405.18 328.23,405.32C328.1,405.75 327.79,406.06 327.52,406.4C327.43,406.52 327.28,406.63 327.31,406.82C327.41,407.37 327.49,407.92 328.04,408.27C328.44,408.53 328.55,409 328.62,409.41C328.71,409.88 328.77,410.37 328.88,410.84C328.9,410.95 328.94,411.12 329.01,411.13C329.4,411.23 329.28,411.52 329.28,411.76C329.28,412.23 329.26,412.71 329.25,413.18C329.25,413.3 329.28,413.45 329.13,413.5C328.93,413.56 328.94,413.71 328.95,413.86C328.98,414.36 328.87,414.81 328.66,415.26C328.5,415.6 328.35,415.97 328.37,416.37C328.23,416.72 328.38,417.08 328.37,417.43C328.37,417.55 328.46,417.6 328.58,417.58C328.66,417.6 328.74,417.58 328.74,417.49C328.78,416.82 329.18,416.35 329.64,415.92C329.89,415.68 330.04,415.42 330.07,415.08C330.09,414.91 330.09,414.68 330.25,414.61C330.57,414.46 330.52,414.2 330.54,413.95C330.6,413.06 330.67,412.17 330.74,411.27C330.75,411.12 330.77,410.94 330.93,410.89C331.16,410.82 331.16,410.66 331.15,410.48C331.14,410.26 331.13,410.03 331.1,409.81C331.06,409.49 331.06,409.21 331.25,408.92C331.51,408.54 331.59,408.12 331.53,407.64C331.45,407 331.45,406.37 331.95,405.83C332.3,405.44 332.27,404.97 331.99,404.51C331.76,404.13 331.49,403.79 331.22,403.44C331.06,403.23 330.98,403.03 330.96,402.76C330.94,402.49 331.01,402.15 330.63,402.01C330.49,401.96 330.53,401.8 330.57,401.71C330.99,400.8 330.95,399.82 331.03,398.86C331.08,398.25 331.17,397.64 330.99,397.04C330.87,396.65 330.94,396.34 331.29,396.1C331.62,395.88 331.72,395.58 331.59,395.19C331.4,394.63 331.36,394.07 331.52,393.5C331.55,393.38 331.57,393.24 331.5,393.13C331.34,392.87 331.42,392.64 331.55,392.4C331.78,391.97 331.83,391.55 331.46,391.16C331.33,391.02 331.38,390.88 331.39,390.72C331.43,390.32 331.68,390 331.77,389.63C331.82,389.4 331.82,389.22 331.59,389.02C331.39,388.84 331.22,388.5 331.35,388.19C331.46,387.93 331.49,387.67 331.49,387.39C331.49,387.1 331.54,386.83 331.72,386.58C332.07,386.07 332.49,385.58 332.47,384.89C332.47,384.81 332.56,384.71 332.62,384.64C333.07,384.21 333.21,383.68 333.18,383.08C333.17,382.91 333.14,382.73 333.26,382.58C333.47,382.34 333.59,382.05 333.72,381.77C333.88,381.43 334.1,381.09 334.4,380.9C335.35,380.32 335.29,379.38 335.21,378.52C335.1,377.42 334.66,376.38 334.25,375.34C334.2,375.21 334.12,375.1 334.14,374.95C334.21,374.49 334.05,374.07 333.87,373.65C333.74,373.35 333.73,373.07 333.89,372.76C334.12,372.32 334.25,371.83 334.34,371.35C334.43,370.9 334.59,370.42 334.35,370C334.21,369.75 334.25,369.59 334.35,369.39C334.45,369.21 334.58,369.08 334.75,368.96C335.26,368.6 335.69,368.17 335.54,367.48C335.34,366.56 335.34,365.6 334.89,364.73C334.61,364.19 334.63,363.62 334.9,363.08C334.97,362.94 335.02,362.78 335.09,362.63C335.35,362.06 335.36,361.56 334.83,361.09C334.31,360.62 334.08,360.04 334.55,359.37C334.77,359.05 334.78,358.68 334.59,358.31C334.43,357.99 334.38,357.62 334.3,357.27C334.23,357.01 334.31,356.84 334.53,356.71C334.7,356.6 334.89,356.49 334.88,356.26C334.86,355.64 335.26,355.29 335.72,354.99C336.11,354.73 336.35,354.41 336.28,353.91C336.25,353.62 336.19,353.26 336.65,353.2C336.69,353.2 336.72,353.11 336.75,353.06C337.09,352.55 337.51,352.19 338.17,352.18C338.41,352.18 338.58,352.04 338.77,351.9C339.02,351.7 339.03,351.54 338.76,351.37C338.54,351.23 338.29,351.19 338.04,351.18C337.76,351.17 337.49,351.1 337.23,351.01C336.79,350.85 336.67,350.44 337,350.12C337.31,349.82 337.13,349.64 336.92,349.45C336.74,349.28 336.5,349.22 336.28,349.15C335.91,349.03 335.58,348.87 335.33,348.58C334.85,348.01 334.22,347.7 333.51,347.53C333.04,347.42 332.72,347.12 332.55,346.66C332.42,346.32 332.24,346.24 331.9,346.37C331.66,346.46 331.46,346.63 331.37,346.86C331.32,346.99 331.24,347.03 331.13,347.04C330.87,347.07 330.61,347.16 330.39,347.29C329.59,347.77 328.67,347.78 327.78,347.9C327.11,347.99 326.58,348.2 326.2,348.75C326.13,348.85 326.07,348.94 325.91,348.94C325.42,348.94 324.92,348.99 324.45,348.83C324.02,348.68 323.69,348.78 323.37,349.03C322.84,349.44 322.32,349.84 321.62,349.96C321.27,350.02 320.95,350.24 320.67,350.46C320.27,350.78 320.25,350.78 319.85,350.43C319.75,350.34 319.64,350.24 319.57,350.13C319.44,349.92 319.26,349.88 319.03,349.87C318.35,349.86 317.67,349.88 317,349.75C316.14,349.57 315.39,349.26 315.07,348.34C315.02,348.19 314.99,347.96 314.78,347.96C314.57,347.96 314.42,348.11 314.31,348.29C314.24,348.41 314.18,348.53 314.1,348.64C314,348.79 313.87,348.92 313.68,348.91C313.2,348.9 312.85,349.14 312.5,349.41C312.1,349.73 311.67,350 311.14,350.09C310.24,350.24 309.34,350.22 308.44,350.09C308.03,350.03 307.57,350.07 307.37,350.36C307.14,350.69 306.9,350.74 306.57,350.77C306.36,350.79 306.15,350.84 305.98,350.97C305.7,351.18 305.4,351.3 305.04,351.25C304.96,351.24 304.86,351.21 304.81,351.32L304.22,351.32C304.16,351.3 304.1,351.3 304.06,351.36C303.72,351.47 303.41,351.64 303.14,351.88C302.88,352.02 302.65,352.19 302.38,352.48C302.86,352.37 303.25,352.24 303.65,352.2C304.97,352.07 306.22,352.37 307.44,352.83C307.74,352.94 308.03,353 308.35,353.01C309.76,353.04 310.68,353.68 311.18,354.96C311.2,355 311.2,355.04 311.23,355.06C311.58,355.46 311.37,355.81 311.14,356.15C310.88,356.53 310.88,356.68 311.24,356.97C311.52,357.2 311.84,357.38 312.13,357.6C312.32,357.75 312.57,357.88 312.53,358.18C312.49,358.48 312.58,358.74 312.7,359.01C313,359.65 313.05,360.29 312.72,360.94C312.62,361.13 312.54,361.37 312.7,361.57C313.02,361.95 312.93,362.34 312.77,362.74C312.63,363.08 312.5,363.43 312.38,363.78C312.16,364.44 311.83,365.06 311.74,365.78C311.67,366.37 311.66,366.99 311.37,367.54C310.97,368.31 311.02,369.01 311.55,369.73C312.21,370.63 312.7,371.63 312.97,372.72C313.33,374.21 313.68,375.69 314.02,377.18C314.04,377.26 314.02,377.35 314,377.44C313.92,377.93 313.89,378.44 313.96,378.93C314.05,379.58 313.95,380.17 313.72,380.78C313.34,381.79 313.37,381.62 314.22,382.17C314.44,382.31 314.51,382.44 314.48,382.67C314.3,383.75 314.47,384.82 314.6,385.89C314.69,386.67 314.63,387.4 314.12,388.04C313.72,388.55 313.41,389.11 313.2,389.73C313.09,390.06 312.92,390.37 312.62,390.58C312.47,390.68 312.5,390.8 312.56,390.94C312.69,391.27 312.95,391.48 313.22,391.69C314.15,392.43 314.2,392.57 313.79,393.67C313.61,394.14 313.64,394.56 313.9,394.99C314.08,395.27 314.24,395.57 314.42,395.86C314.56,396.08 314.56,396.3 314.37,396.47C313.79,396.99 313.85,397.57 314.19,398.18C315.09,399.83 315.2,401.68 315.58,403.46C315.82,404.6 315.72,405.79 315.91,406.95C316.04,407.7 316.14,408.46 316.78,409C317.24,409.46 317.35,409.96 317.06,410.55C316.91,410.88 316.97,411.22 317.18,411.53C317.27,411.68 317.35,411.83 317.45,411.98C317.52,412.09 317.64,412.09 317.72,412.05C317.86,411.98 317.74,411.9 317.69,411.85C317.37,411.55 317.41,411.25 317.65,410.92C317.89,410.58 318.05,410.17 317.86,409.79C317.51,409.11 317.24,408.42 317.31,407.64C317.31,407.62 317.29,407.6 317.29,407.57C317.1,406.78 317.07,405.96 317.06,405.16C317.06,404.44 317.31,403.72 317.39,402.99C317.45,402.42 317.69,401.81 317.37,401.27C317.05,400.74 317.08,400.27 317.38,399.77C317.59,399.44 317.71,399.06 317.57,398.67C317.41,398.23 317.45,397.82 317.66,397.41C317.76,397.22 317.82,396.99 317.91,396.79C318.06,396.46 318.05,396.14 317.88,395.82C317.76,395.59 317.65,395.35 317.65,395.08C317.65,394.73 317.6,394.38 317.48,394.06C317.07,392.97 317.12,391.89 317.55,390.82C318.28,389 318.62,387.05 319.33,385.22C319.7,384.26 319.65,384.14 318.79,383.58C318.54,383.42 318.45,383.22 318.47,382.92C318.51,382.25 318.59,381.57 318.8,380.94C318.96,380.47 318.82,380.15 318.5,379.84C318.14,379.49 318.12,379.4 318.43,378.99C318.63,378.73 318.85,378.49 318.92,378.16C319.03,377.61 319.33,377.16 319.68,376.74C320.39,375.89 320.38,375.5 319.64,374.68C319.45,374.47 319.32,374.23 319.21,373.98C318.94,373.32 318.67,372.66 318.41,372C318.35,371.85 318.3,371.69 318.32,371.53C318.39,371.04 318.21,370.63 317.91,370.25C317.67,369.94 317.6,369.61 317.66,369.2C317.73,368.73 317.87,368.28 317.9,367.81C317.92,367.47 317.89,367.17 317.55,366.98C317.42,366.91 317.28,366.82 317.29,366.64C317.34,365.86 317.36,365.06 317.85,364.41C318.33,363.77 318.75,363.12 318.93,362.32C319.08,361.69 318.96,361.45 318.31,361.43C318.24,361.43 318.18,361.41 318.12,361.41C317.93,361.41 317.88,361.35 317.94,361.17C318.09,360.74 318.09,360.3 318.04,359.85C317.94,358.95 317.82,358.04 318.43,357.24C318.62,357.02 318.8,356.81 318.99,356.59C319.2,356.55 319.41,356.46 319.61,356.47C319.99,356.49 320.19,356.19 320.46,356.05C320.82,355.86 320.44,355.5 320.47,355.21C320.47,355.18 320.47,355.13 320.45,355.1C320.16,354.56 320.36,354.14 320.8,353.81C320.95,353.69 320.99,353.56 320.92,353.39C320.84,353.22 320.84,353.03 320.72,352.88C320.72,352.82 320.72,352.76 320.65,352.72M337.8,354.06C337.55,354.23 337.3,354.39 337,354.59C337.55,354.82 338.05,354.75 338.54,354.72C339.14,354.68 339.7,354.72 340.08,355.28C340.12,355.34 340.19,355.38 340.26,355.42C341.01,355.8 341.77,355.91 342.55,355.5C342.7,355.42 342.79,355.45 342.92,355.52C343.46,355.82 344.03,356.05 344.63,356.19C344.77,356.22 345.13,356.62 345.13,356.77C345.13,357.05 345.26,357.26 345.53,357.34C345.92,357.45 345.86,357.65 345.64,357.86C345.39,358.11 345.3,358.4 345.4,358.74C345.52,359.14 345.44,359.52 345.34,359.91C345.24,360.28 345.13,360.67 345.31,361.04C345.55,361.55 345.46,362.02 345.22,362.5C345.17,362.61 345.13,362.73 345.08,362.84C344.82,363.42 344.91,363.72 345.49,364.02C345.69,364.13 345.71,364.21 345.59,364.38C345.1,365.08 344.57,365.73 343.88,366.25C343.62,366.44 343.61,366.62 343.78,366.83C343.97,367.07 344.19,367.3 344.4,367.53C344.75,367.9 344.9,368.34 344.65,368.79C344.38,369.29 344.41,369.79 344.47,370.31C344.49,370.45 344.5,370.59 344.37,370.68C343.92,370.99 344.03,371.38 344.23,371.77C344.4,372.1 344.5,372.44 344.45,372.81C344.42,373.03 344.5,373.19 344.67,373.33C345.07,373.67 345.3,374.1 345.42,374.6C345.5,374.92 345.65,375.21 345.94,375.4C346.07,375.49 346.07,375.59 346.05,375.72C345.89,376.79 345.47,377.81 345.37,378.89C345.36,379 345.33,379.11 345.32,379.22C345.24,379.9 345.57,380.47 345.86,381.06C346.03,381.39 346.24,381.71 346.25,382.1C346.26,382.6 346.28,383.09 346.29,383.59C346.29,383.79 346.32,383.95 346.48,384.09C346.67,384.26 346.67,384.5 346.51,384.66C346.25,384.94 346.26,385.26 346.25,385.6C346.25,385.8 346.23,385.99 346.19,386.19C346.03,387 345.95,387.81 346.19,388.63C346.21,388.69 346.22,388.75 346.21,388.8C346.1,389.37 345.87,389.95 345.89,390.51C345.94,391.59 345.69,392.54 344.99,393.36C344.78,393.6 344.83,393.9 344.94,394.17C345.05,394.44 345.18,394.69 345.29,394.95C345.42,395.25 345.58,395.59 345.42,395.88C345.19,396.28 345.24,396.69 345.2,397.1C345.16,397.68 345,398.25 344.41,398.48C344.01,398.64 344.03,398.88 344.05,399.2C344.11,399.99 344.46,400.68 344.77,401.39C344.92,401.74 345.06,402.11 344.93,402.48C344.67,403.22 344.7,404.02 344.5,404.77C344.35,405.34 344.2,405.97 344.66,406.52C344.71,406.58 344.73,406.65 344.71,406.73C344.62,407.47 344.94,408.18 344.91,408.91C344.91,408.94 344.96,408.94 344.98,408.9C345.12,408.9 345.17,408.8 345.22,408.69C345.59,408.38 345.77,408.03 345.58,407.53C345.44,407.16 345.46,406.75 345.47,406.36C345.47,406.31 345.47,406.27 345.48,406.22C345.62,405.84 345.82,405.5 346.05,405.17C346.4,404.66 346.69,404.1 346.9,403.52C347.13,402.88 347.43,402.29 347.89,401.78C348.34,401.3 348.46,400.75 348.21,400.13C348.04,399.7 348.01,399.27 348.1,398.81C348.2,398.26 347.99,397.72 348.01,397.16C348.02,396.9 347.97,396.63 348.14,396.44C348.71,395.82 348.67,395.09 348.6,394.33C348.57,394.08 348.6,393.83 348.46,393.61C348.32,393.38 348.12,393.23 348.07,392.89C348,392.37 347.98,391.94 348.29,391.52C348.58,391.13 348.87,390.74 349.07,390.3C349.47,389.42 349.52,388.57 348.75,387.83C348.54,387.62 348.47,387.4 348.6,387.13C348.71,386.89 348.68,386.68 348.44,386.52C348.24,386.38 348.26,386.22 348.34,386.01C348.61,385.28 348.93,384.59 349.29,383.91C349.6,383.3 349.91,382.7 350.18,382.06C350.32,381.74 350.35,381.45 350.12,381.15C350.02,381.01 349.95,380.82 350.1,380.67C350.55,380.21 350.47,379.67 350.3,379.14C350.05,378.39 349.56,377.78 349.11,377.16C348.8,376.73 348.54,376.29 348.46,375.75C348.36,374.99 348.53,374.29 348.78,373.6C348.93,373.19 349.17,372.8 349.17,372.34C349.17,372.14 349.28,371.93 349.37,371.74C349.57,371.32 349.55,371.16 349.18,370.86C349.02,370.72 348.83,370.61 348.65,370.51C348.2,370.26 348.16,370.2 348.47,369.79C348.71,369.47 348.78,369.17 348.7,368.78C348.63,368.48 348.53,368.1 348.65,367.87C348.79,367.61 348.74,367.42 348.71,367.19C348.68,367.01 348.65,366.82 348.59,366.64C348.42,366.12 348.55,365.69 348.9,365.29C349.18,364.97 349.45,364.64 349.64,364.26C349.78,363.99 349.88,363.72 349.73,363.41C349.66,363.27 349.7,363.13 349.77,362.99C350.05,362.42 350.41,361.89 350.48,361.23C350.54,360.67 351,360.41 351.41,360.14C351.56,360.04 351.66,359.95 351.61,359.76C351.46,359.11 351.63,358.54 352.03,358.02C352.17,357.83 352.3,357.63 352.43,357.44C352.93,356.73 352.93,356.72 352.24,356.14C352.23,356.14 352.22,356.12 352.21,356.12C351.82,355.93 351.88,355.67 352.13,355.42C352.5,355.05 352.51,354.64 352.34,354.18C352.29,354.05 352.24,353.92 352.21,353.79C352.17,353.57 352.06,353.47 351.83,353.41C350.98,353.17 350.95,353.04 351.38,352.27C351.4,352.24 351.43,352.21 351.44,352.18C351.48,351.92 351.58,351.58 351.26,351.51C350.68,351.38 350.41,350.96 350.15,350.52C349.89,350.09 349.54,349.88 349.04,349.86C348.73,349.84 348.41,349.81 348.1,349.77C347.71,349.73 347.43,349.53 347.23,349.19C347.14,349.04 347.21,348.74 346.99,348.75C346.83,348.75 346.66,348.95 346.5,349.07C346.45,349.1 346.41,349.15 346.36,349.19C345.83,349.64 345.25,349.99 344.52,350C344.39,350 344.3,350.04 344.24,350.19C344.1,350.57 343.92,350.94 343.76,351.32C343.56,351.68 343.27,351.94 342.85,352.03C342.74,352.06 342.62,352.15 342.54,352.12C342.04,351.91 341.66,352.16 341.31,352.44C340.87,352.8 340.39,352.95 339.82,352.87C339.49,352.83 339.15,352.8 338.84,353C338.36,353.25 338.02,353.64 337.76,354.1" style="fill-rule:nonzero;"/>
            <path d="M328.6,417.62C328.47,417.65 328.39,417.59 328.39,417.47C328.39,417.11 328.25,416.76 328.39,416.41C328.42,416.51 328.36,416.63 328.47,416.75C328.47,416.47 328.49,416.23 328.6,416C328.93,415.31 329.16,414.58 329.34,413.83C329.53,413.05 329.75,412.22 329.5,411.48C329.21,410.64 329.28,409.76 328.99,408.92C328.84,408.49 328.73,408 328.56,407.57C328.31,406.94 328.27,406.35 328.64,405.76C328.84,405.45 328.83,405.11 328.75,404.79C328.68,404.48 328.58,404.17 328.54,403.85C328.43,403.04 328.19,402.24 328.41,401.42C328.63,400.6 328.49,399.76 328.64,398.93C328.85,397.85 328.55,396.74 328.48,395.65C328.42,394.81 328.29,393.98 328.32,393.13C328.32,392.91 328.43,392.71 328.38,392.47C328.27,391.97 328.11,391.49 327.88,391.03C327.69,390.66 327.58,390.26 327.6,389.85C327.65,388.87 328.01,387.96 328.39,387.08C328.82,386.07 329.16,385.05 329.34,383.97C329.48,383.13 329.57,382.28 329.98,381.51C330.41,380.69 330.45,379.83 330.18,378.96C329.87,377.93 329.75,376.84 329.31,375.84C329.23,375.66 329.2,375.46 329.2,375.26C329.15,374.05 329.38,372.87 329.62,371.69C329.78,370.9 329.88,370.13 329.65,369.31C329.39,368.41 329.19,367.49 329.2,366.53C329.21,366.05 329.17,365.56 329.05,365.09C328.72,363.82 328.66,362.56 328.98,361.27C329.13,360.67 329.08,360.01 328.66,359.48C328.17,358.86 328.16,358.15 328.27,357.45C328.43,356.38 328.35,355.32 328.19,354.27C328.04,353.27 327.4,352.54 326.68,351.88C326.3,351.53 325.76,351.25 325.27,351.38C324.49,351.6 323.77,351.38 323.02,351.3C322.24,351.22 321.5,351.3 320.88,351.83C320.55,352.09 320.44,352.4 320.64,352.79C319.97,352.49 320.05,352.65 319.75,353.15C319.68,353.28 319.65,353.43 319.6,353.57C319.3,354.5 319.34,355.51 318.98,356.43C318.95,356.49 318.98,356.58 318.98,356.65C318.79,356.87 318.61,357.08 318.42,357.3C317.63,357.48 317.24,358.08 316.98,358.74C316.53,359.89 316.65,361.05 317.05,362.2C317.19,362.59 317.31,362.98 317.29,363.39C317.27,363.91 317.06,364.37 316.82,364.83C316.28,365.81 316.03,366.84 316.26,367.97C316.4,368.64 316.47,369.31 316.46,370C316.46,370.27 316.49,370.55 316.56,370.81C316.96,372.44 317.45,374.04 318.22,375.55C318.51,376.11 318.66,376.73 318.38,377.35C318.17,377.83 317.92,378.28 317.72,378.76C317.41,379.49 317.17,380.22 317.28,381.04C317.35,381.57 317.36,382.12 317.32,382.66C317.28,383.24 317.31,383.79 317.53,384.33C317.87,385.17 318.03,386.01 317.72,386.9C317.5,387.53 317.32,388.17 317.14,388.81C316.88,389.73 316.62,390.65 316.41,391.57C316.25,392.25 316.07,392.94 316.07,393.65C316.06,394.48 316.25,395.3 316.38,396.11C316.52,397.04 316.43,397.94 316.34,398.85C316.24,399.89 316.08,400.93 316.17,401.97C316.31,403.56 316.35,405.16 316.51,406.75C316.58,407.43 316.67,408.12 317.09,408.69C317.79,409.65 317.6,410.6 317.17,411.57C316.96,411.26 316.9,410.91 317.05,410.59C317.33,409.99 317.22,409.49 316.77,409.04C316.78,408.94 316.77,408.85 316.72,408.75C316.2,407.72 316.18,406.6 316.08,405.49C316.01,404.73 315.94,403.96 315.85,403.2C315.75,402.43 315.59,401.66 315.51,400.89C315.42,399.99 315.23,399.11 315,398.23C314.88,397.75 314.75,397.28 314.87,396.77C314.99,396.26 314.99,395.74 314.76,395.21C314.5,394.62 314.41,393.98 314.56,393.31C314.61,393.07 314.69,392.82 314.63,392.55C314.49,391.89 314.14,391.37 313.63,390.93C313.47,390.8 313.33,390.62 313.46,390.45C313.71,390.09 313.85,389.67 314.07,389.3C314.69,388.23 315.31,387.15 315.27,385.83C315.24,384.9 315.12,383.98 315.14,383.04C315.15,382.56 315.09,382.04 314.78,381.62C314.62,381.41 314.57,381.17 314.6,380.91C314.69,380.09 314.81,379.27 314.86,378.44C314.95,377.11 314.88,375.79 314.58,374.48C314.17,372.69 313.65,370.95 312.65,369.38C312.22,368.7 311.98,368 312.12,367.13C312.33,365.84 312.55,364.58 313.13,363.39C313.43,362.78 313.65,362.1 313.47,361.38C313.43,361.21 313.45,361 313.5,360.82C313.81,359.73 313.55,358.68 313.23,357.65C312.96,356.79 312.44,356.01 312.24,355.11C312.1,354.5 311.82,353.93 311.43,353.44C310.9,352.77 310.11,352.61 309.33,352.45C308.62,352.31 307.9,352.22 307.19,352.12C305.98,351.94 304.76,351.73 303.54,351.99C303.4,352.02 303.27,351.99 303.14,351.91C303.41,351.67 303.72,351.51 304.06,351.39C304.16,351.53 304.2,351.46 304.22,351.35L304.81,351.35C304.92,351.48 305.07,351.44 305.2,351.43C306.21,351.39 307.22,351.3 308.23,351.3C309.63,351.3 310.95,351 312.24,350.49C313.12,350.14 314.02,350.06 314.93,350.46C315.24,350.59 315.56,350.72 315.89,350.79C317.06,351.01 318.2,351.33 319.3,351.77C319.8,351.97 320.3,352.1 320.68,351.55C320.72,351.48 320.82,351.45 320.9,351.41C321.63,351.04 322.41,350.85 323.19,350.61C323.74,350.44 324.31,350.38 324.86,350.21C326.15,349.84 327.37,349.23 328.71,349C329.29,348.91 329.86,348.7 330.44,348.7C331.15,348.7 331.82,348.91 332.46,349.3C333.82,350.12 334.46,351.34 334.51,352.85C334.55,353.94 334.16,354.96 333.71,355.95C333.42,356.58 333.1,357.21 333.08,357.92C333.03,359.42 332.98,360.92 333.51,362.38C333.74,362.99 333.63,363.62 333.57,364.26C333.46,365.29 333.86,366.26 334.03,367.26C334.16,368.04 334.12,368.78 333.73,369.5C333.46,369.99 333.29,370.52 333.18,371.07C333.07,371.64 333.03,372.22 332.9,372.79C332.69,373.68 332.62,374.58 332.86,375.51C333.1,376.45 333.4,377.37 333.66,378.3C333.98,379.42 333.95,380.49 333.32,381.49C333.08,381.87 332.8,382.21 332.57,382.6C332.18,383.28 331.97,384.03 331.69,384.76C331.36,385.62 330.98,386.47 330.61,387.32C330.35,387.91 330.25,388.54 330.25,389.16C330.25,389.9 330.36,390.64 330.32,391.39C330.28,392.08 330.28,392.77 330.23,393.45C330.17,394.15 330.23,394.85 330.25,395.55C330.25,395.66 330.23,395.77 330.22,395.88C330.14,396.81 329.87,397.73 329.88,398.68C329.88,399.6 329.68,400.5 329.62,401.41C329.55,402.46 329.58,403.49 330.1,404.46C330.39,405 330.59,405.6 330.55,406.21C330.51,406.83 330.3,407.45 330.2,408.06C330.06,408.9 329.87,409.75 329.91,410.6C329.94,411.35 329.95,412.08 329.86,412.83C329.73,413.82 329.51,414.78 329.09,415.69C328.81,416.3 328.68,416.93 328.63,417.59" style="fill:rgb(166,200,66);fill-rule:nonzero;"/>
            <path d="M328.6,417.62C328.65,416.96 328.78,416.33 329.06,415.72C329.48,414.81 329.7,413.85 329.83,412.86C329.93,412.12 329.91,411.38 329.88,410.63C329.85,409.78 330.03,408.93 330.17,408.09C330.27,407.47 330.48,406.86 330.52,406.24C330.56,405.63 330.37,405.03 330.07,404.49C329.54,403.52 329.52,402.49 329.59,401.44C329.65,400.53 329.86,399.63 329.85,398.71C329.84,397.76 330.11,396.85 330.19,395.91C330.2,395.8 330.22,395.69 330.22,395.58C330.22,394.88 330.15,394.17 330.2,393.48C330.26,392.79 330.26,392.1 330.29,391.42C330.33,390.67 330.22,389.93 330.22,389.19C330.22,388.57 330.32,387.94 330.58,387.35C330.95,386.5 331.33,385.65 331.66,384.79C331.94,384.07 332.15,383.32 332.54,382.63C332.76,382.24 333.05,381.89 333.29,381.52C333.92,380.52 333.95,379.45 333.63,378.33C333.37,377.4 333.07,376.48 332.83,375.54C332.6,374.61 332.66,373.72 332.87,372.82C333.01,372.25 333.04,371.67 333.15,371.1C333.26,370.55 333.43,370.02 333.7,369.53C334.09,368.82 334.13,368.07 334,367.29C333.83,366.29 333.43,365.32 333.54,364.29C333.61,363.66 333.71,363.03 333.48,362.41C332.95,360.96 333,359.46 333.05,357.95C333.07,357.24 333.39,356.61 333.68,355.98C334.13,354.99 334.52,353.97 334.48,352.88C334.43,351.37 333.79,350.15 332.43,349.33C331.79,348.94 331.12,348.73 330.41,348.73C329.83,348.73 329.26,348.93 328.68,349.03C327.34,349.25 326.12,349.87 324.83,350.24C324.28,350.4 323.7,350.47 323.16,350.64C322.39,350.87 321.6,351.07 320.87,351.44C320.79,351.48 320.7,351.51 320.65,351.58C320.27,352.13 319.77,352 319.27,351.8C318.16,351.36 317.03,351.04 315.86,350.82C315.53,350.76 315.21,350.63 314.9,350.49C313.99,350.09 313.09,350.17 312.21,350.52C310.92,351.03 309.6,351.32 308.2,351.33C307.19,351.33 306.18,351.42 305.17,351.46C305.04,351.46 304.89,351.5 304.78,351.38C304.83,351.28 304.93,351.31 305.01,351.32C305.37,351.37 305.68,351.26 305.95,351.04C306.12,350.91 306.33,350.85 306.54,350.83C306.87,350.8 307.11,350.75 307.34,350.42C307.54,350.13 308,350.08 308.41,350.14C309.31,350.28 310.21,350.3 311.11,350.14C311.63,350.05 312.06,349.78 312.47,349.46C312.82,349.19 313.17,348.94 313.65,348.96C313.84,348.96 313.97,348.83 314.07,348.69C314.15,348.58 314.21,348.46 314.28,348.34C314.38,348.16 314.54,348 314.75,348.01C314.97,348.01 314.99,348.24 315.04,348.4C315.36,349.31 316.11,349.63 316.97,349.81C317.64,349.95 318.32,349.92 319,349.93C319.23,349.93 319.41,349.98 319.54,350.19C319.61,350.3 319.72,350.4 319.82,350.49C320.22,350.84 320.24,350.84 320.64,350.52C320.93,350.29 321.24,350.08 321.59,350.02C322.29,349.9 322.81,349.5 323.34,349.09C323.67,348.84 324,348.74 324.42,348.89C324.89,349.05 325.39,348.99 325.88,349C326.04,349 326.1,348.91 326.17,348.81C326.55,348.26 327.09,348.05 327.75,347.96C328.63,347.84 329.55,347.83 330.36,347.35C330.58,347.22 330.84,347.14 331.11,347.1C331.22,347.08 331.3,347.05 331.35,346.92C331.45,346.69 331.64,346.52 331.88,346.43C332.23,346.3 332.41,346.37 332.53,346.71C332.7,347.17 333.01,347.47 333.49,347.58C334.21,347.75 334.83,348.06 335.31,348.62C335.56,348.92 335.89,349.08 336.26,349.19C336.48,349.26 336.72,349.33 336.9,349.49C337.11,349.68 337.29,349.86 336.98,350.16C336.65,350.48 336.77,350.89 337.21,351.05C337.47,351.14 337.74,351.21 338.02,351.22C338.27,351.22 338.52,351.28 338.74,351.41C339.01,351.58 339,351.74 338.75,351.94C338.57,352.08 338.39,352.22 338.15,352.22C337.5,352.23 337.06,352.6 336.73,353.1C336.7,353.15 336.67,353.24 336.63,353.24C336.17,353.31 336.22,353.66 336.26,353.95C336.32,354.46 336.08,354.77 335.7,355.03C335.25,355.34 334.84,355.68 334.86,356.3C334.86,356.53 334.68,356.64 334.51,356.75C334.29,356.89 334.21,357.05 334.28,357.31C334.37,357.66 334.41,358.03 334.57,358.35C334.76,358.73 334.76,359.09 334.53,359.41C334.07,360.08 334.29,360.66 334.81,361.13C335.34,361.61 335.33,362.1 335.07,362.68C335,362.82 334.96,362.98 334.88,363.12C334.6,363.67 334.59,364.23 334.87,364.77C335.32,365.64 335.31,366.6 335.51,367.52C335.66,368.21 335.23,368.64 334.72,369C334.55,369.12 334.41,369.25 334.32,369.43C334.21,369.63 334.18,369.79 334.32,370.03C334.56,370.45 334.4,370.94 334.32,371.38C334.22,371.87 334.1,372.35 333.86,372.79C333.7,373.1 333.71,373.38 333.84,373.68C334.02,374.09 334.17,374.51 334.11,374.98C334.09,375.12 334.17,375.24 334.22,375.37C334.63,376.4 335.07,377.45 335.18,378.54C335.27,379.4 335.33,380.34 334.37,380.92C334.07,381.1 333.85,381.44 333.69,381.79C333.56,382.07 333.44,382.36 333.23,382.6C333.1,382.74 333.13,382.93 333.15,383.1C333.19,383.7 333.04,384.23 332.6,384.66C332.53,384.73 332.44,384.83 332.44,384.91C332.46,385.59 332.04,386.08 331.69,386.6C331.52,386.85 331.46,387.11 331.46,387.41C331.46,387.68 331.44,387.94 331.33,388.21C331.19,388.53 331.36,388.87 331.56,389.05C331.79,389.26 331.79,389.43 331.74,389.66C331.65,390.03 331.4,390.35 331.36,390.75C331.34,390.92 331.3,391.06 331.43,391.19C331.8,391.58 331.75,392.01 331.52,392.43C331.39,392.67 331.31,392.9 331.47,393.16C331.54,393.27 331.52,393.4 331.49,393.52C331.33,394.09 331.38,394.66 331.56,395.21C331.69,395.6 331.59,395.9 331.26,396.12C330.9,396.36 330.84,396.66 330.96,397.06C331.14,397.66 331.05,398.27 331,398.88C330.92,399.84 330.96,400.82 330.54,401.73C330.5,401.82 330.46,401.98 330.6,402.03C330.98,402.17 330.92,402.51 330.93,402.78C330.95,403.04 331.03,403.25 331.19,403.46C331.46,403.8 331.73,404.15 331.96,404.52C332.24,404.98 332.27,405.45 331.92,405.84C331.42,406.38 331.42,407.01 331.5,407.65C331.56,408.12 331.48,408.55 331.22,408.93C331.03,409.21 331.03,409.5 331.07,409.82C331.1,410.04 331.11,410.26 331.12,410.49C331.13,410.67 331.12,410.83 330.9,410.9C330.74,410.95 330.72,411.13 330.71,411.27C330.64,412.16 330.58,413.06 330.51,413.95C330.49,414.2 330.54,414.46 330.22,414.6C330.07,414.67 330.06,414.9 330.04,415.07C330.01,415.41 329.86,415.67 329.61,415.91C329.15,416.34 328.75,416.81 328.71,417.48C328.71,417.58 328.63,417.59 328.55,417.57" style="fill:rgb(106,181,71);fill-rule:nonzero;"/>
            <path d="M345.49,406.23C345.49,406.23 345.49,406.32 345.48,406.37C345.38,406.46 345.37,406.58 345.34,406.7C345.16,407.36 345.2,408.03 345.24,408.7C345.19,408.81 345.14,408.9 345,408.91C345.03,408.75 345.12,408.6 345.08,408.44C344.91,407.77 345.02,407.08 344.95,406.4C344.88,405.71 344.95,405.05 345.06,404.37C345.24,403.32 345.55,402.29 345.52,401.22C345.51,400.81 345.46,400.4 345.39,400C345.25,399.17 345.44,398.39 345.67,397.6C346.01,396.41 346.17,395.2 345.83,393.95C345.75,393.64 345.75,393.27 345.89,392.96C346.47,391.65 346.66,390.26 346.73,388.85C346.75,388.46 346.7,388.05 346.71,387.66C346.74,386.74 346.91,385.82 347.06,384.91C347.19,384.09 347.17,383.25 347.13,382.42C347.1,381.75 347.02,381.07 346.77,380.42C346.27,379.13 346.18,377.8 346.45,376.45C346.56,375.87 346.49,375.3 346.43,374.72C346.31,373.61 346.03,372.56 345.6,371.53C345.32,370.85 345.26,370.13 345.31,369.41C345.35,368.87 345.48,368.35 345.41,367.8C345.33,367.27 345.12,366.86 344.61,366.63C344.34,366.51 344.31,366.37 344.53,366.16C344.87,365.82 345.24,365.5 345.56,365.14C346.04,364.58 346.25,364 345.89,363.3C345.77,363.06 345.79,362.82 345.84,362.58C345.94,362.15 346.08,361.71 346.04,361.27C345.99,360.7 345.89,360.14 346.02,359.58C346.16,358.92 346.02,358.24 346.21,357.59C346.29,357.32 346.2,357.11 346.06,356.9C345.58,356.17 345.1,355.46 344.14,355.29C344.1,355.29 344.06,355.24 344.01,355.22C343.5,354.99 342.98,354.81 342.42,354.9C341.95,354.98 341.5,354.94 341.05,354.81C340.65,354.69 340.27,354.56 339.89,354.39C339.4,354.17 338.85,354.29 338.32,354.26C338.13,354.25 337.94,354.26 337.81,354.09C338.07,353.63 338.41,353.24 338.89,352.99C338.8,353.52 338.8,353.53 339.37,353.53C340.43,353.53 341.41,353.22 342.31,352.69C342.57,352.54 342.85,352.37 342.9,352.02C343.32,351.93 343.61,351.68 343.81,351.31C344.02,351.35 344.2,351.3 344.39,351.21C344.85,350.99 345.37,350.91 345.85,350.95C346.99,351.06 347.91,351.59 348.52,352.6C349.13,353.61 349.63,354.66 349.97,355.79C350.17,356.43 350.22,357.09 350.22,357.76C350.22,358.36 350.07,358.91 349.89,359.46C349.71,360.01 349.52,360.56 349.29,361.09C348.86,362.08 348.51,363.09 348.27,364.14C348.16,364.63 348.04,365.13 347.87,365.61C347.62,366.32 347.37,367.04 347.38,367.8C347.39,368.46 347.25,369.1 347.29,369.76C347.32,370.29 347.32,370.82 347.48,371.32C347.87,372.52 347.79,373.71 347.57,374.91C347.42,375.76 347.5,376.61 347.72,377.45C347.87,378.03 348.16,378.55 348.36,379.11C348.74,380.12 348.76,381.13 348.63,382.2C348.48,383.43 348.13,384.62 347.95,385.84C347.84,386.61 347.66,387.37 347.67,388.15C347.67,388.81 347.73,389.47 347.74,390.13C347.74,390.79 347.53,391.36 347.32,391.95C347.17,392.38 346.96,392.82 346.99,393.27C347.07,394.41 347.26,395.55 347.06,396.7C346.88,397.77 346.81,398.86 346.73,399.95C346.69,400.47 346.73,401.01 346.56,401.53C346.14,402.82 345.63,404.09 345.48,405.45C345.45,405.71 345.3,405.98 345.5,406.23" style="fill:rgb(166,200,66);fill-rule:nonzero;"/>
            <path d="M345.49,406.23C345.29,405.97 345.45,405.7 345.47,405.45C345.62,404.09 346.13,402.82 346.55,401.53C346.72,401.01 346.69,400.47 346.72,399.95C346.8,398.87 346.87,397.77 347.05,396.7C347.25,395.54 347.05,394.41 346.98,393.27C346.95,392.81 347.15,392.38 347.31,391.95C347.52,391.36 347.74,390.79 347.73,390.13C347.73,389.47 347.67,388.81 347.66,388.15C347.66,387.36 347.83,386.6 347.94,385.84C348.12,384.62 348.48,383.43 348.62,382.2C348.75,381.13 348.73,380.12 348.35,379.11C348.14,378.55 347.85,378.03 347.71,377.45C347.5,376.61 347.42,375.75 347.56,374.91C347.77,373.7 347.85,372.51 347.47,371.32C347.31,370.82 347.31,370.29 347.28,369.76C347.24,369.09 347.38,368.45 347.37,367.8C347.36,367.04 347.61,366.32 347.86,365.61C348.03,365.13 348.15,364.64 348.26,364.14C348.49,363.09 348.85,362.08 349.28,361.09C349.51,360.56 349.69,360.01 349.88,359.46C350.06,358.9 350.21,358.35 350.21,357.76C350.21,357.09 350.16,356.43 349.96,355.79C349.62,354.67 349.12,353.61 348.51,352.6C347.9,351.59 346.98,351.05 345.84,350.95C345.36,350.9 344.84,350.98 344.38,351.21C344.19,351.3 344.01,351.35 343.8,351.31C343.96,350.94 344.13,350.56 344.28,350.18C344.34,350.03 344.44,349.99 344.56,349.99C345.29,349.98 345.87,349.63 346.4,349.18C346.45,349.14 346.49,349.09 346.54,349.06C346.7,348.94 346.87,348.74 347.03,348.74C347.24,348.74 347.18,349.03 347.26,349.19C347.46,349.53 347.74,349.73 348.13,349.77C348.44,349.8 348.75,349.84 349.07,349.86C349.56,349.88 349.92,350.09 350.18,350.52C350.44,350.96 350.71,351.38 351.29,351.51C351.61,351.58 351.51,351.93 351.47,352.18C351.47,352.21 351.43,352.24 351.41,352.27C350.97,353.04 351.01,353.16 351.86,353.41C352.09,353.48 352.19,353.58 352.24,353.79C352.27,353.92 352.32,354.05 352.37,354.18C352.54,354.64 352.53,355.05 352.16,355.42C351.91,355.67 351.85,355.93 352.24,356.12C352.25,356.12 352.26,356.14 352.27,356.14C352.95,356.72 352.95,356.73 352.46,357.44C352.32,357.63 352.2,357.84 352.06,358.02C351.66,358.54 351.49,359.11 351.64,359.76C351.68,359.95 351.59,360.04 351.44,360.14C351.03,360.42 350.57,360.67 350.51,361.23C350.44,361.89 350.08,362.43 349.8,362.99C349.73,363.13 349.69,363.27 349.76,363.41C349.91,363.72 349.81,363.99 349.67,364.26C349.48,364.64 349.21,364.97 348.93,365.29C348.59,365.69 348.45,366.12 348.62,366.64C348.68,366.81 348.71,367 348.74,367.18C348.77,367.41 348.82,367.6 348.68,367.86C348.55,368.09 348.66,368.47 348.73,368.77C348.81,369.15 348.74,369.46 348.5,369.78C348.19,370.19 348.23,370.25 348.68,370.5C348.87,370.6 349.05,370.71 349.21,370.85C349.58,371.15 349.59,371.32 349.4,371.73C349.31,371.92 349.2,372.13 349.2,372.33C349.2,372.8 348.96,373.18 348.81,373.59C348.56,374.28 348.38,374.98 348.49,375.74C348.57,376.28 348.82,376.72 349.14,377.15C349.6,377.78 350.09,378.39 350.33,379.13C350.5,379.67 350.59,380.2 350.13,380.66C349.98,380.82 350.05,381 350.15,381.14C350.37,381.44 350.34,381.72 350.21,382.05C349.95,382.68 349.64,383.29 349.32,383.9C348.97,384.58 348.64,385.28 348.37,386C348.29,386.22 348.27,386.38 348.47,386.52C348.71,386.68 348.74,386.89 348.63,387.13C348.5,387.41 348.57,387.63 348.78,387.83C349.55,388.57 349.5,389.42 349.1,390.3C348.9,390.74 348.61,391.13 348.32,391.52C348,391.94 348.02,392.37 348.1,392.89C348.15,393.24 348.35,393.38 348.49,393.61C348.63,393.83 348.6,394.09 348.63,394.33C348.7,395.08 348.74,395.82 348.17,396.44C348,396.62 348.05,396.9 348.04,397.16C348.02,397.72 348.23,398.26 348.13,398.81C348.05,399.27 348.07,399.7 348.24,400.13C348.49,400.75 348.37,401.3 347.92,401.78C347.45,402.28 347.16,402.88 346.93,403.52C346.72,404.1 346.44,404.66 346.08,405.17C345.85,405.5 345.64,405.84 345.51,406.22" style="fill:rgb(106,181,71);fill-rule:nonzero;"/>
            <path d="M317.16,411.58C317.59,410.61 317.78,409.66 317.08,408.7C316.66,408.13 316.57,407.44 316.5,406.75C316.34,405.16 316.29,403.57 316.16,401.97C316.07,400.94 316.23,399.89 316.33,398.85C316.42,397.94 316.51,397.04 316.37,396.11C316.24,395.29 316.05,394.48 316.06,393.65C316.06,392.94 316.25,392.25 316.4,391.57C316.61,390.64 316.87,389.72 317.13,388.81C317.31,388.17 317.49,387.52 317.71,386.9C318.02,386.01 317.87,385.16 317.52,384.33C317.3,383.79 317.27,383.24 317.31,382.66C317.35,382.13 317.34,381.58 317.27,381.04C317.16,380.22 317.4,379.48 317.71,378.76C317.91,378.28 318.16,377.82 318.37,377.35C318.64,376.73 318.49,376.11 318.2,375.55C317.43,374.04 316.94,372.44 316.54,370.81C316.48,370.55 316.44,370.27 316.44,370C316.44,369.32 316.38,368.64 316.24,367.97C316.01,366.84 316.25,365.81 316.8,364.83C317.05,364.38 317.26,363.91 317.27,363.4C317.29,362.99 317.17,362.6 317.03,362.21C316.62,361.06 316.5,359.9 316.95,358.75C317.21,358.09 317.6,357.49 318.39,357.31C317.78,358.11 317.91,359.02 318,359.92C318.05,360.38 318.06,360.82 317.91,361.25C317.84,361.44 317.9,361.5 318.08,361.49C318.14,361.49 318.21,361.51 318.27,361.51C318.92,361.53 319.04,361.77 318.89,362.4C318.7,363.2 318.29,363.85 317.8,364.49C317.31,365.14 317.29,365.94 317.24,366.72C317.23,366.9 317.37,366.99 317.5,367.06C317.84,367.25 317.87,367.55 317.85,367.89C317.82,368.36 317.68,368.81 317.62,369.28C317.56,369.69 317.63,370.03 317.87,370.33C318.17,370.71 318.35,371.11 318.28,371.61C318.26,371.77 318.31,371.93 318.37,372.08C318.63,372.74 318.9,373.4 319.17,374.06C319.27,374.31 319.4,374.55 319.59,374.76C320.34,375.58 320.34,375.97 319.63,376.81C319.28,377.23 318.98,377.68 318.87,378.23C318.8,378.56 318.58,378.8 318.38,379.06C318.07,379.47 318.08,379.56 318.44,379.91C318.76,380.22 318.9,380.53 318.74,381.01C318.53,381.64 318.45,382.32 318.41,382.99C318.39,383.29 318.49,383.49 318.73,383.65C319.59,384.21 319.64,384.33 319.27,385.29C318.57,387.13 318.22,389.07 317.49,390.89C317.06,391.96 317.01,393.04 317.42,394.13C317.55,394.46 317.6,394.81 317.59,395.16C317.59,395.44 317.7,395.67 317.82,395.9C317.99,396.22 318,396.54 317.85,396.87C317.76,397.07 317.7,397.29 317.59,397.49C317.38,397.9 317.33,398.3 317.5,398.74C317.65,399.13 317.52,399.51 317.31,399.84C317,400.34 316.98,400.8 317.3,401.34C317.62,401.88 317.38,402.49 317.32,403.06C317.24,403.79 316.99,404.51 316.99,405.23C316.99,406.03 317.03,406.85 317.22,407.64C317.22,407.66 317.25,407.69 317.24,407.71C317.17,408.49 317.44,409.18 317.79,409.86C317.98,410.24 317.82,410.65 317.58,410.99C317.35,411.32 317.3,411.61 317.62,411.92C317.67,411.96 317.79,412.05 317.65,412.12C317.57,412.16 317.45,412.16 317.38,412.05C317.29,411.9 317.2,411.75 317.11,411.6" style="fill:rgb(106,181,71);fill-rule:nonzero;"/>
            <path d="M320.86,351.86C321.48,351.34 322.22,351.25 323,351.33C323.75,351.41 324.47,351.63 325.25,351.41C325.74,351.27 326.27,351.55 326.66,351.91C327.38,352.56 328.02,353.3 328.17,354.3C328.33,355.35 328.4,356.41 328.25,357.48C328.15,358.18 328.15,358.89 328.65,359.51C329.07,360.04 329.12,360.7 328.97,361.3C328.64,362.59 328.71,363.84 329.04,365.12C329.16,365.58 329.2,366.08 329.19,366.56C329.17,367.52 329.38,368.44 329.63,369.34C329.86,370.16 329.77,370.93 329.61,371.72C329.36,372.9 329.14,374.07 329.18,375.29C329.18,375.49 329.22,375.69 329.29,375.87C329.73,376.87 329.85,377.95 330.17,378.99C330.43,379.86 330.39,380.73 329.96,381.54C329.55,382.31 329.46,383.16 329.32,384C329.15,385.08 328.8,386.1 328.37,387.11C327.99,387.99 327.64,388.9 327.58,389.88C327.56,390.29 327.67,390.69 327.86,391.06C328.09,391.52 328.25,391.99 328.36,392.5C328.41,392.74 328.31,392.94 328.3,393.16C328.27,394.01 328.4,394.84 328.46,395.68C328.54,396.77 328.83,397.88 328.62,398.96C328.46,399.79 328.61,400.63 328.39,401.44C328.17,402.25 328.41,403.06 328.52,403.87C328.56,404.19 328.66,404.5 328.73,404.81C328.81,405.14 328.82,405.48 328.62,405.78C328.25,406.36 328.29,406.96 328.54,407.59C328.72,408.03 328.82,408.51 328.97,408.94C329.26,409.78 329.19,410.66 329.48,411.5C329.74,412.23 329.51,413.07 329.33,413.85C329.15,414.6 328.93,415.32 328.59,416.02C328.48,416.25 328.47,416.5 328.46,416.77C328.35,416.65 328.42,416.53 328.38,416.43C328.36,416.03 328.51,415.67 328.67,415.32C328.88,414.87 329,414.42 328.96,413.92C328.95,413.77 328.94,413.63 329.14,413.56C329.29,413.51 329.26,413.36 329.27,413.24C329.28,412.77 329.29,412.29 329.29,411.82C329.29,411.58 329.4,411.29 329.02,411.19C328.95,411.17 328.92,411 328.89,410.9C328.78,410.43 328.73,409.94 328.64,409.47C328.56,409.06 328.46,408.59 328.06,408.33C327.52,407.98 327.44,407.43 327.33,406.88C327.3,406.69 327.44,406.58 327.54,406.46C327.8,406.12 328.12,405.81 328.24,405.37C328.28,405.23 328.32,405.11 328.15,405.03C328.1,405 328.04,404.94 328.04,404.89C328.04,404.35 327.78,403.85 327.76,403.32C327.74,402.91 327.8,402.51 327.61,402.11C327.49,401.86 327.58,401.6 327.76,401.38C328.03,401.06 328.09,400.73 327.81,400.37C327.64,400.14 327.7,399.88 327.79,399.62C328,399.03 328.15,398.43 327.85,397.81C327.83,397.78 327.84,397.73 327.82,397.7C327.18,396.99 327.39,396.11 327.35,395.3C327.31,394.44 327.43,393.59 327.71,392.77C327.73,392.71 327.8,392.65 327.74,392.6C327.37,392.27 327.38,391.72 326.99,391.37C326.61,391.03 326.4,390.56 326.36,390.05C326.35,389.91 326.33,389.78 326.43,389.66C326.88,389.08 327.01,388.35 327.38,387.73C327.49,387.55 327.43,387.34 327.44,387.14C327.44,386.92 327.47,386.69 327.67,386.58C328.19,386.3 328.26,385.83 328.3,385.32C328.32,385.05 328.3,384.75 328.4,384.51C328.82,383.51 328.56,382.32 329.34,381.41C329.74,380.94 329.77,380.33 329.55,379.71C329.32,379.04 329.15,378.35 328.96,377.67C328.96,377.66 328.95,377.65 328.95,377.64C328.97,377.11 328.85,376.66 328.35,376.35C328.22,376.27 328.23,376.06 328.28,375.9C328.45,375.37 328.5,374.83 328.41,374.26C328.33,373.78 328.61,373.32 328.65,372.84C328.71,372.07 329.02,371.35 329.05,370.57C329.06,370.2 328.98,369.87 328.66,369.7C327.81,369.21 327.88,368.49 328.07,367.72C328.18,367.24 328.32,366.76 328.3,366.25C328.3,366.08 328.3,365.9 328.19,365.75C328.15,365.7 328.08,365.64 328.15,365.59C328.47,365.36 328.25,365.12 328.16,364.9C327.8,363.94 327.74,362.99 328.15,362.03C328.3,361.69 328.41,361.34 328.48,360.97C328.55,360.56 328.38,360.27 328.06,360.04C327.91,359.93 327.75,359.83 327.57,359.75C326.95,359.48 326.84,358.8 326.85,358.27C326.85,358.06 326.99,358.11 327.11,358.11C327.44,358.11 327.58,357.95 327.49,357.67C327.32,357.16 327.43,356.66 327.45,356.15C327.46,355.94 327.48,355.73 327.53,355.52C327.6,355.24 327.6,355.01 327.25,354.92C327.17,354.9 327.08,354.83 327.09,354.74C327.09,354.6 327.24,354.62 327.32,354.62C327.48,354.62 327.53,354.53 327.57,354.39C327.62,354.24 327.53,354.2 327.43,354.13C326.96,353.79 326.71,353.27 326.38,352.82C326.08,352.4 325.71,352.08 325.19,351.97C325,351.93 324.84,351.91 324.79,352.16C324.75,352.34 324.63,352.28 324.5,352.25C323.98,352.12 323.51,351.84 322.97,351.72C322.39,351.59 321.84,351.71 321.29,351.88C321.15,351.92 321.02,351.91 320.89,351.92" style="fill:rgb(224,229,111);fill-rule:nonzero;"/>
            <path d="M303.1,351.92C303.22,351.99 303.36,352.03 303.5,352C304.73,351.74 305.94,351.95 307.15,352.13C307.86,352.24 308.58,352.32 309.29,352.46C310.06,352.62 310.86,352.78 311.39,353.45C311.78,353.95 312.06,354.51 312.2,355.12C312.4,356.02 312.92,356.79 313.19,357.66C313.51,358.69 313.77,359.74 313.46,360.83C313.41,361.01 313.39,361.21 313.43,361.39C313.6,362.12 313.39,362.79 313.09,363.4C312.51,364.59 312.29,365.85 312.08,367.14C311.94,368.01 312.18,368.71 312.61,369.39C313.61,370.96 314.13,372.7 314.54,374.49C314.84,375.8 314.92,377.12 314.83,378.45C314.77,379.27 314.65,380.1 314.56,380.92C314.53,381.18 314.59,381.42 314.74,381.63C315.05,382.06 315.12,382.57 315.11,383.05C315.08,383.98 315.21,384.91 315.24,385.84C315.28,387.16 314.66,388.23 314.04,389.31C313.82,389.69 313.69,390.1 313.43,390.46C313.31,390.64 313.45,390.81 313.6,390.94C314.11,391.37 314.46,391.89 314.6,392.56C314.66,392.83 314.58,393.09 314.53,393.32C314.38,393.98 314.47,394.62 314.73,395.21C314.96,395.74 314.96,396.26 314.84,396.77C314.72,397.29 314.84,397.75 314.97,398.23C315.19,399.11 315.38,399.99 315.48,400.89C315.56,401.66 315.73,402.43 315.82,403.2C315.92,403.96 315.99,404.72 316.05,405.49C316.15,406.6 316.17,407.72 316.69,408.75C316.74,408.84 316.75,408.94 316.74,409.04C316.11,408.5 316,407.73 315.87,406.99C315.68,405.83 315.78,404.64 315.54,403.5C315.16,401.72 315.05,399.87 314.15,398.23C313.81,397.61 313.75,397.04 314.33,396.52C314.52,396.35 314.52,396.13 314.38,395.91C314.2,395.62 314.04,395.33 313.86,395.04C313.59,394.62 313.57,394.19 313.74,393.73C314.15,392.63 314.11,392.49 313.17,391.75C312.9,391.54 312.64,391.32 312.51,391C312.46,390.86 312.42,390.74 312.57,390.64C312.87,390.43 313.04,390.13 313.15,389.79C313.36,389.17 313.67,388.61 314.07,388.1C314.57,387.45 314.64,386.72 314.55,385.94C314.42,384.87 314.25,383.8 314.43,382.72C314.47,382.49 314.39,382.36 314.17,382.22C313.32,381.67 313.29,381.84 313.67,380.82C313.9,380.21 314,379.62 313.91,378.97C313.84,378.48 313.87,377.98 313.95,377.48C313.96,377.4 313.98,377.31 313.97,377.22C313.62,375.73 313.27,374.24 312.91,372.76C312.65,371.67 312.16,370.67 311.5,369.77C310.98,369.06 310.92,368.35 311.32,367.58C311.6,367.03 311.61,366.41 311.69,365.82C311.78,365.1 312.1,364.48 312.32,363.82C312.44,363.47 312.57,363.12 312.71,362.78C312.87,362.38 312.96,361.99 312.64,361.61C312.48,361.41 312.55,361.17 312.66,360.98C313,360.33 312.94,359.69 312.64,359.05C312.51,358.79 312.43,358.52 312.47,358.22C312.51,357.92 312.26,357.79 312.07,357.64C311.78,357.42 311.46,357.24 311.18,357.01C310.82,356.72 310.82,356.57 311.07,356.19C311.3,355.85 311.51,355.5 311.16,355.1C311.14,355.07 311.13,355.03 311.11,355C310.61,353.72 309.68,353.08 308.28,353.05C307.96,353.05 307.67,352.99 307.37,352.87C306.15,352.41 304.9,352.11 303.58,352.25C303.17,352.29 302.79,352.42 302.31,352.53C302.57,352.25 302.81,352.08 303.07,351.93" style="fill:rgb(224,229,111);fill-rule:nonzero;"/>
            <path d="M337.8,354.06C337.93,354.23 338.13,354.22 338.31,354.23C338.83,354.26 339.38,354.14 339.88,354.36C340.26,354.53 340.64,354.66 341.04,354.78C341.49,354.91 341.94,354.95 342.41,354.87C342.97,354.78 343.5,354.96 344,355.19C344.05,355.21 344.08,355.25 344.13,355.26C345.08,355.43 345.57,356.14 346.04,356.87C346.18,357.08 346.27,357.29 346.19,357.56C346,358.21 346.14,358.9 346,359.55C345.87,360.11 345.97,360.67 346.02,361.24C346.06,361.68 345.92,362.12 345.82,362.55C345.76,362.8 345.74,363.04 345.87,363.27C346.23,363.97 346.02,364.55 345.54,365.11C345.22,365.48 344.86,365.79 344.51,366.13C344.29,366.35 344.32,366.48 344.59,366.6C345.1,366.83 345.31,367.24 345.39,367.77C345.47,368.32 345.33,368.84 345.29,369.38C345.24,370.1 345.29,370.83 345.58,371.5C346.01,372.53 346.29,373.58 346.41,374.69C346.47,375.27 346.55,375.84 346.43,376.42C346.16,377.77 346.25,379.1 346.75,380.39C347,381.04 347.08,381.72 347.11,382.39C347.15,383.22 347.17,384.06 347.03,384.88C346.88,385.79 346.72,386.71 346.69,387.63C346.68,388.02 346.72,388.42 346.71,388.82C346.64,390.23 346.45,391.62 345.87,392.93C345.73,393.24 345.73,393.61 345.81,393.92C346.15,395.16 345.99,396.37 345.65,397.57C345.42,398.36 345.22,399.14 345.37,399.97C345.44,400.37 345.48,400.78 345.5,401.19C345.53,402.26 345.23,403.29 345.04,404.34C344.92,405.01 344.86,405.68 344.93,406.37C345,407.04 344.89,407.73 345.06,408.41C345.1,408.57 345.01,408.72 344.98,408.88C344.96,408.92 344.91,408.92 344.91,408.89C344.94,408.16 344.62,407.45 344.71,406.71C344.72,406.63 344.71,406.56 344.66,406.5C344.2,405.95 344.35,405.33 344.5,404.75C344.7,403.99 344.67,403.2 344.93,402.46C345.06,402.1 344.93,401.73 344.77,401.37C344.47,400.66 344.11,399.97 344.05,399.18C344.03,398.86 344.01,398.62 344.41,398.46C345,398.22 345.15,397.66 345.2,397.08C345.23,396.67 345.19,396.25 345.42,395.86C345.58,395.57 345.42,395.23 345.29,394.93C345.18,394.67 345.04,394.41 344.94,394.15C344.83,393.88 344.78,393.58 344.99,393.34C345.7,392.51 345.94,391.57 345.89,390.49C345.86,389.93 346.1,389.35 346.21,388.78C346.22,388.73 346.21,388.67 346.19,388.61C345.96,387.8 346.03,386.98 346.19,386.17C346.23,385.97 346.25,385.78 346.25,385.58C346.25,385.25 346.25,384.92 346.51,384.64C346.67,384.47 346.66,384.23 346.48,384.07C346.32,383.93 346.29,383.76 346.29,383.57C346.29,383.07 346.27,382.58 346.25,382.08C346.24,381.69 346.03,381.37 345.86,381.04C345.57,380.46 345.24,379.89 345.32,379.2C345.33,379.09 345.36,378.98 345.37,378.87C345.47,377.79 345.89,376.77 346.05,375.7C346.07,375.57 346.07,375.47 345.94,375.38C345.65,375.19 345.5,374.9 345.42,374.58C345.3,374.08 345.07,373.65 344.67,373.31C344.51,373.17 344.42,373.01 344.45,372.79C344.5,372.42 344.41,372.08 344.23,371.75C344.03,371.36 343.92,370.97 344.37,370.66C344.5,370.57 344.48,370.43 344.47,370.29C344.41,369.77 344.38,369.27 344.65,368.77C344.9,368.31 344.75,367.88 344.4,367.51C344.19,367.28 343.97,367.05 343.78,366.81C343.61,366.59 343.62,366.42 343.88,366.23C344.57,365.72 345.1,365.06 345.59,364.36C345.71,364.19 345.69,364.11 345.49,364C344.91,363.69 344.82,363.4 345.08,362.82C345.13,362.71 345.17,362.59 345.22,362.48C345.45,362.01 345.55,361.53 345.31,361.02C345.13,360.65 345.24,360.26 345.34,359.89C345.44,359.5 345.52,359.12 345.4,358.72C345.3,358.38 345.39,358.09 345.64,357.84C345.85,357.62 345.92,357.43 345.53,357.32C345.26,357.24 345.13,357.04 345.13,356.75C345.13,356.6 344.77,356.21 344.63,356.17C344.02,356.03 343.46,355.81 342.92,355.5C342.79,355.43 342.7,355.4 342.55,355.48C341.78,355.89 341.01,355.78 340.26,355.4C340.19,355.37 340.12,355.32 340.08,355.26C339.7,354.7 339.14,354.67 338.54,354.7C338.05,354.73 337.55,354.8 337,354.57C337.3,354.37 337.55,354.2 337.8,354.04" style="fill:rgb(224,229,111);fill-rule:nonzero;"/>
            <path d="M318.96,356.67C318.96,356.6 318.94,356.51 318.96,356.45C319.32,355.53 319.29,354.53 319.58,353.59C319.63,353.45 319.66,353.3 319.73,353.17C320.03,352.67 319.95,352.51 320.62,352.8C320.62,352.86 320.62,352.92 320.69,352.96C320.82,353.11 320.82,353.31 320.89,353.47C320.96,353.64 320.92,353.77 320.77,353.89C320.33,354.23 320.13,354.64 320.42,355.18C320.44,355.21 320.44,355.25 320.44,355.29C320.41,355.58 320.79,355.94 320.43,356.13C320.16,356.27 319.96,356.57 319.58,356.55C319.38,356.54 319.17,356.62 318.96,356.67" style="fill:rgb(106,181,71);fill-rule:nonzero;"/>
            <path d="M342.89,352C342.84,352.35 342.56,352.52 342.3,352.67C341.4,353.2 340.42,353.52 339.36,353.51C338.78,353.51 338.78,353.5 338.88,352.97C339.18,352.78 339.53,352.8 339.86,352.84C340.43,352.92 340.91,352.76 341.35,352.41C341.7,352.13 342.07,351.88 342.57,352.09C342.65,352.12 342.78,352.03 342.88,352" style="fill:rgb(106,181,71);fill-rule:nonzero;"/>
            <path d="M345.23,408.7C345.19,408.03 345.16,407.36 345.33,406.7C345.36,406.58 345.38,406.46 345.47,406.37C345.47,406.76 345.44,407.17 345.58,407.54C345.77,408.05 345.59,408.39 345.22,408.7" style="fill:rgb(106,181,71);fill-rule:nonzero;"/>
            <path d="M320.69,352.97C320.63,352.93 320.62,352.88 320.62,352.81C320.68,352.84 320.69,352.9 320.69,352.97" style="fill:rgb(166,200,66);fill-rule:nonzero;"/>
            <path d="M375.35,374.31C373.4,375.12 371.24,377.01 369.13,375.82C368.63,375.54 367.22,373.5 366.93,373.79C368.35,376.93 364.84,380.62 362.01,378.18C361.89,378.08 360.13,375.83 360.06,375.69C359.09,373.79 360.35,372.28 360.54,370.57C360.63,369.74 360.66,365.85 360.41,365.29C360.01,364.39 357.52,363.28 359.34,361.49C359.52,361.31 363.51,359.32 363.86,359.22C365.61,358.74 366.51,359.98 367.57,361.16C368.85,362.57 369.85,364.38 371.14,365.8C371.58,365.8 375.37,359.83 376.95,359.3C380.28,358.19 381.59,362.19 384.43,361.18C385.98,360.62 386.43,359.32 388.49,359.63C389.12,359.72 389.67,360.31 390.42,360.13C389.54,357.9 389.94,356 392.58,355.73C396.16,355.38 398.01,356.51 397.57,360.38C398.57,360.34 399.46,359.97 400.49,360.14C401.49,360.3 401.82,361.25 403.03,361.15C403.55,361.11 404.82,360.6 405.33,360.35C406.6,359.73 406.84,358.73 408.62,359.14C409.87,359.43 413.71,363.36 415.06,364.24C415.64,364.35 415.41,363.98 415.44,363.6C415.58,361.59 415.13,360.61 414.94,358.93C414.69,356.67 416.41,355.16 418.61,355.49C419.36,355.6 421.85,357.31 422.29,357.96C423.78,360.12 421.62,362.06 422.08,362.69C422.94,362.07 424.4,360.75 425.39,360.49C426.28,360.26 427.12,360.46 428.01,360.3C430.24,359.89 432.92,358.47 435.04,359.29C436.01,359.66 437.01,360.85 438.08,360.89C438.83,360.91 440.1,359.63 441.38,359.59C445.02,359.49 448.9,359.92 452.62,359.87C454.14,359.85 454.98,359.19 456.58,359.97C457.1,360.23 457.77,361.06 458.01,361.11C458.89,361.28 461.12,359.52 461.98,359.26C464.16,358.61 464.39,359.86 465.91,360.1C467.98,360.43 469.83,359.34 471.73,360.41C472.19,360.67 472.52,361.39 473.04,361.4C474.5,361.43 476.5,358.74 478.91,359.1C481.88,359.55 482.58,359.7 485.59,359.36C487.64,359.13 490.84,361.88 490.44,364C490.28,364.86 489.66,365.51 489.35,366.25C488.9,367.32 489.23,368.49 487.74,369.01C487.88,369.51 490.42,372.8 490.92,373.28C491.84,374.15 493.28,374.38 493.97,375.61C494.71,376.93 494.18,378.63 492.93,379.42C492.71,379.56 490.2,380.84 490.04,380.89C487.83,381.57 486.38,380.26 485.07,378.67L480.84,371.73L480.84,376.24C480.84,376.54 480.13,377.78 479.83,378.06C478.01,379.78 475.76,378.73 474.56,376.9C473.64,377.37 473.15,378.25 472.02,378.42C470.91,378.59 470.13,378.14 469.23,378.16C467.8,378.19 465.88,378.35 464.4,378.46C463.44,378.53 463.31,379.11 462,378.78C461.66,378.69 458.45,376.99 458.13,376.74C457.34,376.13 456.81,374.93 456.85,373.94C456.88,373.21 457.47,372.55 457.58,371.84C457.67,371.27 458.01,367.51 457.85,367.34C456.29,367.67 455.26,368.26 453.77,367.2C453.04,366.68 452.97,365.69 451.72,365.79C451.89,366.82 451.51,367.77 451.45,368.74C451.34,370.73 451.95,376.59 450.87,377.83C450.14,378.67 448.61,378.84 447.56,378.62C447.22,378.55 444.52,376.91 444.18,376.62C443.33,375.9 442.91,374.75 443.02,373.65C443.08,373.01 443.47,372.6 443.53,372.09C443.77,370.17 443.8,368.11 443.8,366.18C443,365.65 442.7,366.84 442.15,367.35C441.83,367.64 441.15,367.77 441.05,367.91C440.93,368.08 440.83,369.16 440.61,369.66C438.5,374.54 434.66,382.38 428.35,381.78C427.73,381.72 426.37,381.28 425.93,380.87C425.58,380.54 425.53,379.99 425.26,379.74C424.16,378.69 422.73,377.99 421.95,376.63L421.56,376.75C419.25,380.82 414.71,378.74 415.57,374.32L410.58,370.18L410.58,376.5C410.58,377.06 409.4,378.37 408.86,378.63C406.51,379.76 404.94,377.62 403.79,375.87L403.17,373.02C402.15,375.35 399.46,376.14 397.33,377.18C397.11,379.04 397.88,380.74 396.14,382.04C393.62,383.92 390.31,382.62 389.69,379.53C389.56,378.87 389.79,377.89 389.5,377.4C389.13,376.77 385.82,375.07 385.44,373.77L383.25,369.41C383.35,371.3 383.1,373.33 383.25,375.21C383.37,376.76 384.35,377.41 383.11,379.19C382.92,379.47 380.13,381.66 379.82,381.8C378.57,382.35 377.01,382.21 376.09,381.14C375.96,380.98 375.33,379.92 375.33,379.85L375.33,374.31L375.35,374.31ZM417.5,359.49L417.5,368.39L407.92,360.96C406.94,361.93 405.56,362.46 404.22,362.72C403.73,363.23 405.52,363.6 405.71,364.18C405.8,364.45 405.97,366.47 406,366.98C406.07,368.12 406.09,369.72 406,370.84C405.92,371.74 405.17,374.04 405.34,374.59C405.4,374.79 406.9,376.72 407.03,376.79C407.58,377.07 408.56,376.66 408.56,376.27L408.56,366.34L417.14,373.03C418.05,374.1 416.62,378.16 419.18,376.67C421,375.61 420.32,374.11 420.3,372.67C420.26,369.39 419.95,364.66 420.3,361.55C420.39,360.74 420.93,360.15 420.84,359.52C420.73,358.65 417.31,356.2 416.98,358.22C416.84,359.07 417.45,359.29 417.51,359.5M395.53,362.19C395.29,360.96 396.25,357.82 394.58,357.6C393.91,357.51 392.77,358.05 391.95,357.81C392.01,359.33 392.76,360.57 392.46,362.19C391.53,362.11 390.44,362.32 389.54,362.17C388.9,362.06 388.25,361.42 387.77,361.46C387.02,361.53 384.72,363.6 383.52,363.47C385.19,364.84 384.75,366.56 385.23,368.58C386.1,372.24 388.34,374.41 391.21,376.47C391.58,376.73 392.04,376.73 392.43,376.91L392.47,378.17L391.45,378.29C391.78,380.24 392.64,381.63 394.75,380.6C396.41,379.79 394.98,377.97 395.04,376.99C395.14,375.3 400.24,374.33 401.32,372.54C402.26,370.99 402.09,367.84 402.45,365.95C402.69,364.67 403.54,364.55 402.18,363.34C401.91,363.1 400.4,362.11 400.13,362.03C399.35,361.81 398.7,362.37 397.96,362.39C397.29,362.41 396.33,361.97 395.53,362.18M365.13,376.25L365.13,367.87C366.6,368.7 369.33,374.46 370.86,374.32C371.55,374.26 373.12,372.97 374.07,373.02C374.21,372.27 373.17,372.22 372.91,371.73C372.4,370.77 375.35,367.7 375.87,366.71L377.4,365.29C377.43,366.88 376.9,368.21 377.41,369.79C377.75,372.6 376.91,376.69 377.41,379.33C377.54,380.02 378.07,380.4 378.75,380.2C378.91,380.15 381.28,378.32 381.38,378.19C382.28,377.05 381.34,376.12 381.23,374.95C381.13,373.78 381.12,365.25 381.37,364.76C381.48,364.54 382.2,364.5 382.16,363.86C382.1,363.02 378.69,360.67 377.73,361.08L371.14,369.14L365.21,361.4C364.04,360.66 362.31,362.57 361.05,362.71C361.07,363.46 361.89,363.71 362.2,364.51C362.83,366.13 362.57,370.05 362.3,371.84C362.16,372.74 361.44,373.57 361.59,374.38C361.65,374.72 363.31,376.79 363.51,376.86C364.02,377.04 364.98,376.77 365.13,376.25M429.12,368.64C430.07,368.38 431.99,368.83 433.08,368.64C432.97,370.27 431.4,375.26 430.11,376.09C428.01,377.45 426.01,372.33 423.92,375.01C423.47,376.55 425.97,377.6 426.87,378.51C427.69,379.33 426.79,379.77 429.11,379.74C432.91,379.7 435.51,375.67 437.11,372.59C437.68,371.49 439.49,368.22 438.57,367.33C438.42,367.18 436.14,365.56 435.99,365.54C435.1,365.39 434.53,365.97 433.71,366.07C433.2,366.13 429.74,366.13 429.54,366C429.46,365.95 428.85,364.89 428.98,364.77C430.43,364.66 431.72,365.15 433.19,365.02C433.91,364.96 434.65,364.55 435.26,364.53C436.22,364.5 436.92,365.3 437.79,364.24C438.86,362.93 436.99,362.75 436.33,362.38C435.39,361.86 434.25,360.84 433.2,360.88C432.44,360.91 432,361.44 431.34,361.6C430.23,361.88 428.87,362.2 427.76,362.39C427.14,362.49 426.61,362.18 426.17,362.3C425.95,362.36 424.09,363.56 424,363.74C423.76,364.24 423.9,364.5 424.08,364.96C424.25,365.42 426.39,368.75 426.71,369.01C428.03,370.11 428.52,368.8 429.12,368.64M472.1,366.26C472.7,365.58 471.81,362.03 470.44,361.99C468.76,361.83 466.2,362.25 464.63,361.93C464.08,361.82 463.93,361.33 463.55,361.21C462.3,360.81 461.77,361.78 460.84,362.24C460.17,362.57 458.71,362.54 458.63,363.6C458.56,364.5 459.52,364.49 459.64,365.15C459.79,365.95 459.76,371.88 459.57,372.57C459.38,373.26 458.44,373.7 458.99,374.82C459.34,375.54 461.9,376.11 462.59,376.9C464.79,376.21 467.81,376.19 470.21,376.19C470.86,376.19 471.05,376.86 471.99,376.34C474.15,375.15 473.72,370.35 471.56,371.96C471.02,372.36 471.6,373.62 469.42,373.98C468.63,374.11 464.17,374.2 463.86,373.79C463.45,373.24 463.25,369.85 463.79,369.46C464.55,369.36 465.63,368.95 466.36,369.14C466.6,369.2 466.8,369.94 467.17,370.2C468.6,371.22 469.68,367.26 468.86,366.68C468.05,366.11 467.24,366.98 466.66,367.07C465.68,367.23 464.49,366.99 463.48,367.08L463.98,364.36C465.23,364.27 468.08,363.92 469.08,364.65C469.61,365.04 469.89,366.33 470.55,366.53C470.94,366.64 471.84,366.53 472.1,366.25M492.01,376.18C491.76,375.92 490.98,375.79 490.56,375.45C488.19,373.52 486.39,370.64 484.93,367.99L487.1,367.09C487,365.91 488.33,364.65 488.46,363.8C488.61,362.78 486.75,361.37 485.84,361.4C484.18,361.46 481.51,362 479.93,361.91C479.42,361.88 479.27,361.33 478.88,361.2C477.51,360.75 475.75,362.73 474.32,362.94C473.59,364.58 475.23,364.53 475.24,365.93C475.26,367.37 475.14,370.45 474.98,371.86C474.88,372.73 474.31,373.15 474.51,374.11C474.58,374.47 476.71,376.6 477.02,376.75C477.56,377 478.38,376.98 478.68,376.37C479.29,375.12 478.4,371.13 478.85,369.59C479.06,368.88 480.47,368.47 481.09,368.76C482.17,369.26 485.13,375.38 486.15,376.82C486.77,377.7 488.05,379.46 489.28,379.11C489.43,379.07 491.86,377.78 491.97,377.68C492.44,377.28 492.42,376.61 492.01,376.19M456.25,362C455.26,360.9 453.77,361.87 452.62,361.95C449.7,362.15 446.12,362 443.15,361.95C442.46,361.94 441.85,361.6 441.14,361.68C439.56,361.87 438.91,363.99 438.73,365.36C440.49,367.54 441.24,364.7 442.38,364.23C443.32,363.84 444.55,363.99 445.56,364.03C446.25,365.28 445.61,366.52 445.59,367.72C445.56,369.02 445.76,370.63 445.61,371.86C445.49,372.84 444.79,373.49 445.14,374.64C446.34,375.56 449.36,378.47 449.69,375.47C449.87,373.81 449.35,364.55 449.97,364.02C451.19,364.05 453.16,363.69 454.16,364.5C454.8,365.02 454.73,366.17 456.14,365.75C457.27,365.41 456.79,362.58 456.26,361.99M422.09,365.8L422.09,372.63C422.09,372.68 422.36,373.39 422.47,373.53C424.66,371.17 426.99,372.46 429.1,374.04L430.78,370.44C429.92,370.23 429.5,370.94 428.8,371.15C424.93,372.3 424.25,367.88 422.09,365.8M473.17,368.13L470.93,368.7L470.62,370.19C471.51,369.96 472.17,369.47 473.17,369.68L473.17,368.13Z" style="fill-rule:nonzero;"/>
            <path d="M448.85,384.69C450.27,384.48 454.63,384.45 455.87,384.95C457.86,385.75 457.81,391.63 456.57,392.74C455.47,393.73 448.27,393.7 447.11,392.77C446.07,391.93 446.19,387.93 446.42,386.62C446.67,385.23 447.58,384.88 448.85,384.69M448.27,392.1C449.31,392.4 453.7,392.1 455.16,392.1C456.37,392.1 456.03,389.26 456.05,388.49L452.09,388.49C451.82,388.49 451.6,389.23 451.71,389.52L454.52,389.52L454.52,391.07L449.16,391.07L449.16,386.95L454.52,386.95C454.61,386.95 454.52,387.91 456.05,387.46C456.06,387.09 455.99,386.49 455.73,386.24C455.2,385.72 448.44,385.72 447.87,386.3C447.42,386.76 447.32,391.84 448.26,392.11" style="fill-rule:nonzero;"/>
            <path d="M390.93,384.62L390.93,387.98L388.63,388.12L388.63,389.78L390.93,389.78L390.93,393.39L381.22,393.39L381.22,384.62L390.93,384.62ZM389.65,385.91L382.5,385.91L382.5,392.1L389.91,392.1L389.91,391.07L384.04,391.07L384.04,389.26C385.01,389.22 386.01,389.32 386.99,389.26C387.57,389.23 387.36,389.12 387.37,388.61L384.05,388.48L384.05,386.93L389.67,386.93L389.67,385.9L389.65,385.91Z" style="fill-rule:nonzero;"/>
            <path d="M423.75,384.62C424.44,384.84 424.03,387.31 424.13,387.98L421.81,388.09L421.57,389.78L424.13,389.78L424.13,393.39L414.42,393.39L414.42,384.62L423.75,384.62ZM422.88,385.91L415.84,385.91L415.46,386.3L415.46,392.1L422.87,392.1L422.87,391.07L417,391.07L417,389.26C417.97,389.22 418.97,389.32 419.95,389.26C420.53,389.23 420.32,389.12 420.33,388.61L417.25,388.37L417.01,386.94L422.88,386.94L422.88,385.91Z" style="fill-rule:nonzero;"/>
            <path d="M397.06,384.63C399.97,383.98 401.57,386.45 403.83,387.73L404.2,384.75L407.79,384.64L407.79,393.41C404.68,394.11 403.22,391.58 400.77,390.31L400.64,393.41L397.06,393.41L397.06,384.63ZM405.23,390.3C403.42,389.42 401.2,386.91 399.5,386.16C399,385.94 398.63,385.84 398.08,385.92L398.33,392.11L399.61,392.11L399.61,388.37C399.61,388.27 399.1,388.13 399.74,387.73L405.24,391.97L406.51,392.11L406.51,385.92L405.23,385.92L405.23,390.3Z" style="fill-rule:nonzero;"/>
            <path d="M443.3,393.39L437.03,393.39C436.84,393.39 434.67,391.2 434.1,391.07L434.1,393.39L430.4,393.39L430.02,393L430.02,385.01L430.4,384.62L437.55,384.62C437.68,384.62 439.12,385.05 439.31,385.17C440.64,385.91 440.61,389.41 439.49,390.43L443.3,393.39ZM438.06,385.91C436.24,385.53 433.25,386.19 431.29,385.91L431.29,392.1L432.82,392.1L432.82,389.78C435.71,389.11 436.4,392.89 439.46,392.1L436.4,390.04C436.64,389.55 437.61,389.86 438.2,389.67C439.41,389.27 439.32,386.18 438.06,385.92" style="fill-rule:nonzero;"/>
            <path d="M474.96,384.62C475.05,385.05 474.82,385.14 474.57,385.39C473.82,386.13 469.94,389.27 469.73,389.78C469.34,390.73 469.73,392.34 469.6,393.38L465.77,393.38L465.64,389.78C464.29,388.47 462.62,387.22 461.29,385.91C460.94,385.56 460.36,385.17 460.4,384.61L465.64,384.61L467.72,386.66L469.98,384.61L474.96,384.61L474.96,384.62ZM471.9,385.92C469.94,385.53 469.19,387.16 467.91,388.22C466.25,387.4 465.38,385.18 463.22,386.05L466.74,389.07L466.79,392.11L468.18,392.11C468.49,392.07 468.2,389.9 468.46,389.28C468.78,388.52 471.5,387.05 471.9,385.92" style="fill-rule:nonzero;"/>
            <path d="M395.53,362.2C396.33,361.98 397.29,362.43 397.96,362.41C398.7,362.39 399.35,361.83 400.13,362.05C400.4,362.13 401.9,363.11 402.18,363.36C403.55,364.57 402.7,364.69 402.46,365.97C402.1,367.87 402.27,371.01 401.33,372.56C400.24,374.35 395.14,375.33 395.05,377.01C394.99,377.99 396.42,379.81 394.76,380.62C392.65,381.65 391.79,380.26 391.46,378.31L392.48,378.19L392.45,376.93C392.06,376.75 391.59,376.75 391.22,376.49C388.36,374.43 386.12,372.26 385.24,368.6C384.76,366.59 385.21,364.86 383.54,363.49C384.74,363.62 387.04,361.55 387.79,361.48C388.26,361.43 388.92,362.08 389.55,362.18C390.46,362.33 391.54,362.11 392.47,362.2C392.77,360.57 392.02,359.33 391.96,357.82C392.78,358.06 393.92,357.52 394.59,357.61C396.26,357.84 395.3,360.97 395.54,362.2M392.21,364.26C391.42,364.05 390.9,364.96 390.27,365.04C389.67,365.11 388.98,364.44 388.87,365.42C388.68,367.2 390.57,370.68 391.82,371.99L392.2,364.26L392.21,364.26ZM395.02,373.28C395.94,373.07 397.62,372.15 398.01,371.28C398.48,370.22 398.96,365.4 397.9,364.82C397.56,364.63 395.41,364.37 395.27,364.52L395.01,373.28L395.02,373.28Z" style="fill:white;fill-rule:nonzero;"/>
            <path d="M365.13,376.25C364.99,376.76 364.03,377.04 363.51,376.86C363.31,376.79 361.66,374.72 361.59,374.38C361.44,373.57 362.16,372.74 362.3,371.84C362.57,370.05 362.82,366.13 362.2,364.51C361.89,363.71 361.07,363.46 361.05,362.71C362.31,362.58 364.04,360.67 365.21,361.4L371.14,369.14L377.73,361.08C378.68,360.68 382.1,363.02 382.15,363.86C382.19,364.49 381.47,364.54 381.36,364.76C381.11,365.24 381.12,373.78 381.22,374.95C381.33,376.12 382.27,377.05 381.37,378.19C381.27,378.32 378.9,380.15 378.74,380.2C378.06,380.39 377.53,380.01 377.4,379.33C376.9,376.69 377.75,372.6 377.4,369.79C376.89,368.21 377.42,366.88 377.39,365.29L375.87,366.71C375.35,367.69 372.4,370.77 372.91,371.73C373.17,372.22 374.21,372.27 374.07,373.02C373.12,372.97 371.55,374.26 370.86,374.32C369.34,374.45 366.61,368.7 365.13,367.87L365.13,376.25Z" style="fill:white;fill-rule:nonzero;"/>
            <path d="M492.01,376.18C492.42,376.6 492.43,377.28 491.96,377.68C491.85,377.78 489.42,379.07 489.27,379.11C488.04,379.47 486.77,377.7 486.14,376.82C485.12,375.38 482.16,369.26 481.08,368.76C480.45,368.47 479.05,368.88 478.84,369.59C478.38,371.13 479.27,375.12 478.66,376.37C478.37,376.98 477.54,377.01 477,376.75C476.69,376.6 474.56,374.47 474.49,374.11C474.29,373.15 474.87,372.73 474.96,371.86C475.12,370.45 475.24,367.37 475.22,365.93C475.2,364.53 473.57,364.58 474.3,362.94C475.73,362.73 477.48,360.76 478.86,361.2C479.26,361.33 479.41,361.88 479.91,361.91C481.49,362 484.15,361.46 485.82,361.4C486.73,361.37 488.6,362.78 488.44,363.8C488.31,364.65 486.99,365.91 487.08,367.09L484.91,367.99C486.37,370.65 488.17,373.52 490.54,375.45C490.95,375.79 491.74,375.92 491.99,376.18M484.16,363.74C483.15,363.49 482.32,364.11 481.45,364.25C480.98,364.32 480.51,363.95 480.08,364.12C479.57,364.32 478.19,366.46 478.54,366.84C480.3,365.99 484.24,366.31 484.16,363.75" style="fill:white;fill-rule:nonzero;"/>
            <path d="M429.12,368.64C428.52,368.8 428.03,370.11 426.71,369.01C426.39,368.75 424.26,365.41 424.09,364.96C423.92,364.51 423.77,364.24 424.01,363.74C424.1,363.56 425.96,362.36 426.18,362.3C426.62,362.18 427.15,362.49 427.77,362.39C428.89,362.21 430.25,361.88 431.35,361.6C432.01,361.43 432.45,360.91 433.21,360.88C434.26,360.83 435.4,361.86 436.34,362.38C437.01,362.75 438.87,362.93 437.8,364.24C436.93,365.3 436.23,364.5 435.27,364.53C434.66,364.55 433.92,364.96 433.2,365.02C431.73,365.15 430.44,364.65 428.99,364.77C428.86,364.89 429.48,365.95 429.55,366C429.75,366.12 433.21,366.13 433.72,366.07C434.53,365.97 435.11,365.39 436,365.54C436.16,365.57 438.43,367.19 438.58,367.33C439.49,368.22 437.69,371.49 437.12,372.58C435.52,375.66 432.92,379.69 429.12,379.73C426.8,379.76 427.7,379.32 426.88,378.5C425.97,377.59 423.48,376.54 423.93,375C426.02,372.32 428.01,377.44 430.12,376.08C431.4,375.25 432.97,370.26 433.09,368.63C432,368.82 430.08,368.37 429.13,368.63" style="fill:white;fill-rule:nonzero;"/>
            <path d="M417.49,359.49C417.44,359.28 416.83,359.06 416.96,358.21C417.28,356.19 420.7,358.64 420.82,359.51C420.91,360.14 420.37,360.73 420.28,361.54C419.94,364.65 420.24,369.38 420.28,372.66C420.3,374.1 420.98,375.6 419.16,376.66C416.6,378.15 418.03,374.08 417.12,373.02L408.54,366.33L408.54,376.26C408.54,376.66 407.56,377.07 407.01,376.78C406.89,376.72 405.38,374.78 405.32,374.59C405.15,374.04 405.9,371.74 405.98,370.84C406.07,369.72 406.05,368.12 405.98,366.98C405.95,366.48 405.77,364.45 405.69,364.18C405.5,363.61 403.72,363.23 404.2,362.72C405.54,362.46 406.92,361.93 407.9,360.96L417.48,368.39L417.48,359.49L417.49,359.49Z" style="fill:white;fill-rule:nonzero;"/>
            <path d="M472.1,366.25C471.84,366.54 470.94,366.65 470.55,366.53C469.88,366.33 469.6,365.04 469.07,364.65C468.08,363.92 465.22,364.27 463.97,364.36L463.47,367.08C464.48,366.98 465.67,367.22 466.65,367.06C467.23,366.97 468.04,366.1 468.85,366.67C469.68,367.26 468.59,371.21 467.16,370.19C466.79,369.93 466.59,369.19 466.35,369.13C465.61,368.94 464.53,369.35 463.78,369.45C463.23,369.84 463.44,373.24 463.85,373.78C464.16,374.19 468.63,374.1 469.41,373.97C471.59,373.61 471.01,372.35 471.55,371.95C473.72,370.34 474.14,375.13 471.98,376.33C471.04,376.85 470.86,376.18 470.2,376.18C467.81,376.18 464.79,376.2 462.58,376.89C461.9,376.11 459.34,375.53 458.99,374.81C458.44,373.68 459.39,373.25 459.57,372.56C459.76,371.86 459.78,365.94 459.64,365.14C459.52,364.48 458.56,364.49 458.63,363.59C458.71,362.53 460.17,362.56 460.84,362.23C461.77,361.77 462.3,360.79 463.55,361.2C463.92,361.32 464.07,361.81 464.63,361.92C466.2,362.23 468.76,361.81 470.45,361.98C471.82,362.02 472.7,365.57 472.11,366.25" style="fill:white;fill-rule:nonzero;"/>
            <path d="M456.25,362C456.79,362.59 457.27,365.42 456.13,365.76C454.72,366.18 454.79,365.02 454.15,364.51C453.15,363.7 451.18,364.06 449.96,364.03C449.34,364.56 449.86,373.82 449.68,375.48C449.36,378.48 446.33,375.57 445.13,374.65C444.78,373.5 445.48,372.86 445.6,371.87C445.75,370.64 445.55,369.03 445.58,367.73C445.61,366.53 446.24,365.28 445.55,364.04C444.54,364 443.32,363.85 442.37,364.24C441.23,364.71 440.49,367.55 438.72,365.37C438.91,363.99 439.55,361.88 441.13,361.69C441.84,361.61 442.45,361.94 443.14,361.96C446.11,362.01 449.69,362.16 452.61,361.96C453.76,361.88 455.24,360.92 456.24,362.01" style="fill:white;fill-rule:nonzero;"/>
            <path d="M473.17,368.13L473.17,369.68C472.17,369.47 471.51,369.96 470.62,370.19L470.93,368.7L473.17,368.13Z" style="fill:white;fill-rule:nonzero;"/>
            <path d="M448.27,392.1C447.34,391.84 447.43,386.75 447.88,386.29C448.45,385.71 455.21,385.71 455.74,386.23C456,386.49 456.07,387.09 456.06,387.45C454.52,387.9 454.62,386.94 454.53,386.94L449.17,386.94L449.17,391.06L454.53,391.06L454.53,389.51L451.72,389.51C451.61,389.22 451.83,388.48 452.1,388.48L456.06,388.48C456.04,389.25 456.37,392.09 455.17,392.09C453.71,392.09 449.31,392.39 448.28,392.09" style="fill:rgb(106,181,71);fill-rule:nonzero;"/>
            <path d="M389.65,385.91L389.65,386.94L384.03,386.94L384.03,388.49L387.35,388.62C387.35,389.13 387.56,389.23 386.97,389.27C385.99,389.32 385,389.23 384.02,389.27L384.02,391.08L389.89,391.08L389.89,392.11L382.48,392.11L382.48,385.92L389.63,385.92L389.65,385.91Z" style="fill:rgb(106,181,71);fill-rule:nonzero;"/>
            <path d="M422.86,385.91L422.86,386.94L416.99,386.94L417.23,388.37L420.31,388.61C420.31,389.12 420.52,389.22 419.93,389.26C418.95,389.31 417.96,389.22 416.98,389.26L416.98,391.07L422.85,391.07L422.85,392.1L415.44,392.1L415.44,386.3L415.82,385.91L422.86,385.91Z" style="fill:rgb(106,181,71);fill-rule:nonzero;"/>
            <path d="M405.23,390.3L405.23,385.92L406.51,385.92L406.51,392.11L405.24,391.97L399.74,387.73C399.11,388.13 399.61,388.27 399.61,388.37L399.61,392.11L398.33,392.11L398.08,385.92C398.64,385.84 399,385.93 399.5,386.16C401.19,386.91 403.42,389.43 405.23,390.3" style="fill:rgb(106,181,71);fill-rule:nonzero;"/>
            <path d="M438.06,385.91C439.32,386.18 439.41,389.27 438.2,389.66C437.61,389.85 436.63,389.54 436.4,390.03L439.46,392.09C436.4,392.88 435.71,389.1 432.82,389.77L432.82,392.09L431.29,392.09L431.29,385.9C433.25,386.18 436.24,385.52 438.06,385.9M437.42,386.95L432.82,386.95L432.82,388.75L437.42,388.75L437.42,386.95Z" style="fill:rgb(106,181,71);fill-rule:nonzero;"/>
            <path d="M471.9,385.92C471.5,387.04 468.77,388.52 468.46,389.28C468.2,389.9 468.49,392.07 468.18,392.11L466.79,392.11L466.74,389.07L463.22,386.05C465.38,385.18 466.25,387.4 467.91,388.22C469.19,387.16 469.94,385.53 471.9,385.92" style="fill:rgb(106,181,71);fill-rule:nonzero;"/>
            <path d="M395.02,373.28L395.28,364.52C395.42,364.37 397.58,364.64 397.91,364.82C398.96,365.4 398.49,370.22 398.02,371.28C397.63,372.15 395.95,373.08 395.03,373.28" style="fill-rule:nonzero;"/>
            <path d="M392.21,364.26L391.83,371.99C390.58,370.69 388.69,367.2 388.88,365.42C388.99,364.44 389.68,365.11 390.28,365.04C390.9,364.96 391.43,364.05 392.22,364.26" style="fill-rule:nonzero;"/>
            <path d="M484.16,363.74C484.24,366.31 480.3,365.98 478.54,366.83C478.19,366.46 479.57,364.32 480.08,364.11C480.51,363.94 480.97,364.32 481.45,364.24C482.32,364.11 483.15,363.48 484.16,363.73" style="fill-rule:nonzero;"/>
            <rect x="432.82" y="386.95" width="4.6" height="1.8"/>
        </g>
    </g>
</svg>
