<?xml version="1.0" encoding="UTF-8" standalone="no"?>
<!DOCTYPE svg PUBLIC "-//W3C//DTD SVG 1.1//EN" "http://www.w3.org/Graphics/SVG/1.1/DTD/svg11.dtd">
<svg width="100%" height="100%" viewBox="0 0 70 39" version="1.1" xmlns="http://www.w3.org/2000/svg" xmlns:xlink="http://www.w3.org/1999/xlink" xml:space="preserve" xmlns:serif="http://www.serif.com/" style="fill-rule:evenodd;clip-rule:evenodd;stroke-linejoin:round;stroke-miterlimit:2;">
    <g transform="matrix(1,0,0,1,-611.262126,-210.04)">
        <g>
            <rect x="611.29" y="210.04" width="69.82" height="4.48" style="fill:white;"/>
            <path d="M660.78,240.89L660.78,221.47C660.78,220.77 659.95,218.95 659.44,218.42C657.9,216.79 653.27,216.66 651.9,218.53C650.64,220.26 650.04,224.98 649.27,227.26C649.2,227.47 649.23,227.74 648.93,227.79C648.14,225.27 647.81,221.99 646.8,219.6C645.77,217.15 643.57,217 641.16,217.25C639.07,217.46 637.63,219.32 637.39,221.32L637.39,240.9L643.64,240.9L643.64,227.64L644.17,229.26C645.14,232.43 645.46,236.24 646.6,239.3C647.61,241.99 650.24,242.24 651.39,239.62L654.52,227.64L654.52,240.9L660.77,240.9L660.78,240.89Z" style="fill:white;fill-rule:nonzero;"/>
            <path d="M629.28,239.26C640.21,232.86 634.77,215.77 621.34,217.28C616.97,217.77 612.8,221.68 611.69,225.87C608.94,236.23 619.99,244.7 629.27,239.26L629.28,239.26ZM622.14,223.19C630.45,222.05 631.54,234.17 623.84,234.96C616.02,235.75 614.94,224.17 622.14,223.19Z" style="fill:white;fill-rule:nonzero;"/>
            <rect x="611.29" y="244.08" width="69.82" height="4.32" style="fill:white;"/>
            <path d="M664.29,222.58C664.1,223.14 663.66,224.94 663.66,225.47L663.66,240.9L669.91,240.9L669.91,234.1L670.15,233.86L674.15,233.86C676.92,233.86 679.89,231.28 680.68,228.71C684.31,216.86 667.61,212.92 664.29,222.58ZM674.07,226.6C673.96,226.88 673.03,227.46 672.86,227.46L669.9,227.46C669.92,225.52 669.69,223.55 672.22,223.62C673.89,223.66 674.68,225.1 674.07,226.6Z" style="fill:white;fill-rule:nonzero;"/>
        </g>
    </g>
</svg>
