<?xml version="1.0" encoding="UTF-8" standalone="no"?>
<!DOCTYPE svg PUBLIC "-//W3C//DTD SVG 1.1//EN" "http://www.w3.org/Graphics/SVG/1.1/DTD/svg11.dtd">
<svg width="100%" height="100%" viewBox="0 0 252 47" version="1.1" xmlns="http://www.w3.org/2000/svg" xmlns:xlink="http://www.w3.org/1999/xlink" xml:space="preserve" xmlns:serif="http://www.serif.com/" style="fill-rule:evenodd;clip-rule:evenodd;stroke-linejoin:round;stroke-miterlimit:2;">
    <g transform="matrix(1,0,0,1,-270.29,-455.386194)">
        <g>
            <path d="M370.98,484.76C371.71,485.32 372.37,485.84 373.04,486.33C374.83,487.62 376.78,488.51 379.02,488.63C380.81,488.73 382.21,487.83 382.66,486.29C383.06,484.92 382.52,483.41 381.34,482.61C379.57,481.41 377.63,480.49 375.82,479.36C375.15,478.94 374.47,478.54 373.83,478.07C371.6,476.45 370.93,474.18 371.97,471.62C373.03,468.98 374.95,467.17 377.58,466.15C380.48,465.03 383.47,464.94 386.51,465.54C387,465.64 387.23,465.81 387.21,466.38C387.15,467.52 387.19,468.66 387.2,469.8C387.2,470.14 387.13,470.18 386.84,470C384.91,468.81 382.9,468.78 380.85,469.65C380.31,469.88 379.83,470.22 379.51,470.75C379.11,471.41 379.17,471.97 379.71,472.51C380.26,473.07 380.95,473.44 381.62,473.82C383.16,474.69 384.79,475.39 386.27,476.37C388.77,478.04 389.88,480.43 389.84,483.36C389.81,485.95 388.86,488.18 386.83,489.87C385.5,490.98 383.92,491.52 382.22,491.7C378.26,492.13 374.47,491.43 370.78,490C370.49,489.89 370.44,489.74 370.47,489.47C370.64,487.93 370.8,486.38 370.98,484.74L370.98,484.76Z" style="fill:white;fill-rule:nonzero;"/>
            <path d="M513.57,471.21C514.06,470.76 514.48,470.38 514.89,469.99C516.73,468.24 518.87,466.99 521.29,466.22C521.66,466.1 521.74,466.17 521.73,466.55C521.71,468.17 521.71,469.78 521.73,471.4C521.73,471.75 521.62,471.85 521.3,471.91C519.34,472.31 517.51,473.02 515.95,474.32C514.62,475.44 513.9,476.84 513.88,478.61C513.86,480.89 513.77,483.17 513.84,485.45C513.9,487.18 514.03,488.9 514.5,490.57C514.61,490.97 514.75,491.35 514.99,491.69C515.05,491.77 515.19,491.85 515.11,491.97C515.04,492.08 514.91,492.03 514.8,492.03L510.24,492.03C509.18,492.03 508.12,492.01 507.05,492.03C506.68,492.03 506.58,491.94 506.59,491.57C506.6,485.99 506.59,480.41 506.59,474.84C506.59,472.86 506.55,470.88 506.12,468.93C505.99,468.36 505.82,467.81 505.49,467.31C505.26,466.96 505.35,466.8 505.76,466.8C507.82,466.8 509.88,466.8 511.94,466.79C512.27,466.79 512.43,466.92 512.55,467.19C512.98,468.14 513.15,469.15 513.35,470.16C513.41,470.47 513.47,470.78 513.55,471.21L513.57,471.21Z" style="fill:white;fill-rule:nonzero;"/>
            <path d="M448.36,474.7C447.15,473.94 445.84,473.38 444.48,472.96C443.82,472.75 443.15,472.57 442.43,472.37C443.09,472.07 443.7,471.81 444.3,471.53C445.99,470.72 447.61,469.79 448.9,468.4C450.76,466.39 451.23,464.05 450.37,461.48C449.72,459.54 448.26,458.28 446.51,457.35C443.82,455.93 440.9,455.4 437.89,455.4C432.25,455.4 426.6,455.42 420.96,455.43C420.87,455.43 420.77,455.43 420.55,455.45C421.51,456.25 421.74,457.26 421.85,458.31C421.91,458.91 421.93,459.51 421.93,460.11C421.96,469.46 421.98,478.82 422,488.17C422,488.6 422,489.03 421.96,489.45C421.9,490.25 421.6,490.95 421,491.51C420.9,491.6 420.69,491.66 420.75,491.82C420.82,492 421.03,491.9 421.17,491.9C425.13,491.9 429.1,491.92 433.06,491.9C436.1,491.88 439.15,491.98 442.19,491.8C446.62,491.55 450.58,488.51 451.9,484.28C453.16,480.26 451.94,476.94 448.37,474.7L448.36,474.7ZM432.27,462.03C432.27,461.14 432.52,460.77 433.35,460.45C435.34,459.68 438.45,460.5 439.76,462.18C440.86,463.57 440.92,465.12 440.27,466.71C439.12,469.53 436.09,470.96 433.17,470.11C432.53,469.92 432.32,469.65 432.31,468.98L432.31,465.46L432.27,465.46L432.27,462.03ZM440.88,485.63C440.08,486.65 439.05,487.26 437.73,487.35C436.48,487.43 435.23,487.44 433.98,487.33C433.04,487.24 432.51,486.72 432.41,485.78C432.25,484.31 432.33,482.83 432.35,481.36C432.36,480.04 432.4,478.73 432.42,477.41C432.45,476.08 432.97,475.54 434.3,475.5C434.79,475.48 435.28,475.5 435.77,475.5C436.67,475.5 437.58,475.55 438.48,475.63C439.63,475.73 440.51,476.26 441.16,477.22C442.82,479.67 442.7,483.32 440.88,485.65L440.88,485.63Z" style="fill:white;fill-rule:nonzero;"/>
            <path d="M294.54,457.09C292.19,456.04 289.72,455.58 287.17,455.49C282.54,455.33 277.91,455.4 273.29,455.41L270.63,455.41C270.33,455.41 270.19,455.48 270.4,455.79C271.3,457.08 271.56,458.53 271.56,460.07L271.56,489.79C271.54,490.42 271.31,490.96 270.81,491.37C270.64,491.51 270.42,491.63 270.29,491.9L283.12,491.9C282.93,491.63 282.77,491.42 282.62,491.2C282.2,490.59 281.94,489.93 281.94,489.17L281.94,476.33C281.94,476.02 281.99,475.9 282.34,475.9C284.53,475.93 286.72,475.89 288.9,475.74C290.32,475.64 291.75,475.55 293.13,475.17C297.04,474.1 300.02,470.56 300.31,466.68C300.64,462.2 298.68,458.94 294.58,457.09L294.54,457.09ZM289.95,469.64C289.21,470.98 288.01,471.59 286.51,471.65C285.83,471.68 285.15,471.65 284.47,471.65C283.77,471.65 283.07,471.64 282.38,471.65C282.02,471.65 281.91,471.52 281.91,471.18C281.91,467.85 281.91,464.52 281.92,461.19C281.92,460.35 282.12,460.1 282.95,459.99C286.29,459.54 289.8,461.33 290.62,464.67C291.05,466.41 290.82,468.07 289.96,469.63L289.95,469.64Z" style="fill:white;fill-rule:nonzero;"/>
            <path d="M343.75,468.51C341.28,464.91 337.55,464.38 333.93,466.22C332.95,466.72 332.02,467.35 331.14,468.02C330.95,468.17 330.85,468.18 330.69,467.99C330.32,467.56 329.92,467.15 329.53,466.73C329.18,466.35 328.74,466.18 328.22,466.18C326.89,466.19 325.56,466.18 324.22,466.18C323.14,466.18 322.06,466.17 320.99,466.16C320.89,466.16 320.75,466.1 320.69,466.22C320.62,466.36 320.78,466.4 320.85,466.47C321.18,466.78 321.42,467.15 321.55,467.58C321.74,468.21 321.74,468.86 321.75,469.51C321.75,478.5 321.76,487.49 321.77,496.48C321.77,497.4 321.79,498.32 321.77,499.24C321.75,500.06 321.63,500.85 320.98,501.45C320.91,501.51 320.81,501.57 320.84,501.68C320.89,501.83 321.03,501.76 321.13,501.76L331.4,501.76C331.5,501.76 331.64,501.82 331.7,501.69C331.76,501.56 331.63,501.5 331.54,501.43C330.85,500.89 330.55,500.15 330.54,499.31C330.52,496.59 330.54,493.86 330.54,491.07C331.67,491.67 332.79,491.99 333.98,491.94C338.28,491.76 341.52,489.79 343.66,486.06C345.17,483.42 345.9,480.52 346.1,477.51C346.32,474.26 345.63,471.21 343.76,468.5L343.75,468.51ZM336.71,485.05C336.33,485.91 335.87,486.72 335.2,487.39C334.37,488.23 333.37,488.67 332.18,488.64C331.24,488.62 330.77,488.2 330.72,487.26C330.58,484.84 330.71,482.41 330.7,479.98L330.7,473.51C330.7,472.97 330.72,472.43 330.86,471.91C331.2,470.63 332.08,469.95 333.34,469.74C334.67,469.52 335.79,469.87 336.6,471.01C337.24,471.91 337.63,472.93 337.81,474.02C338.45,477.8 338.27,481.5 336.72,485.06L336.71,485.05Z" style="fill:white;fill-rule:nonzero;"/>
            <path d="M419,490.74C417.77,488.86 416.54,486.97 415.3,485.1C415.14,484.86 415.12,484.68 415.3,484.43C415.89,483.58 416.36,482.67 416.77,481.72C417.67,479.65 418.14,477.48 418.16,475.22C418.16,474.95 418.16,474.75 417.79,474.81C416.9,474.94 416.01,475.07 415.11,475.15C414.69,475.19 414.59,475.4 414.54,475.74C414.42,476.49 414.3,477.24 414.14,477.98C413.9,479.01 413.59,480.02 413.08,481C413,480.89 412.94,480.81 412.89,480.74C410.93,477.73 408.96,474.72 407,471.7C406.34,470.68 405.64,469.67 405.25,468.5C404.61,466.6 405.43,465.07 407.37,464.56C408.87,464.17 410.35,464.26 411.79,464.85C412.4,465.1 412.94,465.49 413.59,465.89C413.59,464.65 413.57,463.5 413.59,462.35C413.59,462.01 413.48,461.89 413.17,461.8C410.63,461.09 408.07,460.87 405.47,461.4C403.17,461.87 401.08,462.78 399.54,464.64C398.09,466.4 397.68,468.35 398.68,470.48C399.07,471.32 399.66,472.03 400.39,472.74C399.55,472.96 398.82,473.19 398.1,473.48C396.02,474.33 394.17,475.5 392.86,477.36C390.87,480.2 390.98,483.24 392.34,486.25C394.27,490.5 399.3,492.67 403.84,491.89C405.85,491.54 407.69,490.75 409.4,489.66C409.74,489.45 409.91,489.49 410.13,489.79C410.42,490.19 410.75,490.55 411.04,490.95C411.22,491.19 411.41,491.28 411.72,491.28C414.1,491.27 416.48,491.28 418.85,491.27C418.98,491.27 419.13,491.33 419.27,491.19C419.18,491.04 419.09,490.9 419,490.75L419,490.74ZM407.98,486.39C406.76,486.81 405.51,487.08 403.78,487.07C402.29,487.02 400.5,486.61 399.13,485.13C396.3,482.05 397.71,478.04 401.15,476.65C401.55,476.49 401.81,476.54 402.08,476.94C404.09,479.9 406.13,482.84 408.18,485.77C408.46,486.16 408.34,486.27 407.97,486.4L407.98,486.39Z" style="fill:white;fill-rule:nonzero;"/>
            <path d="M490.29,481.36C494.7,479.94 499.1,478.52 503.5,477.08C504.02,476.91 504.73,476.92 505,476.5C505.28,476.08 505.05,475.42 505,474.87C504.65,471.53 503.2,468.82 500.31,467.01C497.27,465.12 493.93,464.68 490.48,465.37C485.97,466.26 482.91,469 481.14,473.19C480.09,475.68 479.57,478.28 479.95,480.98C480.41,484.29 482.08,486.92 484.72,488.9C488.16,491.47 492.04,492.53 496.31,491.83C499.15,491.36 501.53,489.89 503.76,488.15C503.89,488.05 503.93,487.95 503.93,487.79L503.93,484.29C503.75,484.37 503.7,484.38 503.66,484.41C503.43,484.55 503.2,484.69 502.97,484.83C500.76,486.19 498.38,487.12 495.78,487.32C493.71,487.48 492.07,486.71 490.92,484.96C490.31,484.04 490.04,483.01 489.92,481.92C489.88,481.58 489.99,481.46 490.3,481.36L490.29,481.36ZM488.81,477.2C488.81,475 488.76,472.84 489.69,470.82C490.21,469.69 490.97,468.79 492.26,468.48C493.74,468.12 494.94,468.7 495.58,470.08C496.01,471 496.14,471.99 496.24,472.98C496.3,473.53 496.32,474.09 496.35,474.64C496.35,474.79 496.39,474.94 496.16,475C493.72,475.72 491.29,476.45 488.81,477.2Z" style="fill:white;fill-rule:nonzero;"/>
            <path d="M478.64,474.55C478.3,471.71 477.11,469.31 474.84,467.52C471.06,464.54 464.85,464.16 460.47,466.6C457.21,468.41 455.28,471.26 454.21,474.74C453.32,477.64 453.15,480.55 454.27,483.45C456.81,489.98 464.55,492.87 470.2,491.71C472.93,491.15 475.25,489.75 477.42,488.07C477.61,487.92 477.59,487.76 477.59,487.57L477.59,484.16C477.37,484.29 477.29,484.33 477.21,484.38C475.52,485.5 473.71,486.34 471.75,486.84C470.47,487.17 469.18,487.41 467.85,487.14C464.91,486.53 463.67,483.82 463.59,481.65C463.58,481.38 463.74,481.35 463.92,481.29C465.38,480.82 466.83,480.34 468.29,479.87C471.64,478.79 474.99,477.7 478.35,476.63C478.67,476.53 478.78,476.39 478.75,476.07C478.7,475.57 478.71,475.06 478.65,474.55L478.64,474.55ZM469.13,475.12C466.98,475.76 464.84,476.41 462.69,477.05C462.63,477.07 462.57,477.08 462.47,477.1C462.47,475.02 462.43,472.96 463.24,471.01C463.75,469.77 464.51,468.75 465.91,468.4C467.41,468.03 468.61,468.6 469.25,470.01C469.81,471.25 469.88,472.58 469.97,473.9C470.04,474.84 470.02,474.84 469.12,475.11L469.13,475.12Z" style="fill:white;fill-rule:nonzero;"/>
            <path d="M369.18,490.35C368.69,490.13 368.42,489.74 368.35,489.17C368.09,487 367.91,484.82 367.82,482.63C367.68,479.38 367.72,476.13 367.7,472.88C367.69,471.23 367.12,469.82 365.99,468.63C364.32,466.87 362.24,465.93 359.87,465.57C357.72,465.24 355.57,465.31 353.42,465.5C352.11,465.62 350.82,465.85 349.54,466.16C349.38,466.2 349.16,466.16 349.16,466.47C349.17,467.72 349.16,468.97 349.16,470.31C350.36,469.49 351.63,469.19 352.94,469.05C354.8,468.85 356.61,469.05 358.32,469.86C358.91,470.14 359.39,470.53 359.68,471.13C360.21,472.23 360.22,473.36 359.9,474.51C359.83,474.76 359.68,474.88 359.39,474.91C358.29,475 357.18,475.13 356.1,475.38C352.35,476.26 349.21,478.08 347.2,481.48C344.97,485.25 346.36,489.95 350.59,491.39C354.14,492.61 357.47,492.1 360.46,489.72C360.65,490.16 360.83,490.66 361.06,491.13C361.32,491.67 361.72,491.95 362.37,491.94C364.43,491.91 366.49,491.94 368.55,491.94C369.53,491.94 369.52,491.94 369.54,490.97C369.54,490.66 369.46,490.49 369.17,490.36L369.18,490.35ZM358.33,488.66C354.58,488.63 353.09,484.88 354.24,482.11C354.89,480.53 356.03,479.44 357.69,478.97C358.95,478.61 359.83,479.23 359.93,480.53C359.95,480.8 359.97,481.07 359.97,481.34L359.97,487.09C359.97,488.21 359.45,488.67 358.32,488.66L358.33,488.66Z" style="fill:white;fill-rule:nonzero;"/>
            <path d="M320.14,490.3C319.73,490.12 319.47,489.78 319.41,489.31C319.19,487.49 319.01,485.66 318.92,483.82C318.74,480.16 318.74,476.5 318.74,472.84C318.74,471.36 318.26,470.08 317.32,468.96C315.9,467.27 314.06,466.26 311.94,465.78C308.69,465.05 305.42,465.34 302.16,465.78C302.03,465.8 301.92,465.83 301.89,465.99C301.64,467.36 301.17,468.66 300.55,469.9C300.67,469.99 300.76,469.94 300.85,469.9C301.85,469.43 302.9,469.15 303.99,469.04C305.85,468.85 307.66,469.05 309.37,469.86C309.99,470.15 310.49,470.57 310.78,471.21C311.26,472.27 311.26,473.35 310.97,474.46C310.89,474.76 310.73,474.88 310.4,474.91C309.31,475 308.22,475.13 307.16,475.38C303.41,476.26 300.31,478.1 298.25,481.48C296.11,484.98 297.33,489.54 300.99,491.12C304.72,492.73 308.26,492.24 311.53,489.73C311.75,490.17 311.87,490.74 312.16,491.23C312.44,491.7 312.8,491.95 313.39,491.95C315.51,491.93 317.64,491.95 319.76,491.95C320.6,491.95 320.58,491.95 320.61,491.11C320.63,490.71 320.51,490.48 320.14,490.31L320.14,490.3ZM309.38,488.66C305.6,488.63 304.12,484.81 305.33,482.02C305.98,480.52 307.08,479.47 308.66,478.99C310.02,478.57 310.95,479.24 311.01,480.68C311.05,481.8 311.01,482.93 311.01,484.05L311.02,484.05L311.02,487.09C311.02,488.21 310.5,488.67 309.37,488.66L309.38,488.66Z" style="fill:white;fill-rule:nonzero;"/>
        </g>
    </g>
</svg>
