<?xml version="1.0" encoding="UTF-8" standalone="no"?>
<!DOCTYPE svg PUBLIC "-//W3C//DTD SVG 1.1//EN" "http://www.w3.org/Graphics/SVG/1.1/DTD/svg11.dtd">
<svg width="100%" height="100%" viewBox="0 0 173 19" version="1.1" xmlns="http://www.w3.org/2000/svg" xmlns:xlink="http://www.w3.org/1999/xlink" xml:space="preserve" xmlns:serif="http://www.serif.com/" style="fill-rule:evenodd;clip-rule:evenodd;stroke-linejoin:round;stroke-miterlimit:2;">
    <g transform="matrix(1,0,0,1,-39.04,-302.289322)">
        <g transform="matrix(1,0,0,1,0.01,21.439322)">
            <g>
                <path d="M210.16,296.32C210.17,296.08 210.06,295.85 209.85,295.73C209.64,295.57 209.41,295.56 209.17,295.57L207.94,295.57L207.96,298.36L208.35,298.36L208.35,297.1L208.88,297.1L209.66,298.35L210.11,298.35L209.29,297.09C209.75,297.09 210.14,296.87 210.16,296.31L210.16,296.32ZM208.82,296.8L208.35,296.8L208.35,295.88L209.11,295.88C209.45,295.87 209.79,295.92 209.79,296.31C209.78,296.87 209.21,296.81 208.82,296.8Z" style="fill:white;fill-rule:nonzero;"/>
                <path d="M208.93,294.49C207.56,294.5 206.46,295.61 206.46,296.97C206.46,298.36 207.57,299.45 208.96,299.46C210.33,299.46 211.42,298.35 211.43,296.97C211.43,295.59 210.3,294.49 208.93,294.49ZM208.94,299.05C207.77,299.07 206.87,298.15 206.86,296.98C206.86,295.83 207.78,294.9 208.93,294.9C210.11,294.9 211.01,295.81 211.02,296.97C211.02,298.14 210.12,299.05 208.94,299.04L208.94,299.05Z" style="fill:white;fill-rule:nonzero;"/>
            </g>
            <g>
                <rect x="172.2" y="280.86" width="5.94" height="18.61" style="fill:white;"/>
                <path d="M199.98,288.07L187.6,288.07C186.77,288.07 186.09,287.39 186.09,286.56C186.09,285.73 186.77,285.05 187.6,285.05L203.8,285.05L203.8,280.86L186.09,280.86C183.31,280.86 181.06,283.11 181.06,285.89L181.06,287.23C181.06,290.01 183.31,292.26 186.09,292.26L198.78,292.26C199.61,292.26 200.29,292.94 200.29,293.77C200.29,294.6 199.61,295.28 198.78,295.28L181.59,295.28L181.59,299.47L199.98,299.47C203.09,299.47 205.61,296.95 205.61,293.84L205.61,293.7C205.61,290.59 203.09,288.07 199.98,288.07Z" style="fill:white;fill-rule:nonzero;"/>
                <path d="M168.92,288.69L168.92,286.52C168.92,283.39 166.38,280.86 163.26,280.86L143.94,280.86L143.94,299.47L149.88,299.47L149.88,294.36L160.05,294.36L163.09,299.47L169.63,299.47L166.11,293.55C167.78,292.57 168.91,290.77 168.91,288.69L168.92,288.69ZM149.87,290.17L149.87,285.05L161.09,285.05C162.5,285.05 163.65,286.19 163.65,287.61C163.65,289.03 162.51,290.17 161.09,290.17L149.87,290.17Z" style="fill:white;fill-rule:nonzero;"/>
                <path d="M135.61,280.86L135.61,280.89L122.19,280.89L122.19,280.86C118.91,280.86 116.25,283.52 116.25,286.8L116.25,299.46L122.19,299.46L122.19,294.35L135.61,294.35L135.61,299.46L141.55,299.46L141.55,286.8C141.55,283.52 138.89,280.86 135.61,280.86ZM135.61,290.16L122.19,290.16L122.19,286.96C122.19,285.91 123.04,285.07 124.08,285.07L133.71,285.07C134.76,285.07 135.6,285.92 135.6,286.96L135.6,290.16L135.61,290.16Z" style="fill:white;fill-rule:nonzero;"/>
                <path d="M102.04,294.61L102.04,280.85L96.1,280.85L96.1,295.27C96.1,297.58 97.98,299.46 100.29,299.46L113.88,299.46L113.88,295.27L102.71,295.27C102.34,295.27 102.05,294.97 102.05,294.61L102.04,294.61Z" style="fill:white;fill-rule:nonzero;"/>
                <path d="M58.44,280.86L39.03,280.86L39.03,299.47L44.97,299.47L44.97,294.36L58.43,294.36C61.56,294.36 64.09,291.82 64.09,288.7L64.09,286.53C64.09,283.4 61.55,280.87 58.43,280.87L58.44,280.86ZM56.06,290.16L44.98,290.16L44.98,285.05L56.06,285.05C57.47,285.05 58.62,286.19 58.62,287.61C58.62,289.03 57.48,290.17 56.06,290.17L56.06,290.16Z" style="fill:white;fill-rule:nonzero;"/>
                <path d="M87.56,280.88L80.3,280.88L81.73,285.73L86.41,283.92L84.98,288.17L92.91,289.37L92.91,286.03C92.91,283.18 90.51,280.87 87.55,280.87L87.56,280.88Z" style="fill:white;fill-rule:nonzero;"/>
                <path d="M73.25,283.93L77.93,285.74L79.36,280.89L72.1,280.89C69.14,280.89 66.74,283.2 66.74,286.05L66.74,289.39L74.67,288.19L73.24,283.94L73.25,283.93Z" style="fill:white;fill-rule:nonzero;"/>
                <path d="M73.09,295.7L74.78,291.45L66.74,290.17L66.74,294.31C66.74,297.16 69.14,299.47 72.1,299.47L79.42,299.47L78.01,293.96L73.09,295.71L73.09,295.7Z" style="fill:white;fill-rule:nonzero;"/>
                <path d="M86.58,295.7L81.66,293.95L80.25,299.46L87.57,299.46C90.53,299.46 92.93,297.15 92.93,294.3L92.93,290.16L84.89,291.44L86.58,295.69L86.58,295.7Z" style="fill:white;fill-rule:nonzero;"/>
            </g>
        </g>
    </g>
</svg>
