<?xml version="1.0" encoding="UTF-8" standalone="no"?>
<!DOCTYPE svg PUBLIC "-//W3C//DTD SVG 1.1//EN" "http://www.w3.org/Graphics/SVG/1.1/DTD/svg11.dtd">
<svg width="100%" height="100%" viewBox="0 0 74 37" version="1.1" xmlns="http://www.w3.org/2000/svg" xmlns:xlink="http://www.w3.org/1999/xlink" xml:space="preserve" xmlns:serif="http://www.serif.com/" style="fill-rule:evenodd;clip-rule:evenodd;stroke-linejoin:round;stroke-miterlimit:2;">
    <g transform="matrix(1,0,0,1,-369.26,-271.8)">
        <g>
            <path d="M390.17,281.19C389.48,283.07 388.82,284.87 388.16,286.66C388.11,286.81 388.09,286.92 388.18,287.07C390.35,290.36 392.52,293.66 394.69,296.96C394.78,297.1 394.87,297.16 395.05,297.16L404.51,297.16C404.71,297.16 404.78,297.09 404.84,296.92C405.39,295.44 405.95,293.96 406.51,292.49C407.62,289.62 408.74,286.75 409.86,283.88C410.46,282.33 411.08,280.78 411.68,279.23C411.74,279.08 411.8,279.01 411.97,279.01C413.99,279.01 416.01,279.01 418.03,279.02C418.14,279.02 418.3,279.09 418.35,279.17C418.72,279.74 418.79,280.33 418.45,280.94C418.35,281.12 418.23,281.2 418.01,281.2C416.02,281.2 414.02,281.22 412.03,281.22C411.82,281.22 411.72,281.28 411.65,281.48C411.18,282.77 410.7,284.06 410.22,285.36C410.08,285.75 409.94,286.14 409.79,286.55C409.9,286.55 409.97,286.57 410.05,286.57C413.43,286.57 416.8,286.59 420.18,286.59C420.3,286.59 420.47,286.53 420.55,286.44C421.07,285.84 421.62,285.26 422.07,284.61C423.33,282.8 423.78,280.8 423.31,278.63C422.86,276.55 421.81,274.79 420.35,273.26C420.28,273.19 420.14,273.16 420.03,273.16C415.6,273.16 411.16,273.16 406.73,273.15C406.53,273.15 406.44,273.21 406.37,273.4C405.84,274.84 405.31,276.28 404.77,277.71C403.08,282.17 401.38,286.64 399.68,291.1C399.44,291.74 399.2,292.38 398.93,293.09C397.6,290.9 396.3,288.77 394.98,286.59C395.13,286.59 395.22,286.58 395.31,286.58C396.4,286.58 397.48,286.58 398.57,286.56C398.7,286.56 398.87,286.49 398.95,286.4C399.37,285.93 399.78,285.45 400.17,284.95C401.81,282.84 402.29,280.5 401.54,277.92C401.03,276.17 400.05,274.71 398.88,273.36C398.74,273.2 398.59,273.14 398.37,273.14C393.98,273.14 389.6,273.14 385.21,273.13C384.96,273.13 384.86,273.21 384.77,273.43C381.82,281.25 378.87,289.07 375.91,296.89C375.86,297.01 375.82,297.14 375.78,297.27C375.83,297.28 375.85,297.29 375.86,297.29L382.93,297.29C383.12,297.29 383.16,297.18 383.21,297.05C384.65,293.28 386.09,289.5 387.54,285.73C388.37,283.56 389.2,281.38 390.03,279.21C390.09,279.07 390.12,278.92 390.34,278.93C392.38,278.94 394.42,278.93 396.46,278.95C396.55,278.95 396.67,278.99 396.72,279.06C397.16,279.58 397.21,280.36 396.85,280.94C396.74,281.12 396.61,281.21 396.38,281.2C394.3,281.19 392.23,281.2 390.16,281.2L390.17,281.19ZM436.66,273.06C436.61,273.06 436.59,273.05 436.57,273.05L428.13,273.05C427.96,273.05 427.91,273.13 427.86,273.26C426.91,275.71 425.97,278.15 425.01,280.59C424.14,282.82 423.27,285.04 422.39,287.27C421.3,290.01 420.21,292.75 419.12,295.49C418.86,296.14 418.61,296.79 418.36,297.45C418.46,297.45 418.52,297.47 418.58,297.47L426.74,297.47C426.95,297.47 427,297.36 427.06,297.21C428.02,294.77 428.98,292.33 429.95,289.89C431.59,285.77 433.24,281.65 434.89,277.53C435.48,276.05 436.07,274.57 436.66,273.07L436.66,273.06ZM369.33,298.01L434.25,298.01C434.42,298.04 434.48,297.95 434.54,297.79C434.78,297.03 435.04,296.28 435.3,295.52C435.33,295.44 435.34,295.37 435.37,295.27L432.35,295.27C431.14,295.27 429.94,295.27 428.73,295.28C428.58,295.28 428.47,295.28 428.39,295.48C428.11,296.2 427.79,296.9 427.5,297.62C427.43,297.8 427.34,297.88 427.14,297.88C424.08,297.87 421.02,297.86 417.96,297.86C417.88,297.86 417.8,297.85 417.69,297.84C418,296.99 418.31,296.16 418.62,295.31L417.01,295.31C413.47,295.31 409.94,295.29 406.4,295.28C406.18,295.28 406.06,295.33 405.98,295.55C405.74,296.22 405.47,296.89 405.23,297.56C405.15,297.8 405.02,297.88 404.76,297.88C401.44,297.87 398.12,297.87 394.8,297.85C394.69,297.85 394.55,297.77 394.49,297.68C394,296.97 393.52,296.26 393.06,295.54C392.94,295.35 392.82,295.27 392.59,295.27C390.5,295.28 388.42,295.28 386.33,295.29L384.55,295.29C384.44,295.53 384.33,295.73 384.25,295.94C384.03,296.49 383.82,297.03 383.62,297.58C383.54,297.79 383.43,297.85 383.21,297.85L375.27,297.85C375.18,297.85 375.09,297.85 374.97,297.83C375.27,296.98 375.56,296.17 375.86,295.32L369.87,295.32C369.67,295.95 369.46,296.57 369.26,297.2C369.28,297.21 369.3,297.22 369.32,297.24C369.41,297.16 369.5,297.07 369.59,296.99C369.61,297 369.63,297.02 369.65,297.03C369.55,297.34 369.45,297.66 369.33,298.01ZM436.49,274.94C436.64,274.95 436.77,274.97 436.89,274.97C438.49,274.97 440.09,274.97 441.69,274.98C441.88,274.98 441.94,274.9 441.99,274.74C442.24,273.95 442.5,273.17 442.76,272.39C442.82,272.2 442.89,272.01 442.96,271.8L442.58,271.8C434.62,271.8 426.66,271.81 418.7,271.82C405.11,271.82 391.51,271.83 377.92,271.84C377.36,271.84 377.51,271.77 377.32,272.26C377.14,272.74 377,273.23 376.83,273.73C376.95,273.76 377.02,273.78 377.1,273.79C377.02,274.07 376.94,274.33 376.85,274.63L383.06,274.63C383.6,274.63 383.61,274.63 383.79,274.11C383.94,273.66 384.1,273.21 384.2,272.75C384.25,272.53 384.29,272.45 384.52,272.45C385.61,272.45 386.71,272.44 387.8,272.44C391.42,272.44 395.04,272.45 398.66,272.45C398.99,272.45 399.23,272.56 399.42,272.82C399.92,273.5 400.43,274.16 400.94,274.82C400.99,274.88 401.09,274.92 401.17,274.92L404.87,274.92C404.95,274.92 405.07,274.83 405.1,274.76C405.36,274.13 405.63,273.49 405.85,272.84C405.95,272.55 406.09,272.46 406.38,272.47C408.18,272.48 409.97,272.47 411.77,272.47L419.94,272.47C420.33,272.47 420.7,272.53 420.95,272.84C421.46,273.47 421.93,274.12 422.43,274.75C422.5,274.84 422.64,274.91 422.75,274.91C423.93,274.92 425.11,274.91 426.29,274.93C426.46,274.93 426.56,274.89 426.63,274.73C426.9,274.06 427.18,273.39 427.45,272.71C427.52,272.53 427.61,272.46 427.82,272.46L437.11,272.46C437.2,272.46 437.28,272.47 437.41,272.48C437.09,273.31 436.79,274.1 436.47,274.92L436.49,274.94ZM414.34,306.11C414.34,306.11 414.43,306.11 414.48,306.12C414.58,306.85 414.68,307.57 414.78,308.3C414.8,308.3 414.82,308.32 414.83,308.32C415.85,308.32 416.87,308.33 417.89,308.32C417.96,308.32 418.06,308.22 418.09,308.15C418.25,307.79 418.39,307.43 418.53,307.06C419.16,305.4 419.78,303.73 420.41,302.07C420.63,301.49 420.88,300.92 421.12,300.31L417.75,300.31C417.68,300.31 417.59,300.42 417.56,300.49C417.32,301.08 417.09,301.68 416.85,302.28C416.82,302.35 416.78,302.41 416.75,302.48C416.73,302.48 416.7,302.48 416.68,302.47C416.59,301.76 416.5,301.06 416.41,300.33L413.12,300.33C412.09,302.99 411.05,305.63 410.03,308.27L413.29,308.27C413.36,308.27 413.47,308.18 413.5,308.11C413.74,307.53 413.97,306.95 414.21,306.37C414.25,306.27 414.31,306.19 414.36,306.09L414.34,306.11ZM431.03,304.27L426.85,304.27C426.77,304.27 426.65,304.34 426.62,304.41C426.44,304.82 426.29,305.24 426.12,305.67C426.24,305.69 426.32,305.71 426.49,305.75C426.37,305.84 426.31,305.9 426.24,305.92C426.13,305.95 426.02,305.97 425.91,305.98C425.64,306.01 425.53,305.92 425.56,305.66C425.58,305.46 425.63,305.26 425.69,305.06C425.88,304.4 426.12,303.75 426.62,303.25C426.79,303.08 427.02,302.95 427.25,302.86C427.46,302.77 427.59,302.89 427.59,303.12L427.59,303.51L431,303.51C431.06,303.51 431.16,303.41 431.17,303.35C431.27,302.2 431.03,301.41 429.91,300.79C428.89,300.23 427.78,300.22 426.67,300.46C425.44,300.72 424.49,301.43 423.63,302.32C422.72,303.26 422.21,304.37 422.04,305.67C421.89,306.8 422.39,307.72 423.44,308.19C424.23,308.54 425.05,308.56 425.89,308.47C426.95,308.36 427.88,307.96 428.76,307.35C429.88,306.58 430.58,305.54 431.03,304.27ZM398.48,303.51C398.56,303.53 398.59,303.54 398.61,303.54C399.5,303.54 400.39,303.54 401.28,303.53C401.99,303.53 402,303.53 401.97,302.82C401.93,301.61 401.34,300.86 400.26,300.49C399.52,300.24 398.76,300.24 397.99,300.35C396.68,300.53 395.62,301.19 394.7,302.1C394.04,302.75 393.58,303.52 393.35,304.41C393.15,305.19 393.05,305.97 393.42,306.73C393.93,307.78 394.8,308.29 395.93,308.4C397.93,308.6 399.65,308.05 400.95,306.45C401.28,306.04 401.54,305.56 401.86,305.08L398.58,305.08C398.52,305.08 398.44,305.18 398.39,305.24C398.27,305.41 398.17,305.61 398.03,305.77C397.82,306.01 397.21,306.05 396.9,305.88C396.67,305.75 396.57,305.48 396.66,305.11C396.81,304.42 397.08,303.78 397.54,303.24C397.72,303.03 397.98,302.88 398.23,302.74C398.37,302.66 398.48,302.74 398.48,302.91L398.48,303.51ZM420.45,290.65L413.13,290.65C411.47,290.65 409.82,290.65 408.17,290.63C407.94,290.63 407.85,290.71 407.77,290.92C407.57,291.51 407.33,292.08 407.11,292.66C406.98,293.01 406.86,293.36 406.72,293.75L407.2,293.75C410.95,293.75 414.7,293.76 418.45,293.75C419.39,293.75 419.15,293.93 419.52,293.04C419.84,292.26 420.13,291.47 420.45,290.64L420.45,290.65ZM409.51,300.34L406.12,300.34C405.91,300.34 405.81,300.39 405.74,300.59C405,302.52 404.24,304.45 403.5,306.38C403.27,307 403.07,307.63 402.83,308.34L406.3,308.34C406.37,308.34 406.48,308.24 406.52,308.16C406.96,307.05 407.39,305.93 407.81,304.82C408.18,303.82 408.53,302.81 408.91,301.81C409.09,301.33 409.31,300.86 409.52,300.36L409.51,300.34ZM408.51,289.09L420.75,289.09C420.93,289.09 421.06,289.09 421.15,288.86C421.51,287.91 421.89,286.97 422.27,286.03C422.24,286 422.22,285.98 422.19,285.95C422.05,285.99 421.89,286.01 421.78,286.09C421.52,286.3 421.26,286.52 421.04,286.77C420.78,287.05 420.47,287.14 420.09,287.14C416.75,287.15 413.41,287.17 410.08,287.19C409.85,287.19 409.61,287.19 409.38,287.2C409.31,287.2 409.21,287.25 409.19,287.31C408.96,287.88 408.74,288.46 408.51,289.08L408.51,289.09ZM436.79,290.65C436.79,290.65 436.76,290.63 436.74,290.63C434.65,290.63 432.57,290.63 430.48,290.65C430.39,290.65 430.26,290.75 430.22,290.84C430.01,291.3 429.83,291.76 429.64,292.23C429.44,292.74 429.24,293.24 429.03,293.76C429.09,293.78 429.11,293.79 429.14,293.79C431.3,293.79 433.46,293.8 435.62,293.79C435.69,293.79 435.79,293.7 435.82,293.63C436.15,292.65 436.46,291.66 436.79,290.65ZM430.86,289.1C431.01,289.11 431.1,289.13 431.19,289.13C433.18,289.13 435.17,289.13 437.17,289.14C437.35,289.14 437.4,289.06 437.45,288.91C437.72,288.08 437.99,287.25 438.26,286.43C438.31,286.28 438.36,286.13 438.41,285.96L432.88,285.96C432.68,285.96 432.49,285.96 432.29,285.98C432.22,285.98 432.13,286.03 432.1,286.09C431.69,287.07 431.28,288.06 430.86,289.1ZM432.69,284.5C432.81,284.51 432.89,284.52 432.96,284.52C434.88,284.52 436.81,284.52 438.73,284.53C438.93,284.53 438.96,284.43 439,284.29C439.28,283.42 439.57,282.55 439.86,281.68C439.89,281.58 439.93,281.47 439.97,281.36L435.99,281.36C435.39,281.36 434.79,281.36 434.2,281.38C434.1,281.38 433.95,281.45 433.92,281.53C433.5,282.5 433.11,283.48 432.69,284.5ZM375.38,279.4C375.43,279.4 375.47,279.41 375.5,279.41L381.61,279.41C381.78,279.41 381.85,279.34 381.91,279.19C382.16,278.5 382.43,277.81 382.67,277.12C382.73,276.96 382.74,276.79 382.78,276.61L375.98,276.61C375.78,277.23 375.58,277.85 375.37,278.48L375.66,278.48C375.56,278.79 375.47,279.08 375.38,279.39L375.38,279.4ZM441.47,276.59L436.05,276.59C435.96,276.59 435.83,276.69 435.79,276.78C435.61,277.16 435.46,277.55 435.3,277.93C435.07,278.51 434.84,279.1 434.6,279.7C434.66,279.72 434.69,279.73 434.73,279.73C436.59,279.73 438.45,279.74 440.31,279.74C440.37,279.74 440.46,279.67 440.48,279.61C440.81,278.61 441.14,277.6 441.47,276.58L441.47,276.59ZM373.86,284.17C373.96,284.17 374.03,284.18 374.1,284.18L379.66,284.18C379.96,284.18 380.12,284.09 380.19,283.8C380.23,283.61 380.33,283.43 380.39,283.25C380.61,282.65 380.82,282.04 381.05,281.39L374.46,281.39C374.26,282.01 374.05,282.63 373.84,283.28C373.96,283.26 374.03,283.25 374.14,283.24C374.04,283.56 373.95,283.85 373.85,284.16L373.86,284.17ZM379.35,285.99L373.1,285.99C373.03,285.99 372.92,286.06 372.9,286.12C372.69,286.69 372.51,287.27 372.31,287.86C372.43,287.89 372.5,287.91 372.58,287.93C372.49,288.22 372.41,288.48 372.32,288.78L377.46,288.78C377.75,288.78 378.11,288.87 378.31,288.73C378.51,288.59 378.55,288.23 378.65,287.96C378.89,287.32 379.12,286.67 379.37,285.98L379.35,285.99ZM370.74,293.45C370.74,293.45 370.8,293.46 370.83,293.46L376.39,293.46C376.53,293.46 376.6,293.42 376.65,293.28C376.91,292.57 377.18,291.87 377.43,291.16C377.48,291.03 377.49,290.88 377.52,290.69L371.31,290.69C371.11,291.28 370.91,291.91 370.72,292.47C371.12,292.84 370.69,293.13 370.74,293.44L370.74,293.45ZM386.33,290.64C385.9,291.67 385.44,292.66 385.17,293.74L391.82,293.74C391.16,292.72 390.51,291.72 389.86,290.73C389.83,290.68 389.74,290.65 389.67,290.65L386.33,290.65L386.33,290.64ZM396.04,287.16C396.36,287.7 396.63,288.19 396.95,288.65C397.07,288.83 397.14,289.1 397.46,289.1C398.17,289.09 398.88,289.1 399.59,289.09C399.68,289.09 399.81,289 399.85,288.91C400.15,288.16 400.44,287.41 400.73,286.65C400.82,286.42 400.91,286.19 401.01,285.94C400.84,285.94 400.71,285.95 400.58,285.94C400.33,285.91 400.17,286 400.01,286.2C399.8,286.46 399.54,286.68 399.31,286.92C399.14,287.1 398.96,287.16 398.71,287.16C397.84,287.15 396.97,287.16 396.05,287.16L396.04,287.16ZM404.51,276.58L401.81,276.58C402.2,277.5 402.42,278.45 402.52,279.42C402.53,279.54 402.48,279.74 402.71,279.72C402.94,279.69 403.25,279.87 403.38,279.51C403.59,278.95 403.81,278.39 404.03,277.82C404.19,277.42 404.34,277.01 404.51,276.58ZM425.93,276.63L423.52,276.63C423.75,277.66 423.99,278.68 424.22,279.71C424.69,279.77 424.71,279.77 424.9,279.31C425.25,278.43 425.58,277.55 425.93,276.64L425.93,276.63ZM387.6,287.25C387.38,287.9 387.04,288.42 387.01,289.07L388.76,289.07C388.37,288.46 388.01,287.89 387.6,287.25ZM399.24,290.64L398.12,290.64C398.36,291.01 398.57,291.35 398.81,291.73C398.96,291.34 399.1,291.01 399.24,290.64ZM401.41,284.5C401.41,284.5 401.52,284.42 401.54,284.37C401.83,283.64 402.11,282.9 402.4,282.17C402.5,281.91 402.61,281.65 402.71,281.38C402.49,281.32 402.37,281.36 402.37,281.59C402.37,281.67 402.36,281.76 402.33,281.84C402.03,282.72 401.72,283.6 401.4,284.51L401.41,284.5Z" style="fill:white;fill-rule:nonzero;"/>
            <path d="M390.17,281.19L396.39,281.19C396.62,281.19 396.75,281.11 396.86,280.93C397.22,280.34 397.17,279.56 396.73,279.05C396.67,278.98 396.56,278.94 396.47,278.94C394.43,278.94 392.39,278.94 390.35,278.92C390.12,278.92 390.09,279.06 390.04,279.2C389.21,281.37 388.38,283.55 387.55,285.72C386.11,289.49 384.67,293.27 383.22,297.04C383.17,297.17 383.13,297.28 382.94,297.28L375.87,297.28C375.85,297.28 375.83,297.28 375.79,297.26C375.83,297.13 375.87,297 375.92,296.88C378.87,289.06 381.83,281.24 384.78,273.42C384.87,273.19 384.97,273.12 385.22,273.12C389.61,273.13 393.99,273.13 398.38,273.13C398.59,273.13 398.75,273.19 398.89,273.35C400.07,274.7 401.05,276.17 401.55,277.91C402.3,280.49 401.82,282.83 400.18,284.94C399.79,285.44 399.38,285.92 398.96,286.39C398.88,286.49 398.71,286.55 398.58,286.55C397.5,286.57 396.41,286.56 395.32,286.57C395.23,286.57 395.14,286.57 394.99,286.58C396.31,288.75 397.61,290.89 398.94,293.08C399.2,292.38 399.44,291.73 399.69,291.09C401.39,286.63 403.08,282.16 404.78,277.7C405.32,276.27 405.86,274.83 406.38,273.39C406.45,273.2 406.54,273.14 406.74,273.14C411.17,273.14 415.61,273.14 420.04,273.15C420.15,273.15 420.29,273.18 420.36,273.25C421.82,274.78 422.87,276.53 423.32,278.62C423.79,280.8 423.34,282.79 422.08,284.6C421.63,285.25 421.08,285.83 420.56,286.43C420.48,286.52 420.32,286.58 420.19,286.58C416.81,286.58 413.44,286.58 410.06,286.56C409.99,286.56 409.91,286.55 409.8,286.54C409.95,286.13 410.09,285.74 410.23,285.35C410.71,284.06 411.19,282.77 411.66,281.47C411.73,281.27 411.83,281.21 412.04,281.21C414.03,281.21 416.03,281.19 418.02,281.19C418.24,281.19 418.36,281.11 418.46,280.93C418.8,280.32 418.73,279.73 418.36,279.16C418.3,279.07 418.15,279.01 418.04,279.01C416.02,279 414,279.01 411.98,279C411.8,279 411.74,279.08 411.69,279.22C411.09,280.77 410.48,282.32 409.87,283.87C408.75,286.74 407.63,289.61 406.52,292.48C405.95,293.95 405.4,295.43 404.85,296.91C404.79,297.08 404.72,297.15 404.52,297.15C401.37,297.15 398.21,297.14 395.06,297.15C394.88,297.15 394.79,297.09 394.7,296.95C392.53,293.65 390.37,290.35 388.19,287.06C388.09,286.91 388.11,286.8 388.17,286.65C388.83,284.86 389.49,283.06 390.18,281.18L390.17,281.19Z" style="fill:white;"/>
            <path d="M436.66,273.06C436.06,274.56 435.48,276.04 434.89,277.52C433.24,281.64 431.59,285.76 429.95,289.88C428.98,292.32 428.02,294.76 427.06,297.2C427,297.36 426.95,297.46 426.74,297.46L418.58,297.46C418.52,297.46 418.45,297.46 418.36,297.44C418.62,296.77 418.87,296.12 419.12,295.48C420.21,292.74 421.31,290 422.39,287.26C423.27,285.04 424.14,282.81 425.01,280.58C425.96,278.14 426.91,275.69 427.86,273.25C427.91,273.12 427.96,273.04 428.13,273.04L436.57,273.04C436.59,273.04 436.61,273.04 436.66,273.05L436.66,273.06Z" style="fill:white;"/>
            <path d="M369.33,298.01C369.44,297.66 369.55,297.35 369.65,297.03C369.63,297.02 369.61,297 369.59,296.99C369.5,297.07 369.41,297.16 369.32,297.24C369.3,297.23 369.28,297.22 369.26,297.2C369.47,296.57 369.67,295.94 369.87,295.32L375.86,295.32C375.56,296.17 375.27,296.99 374.97,297.83C375.09,297.83 375.18,297.85 375.27,297.85L383.21,297.85C383.43,297.85 383.54,297.79 383.62,297.58C383.82,297.03 384.03,296.48 384.25,295.94C384.33,295.73 384.44,295.52 384.55,295.29L386.33,295.29C388.42,295.29 390.5,295.29 392.59,295.27C392.82,295.27 392.94,295.35 393.06,295.54C393.52,296.26 394,296.98 394.49,297.68C394.55,297.77 394.69,297.85 394.8,297.85C398.12,297.86 401.44,297.86 404.76,297.88C405.02,297.88 405.14,297.8 405.23,297.56C405.47,296.89 405.74,296.22 405.98,295.55C406.06,295.33 406.18,295.28 406.4,295.28C409.94,295.3 413.47,295.3 417.01,295.31L418.62,295.31C418.3,296.17 418,296.99 417.69,297.84C417.8,297.84 417.88,297.86 417.96,297.86C421.02,297.86 424.08,297.87 427.14,297.88C427.35,297.88 427.43,297.8 427.5,297.62C427.79,296.9 428.11,296.2 428.39,295.48C428.47,295.29 428.58,295.28 428.73,295.28C429.94,295.28 431.14,295.28 432.35,295.27L435.37,295.27C435.35,295.36 435.33,295.44 435.3,295.52C435.05,296.28 434.79,297.03 434.54,297.79C434.49,297.95 434.43,298.04 434.25,298.01L369.33,298.01Z" style="fill:white;"/>
            <path d="M436.49,274.94C436.81,274.12 437.11,273.33 437.43,272.5C437.3,272.5 437.22,272.48 437.13,272.48L427.84,272.48C427.64,272.48 427.54,272.55 427.47,272.73C427.2,273.41 426.92,274.07 426.65,274.75C426.58,274.92 426.48,274.96 426.31,274.95C425.13,274.95 423.95,274.95 422.77,274.93C422.66,274.93 422.52,274.86 422.45,274.77C421.95,274.14 421.47,273.49 420.97,272.86C420.72,272.55 420.34,272.49 419.96,272.49L406.4,272.49C406.1,272.49 405.96,272.58 405.87,272.86C405.65,273.51 405.38,274.14 405.12,274.78C405.09,274.86 404.97,274.94 404.89,274.94C403.66,274.95 402.42,274.95 401.19,274.94C401.11,274.94 401,274.9 400.96,274.84C400.45,274.18 399.93,273.51 399.44,272.84C399.24,272.57 399,272.47 398.68,272.47C395.06,272.47 391.44,272.46 387.82,272.46C386.73,272.46 385.63,272.48 384.54,272.47C384.31,272.47 384.27,272.54 384.22,272.77C384.13,273.23 383.97,273.68 383.81,274.13C383.63,274.65 383.62,274.65 383.08,274.65L376.87,274.65C376.96,274.35 377.04,274.09 377.12,273.81C377.04,273.79 376.97,273.77 376.85,273.75C377.01,273.25 377.16,272.76 377.34,272.28C377.52,271.79 377.38,271.86 377.94,271.86C391.53,271.86 405.13,271.85 418.72,271.84C426.68,271.84 434.64,271.83 442.6,271.82L442.98,271.82C442.91,272.03 442.84,272.22 442.78,272.41C442.52,273.19 442.26,273.98 442.01,274.76C441.96,274.92 441.9,275 441.71,275C440.11,275 438.51,275 436.91,274.99C436.78,274.99 436.66,274.97 436.51,274.96L436.49,274.94Z" style="fill:white;"/>
            <path d="M414.34,306.11C414.29,306.2 414.23,306.29 414.19,306.39C413.95,306.97 413.73,307.56 413.48,308.13C413.45,308.2 413.35,308.29 413.27,308.29C412.2,308.3 411.12,308.29 410.01,308.29C411.04,305.65 412.07,303.01 413.1,300.35L416.39,300.35C416.48,301.08 416.57,301.79 416.66,302.49C416.68,302.49 416.71,302.49 416.73,302.5C416.76,302.43 416.81,302.37 416.83,302.3C417.07,301.7 417.3,301.1 417.54,300.51C417.57,300.43 417.67,300.33 417.73,300.33C418.84,300.32 419.95,300.33 421.1,300.33C420.85,300.94 420.61,301.51 420.39,302.09C419.76,303.75 419.14,305.41 418.51,307.08C418.37,307.45 418.23,307.81 418.07,308.17C418.04,308.24 417.94,308.34 417.87,308.34L414.81,308.34C414.79,308.34 414.78,308.33 414.76,308.32C414.66,307.6 414.56,306.87 414.46,306.14C414.41,306.14 414.37,306.14 414.32,306.13L414.34,306.11Z" style="fill:white;"/>
            <path d="M376.04,308.32C375.96,307.8 375.89,307.32 375.82,306.83C375.78,306.83 375.75,306.82 375.71,306.81C375.64,306.98 375.56,307.14 375.49,307.31C375.42,307.5 375.35,307.69 375.28,307.88C375.13,308.3 375.13,308.29 374.67,308.3C373.74,308.3 372.8,308.33 371.87,308.34L371.53,308.34C371.8,307.61 372.06,306.92 372.32,306.24C373.05,304.36 373.79,302.49 374.52,300.61C374.59,300.44 374.68,300.34 374.9,300.34C376.04,300.34 377.18,300.29 378.32,300.32C378.85,300.34 379.4,300.43 379.9,300.61C381.24,301.07 381.46,302.15 381.04,303.31C380.72,304.19 380.02,304.72 379.2,305.08C378.96,305.19 378.96,305.28 379.03,305.49C379.32,306.38 379.6,307.28 379.88,308.18C379.89,308.21 379.89,308.25 379.9,308.31L376.03,308.31L376.04,308.32ZM376.7,303.83C377.23,303.74 377.5,303.42 377.73,303.08C377.77,303.02 377.71,302.8 377.64,302.77C377.47,302.69 377.22,302.52 377.1,302.73C376.92,303.04 376.85,303.41 376.7,303.82L376.7,303.83Z" style="fill:white;"/>
            <path d="M431.03,304.27C430.57,305.53 429.87,306.57 428.76,307.35C427.88,307.96 426.95,308.36 425.89,308.47C425.06,308.56 424.23,308.54 423.44,308.19C422.39,307.72 421.9,306.81 422.04,305.67C422.21,304.38 422.72,303.27 423.63,302.32C424.48,301.43 425.44,300.72 426.67,300.46C427.78,300.23 428.89,300.23 429.91,300.79C431.03,301.41 431.27,302.2 431.17,303.35C431.17,303.41 431.06,303.51 431,303.51L427.59,303.51L427.59,303.12C427.59,302.89 427.47,302.77 427.25,302.86C427.02,302.95 426.79,303.08 426.62,303.25C426.12,303.75 425.88,304.39 425.69,305.06C425.63,305.26 425.58,305.46 425.56,305.66C425.53,305.92 425.64,306.02 425.91,305.98C426.02,305.97 426.14,305.95 426.24,305.92C426.31,305.9 426.37,305.83 426.49,305.75C426.32,305.72 426.23,305.7 426.12,305.67C426.29,305.24 426.44,304.82 426.62,304.41C426.65,304.34 426.77,304.27 426.85,304.27L431.03,304.27Z" style="fill:white;"/>
            <path d="M382.01,308.21C382.57,307.36 383.13,306.5 383.69,305.65C384.73,304.09 385.81,302.55 386.82,300.97C387.14,300.47 387.47,300.29 388.07,300.32C389.14,300.38 390.22,300.34 391.31,300.34C391.17,303.01 391.04,305.65 390.9,308.3L387.3,308.3C387.34,307.98 387.39,307.67 387.43,307.36L386.28,307.36C386.23,307.36 386.17,307.41 386.13,307.46C386.09,307.5 386.06,307.55 386.04,307.6C385.83,308.24 385.39,308.42 384.74,308.37C383.85,308.29 382.95,308.31 382.06,308.29C382.04,308.26 382.02,308.23 382.01,308.2L382.01,308.21ZM387.24,305.09C387.24,305.09 387.3,305.15 387.32,305.17C387.42,305.17 387.52,305.17 387.62,305.15C387.73,305.12 387.91,305.08 387.92,305.02C388.02,304.6 388.09,304.18 388.16,303.76C388.14,303.76 388.13,303.75 388.11,303.74C387.82,304.19 387.53,304.64 387.24,305.09Z" style="fill:white;"/>
            <path d="M398.48,303.52L398.48,302.92C398.48,302.74 398.37,302.66 398.23,302.75C397.99,302.89 397.72,303.04 397.54,303.25C397.09,303.79 396.81,304.43 396.66,305.12C396.58,305.49 396.68,305.76 396.9,305.89C397.2,306.06 397.81,306.01 398.03,305.78C398.17,305.62 398.26,305.43 398.39,305.25C398.44,305.18 398.52,305.09 398.58,305.09C399.64,305.08 400.71,305.09 401.86,305.09C401.54,305.57 401.28,306.05 400.95,306.46C399.66,308.07 397.93,308.61 395.93,308.41C394.81,308.3 393.93,307.79 393.42,306.74C393.05,305.98 393.15,305.2 393.35,304.42C393.58,303.52 394.04,302.76 394.7,302.11C395.62,301.2 396.68,300.55 397.99,300.36C398.76,300.25 399.52,300.25 400.26,300.5C401.34,300.87 401.93,301.62 401.97,302.83C401.99,303.53 401.99,303.54 401.28,303.54C400.39,303.54 399.5,303.54 398.61,303.55C398.58,303.55 398.56,303.54 398.48,303.52Z" style="fill:white;"/>
            <path d="M420.45,290.65C420.13,291.48 419.84,292.27 419.52,293.05C419.15,293.94 419.39,293.76 418.45,293.76L406.72,293.76C406.86,293.37 406.97,293.02 407.11,292.67C407.33,292.09 407.57,291.51 407.77,290.93C407.84,290.72 407.94,290.64 408.17,290.64C409.82,290.65 411.48,290.65 413.13,290.66L420.45,290.66L420.45,290.65Z" style="fill:white;"/>
            <path d="M409.51,300.34C409.3,300.84 409.08,301.31 408.9,301.79C408.53,302.79 408.18,303.8 407.8,304.8C407.38,305.92 406.95,307.03 406.51,308.14C406.48,308.22 406.37,308.32 406.29,308.32C405.16,308.33 404.03,308.32 402.82,308.32C403.06,307.61 403.26,306.98 403.49,306.36C404.23,304.43 404.99,302.5 405.73,300.57C405.81,300.36 405.91,300.31 406.11,300.32C407.22,300.33 408.34,300.32 409.5,300.32L409.51,300.34Z" style="fill:white;"/>
            <path d="M408.51,289.09C408.75,288.47 408.96,287.9 409.19,287.32C409.21,287.27 409.31,287.21 409.38,287.21C409.61,287.19 409.85,287.2 410.08,287.2C413.42,287.18 416.76,287.16 420.09,287.15C420.47,287.15 420.78,287.06 421.04,286.78C421.27,286.53 421.52,286.31 421.78,286.1C421.89,286.02 422.05,286 422.19,285.96C422.22,285.99 422.24,286.01 422.27,286.04C421.89,286.98 421.5,287.92 421.15,288.87C421.06,289.1 420.93,289.1 420.75,289.1L408.51,289.1L408.51,289.09Z" style="fill:white;"/>
            <path d="M436.79,290.65C436.47,291.66 436.15,292.64 435.82,293.63C435.8,293.7 435.69,293.79 435.62,293.79L429.14,293.79C429.11,293.79 429.09,293.78 429.03,293.76C429.23,293.25 429.43,292.74 429.64,292.23C429.83,291.77 430.01,291.3 430.22,290.84C430.26,290.75 430.39,290.65 430.48,290.65C432.57,290.63 434.65,290.63 436.74,290.63C436.76,290.63 436.77,290.64 436.79,290.65Z" style="fill:white;"/>
            <path d="M430.86,289.1C431.29,288.06 431.69,287.07 432.1,286.09C432.12,286.04 432.22,285.99 432.29,285.98C432.49,285.96 432.68,285.96 432.88,285.96L438.41,285.96C438.35,286.14 438.31,286.28 438.26,286.43C437.99,287.26 437.71,288.08 437.45,288.91C437.4,289.06 437.35,289.14 437.17,289.14C435.18,289.13 433.19,289.14 431.19,289.13C431.1,289.13 431.01,289.12 430.86,289.1Z" style="fill:white;"/>
            <path d="M432.69,284.5C433.11,283.48 433.51,282.5 433.92,281.53C433.95,281.45 434.1,281.38 434.2,281.38C434.8,281.36 435.4,281.36 435.99,281.36L439.97,281.36C439.93,281.48 439.9,281.58 439.86,281.68C439.57,282.55 439.29,283.42 439,284.29C438.96,284.43 438.92,284.53 438.73,284.53C436.81,284.52 434.88,284.52 432.96,284.52C432.89,284.52 432.81,284.51 432.69,284.5Z" style="fill:white;"/>
            <path d="M375.38,279.4C375.47,279.1 375.56,278.81 375.66,278.49L375.37,278.49C375.57,277.86 375.77,277.24 375.98,276.62L382.78,276.62C382.74,276.8 382.73,276.97 382.67,277.13C382.42,277.82 382.16,278.51 381.91,279.2C381.86,279.35 381.79,279.42 381.61,279.42L375.5,279.42C375.46,279.42 375.43,279.42 375.38,279.41L375.38,279.4Z" style="fill:white;"/>
            <path d="M441.47,276.59C441.14,277.61 440.82,278.62 440.48,279.62C440.46,279.68 440.37,279.75 440.31,279.75C438.45,279.75 436.59,279.75 434.73,279.74C434.7,279.74 434.66,279.72 434.6,279.71C434.84,279.11 435.07,278.52 435.3,277.94C435.46,277.55 435.61,277.16 435.79,276.79C435.83,276.7 435.96,276.6 436.05,276.6C437.85,276.59 439.66,276.6 441.47,276.6L441.47,276.59Z" style="fill:white;"/>
            <path d="M373.86,284.17C373.96,283.86 374.05,283.57 374.15,283.25C374.04,283.27 373.96,283.28 373.85,283.29C374.06,282.64 374.27,282.02 374.47,281.4L381.06,281.4C380.83,282.05 380.62,282.65 380.4,283.26C380.33,283.44 380.24,283.62 380.2,283.81C380.13,284.1 379.98,284.19 379.67,284.19C377.82,284.17 375.97,284.19 374.11,284.19C374.04,284.19 373.97,284.19 373.87,284.18L373.86,284.17Z" style="fill:white;"/>
            <path d="M379.35,285.99C379.1,286.68 378.87,287.33 378.63,287.97C378.53,288.24 378.49,288.61 378.29,288.74C378.09,288.88 377.73,288.79 377.44,288.79L372.3,288.79C372.39,288.49 372.47,288.23 372.56,287.94C372.48,287.92 372.4,287.9 372.29,287.87C372.49,287.28 372.68,286.7 372.88,286.13C372.9,286.07 373.01,286 373.08,286L379.33,286L379.35,285.99Z" style="fill:white;"/>
            <path d="M370.74,293.45C370.68,293.13 371.12,292.84 370.72,292.48C370.91,291.91 371.12,291.29 371.31,290.7L377.52,290.7C377.48,290.89 377.48,291.04 377.43,291.17C377.17,291.88 376.9,292.58 376.65,293.29C376.6,293.43 376.53,293.47 376.39,293.47L370.83,293.47C370.8,293.47 370.78,293.47 370.74,293.46L370.74,293.45Z" style="fill:white;"/>
            <path d="M386.33,290.64L389.67,290.64C389.73,290.64 389.83,290.68 389.86,290.72C390.51,291.71 391.15,292.71 391.82,293.73L385.17,293.73C385.44,292.65 385.9,291.66 386.33,290.63L386.33,290.64Z" style="fill:white;"/>
            <path d="M396.03,287.16L398.7,287.16C398.94,287.16 399.13,287.1 399.3,286.92C399.53,286.68 399.79,286.46 400,286.2C400.16,286 400.32,285.91 400.57,285.94C400.7,285.96 400.83,285.94 401,285.94C400.9,286.19 400.81,286.42 400.72,286.65C400.43,287.4 400.15,288.16 399.84,288.91C399.81,288.99 399.67,289.08 399.58,289.09C398.87,289.11 398.16,289.09 397.45,289.1C397.13,289.1 397.06,288.83 396.94,288.65C396.63,288.19 396.36,287.7 396.03,287.16Z" style="fill:white;"/>
            <path d="M404.51,276.58C404.34,277.02 404.19,277.42 404.03,277.82C403.81,278.38 403.59,278.94 403.38,279.51C403.24,279.87 402.94,279.69 402.71,279.72C402.48,279.74 402.53,279.54 402.52,279.42C402.42,278.45 402.2,277.5 401.81,276.58L404.51,276.58Z" style="fill:white;"/>
            <path d="M425.93,276.63C425.58,277.54 425.25,278.43 424.9,279.3C424.72,279.76 424.7,279.76 424.22,279.7C423.98,278.67 423.75,277.65 423.52,276.62L425.93,276.62L425.93,276.63Z" style="fill:white;"/>
            <path d="M387.6,287.25C388.01,287.89 388.37,288.46 388.76,289.07L387.01,289.07C387.04,288.42 387.38,287.9 387.6,287.25Z" style="fill:white;"/>
            <path d="M399.24,290.64C399.1,291 398.96,291.34 398.81,291.73C398.57,291.36 398.36,291.02 398.12,290.64L399.24,290.64Z" style="fill:white;"/>
            <path d="M401.41,284.5C401.73,283.59 402.04,282.71 402.34,281.83C402.37,281.75 402.38,281.66 402.38,281.58C402.38,281.35 402.49,281.31 402.72,281.37C402.62,281.64 402.51,281.9 402.41,282.16C402.12,282.89 401.84,283.63 401.55,284.36C401.53,284.41 401.46,284.45 401.42,284.49L401.41,284.5Z" style="fill:white;"/>
        </g>
    </g>
</svg>
