<?xml version="1.0" encoding="UTF-8" standalone="no"?>
<!DOCTYPE svg PUBLIC "-//W3C//DTD SVG 1.1//EN" "http://www.w3.org/Graphics/SVG/1.1/DTD/svg11.dtd">
<svg width="100%" height="100%" viewBox="0 0 221 24" version="1.1" xmlns="http://www.w3.org/2000/svg" xmlns:xlink="http://www.w3.org/1999/xlink" xml:space="preserve" xmlns:serif="http://www.serif.com/" style="fill-rule:evenodd;clip-rule:evenodd;stroke-linejoin:round;stroke-miterlimit:2;">
    <g transform="matrix(1,0,0,1,-39.04,-217.605)">
        <g>
            <path d="M75.92,217.62C76.83,217.6 77.77,217.6 78.69,217.62C83.48,217.73 88.87,218.25 89.17,224.23C89.35,227.98 87.01,235.75 84.06,238.23C81.86,240.07 78.47,240.56 75.7,240.69L75.49,240.78C73.37,240.68 71.12,240.91 69,240.78C66.93,240.65 63.96,240.16 62.42,238.65C58.79,235.07 62.01,225.59 64.56,221.96C67.24,218.17 71.6,217.72 75.92,217.61M74.95,224.91C73.02,225.14 72.16,226.77 71.53,228.41C70.27,231.64 69.64,235.27 74.41,234.91C76.8,234.74 77.62,233.1 78.35,231.07C79.6,227.57 79.72,224.34 74.95,224.91" style="fill:white;fill-rule:nonzero;"/>
            <path d="M128.46,217.62C129.37,217.6 130.31,217.6 131.23,217.62C135.98,217.73 141.35,218.23 141.71,224.14C141.93,227.94 139.56,235.73 136.6,238.23C134.41,240.07 131.09,240.54 128.32,240.69L128.11,240.78C125.95,240.67 123.67,240.91 121.53,240.78C119.22,240.63 116.14,240.14 114.6,238.23C111.64,234.55 114.48,225.96 116.81,222.38C119.53,218.22 123.82,217.73 128.45,217.62M127.49,224.91C125.62,225.13 124.82,226.6 124.18,228.17C122.85,231.39 122.05,235.27 126.95,234.91C129.24,234.75 130.06,233.29 130.8,231.32C132.13,227.83 132.41,224.32 127.49,224.91" style="fill:white;fill-rule:nonzero;"/>
            <path d="M245.77,217.62C246.77,217.6 247.79,217.6 248.8,217.62C251.24,217.65 253.7,217.74 256.12,217.97C257.38,218.09 258.62,218.31 259.88,218.4L259.88,218.62L257.98,225.2C256.09,225.04 254.2,224.74 252.31,224.62C250.66,224.52 246.47,224.3 245.12,225.05C244.18,225.57 244.21,226.69 245.35,226.98C248.21,227.75 253.83,226.21 255.76,228.86C257.46,231.21 256.14,236.13 254.34,238.14C252.55,240.15 249.75,240.55 247.19,240.68L246.98,240.77C244.74,240.71 242.47,240.85 240.23,240.77C238.72,240.72 237.04,240.58 235.51,240.42C233.93,240.27 232.35,240.02 230.79,239.73L232.18,234.21C234.6,234.56 237.05,234.71 239.5,234.81C240.89,234.86 244.26,235.2 245.37,234.45C246.22,233.88 246.14,232.8 245.1,232.51C241.96,231.6 236.3,233.46 234.37,229.92C233.4,228.14 234.07,224.81 234.86,223.01C237.01,218.13 240.97,217.74 245.78,217.63" style="fill:white;fill-rule:nonzero;"/>
            <path d="M178.16,240.18L184.13,218.27L203.14,218.23C208.1,218.09 208.08,223.88 206.69,227.22C205.3,230.54 202.13,231.39 198.77,231.2L205,240.19L194,240.19C192.51,237.64 191.05,235.04 189.42,232.58L187.51,240.19L178.17,240.19L178.16,240.18ZM190.62,228.94L195.16,228.94C195.42,228.94 196.23,228.66 196.48,228.53C198.04,227.68 198.78,224.6 196.37,224.37C194.93,224.22 193.27,224.48 191.79,224.37L190.61,228.95L190.62,228.94Z" style="fill:white;fill-rule:nonzero;"/>
            <path d="M234.34,218.23L232.53,225.1L219.42,225.13L218.84,227.56L231.92,227.56L230.69,232.3L217.6,232.3C217.45,232.34 217.1,234.02 217.02,234.3L230.09,234.3L228.58,240.17L205.94,240.17L211.57,218.23L234.34,218.23Z" style="fill:white;fill-rule:nonzero;"/>
            <path d="M171.58,218.23L169.59,225.45L163.35,225.49L159.63,240.17L150.02,240.17L153.83,225.49L147.6,225.49L149.63,218.23L171.58,218.23Z" style="fill:white;fill-rule:nonzero;"/>
            <path d="M182.48,218.23L176.51,240.17L167.25,240.17L173.05,218.23L182.48,218.23Z" style="fill:white;fill-rule:nonzero;"/>
            <path d="M99.9,218.23L101.15,227.91C102.97,224.66 104.99,221.51 106.74,218.23L117.65,218.23C117.44,218.7 117.07,219.14 116.77,219.56C111.78,226.47 106.71,233.31 101.68,240.18L90.47,240.18L94,235.37L94.11,235.04L89.6,218.23L99.91,218.23L99.9,218.23Z" style="fill:white;fill-rule:nonzero;"/>
            <path d="M62.93,218.23L61.02,225.48L54.78,225.54L50.99,240.17L41.37,240.17L45.18,225.49L39.04,225.49L40.94,218.23L62.93,218.23Z" style="fill:white;fill-rule:nonzero;"/>
        </g>
    </g>
</svg>
